<?xml version="1.0" encoding="UTF-8" standalone="no"?>
<!DOCTYPE svg PUBLIC "-//W3C//DTD SVG 1.1//EN" "http://www.w3.org/Graphics/SVG/1.1/DTD/svg11.dtd">
<svg width="100%" height="100%" viewBox="0 0 2975 1373" version="1.1" xmlns="http://www.w3.org/2000/svg" xmlns:xlink="http://www.w3.org/1999/xlink" xml:space="preserve" xmlns:serif="http://www.serif.com/" style="fill-rule:evenodd;clip-rule:evenodd;stroke-linejoin:round;stroke-miterlimit:2;">
    <g transform="matrix(1,0,0,1,-120.928,-299.597)">
        <path d="M3058.62,1305.45C3058.51,1311.56 3058.31,1317.63 3058.03,1323.64C3057.76,1329.62 3057.43,1335.54 3057.01,1341.41C3054.67,1374.8 3050.09,1406.79 3044.17,1436.8C3043.86,1438.37 3043.55,1439.94 3043.22,1441.49L3043.06,1442.38C3042.19,1446.58 3041.32,1450.76 3040.4,1454.89C3039.91,1457.1 3039.41,1459.3 3038.91,1461.49C3037.73,1466.65 3036.52,1471.75 3035.28,1476.77C3034.94,1478.08 3034.62,1479.39 3034.29,1480.69C3029.57,1499.37 3003.56,1573.56 3003.56,1573.56C2994.46,1597.75 2985.59,1617.56 2978.52,1632.7C2971.3,1648.15 2966.02,1659.17 2963.47,1664.42C2962.66,1666.12 2962.16,1671.83 2962.16,1671.83C2962.16,1671.83 327.6,1672.23 327.46,1672.14C190.51,1567.67 245.49,1363.89 416.24,1212.85C544.18,1099.67 646.44,1070.12 579.27,832.66C560.31,765.54 564.82,705.08 583.64,651.52C643.23,481.84 846.31,381.52 900.2,359.1C905.45,356.93 910.77,354.8 916.15,352.75C935.06,345.53 954.75,339.11 975.06,333.46C986.59,330.23 998.32,327.27 1010.23,324.54C1017.4,322.89 1024.64,321.35 1031.93,319.89C1069.25,312.34 1108.07,307.04 1147.62,303.74C1152.63,303.32 1157.64,302.94 1162.67,302.59C1170.38,302.06 1178.12,301.59 1185.87,301.2C1196.26,300.68 1206.67,300.27 1217.09,300.01C1219.16,299.96 1221.22,299.91 1223.28,299.88C1230.88,299.71 1238.5,299.63 1246.1,299.61C1247.96,299.6 1249.82,299.6 1251.67,299.6C1260.57,299.61 1269.45,299.7 1278.33,299.89C1293.11,300.2 1307.88,300.76 1322.59,301.54C1323.83,301.59 1325.07,301.67 1326.31,301.74C1335.83,302.27 1345.3,302.9 1354.74,303.64C1357.68,303.86 1360.6,304.09 1363.53,304.33C1419.83,309.01 1474.69,317.01 1525.77,327.72C1530.56,328.73 1535.3,329.75 1539.99,330.82L1540,330.82C1566.44,336.76 1591.36,343.53 1614.91,350.98C1627.75,355.05 1640.18,359.31 1652.21,363.76C1652.22,363.78 1652.22,363.78 1652.23,363.78C1652.26,363.79 1652.29,363.8 1652.34,363.81C1652.47,363.86 1652.6,363.9 1652.73,363.96C1669.87,370.31 1686.21,377.04 1701.81,384.07C1704.26,385.17 1706.68,386.28 1709.09,387.4C1771.84,416.51 1822.39,450.67 1864.67,485.82C1877.27,496.3 1889.13,506.85 1900.37,517.4C1901.93,518.84 1903.46,520.31 1904.98,521.76C1908.45,525.04 1911.86,528.34 1915.19,531.62C1916.75,533.14 1918.27,534.65 1919.8,536.19C1929.69,546.03 1939.08,555.8 1948.07,565.43C1952.61,570.29 1957.04,575.09 1961.38,579.85C1985.14,605.97 2006.07,630.5 2025.97,651.52C2028.49,654.18 2030.98,656.78 2033.48,659.32C2038.53,664.49 2043.53,669.41 2048.51,674.05C2070.04,694.14 2091.2,709.02 2114.46,716.1C2117.64,717.08 2120.87,717.89 2124.14,718.57C2128.79,719.52 2133.52,720.17 2138.36,720.48C2162.79,722.07 2191.24,717.96 2223.29,711.74C2226.44,711.13 2229.64,710.49 2232.87,709.84C2274.78,701.36 2322.5,689.99 2375.03,683.2C2381.73,682.33 2388.5,681.54 2395.35,680.84C2397.88,680.57 2400.42,680.33 2402.96,680.09C2463.14,674.55 2529.03,676.24 2599.34,695.39C2606.78,697.42 2614.28,699.63 2621.83,702.07C2640.49,708.1 2659.46,715.39 2678.7,724.14C2681.9,725.6 2685.09,727.1 2688.29,728.62C2702.96,735.64 2717.79,743.51 2732.75,752.33C2735.86,754.15 2738.96,756.02 2742.07,757.93C2757.32,767.27 2772.73,777.59 2788.25,789C2788.62,789.29 2789.01,789.57 2789.39,789.85C2796.09,794.78 2802.84,799.92 2809.59,805.28C2817.47,811.52 2825.39,818.04 2833.34,824.88C2852.63,841.4 2872.11,859.67 2891.75,879.81C2905.94,894.36 2919.05,909.11 2931.1,924.03C2939.39,934.28 2947.18,944.59 2954.5,954.98C2955.84,956.84 2957.14,958.69 2958.43,960.58C2970.97,978.8 2982.16,997.24 2992.03,1015.79C2993.27,1018.1 2994.48,1020.41 2995.65,1022.71C3008.83,1048.31 3019.61,1074.08 3028.27,1099.87C3029,1102.03 3029.7,1104.19 3030.39,1106.33C3031.13,1108.61 3031.85,1110.88 3032.55,1113.16C3032.99,1114.57 3033.42,1115.99 3033.84,1117.4C3035.62,1123.28 3037.28,1129.15 3038.84,1135.01C3039.37,1137.01 3039.89,1139.01 3040.4,1141.01C3041.46,1145.17 3042.46,1149.32 3043.4,1153.48C3043.53,1154.02 3043.65,1154.56 3043.77,1155.1C3044.57,1158.5 3045.3,1161.89 3046.01,1165.29C3047.6,1172.95 3049.02,1180.6 3050.29,1188.21C3056.99,1228.2 3059.36,1267.54 3058.62,1305.45Z" style="fill:rgb(252,236,219);fill-rule:nonzero;"/>
        <path d="M2114.46,716.105L2114.46,1137.63L1147.62,1137.63L1147.62,303.741C1152.63,303.323 1157.64,302.94 1162.67,302.592C1170.38,302.058 1178.12,301.593 1185.87,301.199C1196.26,300.676 1206.67,300.27 1217.09,300.015C1219.16,299.957 1221.21,299.91 1223.28,299.875C1230.88,299.713 1238.5,299.632 1246.1,299.608C1247.96,299.597 1249.82,299.597 1251.67,299.597C1260.57,299.608 1269.45,299.701 1278.33,299.887C1293.11,300.2 1307.88,300.758 1322.59,301.535C1323.83,301.593 1325.07,301.675 1326.31,301.744C1335.83,302.267 1345.3,302.905 1354.74,303.636C1357.68,303.857 1360.6,304.089 1363.53,304.333C1419.83,309.011 1474.69,317.008 1525.77,327.722C1530.56,328.732 1535.3,329.753 1539.99,330.821L1540,330.821C1566.44,336.765 1591.36,343.532 1614.91,350.984C1627.75,355.047 1640.18,359.307 1652.21,363.764C1652.22,363.776 1652.22,363.776 1652.23,363.776C1652.26,363.788 1652.29,363.799 1652.34,363.811C1652.46,363.857 1652.6,363.903 1652.73,363.961C1669.87,370.311 1686.21,377.043 1701.81,384.066C1704.26,385.169 1706.68,386.283 1709.09,387.397C1771.84,416.51 1822.39,450.671 1864.67,485.819C1877.27,496.301 1889.13,506.853 1900.37,517.404C1901.93,518.843 1903.46,520.306 1904.98,521.757C1908.45,525.042 1911.86,528.338 1915.19,531.624C1916.75,533.144 1918.27,534.653 1919.8,536.186C1929.69,546.028 1939.08,555.802 1948.07,565.425C1952.61,570.289 1957.04,575.094 1961.38,579.854C1985.14,605.971 2006.07,630.498 2025.97,651.52C2028.49,654.178 2030.98,656.778 2033.48,659.32C2038.53,664.485 2043.53,669.407 2048.51,674.05C2070.04,694.143 2091.2,709.024 2114.46,716.105Z" style="fill:rgb(248,251,255);fill-rule:nonzero;"/>
        <path d="M1223.28,299.875L1223.28,1115.17L1147.62,1115.17L1147.62,303.741C1152.63,303.323 1157.64,302.94 1162.67,302.592C1170.38,302.058 1178.12,301.593 1185.87,301.199C1196.26,300.676 1206.67,300.27 1217.09,300.015C1219.16,299.957 1221.21,299.91 1223.28,299.875Z" style="fill:rgb(249,221,191);fill-rule:nonzero;"/>
        <path d="M2124.14,718.565L2124.14,1115.17L2048.51,1115.17L2048.51,674.05C2070.04,694.143 2091.2,709.024 2114.46,716.105C2117.64,717.08 2120.87,717.893 2124.14,718.565Z" style="fill:rgb(249,221,191);fill-rule:nonzero;"/>
        <path d="M2048.51,674.05L2048.51,804.532C2048.51,804.532 1828.97,766.204 1799.46,622.338C1775.62,506.005 1729.51,477.613 1652.73,426.341C1640.87,418.448 1628.29,409.975 1614.91,400.526C1607.81,395.546 1600.5,390.276 1592.98,384.67C1570.43,367.885 1553.18,349.499 1540,330.821C1566.44,336.765 1591.36,343.532 1614.91,350.984C1627.75,355.047 1640.18,359.307 1652.21,363.764C1652.22,363.776 1652.22,363.776 1652.23,363.776C1652.26,363.788 1652.29,363.799 1652.34,363.811C1652.46,363.857 1652.6,363.903 1652.73,363.961C1669.87,370.311 1686.21,377.043 1701.81,384.066C1704.26,385.169 1706.68,386.283 1709.09,387.397C1771.84,416.51 1822.39,450.671 1864.67,485.819C1877.27,496.301 1889.13,506.853 1900.37,517.404C1901.93,518.843 1903.46,520.306 1904.98,521.757C1908.45,525.042 1911.86,528.338 1915.19,531.624C1916.75,533.144 1918.27,534.653 1919.8,536.186C1929.69,546.028 1939.08,555.802 1948.07,565.425C1952.61,570.289 1957.04,575.094 1961.38,579.854C1985.14,605.971 2006.07,630.498 2025.97,651.52C2028.49,654.178 2030.98,656.778 2033.48,659.32C2038.53,664.485 2043.53,669.407 2048.51,674.05Z" style="fill:rgb(168,210,159);fill-rule:nonzero;"/>
        <path d="M2187.1,1154.05L1065.08,1154.05C1064.93,1154.05 1064.81,1153.93 1064.81,1153.78C1064.81,1124.1 1088.87,1100.04 1118.55,1100.04L2133.63,1100.04C2163.31,1100.04 2187.37,1124.1 2187.37,1153.78C2187.37,1153.93 2187.25,1154.05 2187.1,1154.05Z" style="fill:rgb(249,221,191);fill-rule:nonzero;"/>
        <path d="M1223.28,619.575C1223.28,619.575 1368.33,668.36 1377.4,844.793C1386.48,1021.23 1558.94,911.082 1570.29,1100.04L1223.28,1100.04L1223.28,619.575Z" style="fill:rgb(168,210,159);fill-rule:nonzero;"/>
        <path d="M1652.73,363.961L1652.73,1115.17L1614.91,1115.17L1614.91,350.984C1627.75,355.047 1640.18,359.307 1652.21,363.764C1652.22,363.776 1652.22,363.776 1652.23,363.776C1652.26,363.788 1652.29,363.799 1652.34,363.811C1652.46,363.857 1652.6,363.903 1652.73,363.961Z" style="fill:rgb(249,221,191);fill-rule:nonzero;"/>
        <path d="M2618.32,812.298L2621.04,1019.41L2629.3,1649.24C2629.42,1658.27 2622.13,1665.64 2613.11,1665.61L2611.7,1665.61C2602.11,1665.58 2594.4,1657.73 2594.54,1648.15L2604.22,982.17L2606.7,812.265L2618.32,812.298Z" style="fill:rgb(232,198,167);fill-rule:nonzero;"/>
        <path d="M2724.96,1667.68L2498.78,1667.05C2498.85,1639.03 2521.63,1616.38 2549.65,1616.46L2676.17,1616.81C2703.19,1616.88 2725.04,1638.85 2724.97,1665.88L2724.96,1667.68Z" style="fill:rgb(89,157,173);fill-rule:nonzero;"/>
        <path d="M2618.32,812.298L2621.04,1019.41C2612.57,997.384 2604.22,982.17 2604.22,982.17L2606.7,812.265L2618.32,812.298Z" style="fill:rgb(196,142,106);fill-rule:nonzero;"/>
        <path d="M2757.44,936.844L2473.17,936.058C2459.94,936.021 2450.13,923.77 2452.99,910.85L2461.76,871.131L2514.56,632.164C2517.32,619.689 2528.39,610.819 2541.17,610.854L2682.17,611.245L2701.8,611.297C2711,611.322 2718.89,617.857 2720.64,626.891L2776.02,914.407C2778.27,926.066 2769.32,936.877 2757.44,936.844Z" style="fill:rgb(107,183,191);fill-rule:nonzero;"/>
        <path d="M2758.93,936.848L2467.2,936.042C2457.04,936.013 2449.5,926.603 2451.7,916.68L2461.76,871.131C2639.2,799.159 2674.97,660.653 2682.17,611.245L2701.31,611.296C2710.8,611.321 2718.93,618.058 2720.73,627.37L2776.3,915.863C2778.4,926.768 2770.03,936.879 2758.93,936.848Z" style="fill:rgb(89,157,173);fill-rule:nonzero;"/>
        <path d="M2743.44,1372.46C2743.44,1372.46 2799.57,1143.79 2803.62,1124.57C2805.42,1116.01 2810.99,1112.91 2816.59,1112.12C2806.73,1111.11 2799.55,1111.03 2799.55,1111.03C2780.13,1111.03 2762.87,1124.93 2756.64,1145.59C2743.04,1190.65 2690.37,1266.08 2665.01,1350.71C2666.29,1350.68 2743.44,1372.46 2743.44,1372.46Z" style="fill:rgb(249,151,70);fill-rule:nonzero;"/>
        <path d="M2411.75,1574.69C2420.71,1632.05 2479.24,1668.58 2539.28,1668.58L2658.2,1668.58L2649.83,1338.4C2649.83,1338.4 2535.43,1297.83 2506.94,1332.47C2481.97,1362.82 2414.27,1482.96 2410.71,1554.07C2410.35,1561.2 2410.72,1568.09 2411.75,1574.69Z" style="fill:rgb(249,151,70);fill-rule:nonzero;"/>
        <path d="M2727.43,1369.65C2727.43,1369.65 2567.01,1287.77 2536.62,1341.25C2520.49,1369.66 2476.09,1482.96 2472.82,1554.06C2469.63,1623.15 2529.49,1668.58 2591.06,1668.58L2700.42,1668.58L2727.43,1369.65Z" style="fill:rgb(219,111,38);fill-rule:nonzero;"/>
        <path d="M3038.84,1135.01C3026.92,1176.89 2995.44,1286.44 2969.79,1366.47C2953.53,1417.17 2939.61,1456.03 2934.49,1458.31C2929.31,1460.63 2901.11,1459.81 2865.86,1456.56C2840.41,1454.23 2811.28,1450.63 2784.47,1446.02C2769.04,1443.38 2754.38,1440.4 2741.63,1437.15C2738.2,1436.26 2734.9,1435.37 2731.77,1434.45C2731.47,1434.37 2731.18,1434.28 2730.88,1434.19C2727.69,1433.25 2724.68,1432.28 2721.86,1431.29C2707.63,1426.33 2698.4,1420.87 2697.27,1415.06C2696.25,1409.79 2698.74,1397.3 2703.54,1380.32C2704.85,1375.66 2706.34,1370.66 2707.98,1365.38C2708.25,1364.5 2708.53,1363.61 2708.82,1362.72C2708.99,1362.16 2709.16,1361.6 2709.35,1361.04C2714.27,1345.44 2720.38,1327.63 2727.04,1308.98C2727.88,1306.65 2728.72,1304.3 2729.57,1301.95C2732.58,1293.61 2735.68,1285.14 2738.83,1276.65C2751.05,1243.7 2763.93,1210.51 2774.42,1183.92C2785.04,1157.02 2787.88,1132.68 2799.34,1120.36C2803.34,1116.06 2808.39,1113.22 2815.19,1112.25C2815.58,1112.19 2815.98,1112.14 2816.39,1112.1C2817.72,1111.96 2819.12,1111.89 2820.59,1111.88C2836.3,1111.83 2858.5,1112.19 2882.86,1112.74C2933.8,1113.92 2994.18,1115.98 3024.43,1117.06L3024.44,1117.06C3028.02,1117.19 3031.17,1117.3 3033.84,1117.4C3035.62,1123.28 3037.28,1129.15 3038.84,1135.01Z" style="fill:rgb(255,169,105);fill-rule:nonzero;"/>
        <path d="M2411.75,1574.69C2420.71,1632.05 2479.24,1668.58 2539.28,1668.58L2597.61,1668.58C2558.71,1642.22 2523.54,1560.97 2411.75,1574.69Z" style="fill:rgb(219,111,38);fill-rule:nonzero;"/>
        <path d="M2505.39,1617.21C2528.35,1649.11 2563.56,1669.55 2602.78,1668.91L2771.39,1669L2852.18,1669.04L2761.29,1369.69C2761.29,1369.69 2531.24,1346.8 2502.87,1377.33C2489.7,1391.49 2482.31,1455.66 2478.17,1520.35C2475.83,1556.82 2486.44,1590.91 2505.39,1617.21Z" style="fill:rgb(255,169,105);fill-rule:nonzero;"/>
        <path d="M2505.39,1617.21C2528.35,1649.11 2563.56,1669.55 2602.78,1668.91L2771.39,1669C2751.55,1652.34 2689.15,1605.08 2622.34,1607.32C2571.69,1609.01 2531.48,1608.29 2505.39,1617.21Z" style="fill:rgb(249,151,70);fill-rule:nonzero;"/>
        <path d="M2645.12,1577.69C2654.77,1633.33 2707.68,1668.58 2761.92,1668.58L2871.28,1668.58L2862.73,1334.25C2862.73,1334.25 2758.39,1297.83 2732.18,1332.47C2709.22,1362.82 2646.96,1482.96 2643.68,1554.07C2643.3,1562.29 2643.81,1570.18 2645.12,1577.69Z" style="fill:rgb(249,151,70);fill-rule:nonzero;"/>
        <path d="M2645.12,1577.69C2654.77,1633.33 2707.68,1668.58 2761.92,1668.58L2849.44,1668.58C2808.47,1640.82 2753.32,1564.11 2645.12,1577.69Z" style="fill:rgb(219,111,38);fill-rule:nonzero;"/>
        <path d="M3050.29,1188.21C3049.02,1180.6 3047.6,1172.95 3046.01,1165.29C3045.3,1161.89 3044.57,1158.5 3043.77,1155.1C3043.65,1154.56 3043.53,1154.02 3043.4,1153.48C3042.46,1149.32 3041.46,1145.17 3040.4,1141.01C3039.89,1139.01 3039.37,1137.01 3038.84,1135.01C3037.28,1129.15 3035.62,1123.28 3033.84,1117.4C3033.42,1115.99 3032.99,1114.57 3032.55,1113.16C3031.86,1113.4 3031.18,1113.66 3030.51,1113.94C3029.99,1114.16 3029.46,1114.38 3028.94,1114.62C3027.4,1115.34 3025.9,1116.15 3024.44,1117.06L3024.43,1117.06C3023.82,1117.43 3023.22,1117.82 3022.63,1118.23C3022.08,1118.61 3021.53,1119 3020.99,1119.41C3012.9,1125.52 3006.56,1134.55 3003.28,1145.45C2990.58,1187.65 2967.92,1263.07 2944.34,1341.97C2944.23,1342.36 2944.1,1342.76 2943.98,1343.15C2942.64,1347.69 2941.28,1352.23 2939.92,1356.78C2939.78,1357.25 2939.64,1357.71 2939.5,1358.16L2939.3,1358.86C2937.96,1358.27 2936.59,1357.65 2935.16,1357.02C2935.12,1356.99 2935.07,1356.98 2935.01,1356.96C2929.36,1354.45 2922.96,1351.71 2916.06,1348.91C2912.47,1347.46 2908.77,1345.99 2904.94,1344.52C2894.14,1340.39 2882.5,1336.29 2870.69,1332.78C2865.45,1331.21 2860.18,1329.75 2854.93,1328.46C2848.2,1326.79 2841.51,1325.37 2835,1324.33C2834.78,1324.28 2834.59,1324.26 2834.43,1324.23C2833.67,1324.11 2832.9,1323.99 2832.13,1323.88C2827.56,1323.21 2823.07,1322.72 2818.73,1322.46L2818.67,1322.46C2796.45,1321.1 2778.04,1325.53 2769.6,1340.4C2766.14,1346.51 2761.4,1356.51 2756.02,1369.19C2748.52,1386.89 2739.81,1409.79 2731.77,1434.45C2726.33,1451.12 2721.2,1468.6 2716.94,1485.81L2716.94,1485.84C2716.94,1485.86 2716.93,1485.88 2716.93,1485.9C2716.93,1485.91 2716.93,1485.92 2716.92,1485.93C2710.96,1510.03 2706.73,1533.64 2705.81,1553.83C2705.38,1562.99 2706.06,1571.74 2707.71,1580.02C2707.86,1580.82 2708.02,1581.59 2708.21,1582.38L2708.21,1582.4C2719.29,1632.22 2765.42,1664.64 2814.65,1668.34C2815.48,1668.4 2816.29,1668.45 2817.11,1668.49C2817.73,1668.53 2818.34,1668.55 2818.97,1668.58C2819.04,1668.58 2819.11,1668.59 2819.18,1668.59C2820.22,1668.63 2821.27,1668.66 2822.31,1668.68C2822.88,1668.68 2823.46,1668.69 2824.04,1668.69L2933.41,1668.69L2933.41,1668.63C2935.49,1668.66 2937.6,1668.69 2939.72,1668.72C2946.82,1668.81 2954.12,1668.89 2961.27,1668.96C2964.04,1663.26 2970.68,1649.47 2978.52,1632.7C2986.2,1616.27 2995.71,1594.46 3005.59,1568.2L3005.59,1568.19C3007.42,1563.32 3009.28,1558.28 3011.14,1553.09C3013.72,1545.81 3016.34,1538.26 3018.92,1530.42C3019.89,1527.52 3020.84,1524.58 3021.79,1521.6C3027.51,1503.75 3033.07,1484.58 3038.2,1464.32C3038.43,1463.38 3038.67,1462.43 3038.91,1461.49C3039.41,1459.3 3039.91,1457.1 3040.4,1454.89C3041.32,1450.76 3042.19,1446.58 3043.06,1442.38L3043.22,1441.49C3043.55,1439.94 3043.86,1438.37 3044.17,1436.8C3050.09,1406.79 3054.67,1374.8 3057.01,1341.41C3057.43,1335.54 3057.76,1329.62 3058.03,1323.64C3058.31,1317.63 3058.51,1311.56 3058.62,1305.45C3059.36,1267.54 3056.99,1228.2 3050.29,1188.21Z" style="fill:rgb(237,125,43);fill-rule:nonzero;"/>
        <path d="M3040.4,1141.01C3039.89,1139.01 3039.37,1137.01 3038.84,1135.01C3037.28,1129.15 3035.62,1123.28 3033.84,1117.4C3033.42,1115.99 3032.99,1114.57 3032.55,1113.16C3031.86,1113.4 3031.18,1113.66 3030.51,1113.94C3029.99,1114.16 3029.46,1114.38 3028.94,1114.62C3027.4,1115.33 3025.9,1116.14 3024.44,1117.06L3024.43,1117.06C3023.82,1117.43 3023.22,1117.82 3022.63,1118.23C3022.08,1118.61 3021.53,1119 3020.99,1119.41C3012.9,1125.48 3006.56,1134.48 3003.28,1145.35C2989.68,1190.41 2964.65,1273.51 2939.3,1358.14C2939.33,1358.14 2939.4,1358.15 2939.5,1358.16C2941.57,1358.56 2956.64,1362.76 2969.79,1366.47C2980.57,1369.51 2990.08,1372.23 2990.08,1372.23C2990.08,1372.23 3027.45,1219.95 3043.4,1153.48C3042.46,1149.32 3041.46,1145.17 3040.4,1141.01Z" style="fill:rgb(249,151,70);fill-rule:nonzero;"/>
        <path d="M840.894,1399.59L829.497,1450.79L829.483,1450.8L782.037,1663.91L777.047,1663.91L804.469,1487.11C804.496,1486.93 804.536,1486.76 804.563,1486.57L818.127,1399.13L840.894,1399.59Z" style="fill:rgb(232,198,167);fill-rule:nonzero;"/>
        <path d="M840.894,1399.59L829.497,1450.79L829.483,1450.8C828.828,1451.18 808.081,1463.91 804.563,1486.57L818.127,1399.13L840.894,1399.59Z" style="fill:rgb(196,142,106);fill-rule:nonzero;"/>
        <path d="M1064.95,1663.91L1059.96,1663.91L1021.31,1490.31L1021.31,1490.28L1012.52,1450.8L1012.5,1450.79L1001.11,1399.59L1023.87,1399.13L1031.63,1449.12L1037.44,1486.57C1037.46,1486.76 1037.5,1486.93 1037.53,1487.11L1064.95,1663.91Z" style="fill:rgb(232,198,167);fill-rule:nonzero;"/>
        <path d="M1031.63,1449.12C1027.43,1456.37 1021.64,1470 1021.31,1490.28L1012.52,1450.8L1012.5,1450.79L1001.11,1399.59L1023.87,1399.13L1031.63,1449.12Z" style="fill:rgb(196,142,106);fill-rule:nonzero;"/>
        <path d="M1101.16,1410.28L727.799,1410.28C722.744,1410.28 718.609,1406.14 718.609,1401.09L718.609,1374.36C718.609,1369.31 722.744,1365.17 727.799,1365.17L1101.16,1365.17C1106.21,1365.17 1110.35,1369.31 1110.35,1374.36L1110.35,1401.09C1110.35,1406.14 1106.21,1410.28 1101.16,1410.28Z" style="fill:rgb(239,203,171);fill-rule:nonzero;"/>
        <path d="M801.782,1023.72C801.782,1023.72 802.023,1023.95 802.438,1024.37C802.219,1024.15 802.009,1023.93 801.782,1023.72ZM801.541,1012.55C784.848,1004.16 771.173,973.469 772.619,967.984C772.788,967.345 773.571,965.621 774.813,963.092L854.194,929.511C854.194,929.511 845.679,879.886 820.292,873.117C819.56,863.443 814.461,842.474 784.005,842.474C784.005,842.474 796,845.728 802.205,852.235C802.205,852.235 776.958,837.413 749.482,860.188C722.006,882.964 739.078,940.084 730.723,950.93C722.368,961.776 689.831,963.945 693.808,999.013C697.785,1034.08 797.071,1078 790.695,1107.02C790.695,1107.02 827.143,1053.44 804.258,1026.33C808.237,1030.82 815.717,1040.6 816.725,1051.67C816.725,1051.67 820.405,1022.03 801.541,1012.55Z" style="fill:rgb(44,58,100);fill-rule:nonzero;"/>
        <path d="M763.961,1027.81C748.217,1002.24 709.277,1006.65 700.492,1035.35C698.912,1040.52 698.501,1046.09 699.853,1052.01C707.338,1084.78 803.755,1194.41 815.127,1203.38C835.831,1219.71 938.979,1264.05 938.979,1264.05L950.059,1250.31C950.059,1250.31 861.961,1177.6 850.371,1172.01C836.969,1165.54 793.854,1076.34 763.961,1027.81Z" style="fill:rgb(237,152,95);fill-rule:nonzero;"/>
        <path d="M930.482,1257.44C930.482,1257.44 946.273,1236.34 954.433,1234.38C962.591,1232.41 987.651,1230.73 989.136,1233.96C990.621,1237.2 965.808,1248.54 964.752,1250.98C963.697,1253.43 950.531,1271.3 942.923,1269.94C935.314,1268.59 930.482,1257.44 930.482,1257.44Z" style="fill:rgb(237,152,95);fill-rule:nonzero;"/>
        <path d="M709.151,1643.97L689.47,1641.07C689.47,1641.07 623.297,1588.49 613.442,1490.36C612.437,1480.38 612.227,1470.24 612.972,1460.02C613.059,1458.85 612.928,1457.67 612.285,1456.68C612.285,1456.67 612.277,1456.66 612.263,1456.65C610.145,1453.4 604.874,1445.27 597.737,1433.7C590.702,1422.3 578.664,1400.76 565.417,1376.58C541.557,1333.04 513.776,1280.96 504.248,1264.38C473.887,1211.51 488.522,1175.97 488.522,1175.97C488.522,1175.97 573.219,1167.6 596.429,1147.29L604.787,1160.18C604.787,1160.18 623.138,1241.42 622.27,1241.8C623.174,1244.56 624.092,1247.37 625.025,1250.23C639.507,1294.93 656.166,1350.8 665.248,1396.3C670.353,1421.91 673.057,1444.21 671.603,1459.41C671.104,1464.62 671.711,1472.63 673.1,1482.53C681.299,1540.83 709.151,1643.97 709.151,1643.97Z" style="fill:rgb(43,71,139);fill-rule:nonzero;"/>
        <path d="M750.434,1668.87L668.325,1668.87C668.325,1668.87 666.356,1656.35 670.646,1646.86C674.755,1637.75 680.612,1637.46 671.394,1623.18C676.611,1628.55 693.383,1630.77 705.253,1629.18C706.708,1631.53 714.63,1647.35 719.489,1650.84C724.854,1654.7 748.781,1653.33 750.434,1668.87Z" style="fill:rgb(35,56,98);fill-rule:nonzero;"/>
        <path d="M625.025,1250.23C617.853,1289.79 600.911,1355.62 565.417,1376.58C541.557,1333.04 513.776,1280.96 504.248,1264.38C473.887,1211.51 488.522,1175.97 488.522,1175.97C488.522,1175.97 573.219,1167.6 596.429,1147.29L604.787,1160.18C604.787,1160.18 623.138,1241.42 622.27,1241.8C623.174,1244.56 624.092,1247.37 625.025,1250.23Z" style="fill:rgb(35,56,98);fill-rule:nonzero;"/>
        <path d="M775.612,1026.35C775.612,1026.35 787.222,1038.42 792.524,1052.88C792.524,1052.88 774.004,1106.06 730.723,1112.73C730.723,1112.73 764.967,1026.32 775.612,1026.35Z" style="fill:rgb(237,125,43);fill-rule:nonzero;"/>
        <path d="M567.439,1182.08L567.717,1166.72C537.121,1170.58 462.219,1130.16 462.219,1130.16C462.219,1130.16 430.209,1151.45 425.827,1212.25C423.688,1241.93 410.158,1367.43 408.661,1404.91C408.115,1418.49 407.935,1428.18 407.872,1432.05C407.879,1432.08 407.878,1432.08 407.876,1432.09C407.858,1433.28 407.304,1434.32 406.576,1435.25C400.245,1443.3 394.752,1451.83 389.997,1460.67C343.309,1547.53 367.724,1665.57 367.724,1665.57L378.566,1662.81C378.566,1662.81 418.043,1540.45 443.844,1487.52C448.223,1478.55 452.201,1471.56 455.529,1467.52C465.23,1455.74 475.46,1435.73 485.543,1411.65C504.603,1366.12 523.107,1306.04 536.304,1259.52C537.234,1259.69 567.439,1182.08 567.439,1182.08Z" style="fill:rgb(43,71,139);fill-rule:nonzero;"/>
        <path d="M746.489,1079.58C696.471,1068.11 728.426,997.819 731.325,999.056C738.255,997.644 753.476,985.475 767.092,961.708L768.932,963.305L799.652,990.239C799.652,990.239 792.55,1000.71 786.577,1010.98C781.909,1019.01 777.94,1026.92 778.571,1029.64C781.044,1031.58 759.831,1082.65 746.489,1079.58Z" style="fill:rgb(255,178,125);fill-rule:nonzero;"/>
        <path d="M799.651,990.247C799.651,990.247 792.548,1000.71 786.576,1010.98C767.476,999.208 767.455,975.562 768.927,963.312L799.651,990.247Z" style="fill:rgb(237,152,95);fill-rule:nonzero;"/>
        <path d="M800.503,1003.74C800.503,1003.74 754.126,977.931 770.642,949.297C787.157,920.664 792.294,898.048 822.603,913.314C852.911,928.58 852.312,942.795 849.124,953.693C845.936,964.591 812.993,1009.71 800.503,1003.74Z" style="fill:rgb(255,178,125);fill-rule:nonzero;"/>
        <path d="M856.958,936.993C854.833,924.279 848.375,923.065 843.873,923.914C826.745,895.591 798.764,906.645 798.764,906.645C783.819,925.399 762.211,928.6 762.211,928.6C762.211,928.6 767.594,938.614 789.767,944.812C796.54,946.705 804.228,945.559 811.641,943.063C796.258,951.641 780.169,954.926 780.169,954.926C809.39,957.601 837.192,930.886 840.076,928.028C841.424,932.168 843.788,940.835 842.373,947.172C840.449,955.783 832.805,971.38 837.472,973.397C837.472,973.397 860.143,956.059 856.958,936.993Z" style="fill:rgb(44,58,100);fill-rule:nonzero;"/>
        <path d="M433.018,1668.87L350.91,1668.87C350.91,1668.87 348.941,1656.35 353.23,1646.86C357.34,1637.75 363.776,1633.61 362.235,1622.58C367.453,1627.96 375.956,1633.97 387.827,1632.38C389.281,1634.73 397.215,1647.35 402.073,1650.84C407.439,1654.7 431.366,1653.33 433.018,1668.87Z" style="fill:rgb(35,56,98);fill-rule:nonzero;"/>
        <path d="M752.374,1135.31C741.811,1138.99 726.981,1141.01 711.812,1142.66C690.222,1145.02 667.93,1146.63 656.253,1151.29C651.994,1152.98 649.146,1155.08 648.256,1157.76C643.195,1172.98 620.889,1196.47 620.889,1196.47C477.915,1189.96 462.217,1130.16 462.217,1130.16C558.411,1018.3 721.283,985.925 721.283,985.925C721.283,985.925 732.917,980.994 762.215,1004.28C781.766,1019.82 779.192,1025.79 779.192,1025.79C779.192,1025.79 783.465,1124.46 752.374,1135.31Z" style="fill:rgb(249,151,70);fill-rule:nonzero;"/>
        <path d="M711.812,1142.66C690.222,1145.02 667.93,1146.63 656.253,1151.29C651.481,1079.98 685.131,1026.34 685.131,1026.34C685.131,1026.34 707.083,1115.68 711.812,1142.66Z" style="fill:rgb(237,125,43);fill-rule:nonzero;"/>
        <path d="M734.033,1012.55C734.033,1012.55 679.922,1017.89 675.584,1053.05C671.246,1088.21 727.462,1231.42 735.513,1244.39C750.169,1268 836.475,1348.92 836.475,1348.92L852.382,1339.28C852.382,1339.28 791.165,1235.64 781.686,1225.95C766.806,1210.72 752.355,1024.73 734.033,1012.55Z" style="fill:rgb(255,178,125);fill-rule:nonzero;"/>
        <path d="M677.146,1074.21C677.287,1075.01 727.084,1090.47 759.13,1074.21C759.13,1074.21 765.989,1000.27 727.729,1004.28C689.47,1008.29 666.814,1020.34 665.85,1038.66C664.886,1056.98 677.146,1074.21 677.146,1074.21Z" style="fill:rgb(249,151,70);fill-rule:nonzero;"/>
        <path d="M852.382,1339.28C852.382,1339.28 874.964,1336.83 880.768,1343.02C886.572,1349.21 900.501,1358.5 897.019,1361.59C893.536,1364.69 865.291,1358.6 860.261,1358.6C855.231,1358.6 844.784,1366.34 842.076,1362.47C839.367,1358.6 836.475,1348.92 836.475,1348.92L852.382,1339.28Z" style="fill:rgb(255,178,125);fill-rule:nonzero;"/>
        <path d="M818.086,1365.85C818.086,1365.85 862.306,1353.86 870.569,1355.4C878.833,1356.95 896.245,1361.65 908.433,1363.56C920.621,1365.46 931.068,1365.46 931.938,1367.21L818.086,1365.85Z" style="fill:rgb(107,183,191);fill-rule:nonzero;"/>
        <path d="M994.545,1299.87C994.545,1299.87 971.087,1309.39 954.413,1285.47C954.413,1285.47 981.478,1280.88 994.545,1299.87Z" style="fill:rgb(107,183,191);fill-rule:nonzero;"/>
        <path d="M996.197,1290.06C996.197,1290.06 997.842,1281.68 1007.68,1281.39C1007.68,1281.39 1003.97,1289.88 996.197,1290.06Z" style="fill:rgb(107,183,191);fill-rule:nonzero;"/>
        <path d="M991.25,1240.99C991.25,1240.99 979.879,1242.21 975.615,1229.75C975.615,1229.75 987.938,1231.12 991.25,1240.99Z" style="fill:rgb(107,183,191);fill-rule:nonzero;"/>
        <path d="M964.261,1076.21C987.209,1071.29 987.599,1052.52 987.599,1052.52C960.57,1061.06 964.261,1076.21 964.261,1076.21Z" style="fill:rgb(107,183,191);fill-rule:nonzero;"/>
        <path d="M962.685,1071.93C962.685,1071.93 948.366,1077.75 938.188,1063.14C938.188,1063.14 954.708,1060.34 962.685,1071.93Z" style="fill:rgb(107,183,191);fill-rule:nonzero;"/>
        <path d="M994.1,1354.93L997.064,1358.34C997.514,1358.86 998.369,1358.54 998.368,1357.85C998.201,1261.23 985.931,1175.38 975.627,1124.73C964.381,1069.45 952.977,1036.77 952.863,1036.45C952.977,1036.77 963.264,1069.97 974.474,1125.09C984.792,1175.83 996.599,1242.14 993.612,1353.63C993.599,1354.1 993.785,1354.57 994.1,1354.93Z" style="fill:rgb(107,183,191);fill-rule:nonzero;"/>
        <path d="M953.058,1023.28C956.718,1026.22 970.734,1038.75 957.137,1048.42C957.137,1048.42 946.716,1051.72 943.265,1043.69C940.63,1037.57 939.918,1030.73 939.728,1027.84C939.679,1027.09 940.246,1026.45 940.998,1026.38C941.8,1026.31 942.87,1026.13 943.94,1025.71C945.23,1025.21 945.886,1023.27 947.628,1022.84C948.721,1022.57 949.831,1022.34 951.102,1022.45C951.821,1022.51 952.496,1022.82 953.058,1023.28Z" style="fill:rgb(249,151,70);fill-rule:nonzero;"/>
        <path d="M960.838,1044.92C960.838,1044.92 956.689,1048.25 958.224,1053.56L958.266,1055.53C958.266,1055.53 957.161,1050.61 952.072,1049.09C952.072,1049.09 956.661,1049.6 960.838,1044.92Z" style="fill:rgb(107,183,191);fill-rule:nonzero;"/>
        <path d="M964.261,1076.21C987.209,1071.29 987.599,1052.52 987.599,1052.52C987.599,1052.52 969.42,1062.51 964.261,1076.21Z" style="fill:rgb(138,216,219);fill-rule:nonzero;"/>
        <path d="M986.309,1063.36C986.309,1063.36 1000.74,1068.88 1010.62,1054.08C1010.62,1054.08 994.051,1051.6 986.309,1063.36Z" style="fill:rgb(107,183,191);fill-rule:nonzero;"/>
        <path d="M960.57,1346.92L957.674,1350.4C957.235,1350.92 956.374,1350.62 956.361,1349.93C954.592,1253.32 965.14,1167.25 974.427,1116.4C984.563,1060.91 995.311,1028 995.417,1027.68C995.311,1028 985.69,1061.41 975.587,1116.74C966.287,1167.67 955.811,1234.21 961.031,1345.61C961.054,1346.09 960.877,1346.56 960.57,1346.92Z" style="fill:rgb(107,183,191);fill-rule:nonzero;"/>
        <path d="M994.958,1014.51C991.358,1017.53 977.597,1030.34 991.384,1039.74C991.384,1039.74 1001.87,1042.83 1005.16,1034.73C1007.67,1028.55 1008.25,1021.71 1008.38,1018.81C1008.41,1018.06 1007.83,1017.43 1007.08,1017.38C1006.28,1017.32 1005.2,1017.16 1004.12,1016.77C1002.82,1016.29 1002.13,1014.36 1000.38,1013.97C999.281,1013.72 998.166,1013.51 996.897,1013.65C996.18,1013.73 995.512,1014.05 994.958,1014.51Z" style="fill:rgb(249,151,70);fill-rule:nonzero;"/>
        <path d="M987.614,1036.31C987.614,1036.31 991.828,1039.56 990.401,1044.9L990.398,1046.87C990.398,1046.87 991.405,1041.93 996.462,1040.31C996.462,1040.31 991.884,1040.91 987.614,1036.31Z" style="fill:rgb(107,183,191);fill-rule:nonzero;"/>
        <path d="M980.191,1046.43C980.191,1046.43 964.949,1048.98 958.201,1032.51C958.201,1032.51 974.935,1033.38 980.191,1046.43Z" style="fill:rgb(107,183,191);fill-rule:nonzero;"/>
        <path d="M949.135,1329.47L951.285,1333.45C951.61,1334.05 952.516,1333.92 952.664,1333.25C973.573,1238.91 980.319,1152.46 981.309,1100.78C982.388,1044.38 978.385,1010 978.345,1009.66C978.385,1010 981.184,1044.65 980.104,1100.89C979.109,1152.65 976.172,1219.94 948.945,1328.09C948.828,1328.55 948.908,1329.05 949.135,1329.47Z" style="fill:rgb(107,183,191);fill-rule:nonzero;"/>
        <path d="M981.407,996.848C984.337,1000.52 995.282,1015.81 979.904,1022.28C979.904,1022.28 969.015,1023.23 967.396,1014.64C966.162,1008.08 966.957,1001.26 967.402,998.397C967.518,997.651 968.211,997.152 968.959,997.249C969.758,997.352 970.841,997.411 971.978,997.239C973.346,997.031 974.41,995.273 976.204,995.236C977.328,995.212 978.462,995.229 979.678,995.616C980.366,995.835 980.957,996.284 981.407,996.848Z" style="fill:rgb(249,151,70);fill-rule:nonzero;"/>
        <path d="M984.279,1019.67C984.279,1019.67 979.505,1022.01 979.844,1027.53L979.456,1029.46C979.456,1029.46 979.449,1024.42 974.814,1021.83C974.814,1021.83 979.182,1023.33 984.279,1019.67Z" style="fill:rgb(107,183,191);fill-rule:nonzero;"/>
        <path d="M967.615,1029.46C967.615,1029.46 967.615,1017.39 957.216,1013.61C957.216,1013.61 954.926,1023.67 967.615,1029.46Z" style="fill:rgb(107,183,191);fill-rule:nonzero;"/>
        <path d="M992.038,1010.07C992.038,1010.07 991.731,1000.86 1000.25,998.204C1000.25,998.204 1002.3,1006.78 992.038,1010.07Z" style="fill:rgb(237,159,74);fill-rule:nonzero;"/>
        <path d="M964.09,1065.47C963.782,1065.73 959.649,1056.51 968.058,1049.09C968.058,1049.09 971.572,1058.97 964.09,1065.47Z" style="fill:rgb(237,159,74);fill-rule:nonzero;"/>
        <path d="M958.201,1064.75C958.435,1064.81 958.267,1060.16 953.897,1059.49C953.897,1059.49 953.157,1063.36 958.201,1064.75Z" style="fill:rgb(107,183,191);fill-rule:nonzero;"/>
        <path d="M1001.76,1049.09C1001.76,1049.09 1005.45,1041.46 1017.25,1042.79C1017.25,1042.79 1015.48,1050.98 1001.76,1049.09Z" style="fill:rgb(107,183,191);fill-rule:nonzero;"/>
        <path d="M936.531,1366.24L1012.18,1366.24C1017.27,1366.24 1021.17,1361.73 1020.44,1356.7L985.224,1113.99C984.896,1111.73 982.954,1110.05 980.666,1110.05L969.423,1110.05C966.985,1110.05 964.916,1111.83 964.558,1114.24L928.507,1356.94C927.779,1361.84 931.576,1366.24 936.531,1366.24Z" style="fill:rgb(249,151,70);fill-rule:nonzero;"/>
        <path d="M995.425,1358.9L976.732,1110.1C978.746,1110.37 980.381,1111.94 980.68,1113.99L1015.89,1356.7C1016.62,1361.73 1012.72,1366.24 1007.64,1366.24L992.519,1366.24C994.466,1364.49 995.645,1361.82 995.425,1358.9Z" style="fill:rgb(255,178,120);fill-rule:nonzero;"/>
        <path d="M1784.6,1574.44C1784.6,1574.44 1803.63,1592.08 1799.92,1604.62C1796.2,1617.16 1779.02,1625.52 1776.7,1640.84C1774.38,1656.16 1765.09,1664.52 1756.73,1664.52L1716.89,1664.52C1716.89,1664.52 1710.73,1653.74 1725.59,1650.49C1740.45,1647.24 1746.05,1629.23 1745.13,1612.51C1744.2,1595.8 1746.52,1573.51 1746.52,1573.51L1778.09,1566.08L1784.6,1574.44Z" style="fill:rgb(44,58,100);fill-rule:nonzero;"/>
        <path d="M1551.03,1622.55C1551.03,1622.55 1555.67,1659.7 1547.31,1663.88C1538.95,1668.05 1439.12,1666.66 1439.12,1666.66C1439.12,1666.66 1439.12,1654.12 1456.3,1651.34C1473.48,1648.55 1503.66,1638.34 1508.77,1615.58C1513.88,1592.83 1551.03,1622.55 1551.03,1622.55Z" style="fill:rgb(44,58,100);fill-rule:nonzero;"/>
        <path d="M1460.72,1055.29C1460.72,1055.29 1466.36,1125.68 1472.99,1210.3C1482,1325.24 1492.84,1466.42 1493.91,1493.17C1495.77,1539.62 1503.21,1613.91 1503.21,1613.91C1503.21,1613.91 1520.84,1631.56 1556.14,1624.12C1556.14,1624.12 1587.6,1518.07 1596.58,1405.85C1596.72,1404.02 1596.86,1402.16 1597,1400.31C1605.36,1286.08 1618.36,1045.54 1618.36,1045.54L1460.72,1055.29Z" style="fill:rgb(181,69,60);fill-rule:nonzero;"/>
        <path d="M1460.72,1055.29C1460.72,1055.29 1466.36,1125.68 1472.99,1210.3L1596.58,1405.85C1596.72,1404.02 1596.86,1402.16 1597,1400.31C1605.36,1286.08 1618.36,1045.54 1618.36,1045.54L1460.72,1055.29Z" style="fill:rgb(158,53,48);fill-rule:nonzero;"/>
        <path d="M1486.48,1063.65C1486.48,1063.65 1588.18,1318.58 1655.04,1438.38C1721.91,1558.19 1742.8,1591.62 1742.8,1591.62C1742.8,1591.62 1781.11,1576.29 1784.6,1565.85C1784.6,1565.85 1759.03,1334.56 1714.25,1278.18C1688.94,1246.32 1659.22,1150.72 1657.83,1117.29C1656.44,1083.85 1648.77,1017.68 1648.77,1017.68L1486.48,1063.65Z" style="fill:rgb(181,69,60);fill-rule:nonzero;"/>
        <path d="M1358.8,1146.75C1358.8,1146.75 1335.8,1179.24 1333.73,1185.45C1331.65,1191.66 1331.78,1216.42 1333.37,1217.41C1334.97,1218.39 1336.77,1217.97 1338.52,1214.42C1340.27,1210.87 1343.68,1198.22 1344.83,1199.58C1345.97,1200.95 1338.5,1238.35 1345.31,1241.6C1352.11,1244.85 1372.87,1231.24 1380.34,1215.58C1387.81,1199.92 1382.19,1160.76 1383.07,1157.96C1390.51,1134.24 1358.8,1146.75 1358.8,1146.75Z" style="fill:rgb(255,178,125);fill-rule:nonzero;"/>
        <path d="M1366.35,1163.66C1353.43,1160.93 1352.14,1159.14 1352.14,1159.14C1352.14,1159.14 1354.29,1032.05 1353.97,1020.12C1353.65,1008.19 1303.16,847.179 1303.16,847.179L1389.6,760.017C1389.6,760.017 1421.35,988.058 1421.57,1018.3C1421.93,1068.28 1384.91,1162.71 1384.91,1162.71C1384.91,1162.71 1376.5,1165.81 1366.35,1163.66Z" style="fill:rgb(237,125,43);fill-rule:nonzero;"/>
        <path d="M1360.18,738.202C1360.18,738.202 1337.16,818.958 1300.02,837.824C1300.02,837.824 1295.85,813.603 1301.47,794.963C1296.41,791.287 1291.92,787.871 1288.01,784.79C1274.99,774.499 1268.38,767.869 1268.38,767.869L1272.98,728.658L1276.11,702.054C1282.4,708.907 1288.85,714.48 1295.27,719.026C1328.33,742.418 1360.18,738.202 1360.18,738.202Z" style="fill:rgb(255,178,125);fill-rule:nonzero;"/>
        <path d="M1295.27,719.026C1295.27,719.026 1308.75,753.396 1288.01,784.79C1274.99,774.499 1268.38,767.869 1268.38,767.869L1272.98,728.658C1286.26,720.793 1295.27,719.026 1295.27,719.026Z" style="fill:rgb(237,151,93);fill-rule:nonzero;"/>
        <path d="M1259.03,775.701C1259.03,775.701 1313.54,737.533 1289.25,703.957C1264.95,670.38 1255.63,642.841 1219.8,665.791C1183.98,688.74 1186.56,706.39 1191.94,719.569C1197.32,732.748 1244.23,784.764 1259.03,775.701Z" style="fill:rgb(255,178,125);fill-rule:nonzero;"/>
        <path d="M1655.96,1051.68C1640.19,1092.53 1469.9,1183.5 1466.18,1158.8C1464.74,1149.34 1461.87,1132.77 1454.53,1111.13C1452.8,1106.05 1450.81,1100.71 1448.58,1095.12C1436.2,1064.46 1415.29,1026.3 1379.3,984.963C1376.6,981.864 1373.82,978.759 1370.96,975.624C1356.42,959.775 1343.14,942.52 1331.98,925.18C1310.52,891.877 1296.95,858.314 1297.77,834.017C1297.76,833.89 1297.76,833.788 1297.79,833.679C1331.47,806.863 1329.58,735.186 1329.58,735.186C1329.58,735.186 1464.8,726.847 1579.48,881.821C1579.48,881.821 1591.07,899.079 1605.31,922.874C1622.59,951.726 1643.77,990.156 1652.86,1019.04C1657.2,1032.75 1658.79,1044.32 1655.96,1051.68Z" style="fill:rgb(249,151,70);fill-rule:nonzero;"/>
        <path d="M1281,632.592C1281.22,631.656 1282.23,630.467 1285,628.823C1285,628.823 1281.97,628.563 1278.88,630.076C1276.18,626.361 1270.36,620.337 1262.64,622.163C1262.64,622.163 1267.34,622.236 1270.05,626.265C1257.85,622.145 1237.79,624.976 1192.88,653.18C1133.68,690.351 1174.99,719.903 1185.49,720.521C1195.98,721.139 1209.27,697.511 1224.79,690.94C1240.32,684.371 1254.56,704.76 1261.18,705.125C1267.8,705.49 1263.05,701.22 1268.25,694.513C1273.45,687.807 1280.1,698.978 1282.03,707.492C1283.96,716.006 1298.5,720.976 1298.5,720.976L1302.58,705.636C1306.66,690.296 1292.67,641.631 1283.46,634.504C1282.65,633.875 1281.83,633.232 1281,632.592Z" style="fill:rgb(43,71,139);fill-rule:nonzero;"/>
        <path d="M1652.86,1019.04C1485.04,1010 1414.72,829.696 1414.72,829.696C1414.72,829.696 1520.31,876.011 1605.31,922.874C1622.59,951.726 1643.77,990.156 1652.86,1019.04Z" style="fill:rgb(237,125,43);fill-rule:nonzero;"/>
        <path d="M2133.83,1643.22C2133.83,1630.86 2143.85,1620.83 2156.22,1620.83C2168.58,1620.83 2178.6,1630.86 2178.6,1643.22C2178.6,1655.58 2168.58,1665.6 2156.22,1665.6C2143.85,1665.6 2133.83,1655.58 2133.83,1643.22Z" style="fill:rgb(249,159,70);fill-rule:nonzero;"/>
        <path d="M2142.54,1643.22C2142.54,1635.67 2148.67,1629.55 2156.22,1629.55C2163.77,1629.55 2169.89,1635.67 2169.89,1643.22C2169.89,1650.77 2163.77,1656.89 2156.22,1656.89C2148.67,1656.89 2142.54,1650.77 2142.54,1643.22Z" style="fill:rgb(237,125,43);fill-rule:nonzero;"/>
        <path d="M1976.73,1620.59C1972.57,1620.59 1888.94,1619.77 1831.38,1557.74C1791.87,1515.17 1774.8,1454.85 1780.63,1378.46C1792.54,1222.46 1767.05,1096.24 1710.71,1032.16C1685.34,1003.3 1654.25,987.709 1618.3,985.833C1556.77,982.605 1499.09,1053.21 1498.51,1053.92L1477.73,1037.16C1480.43,1033.81 1544.76,955.257 1619.69,959.17C1663.09,961.438 1700.46,980.064 1730.76,1014.53C1761.91,1049.95 1784.33,1100.69 1797.41,1165.34C1810.06,1227.9 1813.37,1300.29 1807.25,1380.49C1802.01,1449.16 1816.71,1502.69 1850.95,1539.58C1900.83,1593.33 1975.81,1593.89 1976.73,1593.89L1976.77,1620.59L1976.73,1620.59Z" style="fill:rgb(175,205,251);fill-rule:nonzero;"/>
        <path d="M2208.75,1632.5C2202.99,1638.22 2195.01,1641.87 2185.89,1641.87L1948.38,1641.87C1935.43,1641.87 1926.05,1629.49 1929.58,1617.04C1939.28,1582.78 1960.14,1523.05 1991.76,1503.6C1997.05,1500.33 2003.54,1497.87 2010.96,1496.19C2066.99,1483.47 2175.53,1515.59 2213.47,1591.62C2213.47,1591.62 2214.38,1593.27 2215.67,1596.13C2221.54,1609.3 2217.88,1623.49 2208.75,1632.5Z" style="fill:rgb(249,159,70);fill-rule:nonzero;"/>
        <path d="M1511.35,1056.58L1190.05,1481.71L1068.1,1643.09L1047.46,1628.04L1164.47,1463.05L1472.71,1028.4L1511.35,1056.58Z" style="fill:rgb(43,71,139);fill-rule:nonzero;"/>
        <path d="M1190.05,1481.71L1068.1,1643.09L1047.46,1628.04L1164.47,1463.05L1190.05,1481.71Z" style="fill:rgb(249,159,70);fill-rule:nonzero;"/>
        <path d="M1109.4,1638.27L1109.4,1651.93C1109.4,1658.71 1103.85,1664.26 1097.08,1664.26L977.571,1664.26C970.792,1664.26 965.255,1658.71 965.255,1651.93L965.255,1638.27C965.255,1631.49 970.792,1625.95 977.571,1625.95L1097.08,1625.95C1103.85,1625.95 1109.4,1631.49 1109.4,1638.27Z" style="fill:rgb(237,125,43);fill-rule:nonzero;"/>
        <path d="M1080.08,1638.27L1080.08,1651.93C1080.08,1658.71 1074.54,1664.26 1067.76,1664.26L977.571,1664.26C970.792,1664.26 965.255,1658.71 965.255,1651.93L965.255,1638.27C965.255,1631.49 970.792,1625.95 977.571,1625.95L1067.76,1625.95C1074.54,1625.95 1080.08,1631.49 1080.08,1638.27Z" style="fill:rgb(249,159,70);fill-rule:nonzero;"/>
        <path d="M2208.75,1632.5C2202.99,1638.22 2195.01,1641.87 2185.89,1641.87L1948.38,1641.87C1935.43,1641.87 1926.05,1629.49 1929.58,1617.04C1939.28,1582.78 1960.14,1523.05 1991.76,1503.6C1997.05,1500.33 2003.54,1497.87 2010.96,1496.19C2032.62,1537.15 2091.71,1624.62 2208.75,1632.5Z" style="fill:rgb(243,142,56);fill-rule:nonzero;"/>
        <path d="M1966.68,1612.11C1966.68,1582.56 1990.63,1558.61 2020.18,1558.61C2049.72,1558.61 2073.67,1582.56 2073.67,1612.11C2073.67,1641.65 2049.72,1665.6 2020.18,1665.6C1990.63,1665.6 1966.68,1641.65 1966.68,1612.11Z" style="fill:rgb(249,159,70);fill-rule:nonzero;"/>
        <path d="M1987.5,1612.11C1987.5,1594.06 2002.13,1579.43 2020.18,1579.43C2038.22,1579.43 2052.85,1594.06 2052.85,1612.11C2052.85,1630.15 2038.22,1644.78 2020.18,1644.78C2002.13,1644.78 1987.5,1630.15 1987.5,1612.11Z" style="fill:rgb(237,125,43);fill-rule:nonzero;"/>
        <path d="M1668.52,956.344C1668.52,956.344 1661.3,986.137 1661.58,991.173C1661.86,996.208 1665.85,1011.57 1667.28,1011.82C1668.7,1012.07 1673.02,1012.77 1673.27,1009.73C1673.51,1006.7 1671.89,1003.64 1673.09,1004.29C1674.3,1004.94 1673.29,1016.39 1679.09,1016.79C1684.89,1017.18 1702.61,1012.82 1703.51,999.485C1704.41,986.153 1689.25,959.72 1689.08,957.469C1687.66,938.375 1668.52,956.344 1668.52,956.344Z" style="fill:rgb(255,178,125);fill-rule:nonzero;"/>
        <path d="M1680.88,959.029C1667.03,961.314 1657.51,959.029 1657.51,959.029C1657.51,959.029 1579.65,880.2 1568.75,873.695C1557.85,867.19 1408.59,861.533 1408.59,861.533C1408.59,861.533 1348.79,861.675 1334.55,830.844C1322.19,804.053 1331.29,781.164 1344.45,764.403C1360.14,744.43 1386.59,736.3 1410.9,743.631C1465.49,760.087 1574.06,793.663 1594.32,806.302C1639.41,834.434 1697.13,945.555 1697.13,945.555C1697.13,945.555 1692.2,957.162 1680.88,959.029Z" style="fill:rgb(249,151,70);fill-rule:nonzero;"/>
        <path d="M2252.65,1207.6C2252.65,1207.6 2212.23,1273.51 2213.78,1292.85C2214.7,1304.36 2232.08,1300.88 2248.3,1283.89C2259.35,1272.32 2269.78,1251.63 2274.38,1236.3C2285.74,1198.44 2252.65,1207.6 2252.65,1207.6Z" style="fill:rgb(255,178,125);fill-rule:nonzero;"/>
        <path d="M2359.96,1185.04L2320.25,1205.34L2312.29,1177.79C2312.29,1177.79 2317.35,1168.26 2319.64,1152.64C2320.6,1146.07 2321.07,1138.43 2320.46,1129.96L2352.82,1146.53C2352.82,1146.53 2352.04,1149.52 2351.53,1153.94C2350.98,1158.71 2350.73,1165.14 2352.09,1171.25C2353.26,1176.5 2355.6,1181.5 2359.96,1185.04Z" style="fill:rgb(255,178,125);fill-rule:nonzero;"/>
        <path d="M2387.58,1188.5C2387.58,1188.5 2439.98,1248.61 2459.64,1253.26C2479.29,1257.9 2526.91,1262.18 2526.91,1262.18L2521.76,1276.47C2521.76,1276.47 2461.49,1282.28 2452.21,1280.34C2442.92,1278.41 2375.72,1241.64 2375.72,1241.64L2387.58,1188.5Z" style="fill:rgb(255,178,125);fill-rule:nonzero;"/>
        <path d="M2399.75,1637.12C2399.75,1637.12 2403.89,1645.2 2413.06,1647.2C2418.84,1648.46 2423.79,1651.46 2426.86,1655.68C2429.46,1659.24 2426.95,1664.25 2422.54,1664.25L2375.98,1664.25C2372.01,1664.25 2368.92,1660.83 2369.31,1656.89C2369.66,1653.44 2370.02,1649.42 2370.18,1646.34C2370.53,1639.62 2377.26,1634.2 2377.26,1634.2L2399.75,1637.12Z" style="fill:rgb(211,103,30);fill-rule:nonzero;"/>
        <path d="M2400.87,1639.15C2400.87,1639.15 2389.7,1645.75 2370.8,1641.77C2370.8,1641.77 2338.67,1559.6 2336.76,1520.94C2336.68,1519.38 2336.65,1517.9 2336.68,1516.5C2337.33,1480.13 2303.75,1385.43 2312.8,1366.03C2321.86,1346.62 2395.04,1374.75 2395.04,1374.75L2396.5,1440.74L2400.87,1639.15Z" style="fill:rgb(53,72,139);fill-rule:nonzero;"/>
        <path d="M2396.5,1440.74L2336.76,1520.94C2336.68,1519.38 2336.65,1517.9 2336.68,1516.5C2337.33,1480.13 2303.75,1385.43 2312.8,1366.03C2321.86,1346.62 2395.04,1374.75 2395.04,1374.75L2396.5,1440.74Z" style="fill:rgb(44,58,100);fill-rule:nonzero;"/>
        <path d="M2279.54,1637.12C2279.54,1637.12 2283.68,1645.2 2292.85,1647.2C2298.63,1648.46 2303.58,1651.46 2306.65,1655.68C2309.26,1659.24 2306.74,1664.25 2302.33,1664.25L2255.77,1664.25C2251.8,1664.25 2248.71,1660.83 2249.1,1656.89C2249.45,1653.44 2249.81,1649.42 2249.97,1646.34C2250.32,1639.62 2257.05,1634.2 2257.05,1634.2L2279.54,1637.12Z" style="fill:rgb(211,103,30);fill-rule:nonzero;"/>
        <path d="M2352.24,1376.32C2352.24,1376.32 2287.56,1617.67 2285.58,1641.29C2285.58,1641.29 2272.97,1647.77 2252.49,1636.33C2252.49,1636.33 2240.6,1528.16 2252.49,1498.59C2264.38,1469.03 2250.13,1379.68 2280.37,1359.52C2310.62,1339.37 2352.24,1376.32 2352.24,1376.32Z" style="fill:rgb(53,72,139);fill-rule:nonzero;"/>
        <path d="M2416.61,1213.4L2387.58,1188.5C2387.58,1188.5 2376.64,1182.55 2355.69,1179.11C2355.87,1184.82 2353.59,1190.02 2343.57,1191.34C2330.24,1193.07 2318.33,1183.98 2312.29,1177.79C2296.53,1180.06 2287.22,1181.4 2268.3,1191.02C2268.3,1191.02 2242.59,1204.89 2232.43,1232.75C2232.43,1232.75 2247.54,1250.75 2268.08,1258.69L2268.62,1263.15L2273.02,1299.66L2259.92,1372.36C2259.81,1373 2259.75,1373.64 2259.75,1374.26C2259.75,1379.12 2263.07,1383.49 2267.96,1384.67C2267.96,1384.67 2269.08,1384.85 2271.15,1385.14C2285.03,1387.09 2341.37,1393.81 2385.55,1381.82C2395.48,1379.12 2402.02,1369.64 2401.2,1359.37L2392.96,1255.93C2414.59,1247.07 2416.61,1213.4 2416.61,1213.4Z" style="fill:rgb(249,151,70);fill-rule:nonzero;"/>
        <path d="M2289.03,1330.25C2288.16,1355.61 2285.67,1377.11 2271.15,1385.14C2269.08,1384.85 2267.96,1384.67 2267.96,1384.67C2263.07,1383.49 2259.75,1379.12 2259.75,1374.26C2259.75,1373.64 2259.81,1373 2259.92,1372.36L2273.02,1299.66L2268.62,1263.15C2268.83,1262.52 2268.94,1262.18 2268.94,1262.18C2268.94,1262.18 2290.14,1297.77 2289.03,1330.25Z" style="fill:rgb(237,125,43);fill-rule:nonzero;"/>
        <path d="M2290.71,1341.75C2290.71,1341.75 2298.52,1368.4 2316.11,1385.1C2333.71,1401.79 2355.54,1402.11 2355.54,1402.11L2290.71,1341.75Z" style="fill:rgb(94,167,170);fill-rule:nonzero;"/>
        <path d="M2353.51,1272.41C2353.51,1272.41 2303.79,1308.36 2290.71,1341.75C2290.71,1341.75 2317.87,1386.7 2355.54,1402.11C2355.54,1402.11 2394.93,1351.17 2413.77,1342.18C2413.77,1342.18 2400.28,1300.24 2353.51,1272.41Z" style="fill:rgb(107,183,191);fill-rule:nonzero;"/>
        <path d="M2352.09,1171.25C2333.69,1170.76 2319.64,1152.64 2319.64,1152.64L2351.53,1153.94C2350.98,1158.71 2350.73,1165.14 2352.09,1171.25Z" style="fill:rgb(234,156,104);fill-rule:nonzero;"/>
        <path d="M2361.01,1161C2361.01,1161 2324.31,1170.69 2311.65,1141.51C2297.99,1110.01 2312.98,1087.07 2325.44,1085.52C2350.29,1082.43 2364.73,1091.91 2369.1,1101.92C2373.46,1111.94 2381.26,1155.83 2361.01,1161Z" style="fill:rgb(255,178,125);fill-rule:nonzero;"/>
        <path d="M2346.46,1144.57C2346.46,1144.57 2348,1148.36 2357.68,1146.23C2357.68,1146.23 2365.81,1144.45 2364.89,1140.17C2364.89,1140.17 2356.45,1138.33 2346.46,1144.57Z" style="fill:white;fill-rule:nonzero;"/>
        <path d="M2318.21,1151.72C2318.21,1151.72 2313.9,1139.08 2314.42,1132.34C2314.42,1132.34 2304.84,1120.13 2310.42,1117.11C2316,1114.09 2319.01,1121.31 2320.29,1119.89C2321.57,1118.48 2323.56,1094.48 2330.34,1095.24C2337.12,1096 2362.19,1103.76 2373.18,1094.29C2384.17,1084.81 2357.5,1047.78 2312.32,1062.08C2267.13,1076.38 2276.36,1126.63 2318.21,1151.72Z" style="fill:rgb(44,58,100);fill-rule:nonzero;"/>
        <path d="M2290.02,1081.78C2290.02,1081.78 2287.98,1075.68 2290.17,1071.32C2290.17,1071.32 2290.28,1077.33 2292.64,1080C2295,1082.67 2290.02,1081.78 2290.02,1081.78Z" style="fill:rgb(44,58,100);fill-rule:nonzero;"/>
        <path d="M2290.96,1077.52C2290.96,1077.52 2285.38,1076.88 2282.74,1081.18C2282.74,1081.18 2286.67,1078.52 2290.65,1081.34L2290.96,1077.52Z" style="fill:rgb(44,58,100);fill-rule:nonzero;"/>
        <path d="M2314.59,1307.74C2314.59,1307.74 2320.74,1307.88 2325.86,1305.79C2330.98,1303.69 2344.43,1304.57 2343.73,1307.12C2343.03,1309.67 2338.18,1308.64 2338.81,1311.47C2339.44,1314.29 2355.13,1318.49 2353.79,1322.21C2352.45,1325.92 2347.27,1328.72 2335.9,1327.83C2324.54,1326.94 2313.16,1321.94 2313.16,1321.94L2314.59,1307.74Z" style="fill:rgb(255,178,125);fill-rule:nonzero;"/>
        <path d="M2526.91,1262.18C2526.91,1262.18 2545.46,1246.68 2555.52,1249.39C2565.58,1252.09 2546.04,1281.5 2521.76,1276.47C2497.48,1271.44 2526.91,1262.18 2526.91,1262.18Z" style="fill:rgb(255,178,125);fill-rule:nonzero;"/>
        <path d="M2318.04,1307.57C2318.04,1307.57 2245.83,1276.03 2232.74,1274.09C2219.64,1272.15 2213.78,1292.85 2213.78,1292.85C2213.78,1292.85 2211.41,1314.19 2317.04,1323.45L2318.04,1307.57Z" style="fill:rgb(255,178,125);fill-rule:nonzero;"/>
        <path d="M2647.16,1285.01C2647.16,1285.01 2654.01,1331.03 2642.12,1349.51C2630.23,1368 2601.5,1384.83 2601.5,1384.83L2647.16,1285.01Z" style="fill:rgb(94,167,170);fill-rule:nonzero;"/>
        <path d="M2541.14,1250.21C2541.14,1250.21 2625.6,1265.08 2647.16,1285.01C2647.16,1285.01 2638.99,1355.81 2601.5,1384.83C2601.5,1384.83 2493.81,1351.85 2490.07,1341.88C2487.75,1335.69 2541.14,1250.21 2541.14,1250.21Z" style="fill:rgb(107,183,191);fill-rule:nonzero;"/>
        <path d="M3092.29,1672.31L124.298,1672.31C122.444,1672.31 120.928,1670.8 120.928,1668.94L120.928,1667.79C120.928,1665.94 122.444,1664.42 124.298,1664.42L3092.29,1664.42C3094.14,1664.42 3095.66,1665.94 3095.66,1667.79L3095.66,1668.94C3095.66,1670.8 3094.14,1672.31 3092.29,1672.31Z" style="fill:rgb(46,53,82);fill-rule:nonzero;"/>
    </g>
</svg>
