<?xml version="1.0" encoding="UTF-8" standalone="no"?>
<!DOCTYPE svg PUBLIC "-//W3C//DTD SVG 1.1//EN" "http://www.w3.org/Graphics/SVG/1.1/DTD/svg11.dtd">
<svg width="100%" height="100%" viewBox="0 0 562 477" version="1.1" xmlns="http://www.w3.org/2000/svg" xmlns:xlink="http://www.w3.org/1999/xlink" xml:space="preserve" xmlns:serif="http://www.serif.com/" style="fill-rule:evenodd;clip-rule:evenodd;stroke-linejoin:round;stroke-miterlimit:2;">
    <g transform="matrix(1,0,0,1,-1615.94,-731.072)">
        <path d="M1962.59,1206.6L1980.75,1202.67C1976.31,1202.53 1971.88,1202.39 1967.44,1202.26C1965.81,1203.69 1964.18,1205.12 1962.59,1206.6Z" style="fill:rgb(184,230,226);fill-rule:nonzero;"/>
        <path d="M1987.25,731.589C1946.82,727.297 1893.11,750.43 1859.54,775.125C1798.22,820.247 1751.56,870.915 1690.24,916.036C1664.65,934.865 1630.89,972.885 1619.02,1003.75C1608.24,1031.82 1610.68,1208.67 1889.65,1205.17C1918.99,1204.8 1926.9,1205.51 1931.69,1206.22C1939.39,1207.37 1938.99,1208.51 2006.81,1205.16C2051.32,1202.96 2241.51,1091.76 2154.79,904.413C2137.85,867.82 2097.34,743.274 1987.25,731.589Z" style="fill:rgb(184,230,226);fill-rule:nonzero;"/>
        <rect x="1720.4" y="802.247" width="162.47" height="257.493" style="fill:rgb(88,95,99);fill-rule:nonzero;"/>
        <rect x="1728.78" y="802.247" width="162.48" height="257.493" style="fill:rgb(129,140,145);fill-rule:nonzero;"/>
        <path d="M1881.96,827.112L1738.09,827.112C1737.19,827.112 1736.46,827.838 1736.46,828.734L1736.46,1048.82C1736.46,1049.72 1737.19,1050.44 1738.09,1050.44L1881.96,1050.44C1882.86,1050.44 1883.58,1049.72 1883.58,1048.82L1883.58,828.734C1883.58,827.838 1882.86,827.112 1881.96,827.112Z" style="fill:rgb(235,235,235);fill-rule:nonzero;"/>
        <rect x="1889.65" y="802.247" width="162.479" height="403.083" style="fill:rgb(88,95,99);fill-rule:nonzero;"/>
        <path d="M2042.83,826.488L1898.95,826.488C1898.06,826.488 1897.33,827.215 1897.33,828.11L1897.33,1048.82C1897.33,1049.72 1898.06,1050.44 1898.95,1050.44L2042.83,1050.44C2043.72,1050.44 2044.45,1049.72 2044.45,1048.82L2044.45,828.11C2044.45,827.215 2043.72,826.488 2042.83,826.488Z" style="fill:white;fill-rule:nonzero;"/>
        <path d="M2033.49,838.629L1908.29,838.629C1905.87,838.629 1903.9,839.942 1903.9,841.561L1903.9,1035.26C1903.9,1036.88 1905.87,1038.19 1908.29,1038.19L2033.49,1038.19C2035.91,1038.19 2037.88,1036.88 2037.88,1035.26L2037.88,841.561C2037.88,839.942 2035.91,838.629 2033.49,838.629Z" style="fill:rgb(206,206,212);fill-rule:nonzero;"/>
        <rect x="1903.9" y="882.321" width="133.98" height="5.875" style="fill:white;fill-rule:nonzero;"/>
        <rect x="1903.9" y="972.554" width="133.98" height="5.875" style="fill:white;fill-rule:nonzero;"/>
        <path d="M2024.15,862.481L1984.27,862.481C1983.65,862.481 1983.15,862.98 1983.15,863.596L1983.15,870.014C1983.15,876.848 1988.69,882.388 1995.53,882.388L2012.89,882.388C2019.73,882.388 2025.27,876.848 2025.27,870.014L2025.27,863.596C2025.27,862.98 2024.77,862.481 2024.15,862.481Z" style="fill:rgb(109,199,192);fill-rule:nonzero;"/>
        <path d="M2024.97,862.481L1983.45,862.481C1982.64,862.481 1981.97,863.144 1981.97,863.962C1981.97,864.78 1982.64,865.443 1983.45,865.443L2024.97,865.443C2025.78,865.443 2026.45,864.78 2026.45,863.962C2026.45,863.144 2025.78,862.481 2024.97,862.481Z" style="fill:rgb(109,199,192);fill-rule:nonzero;"/>
        <path d="M2029.27,978.429L1912.66,978.429C1911.29,978.429 1910.17,979.546 1910.17,980.922C1910.17,982.3 1911.29,983.416 1912.66,983.416L2029.27,983.416C2030.65,983.416 2031.76,982.3 2031.76,980.922C2031.76,979.546 2030.65,978.429 2029.27,978.429Z" style="fill:rgb(179,179,179);fill-rule:nonzero;"/>
        <path d="M2022.98,1038.19L1924.06,1038.19C1923.97,1036.87 1923.89,1035.54 1923.8,1034.23L1972.47,1034.23C1973.64,1034.67 1974.88,1034.93 1976.16,1034.93L1976.4,1034.93C1976.61,1034.96 1976.84,1034.98 1977.07,1034.98C1978.18,1034.98 1979.54,1034.61 1981.06,1034.23L2019.21,1034.23C2021.11,1034.23 2022.64,1032.69 2022.64,1030.8L2022.64,983.416L1932.48,983.416L2026.68,983.416L2026.68,1034.5C2026.68,1036.54 2025.02,1038.19 2022.98,1038.19Z" style="fill:rgb(240,240,242);fill-rule:nonzero;"/>
        <path d="M2019.21,1034.23L1981.06,1034.23C1982.19,1033.94 1983.4,1033.66 1984.65,1033.52C1986.11,1033.35 1987.46,1032.86 1988.63,1032.13C1989.04,1032.41 1989.52,1032.57 1990.07,1032.57C1990.75,1032.57 1991.53,1032.33 1992.45,1031.79C1992.9,1031.53 1993.5,1031.27 1993.86,1030.62C1994.48,1031.8 1995.3,1032.55 1996.95,1032.55L1997.01,1032.55C1998.74,1032.53 1999.84,1032.15 2000.97,1030.46C2001.35,1030.79 2001.74,1031.17 2002.34,1031.56C2003.38,1032.23 2004.26,1032.52 2005,1032.52C2009.13,1032.52 2008.83,1023.26 2008.25,1019.58L2008.25,1019.55C2008.24,1019.54 2008.24,1019.53 2008.24,1019.52L2008.24,1019.51C2008.24,1019.5 2008.24,1019.49 2008.23,1019.47C2008.2,1019.26 2008.18,1019.04 2008.18,1018.8C2008.17,1015.69 2010.74,1009.89 2010.75,1005.68C2010.75,1003.55 2010.1,1001.82 2008.11,1001.06C2007.8,1000.94 2007.49,1000.85 2007.21,1000.77C2006.62,1000.62 2006.09,1000.55 2005.59,1000.55C2004.2,1000.55 2003.15,1001.1 2002.38,1001.82C2002.03,1001.35 2001.64,1000.96 2001.22,1000.65C2001.22,1000.65 2001.21,1000.65 2001.21,1000.64L2001.2,1000.64C2000.79,1000.33 2000.34,1000.1 1999.9,999.934C1999.9,999.934 1999.2,999.528 1998.19,999.497C1998.4,997.825 1998.83,995.084 1999.53,994.014C2000.58,992.428 2001.53,992.761 2001.37,991.68C2001.37,991.68 2000.31,990.59 1999.24,990.59C1998.99,990.59 1998.74,990.65 1998.51,990.796C1997.37,991.498 1995.6,996.628 1996.39,999.665C1996.12,999.748 1995.96,999.828 1995.96,999.828C1995.86,999.859 1995.77,999.894 1995.67,999.931C1995.65,999.936 1995.64,999.941 1995.63,999.946C1995.29,1000.08 1994.96,1000.24 1994.64,1000.45C1994.11,1000.79 1993.61,1001.25 1993.18,1001.86C1992.39,1000.94 1991.23,1000.17 1989.57,1000.17C1988.85,1000.17 1988.05,1000.31 1987.14,1000.64C1984.56,1001.57 1984.17,1004.16 1984.54,1007.17C1983.48,1006.38 1982.5,1006.18 1981.77,1006.18C1981,1006.18 1980.51,1006.41 1980.51,1006.41C1980.51,1006.41 1976.53,1001.51 1972.87,1001.51C1972.51,1001.51 1972.15,1001.56 1971.8,1001.67C1969.9,999.371 1967.73,997.347 1964.96,996.571C1964.96,996.547 1964.95,996.523 1964.95,996.499C1964.86,994.792 1964.46,994.229 1963.98,994.229C1963.17,994.229 1962.12,995.762 1961.83,996.224C1961.75,996.226 1961.68,996.23 1961.6,996.234C1961.11,995.842 1959.44,994.625 1957.51,994.625C1956.49,994.625 1955.41,994.96 1954.38,995.925C1953.13,997.105 1952.92,998.3 1953.2,999.394C1951.53,1000.52 1949.98,1001.86 1948.61,1003.26C1947.83,1004.07 1947.11,1004.87 1946.46,1005.69C1945.42,1005.02 1944.4,1004.62 1943.43,1004.62C1943.31,1004.62 1943.2,1004.63 1943.09,1004.64C1936.65,1005.27 1940.68,1010.9 1938.07,1013.88C1935.47,1016.86 1937.13,1020.99 1938.07,1021.93C1939.02,1022.87 1934.19,1023.6 1939.02,1026.97C1946.8,1032.39 1948.45,1032.4 1960.44,1032.57L1960.57,1032.57C1961.19,1032.57 1961.7,1032.5 1962.12,1032.37L1962.16,1032.37C1962.63,1032.37 1963.09,1032.36 1963.55,1032.33C1964.29,1032.28 1965.01,1032.19 1965.71,1032.07L1968.82,1032.07C1969.91,1032.97 1971.14,1033.72 1972.47,1034.23L1923.8,1034.23C1923.12,1023.58 1922.41,1013.61 1921.83,1007.87C1921.66,1006.17 1921.42,1004.19 1921.12,1002.06C1924.57,997.66 1928.72,990.719 1932.48,983.416L2022.64,983.416L2022.64,1030.8C2022.64,1032.69 2021.11,1034.23 2019.21,1034.23Z" style="fill:rgb(231,231,232);fill-rule:nonzero;"/>
        <path d="M1975.81,967.252C1975.81,970.18 1978.18,972.554 1981.11,972.554L2013.63,972.554C2016.56,972.554 2018.94,970.18 2018.94,967.252L2018.94,949.197L1975.81,949.197L1975.81,967.252Z" style="fill:rgb(232,232,232);fill-rule:nonzero;"/>
        <path d="M2011.69,969.761L1983.06,969.761C1980.48,969.761 1978.39,967.67 1978.39,965.093L1978.39,955.985L2016.36,955.985L2016.36,965.093C2016.36,967.67 2014.27,969.761 2011.69,969.761Z" style="fill:rgb(210,186,164);fill-rule:nonzero;"/>
        <rect x="1973.71" y="946.701" width="47.32" height="5.391" style="fill:rgb(0,105,110);fill-rule:nonzero;"/>
        <path d="M1919.8,967.252C1919.8,970.18 1922.18,972.554 1925.11,972.554L1957.63,972.554C1960.56,972.554 1962.93,970.18 1962.93,967.252L1962.93,949.197L1919.8,949.197L1919.8,967.252Z" style="fill:rgb(232,232,232);fill-rule:nonzero;"/>
        <rect x="1917.71" y="946.701" width="47.32" height="5.391" style="fill:rgb(0,105,110);fill-rule:nonzero;"/>
        <path d="M1922.38,965.093C1922.38,967.67 1924.47,969.761 1927.05,969.761L1955.68,969.761C1958.26,969.761 1960.35,967.67 1960.35,965.093L1960.35,955.985L1922.38,955.985L1922.38,965.093Z" style="fill:rgb(234,70,0);fill-rule:nonzero;"/>
        <path d="M1990.07,1032.57C1989.52,1032.57 1989.04,1032.41 1988.63,1032.13C1991.63,1030.25 1993.45,1026.76 1993.03,1023.01C1992.81,1021.03 1991.87,1019.21 1990.5,1017.75C1990.4,1012.12 1989.32,1008.23 1989.29,1007.04C1989.24,1004.8 1990.82,1001.85 1993.01,1001.85C1993.06,1001.85 1993.12,1001.85 1993.17,1001.86C1992.38,1000.94 1991.22,1000.18 1989.56,1000.18C1988.97,1000.18 1988.3,1000.27 1987.57,1000.5C1987.46,1000.73 1987.36,1000.97 1987.25,1001.2C1987.24,1001.22 1987.21,1001.3 1987.16,1001.4L1987.02,1001.72C1986.95,1001.89 1986.87,1002.06 1986.8,1002.23C1986.64,1002.62 1986.48,1003.01 1986.34,1003.41C1986.07,1004.19 1985.84,1004.98 1985.65,1005.78C1985.64,1006.69 1985.66,1007.6 1985.73,1008.52C1985.42,1007.99 1985.02,1007.53 1984.54,1007.17C1984.17,1004.16 1984.56,1001.57 1987.14,1000.64C1988.05,1000.31 1988.85,1000.17 1989.57,1000.17C1991.23,1000.17 1992.39,1000.94 1993.18,1001.86C1993.61,1001.25 1994.11,1000.79 1994.64,1000.45C1994.06,1002.06 1993.55,1003.68 1993.22,1005.36C1993.08,1006.5 1993.04,1007.65 1993.12,1008.81C1993.52,1011.52 1994.52,1014.12 1994.94,1016.83C1995.2,1018.54 1995.37,1020.27 1995.44,1021.99C1995.48,1022.96 1995.48,1023.93 1995.55,1024.9C1995.64,1025.52 1995.79,1026.11 1995.96,1026.72C1996.03,1026.86 1996.11,1027 1996.19,1027.14C1996.29,1027.24 1996.39,1027.35 1996.49,1027.46C1996.59,1027.53 1996.69,1027.6 1996.8,1027.66C1996.88,1027.71 1997.01,1027.78 1997.13,1027.84C1997.01,1027.78 1996.87,1027.75 1996.74,1027.69C1997,1027.8 1997.17,1027.87 1997.27,1027.91L1997.21,1027.87C1997.33,1027.93 1997.42,1027.97 1997.42,1027.97C1997.42,1027.97 1997.37,1027.95 1997.27,1027.91L1997.33,1027.94C1997.82,1028.34 1998.29,1028.51 1998.71,1028.51C2000.45,1028.51 2001.47,1025.62 2001.29,1024.53C2000.69,1020.97 2003.13,1017.29 2003.66,1007.64C2003.82,1004.89 2003.26,1003.05 2002.38,1001.82C2003.15,1001.1 2004.2,1000.55 2005.59,1000.55C2006.09,1000.55 2006.62,1000.62 2007.21,1000.77C2006.62,1000.62 2006.09,1000.55 2005.59,1000.55C2005.41,1000.55 2005.24,1000.56 2005.07,1000.58C2005.55,1002.98 2005.55,1005.45 2005.18,1007.94C2004.67,1011.42 2003.77,1014.82 2003.15,1018.27C2002.92,1019.92 2002.79,1021.58 2002.93,1023.24C2003,1023.91 2003.06,1024.58 2003.13,1025.25C2003.22,1026.04 2003.35,1026.83 2003.55,1027.6C2003.6,1027.81 2003.67,1028.02 2003.73,1028.23C2003.9,1028.56 2004.05,1028.89 2004.24,1029.21C2004.32,1029.35 2004.42,1029.49 2004.5,1029.63L2004.58,1029.75C2004.72,1029.9 2004.87,1030.04 2004.92,1030.09C2005.11,1030.3 2005.32,1030.49 2005.53,1030.68L2005.77,1030.86C2006.14,1031.12 2006.51,1031.35 2006.9,1031.56C2008.96,1029.25 2008.71,1022.53 2008.25,1019.58C2008.83,1023.26 2009.13,1032.52 2005,1032.52C2004.26,1032.52 2003.38,1032.23 2002.34,1031.56C2001.74,1031.17 2001.35,1030.79 2000.97,1030.46C1999.84,1032.15 1998.74,1032.53 1997.01,1032.55L1996.95,1032.55C1995.3,1032.55 1994.48,1031.8 1993.86,1030.62C1993.5,1031.27 1992.9,1031.53 1992.45,1031.79C1991.53,1032.33 1990.75,1032.57 1990.07,1032.57ZM2008.25,1019.57L2008.25,1019.55L2008.25,1019.57ZM2008.24,1019.52L2008.24,1019.51L2008.24,1019.52ZM1987.19,1015.32C1986.99,1015.22 1986.78,1015.12 1986.57,1015.03C1986.63,1014.55 1986.68,1014.06 1986.7,1013.58L1986.71,1013.57L1986.7,1013.57C1986.7,1013.47 1986.71,1013.37 1986.71,1013.27C1986.88,1013.95 1987.04,1014.63 1987.19,1015.32ZM2001.22,1000.65C2001.22,1000.65 2001.21,1000.65 2001.21,1000.64C2001.21,1000.65 2001.22,1000.65 2001.22,1000.65ZM2001.2,1000.64C2000.79,1000.33 2000.34,1000.11 1999.9,999.935C1999.9,999.935 1999.2,999.528 1998.19,999.497C1999.2,999.528 1999.9,999.934 1999.9,999.934C2000.34,1000.1 2000.79,1000.33 2001.2,1000.64ZM1995.63,999.946C1995.64,999.941 1995.65,999.936 1995.67,999.931C1995.65,999.936 1995.64,999.941 1995.63,999.946ZM1995.67,999.931C1995.77,999.894 1995.86,999.859 1995.96,999.828C1995.96,999.828 1996.12,999.748 1996.39,999.665C1996.12,999.748 1995.96,999.828 1995.96,999.828C1995.86,999.859 1995.77,999.894 1995.67,999.931Z" style="fill:rgb(245,192,111);fill-rule:nonzero;"/>
        <path d="M1996.39,999.665C1995.6,996.628 1997.37,991.498 1998.51,990.796C1998.74,990.65 1998.99,990.59 1999.24,990.59C2000.31,990.59 2001.37,991.68 2001.37,991.68C2001.53,992.761 2000.58,992.428 1999.53,994.014C1998.83,995.084 1998.4,997.825 1998.19,999.497C1998.15,999.496 1998.11,999.495 1998.07,999.495C1998.02,999.495 1997.98,999.495 1997.94,999.497C1997.83,999.487 1997.71,999.482 1997.6,999.482C1997.1,999.482 1996.68,999.575 1996.39,999.665Z" style="fill:rgb(138,173,120);fill-rule:nonzero;"/>
        <path d="M2006.9,1031.56C2006.51,1031.35 2006.14,1031.12 2005.77,1030.86L2005.53,1030.68C2005.32,1030.49 2005.11,1030.3 2004.92,1030.09C2004.87,1030.04 2004.72,1029.9 2004.58,1029.75L2004.5,1029.63C2004.42,1029.49 2004.32,1029.35 2004.24,1029.21C2004.05,1028.89 2003.9,1028.56 2003.73,1028.23C2003.67,1028.02 2003.6,1027.81 2003.55,1027.6C2003.35,1026.83 2003.22,1026.04 2003.13,1025.25C2003.06,1024.58 2003,1023.91 2002.93,1023.24C2002.79,1021.58 2002.92,1019.92 2003.15,1018.27C2003.77,1014.82 2004.67,1011.42 2005.18,1007.94C2005.55,1005.45 2005.55,1002.98 2005.07,1000.58C2005.24,1000.56 2005.41,1000.55 2005.59,1000.55C2006.09,1000.55 2006.62,1000.62 2007.21,1000.77C2007.49,1000.85 2007.8,1000.94 2008.11,1001.06C2010.1,1001.82 2010.75,1003.55 2010.75,1005.68C2010.74,1009.89 2008.17,1015.69 2008.18,1018.8C2008.18,1019.04 2008.2,1019.26 2008.23,1019.47C2008.24,1019.49 2008.24,1019.5 2008.24,1019.51L2008.24,1019.52C2008.24,1019.53 2008.24,1019.54 2008.25,1019.55L2008.25,1019.58C2008.71,1022.53 2008.96,1029.25 2006.9,1031.56Z" style="fill:rgb(239,210,108);fill-rule:nonzero;"/>
        <path d="M1990.5,1017.75C1989.57,1016.75 1988.43,1015.92 1987.19,1015.32C1987.04,1014.63 1986.88,1013.95 1986.71,1013.27C1986.75,1011.48 1986.47,1009.79 1985.73,1008.52C1985.66,1007.6 1985.64,1006.69 1985.65,1005.78C1985.84,1004.98 1986.07,1004.19 1986.34,1003.41C1986.48,1003.01 1986.64,1002.62 1986.8,1002.23C1986.87,1002.06 1986.95,1001.89 1987.02,1001.72L1987.16,1001.4C1987.21,1001.3 1987.24,1001.22 1987.25,1001.2C1987.36,1000.97 1987.46,1000.73 1987.57,1000.5C1988.3,1000.27 1988.97,1000.18 1989.56,1000.18C1991.22,1000.18 1992.38,1000.94 1993.17,1001.86C1993.12,1001.85 1993.06,1001.85 1993.01,1001.85C1990.82,1001.85 1989.24,1004.8 1989.29,1007.04C1989.32,1008.23 1990.4,1012.12 1990.5,1017.75Z" style="fill:rgb(239,210,108);fill-rule:nonzero;"/>
        <path d="M1997.27,1027.91C1997.17,1027.87 1997,1027.8 1996.74,1027.69C1996.87,1027.75 1997.01,1027.78 1997.13,1027.84L1997.21,1027.87L1997.27,1027.91Z" style="fill:rgb(239,210,108);fill-rule:nonzero;"/>
        <path d="M1998.71,1028.51C1998.29,1028.51 1997.82,1028.34 1997.33,1027.94L1997.27,1027.91C1997.37,1027.95 1997.42,1027.97 1997.42,1027.97C1997.42,1027.97 1997.33,1027.93 1997.21,1027.87L1997.13,1027.84C1997.01,1027.78 1996.88,1027.71 1996.8,1027.66C1996.69,1027.6 1996.59,1027.53 1996.49,1027.46C1996.39,1027.35 1996.29,1027.24 1996.19,1027.14C1996.11,1027 1996.03,1026.86 1995.96,1026.72C1995.79,1026.11 1995.64,1025.52 1995.55,1024.9C1995.48,1023.93 1995.48,1022.96 1995.44,1021.99C1995.37,1020.27 1995.2,1018.54 1994.94,1016.83C1994.52,1014.12 1993.52,1011.52 1993.12,1008.81C1993.04,1007.65 1993.08,1006.5 1993.22,1005.36C1993.55,1003.68 1994.06,1002.06 1994.64,1000.45C1994.96,1000.24 1995.29,1000.08 1995.63,999.946C1995.64,999.941 1995.65,999.936 1995.67,999.931C1995.77,999.894 1995.86,999.859 1995.96,999.828C1995.96,999.828 1996.12,999.748 1996.39,999.665C1996.68,999.575 1997.1,999.482 1997.6,999.482C1997.71,999.482 1997.83,999.487 1997.94,999.497C1997.98,999.495 1998.02,999.495 1998.07,999.495C1998.11,999.495 1998.15,999.496 1998.19,999.497C1999.2,999.528 1999.9,999.935 1999.9,999.935C2000.34,1000.11 2000.79,1000.33 2001.2,1000.64L2001.21,1000.64C2001.21,1000.65 2001.22,1000.65 2001.22,1000.65C2001.64,1000.96 2002.03,1001.35 2002.38,1001.82C2003.26,1003.05 2003.82,1004.89 2003.66,1007.64C2003.13,1017.29 2000.69,1020.97 2001.29,1024.53C2001.47,1025.62 2000.45,1028.51 1998.71,1028.51Z" style="fill:rgb(239,210,108);fill-rule:nonzero;"/>
        <path d="M1960.57,1032.57L1960.44,1032.57C1948.45,1032.4 1946.8,1032.39 1939.02,1026.97C1934.19,1023.6 1939.02,1022.87 1938.07,1021.93C1937.13,1020.99 1935.47,1016.86 1938.07,1013.88C1940.68,1010.9 1936.65,1005.27 1943.09,1004.64C1943.2,1004.63 1943.31,1004.62 1943.43,1004.62C1944.4,1004.62 1945.42,1005.02 1946.46,1005.69C1944.52,1008.14 1943.23,1010.7 1942.8,1013.82C1941.73,1021.42 1946.34,1027.63 1953.25,1030.57C1953.4,1031.19 1953.68,1031.7 1954.1,1032.07L1958.45,1032.07C1958.58,1032.09 1958.7,1032.11 1958.83,1032.12C1959.95,1032.29 1961.05,1032.37 1962.12,1032.37C1961.7,1032.5 1961.19,1032.57 1960.57,1032.57Z" style="fill:rgb(174,204,135);fill-rule:nonzero;"/>
        <path d="M1968.82,1032.07L1965.71,1032.07C1966.54,1031.91 1967.35,1031.71 1968.13,1031.45C1968.35,1031.66 1968.59,1031.87 1968.82,1032.07ZM1958.45,1032.07L1954.1,1032.07C1953.68,1031.7 1953.4,1031.19 1953.25,1030.57C1954.87,1031.26 1956.62,1031.76 1958.45,1032.07ZM1986.57,1015.03C1986.09,1014.83 1985.6,1014.67 1985.09,1014.54L1986.7,1013.58C1986.68,1014.06 1986.63,1014.55 1986.57,1015.03ZM1981.97,1013.93L1981.25,1013.63C1981.25,1013.63 1980.67,1011.53 1979.1,1009.19C1978.03,1006.68 1976.34,1004.06 1973.74,1002.35C1973.65,1002.52 1973.55,1002.7 1973.44,1002.87C1975.9,1004.48 1977.48,1006.9 1978.48,1009.24C1978.13,1009.58 1977.79,1010.01 1977.76,1010.17C1977.62,1010.34 1977.48,1010.53 1977.34,1010.73C1976.42,1008.24 1975.03,1005.86 1973.37,1003.66C1972.86,1002.99 1972.34,1002.32 1971.8,1001.67C1972.15,1001.56 1972.51,1001.51 1972.87,1001.51C1976.53,1001.51 1980.51,1006.41 1980.51,1006.41C1980.51,1006.41 1981,1006.18 1981.77,1006.18C1982.5,1006.18 1983.48,1006.38 1984.54,1007.17C1985.02,1007.53 1985.42,1007.99 1985.73,1008.52C1986.47,1009.79 1986.75,1011.48 1986.71,1013.27C1986.71,1013.37 1986.7,1013.47 1986.7,1013.57L1981.97,1013.93Z" style="fill:rgb(174,204,135);fill-rule:nonzero;"/>
        <path d="M1962.16,1032.37L1962.12,1032.37C1961.05,1032.37 1959.95,1032.29 1958.83,1032.12C1958.7,1032.11 1958.58,1032.09 1958.45,1032.07C1956.62,1031.76 1954.87,1031.26 1953.25,1030.57C1946.34,1027.63 1941.73,1021.42 1942.8,1013.82C1943.23,1010.7 1944.52,1008.14 1946.46,1005.69C1947.11,1004.87 1947.83,1004.07 1948.61,1003.26C1949.98,1001.86 1951.53,1000.52 1953.2,999.394C1953.66,1001.23 1955.52,1002.78 1956.23,1003.51C1956.23,1003.51 1951.8,1005.17 1956.98,1009.6C1962.17,1014.02 1962.76,1014.44 1963.21,1018.16C1963.21,1018.16 1961.49,1018.9 1962.52,1023.04C1963.55,1027.18 1963.19,1032.11 1963.19,1032.11L1963.55,1032.33C1963.09,1032.36 1962.63,1032.37 1962.16,1032.37ZM1963.55,1032.33C1964.56,1031.32 1965.39,1030.2 1966.06,1029.03C1966.64,1029.89 1967.34,1030.71 1968.13,1031.45C1967.35,1031.71 1966.54,1031.91 1965.71,1032.07C1965.01,1032.19 1964.29,1032.28 1963.55,1032.33ZM1968.48,1015.5C1968.22,1012.35 1967.57,1009.75 1967.15,1008.45C1966.03,1004.96 1963.09,1002.86 1963.09,1002.86C1962.42,1000.78 1965.19,1001.51 1964.96,996.571C1967.73,997.347 1969.9,999.371 1971.8,1001.67C1972.34,1002.32 1972.86,1002.99 1973.37,1003.66C1975.03,1005.86 1976.42,1008.24 1977.34,1010.73C1976.77,1011.52 1976.22,1012.44 1975.89,1013.13L1974.81,1013.51C1974.6,1013.55 1974.38,1013.6 1974.17,1013.66L1970.32,1013.32C1970.32,1013.32 1971.36,1013.75 1972.37,1014.16C1972.36,1014.17 1972.34,1014.17 1972.32,1014.17C1970.91,1014.33 1969.61,1014.8 1968.48,1015.5ZM1961.75,996.354C1961.75,996.354 1961.7,996.309 1961.6,996.234C1961.68,996.23 1961.75,996.226 1961.83,996.224C1961.78,996.306 1961.75,996.354 1961.75,996.354Z" style="fill:rgb(185,220,141);fill-rule:nonzero;"/>
        <path d="M1963.55,1032.33L1963.19,1032.11C1963.19,1032.11 1963.55,1027.18 1962.52,1023.04C1961.49,1018.9 1963.21,1018.16 1963.21,1018.16C1962.76,1014.44 1962.17,1014.02 1956.98,1009.6C1951.8,1005.17 1956.23,1003.51 1956.23,1003.51C1955.52,1002.78 1953.66,1001.23 1953.2,999.394C1952.92,998.3 1953.13,997.105 1954.38,995.925C1955.41,994.96 1956.49,994.625 1957.51,994.625C1959.44,994.625 1961.11,995.842 1961.6,996.234C1961.7,996.309 1961.75,996.354 1961.75,996.354C1961.75,996.354 1955.05,1000.34 1962.95,1010.81C1964.65,1013.07 1965.64,1015.36 1966.16,1017.56C1964.67,1019.41 1963.89,1021.83 1964.17,1024.38C1964.31,1025.58 1964.77,1026.88 1965.49,1028.13C1964.62,1030.71 1963.55,1032.33 1963.55,1032.33Z" style="fill:rgb(198,225,162);fill-rule:nonzero;"/>
        <path d="M1963.55,1032.33C1963.55,1032.33 1964.62,1030.71 1965.49,1028.13C1965.66,1028.44 1965.85,1028.74 1966.06,1029.03C1965.39,1030.2 1964.56,1031.32 1963.55,1032.33ZM1966.16,1017.56C1965.64,1015.36 1964.65,1013.07 1962.95,1010.81C1955.05,1000.34 1961.75,996.354 1961.75,996.354C1961.75,996.354 1961.78,996.306 1961.83,996.224C1962.12,995.762 1963.17,994.229 1963.98,994.229C1964.46,994.229 1964.86,994.792 1964.95,996.499C1964.95,996.523 1964.96,996.547 1964.96,996.571C1965.19,1001.51 1962.42,1000.78 1963.09,1002.86C1963.09,1002.86 1966.03,1004.96 1967.15,1008.45C1967.57,1009.75 1968.22,1012.35 1968.48,1015.5C1967.59,1016.05 1966.81,1016.75 1966.16,1017.56Z" style="fill:rgb(209,230,183);fill-rule:nonzero;"/>
        <path d="M1977.07,1034.98C1976.84,1034.98 1976.61,1034.96 1976.4,1034.93L1976.16,1034.93C1974.88,1034.93 1973.64,1034.67 1972.47,1034.23L1981.06,1034.23C1979.54,1034.61 1978.18,1034.98 1977.07,1034.98Z" style="fill:rgb(236,138,97);fill-rule:nonzero;"/>
        <path d="M1981.06,1034.23L1972.47,1034.23C1971.14,1033.72 1969.91,1032.97 1968.82,1032.07C1968.59,1031.87 1968.35,1031.66 1968.13,1031.45C1967.34,1030.71 1966.64,1029.89 1966.06,1029.03C1965.85,1028.74 1965.66,1028.44 1965.49,1028.13C1964.77,1026.88 1964.31,1025.58 1964.17,1024.38C1963.89,1021.83 1964.67,1019.41 1966.16,1017.56C1966.81,1016.75 1967.59,1016.05 1968.48,1015.5C1969.61,1014.8 1970.91,1014.33 1972.32,1014.17C1972.34,1014.17 1972.36,1014.17 1972.37,1014.16C1973.23,1014.52 1974.08,1014.86 1974.25,1014.93C1974.27,1014.94 1974.3,1014.94 1974.34,1014.94C1974.67,1014.94 1975.68,1014.68 1976.67,1014.4C1976.05,1016.45 1975.6,1017.5 1975.89,1017.5C1976.03,1017.5 1976.34,1017.26 1976.88,1016.77C1976.88,1016.77 1977.36,1015.68 1977.93,1014.03L1978.01,1014L1980.06,1015.8C1980.06,1015.8 1980.08,1015.87 1980.1,1015.98C1980.1,1016.11 1980.1,1016.22 1980.09,1016.27L1980.19,1016.29C1980.4,1017.08 1980.83,1018.61 1981.12,1019.23C1980.97,1018.41 1981.37,1016 1981.37,1016L1980.63,1014.77L1980.6,1014.54L1981.67,1015.05L1984.43,1014.94L1985.09,1014.54C1985.6,1014.67 1986.09,1014.83 1986.57,1015.03C1986.78,1015.12 1986.99,1015.22 1987.19,1015.32C1988.43,1015.92 1989.57,1016.75 1990.5,1017.75C1991.87,1019.21 1992.81,1021.03 1993.03,1023.01C1993.45,1026.76 1991.63,1030.25 1988.63,1032.13C1987.46,1032.86 1986.11,1033.35 1984.65,1033.52C1983.4,1033.66 1982.19,1033.94 1981.06,1034.23ZM1974.33,1013.67L1974.17,1013.66C1974.38,1013.6 1974.6,1013.55 1974.81,1013.51L1974.33,1013.67Z" style="fill:rgb(233,134,93);fill-rule:nonzero;"/>
        <path d="M1981.12,1019.23C1980.83,1018.61 1980.4,1017.08 1980.19,1016.29L1980.09,1016.27C1980.1,1016.22 1980.1,1016.11 1980.1,1015.98C1980.08,1015.87 1980.06,1015.8 1980.06,1015.8L1978.01,1014L1977.93,1014.03C1977.36,1015.68 1976.88,1016.77 1976.88,1016.77C1976.34,1017.26 1976.03,1017.5 1975.89,1017.5C1975.6,1017.5 1976.05,1016.45 1976.67,1014.4C1975.68,1014.68 1974.67,1014.94 1974.34,1014.94C1974.3,1014.94 1974.27,1014.94 1974.25,1014.93C1974.08,1014.86 1973.23,1014.52 1972.37,1014.16C1971.36,1013.75 1970.32,1013.32 1970.32,1013.32L1974.17,1013.66L1974.33,1013.67L1974.81,1013.51L1975.89,1013.13C1976.22,1012.44 1976.77,1011.52 1977.34,1010.73C1977.48,1010.53 1977.62,1010.34 1977.76,1010.17C1977.79,1010.01 1978.13,1009.58 1978.48,1009.24C1977.48,1006.9 1975.9,1004.48 1973.44,1002.87C1973.55,1002.7 1973.65,1002.52 1973.74,1002.35C1976.34,1004.06 1978.03,1006.68 1979.1,1009.19C1980.67,1011.53 1981.25,1013.63 1981.25,1013.63L1981.97,1013.93L1986.7,1013.57L1986.71,1013.57L1986.7,1013.58L1985.09,1014.54L1984.43,1014.94L1981.67,1015.05L1980.6,1014.54L1980.63,1014.77L1981.37,1016C1981.37,1016 1980.97,1018.41 1981.12,1019.23Z" style="fill:rgb(138,173,120);fill-rule:nonzero;"/>
        <path d="M2010.73,899.577C2007.62,903.183 2009.36,908.109 2009.43,908.317C2009.54,908.615 2009.82,908.801 2010.12,908.805L2010.38,908.761C2010.77,908.62 2010.97,908.194 2010.83,907.808C2010.81,907.766 2009.3,903.502 2011.85,900.549C2012.12,900.239 2012.09,899.769 2011.78,899.501C2011.47,899.233 2011,899.266 2010.73,899.577Z" style="fill:rgb(148,98,54);fill-rule:nonzero;"/>
        <path d="M2016.23,904.073C2014.7,904.048 2013.27,904.805 2012.07,906.115C2011.36,906.715 2010.1,907.9 2010.1,907.9C2010.1,907.9 2008.76,906.278 2008.51,906.044C2007.36,904.704 2005.95,903.906 2004.43,903.88C2000.4,903.815 1995.97,906.244 1995.86,912.861C1995.76,919.476 2002.24,927.552 2006.26,927.618C2007.23,927.634 2008.03,927.348 2008.69,926.818C2008.75,926.778 2009.86,926.152 2011.17,926.861L2011.2,926.823C2011.85,927.398 2012.65,927.722 2013.64,927.738C2017.66,927.804 2024.4,919.943 2024.5,913.327C2024.61,906.71 2020.25,904.139 2016.23,904.073Z" style="fill:rgb(234,70,0);fill-rule:nonzero;"/>
        <path d="M2019.1,907.149C2015.78,905.266 2013.41,907.285 2013.41,907.285C2013.41,907.285 2011.39,909.143 2013.98,910.792C2020.52,914.966 2017.45,923.81 2020.52,919.346C2023.59,914.883 2022.42,909.033 2019.1,907.149Z" style="fill:rgb(227,53,62);fill-rule:nonzero;"/>
        <path d="M1989.96,899.577C1986.84,903.183 1988.58,908.109 1988.66,908.317C1988.77,908.615 1989.05,908.801 1989.35,908.805L1989.61,908.761C1990,908.62 1990.19,908.194 1990.05,907.808C1990.04,907.766 1988.53,903.502 1991.08,900.549C1991.35,900.239 1991.31,899.769 1991,899.501C1990.69,899.233 1990.23,899.266 1989.96,899.577Z" style="fill:rgb(148,98,54);fill-rule:nonzero;"/>
        <path d="M1995.46,904.073C1993.93,904.048 1992.5,904.805 1991.3,906.115C1990.59,906.715 1989.33,907.9 1989.33,907.9C1989.33,907.9 1987.99,906.278 1987.73,906.044C1986.58,904.704 1985.18,903.906 1983.65,903.88C1979.63,903.815 1975.2,906.244 1975.09,912.861C1974.98,919.476 1981.47,927.552 1985.49,927.618C1986.46,927.634 1987.25,927.348 1987.91,926.818C1987.98,926.778 1989.09,926.152 1990.4,926.861L1990.42,926.823C1991.07,927.398 1991.88,927.722 1992.87,927.738C1996.88,927.804 2003.63,919.943 2003.73,913.327C2003.84,906.71 1999.48,904.139 1995.46,904.073Z" style="fill:rgb(255,166,31);fill-rule:nonzero;"/>
        <path d="M1998.54,920.573C1997.51,920.572 1998.49,914.161 1993.21,910.792C1990.62,909.143 1992.63,907.285 1992.63,907.285C1992.63,907.285 1993.74,906.346 1995.49,906.346C1996.31,906.346 1997.27,906.55 1998.33,907.15C2001.65,909.033 2002.82,914.883 1999.75,919.347C1999.16,920.208 1998.79,920.573 1998.54,920.573Z" style="fill:rgb(255,184,76);fill-rule:nonzero;"/>
        <rect x="1903.9" y="927.437" width="133.98" height="5.875" style="fill:white;fill-rule:nonzero;"/>
        <path d="M1767.91,982.114C1767.7,981.509 1767.49,980.882 1767.28,980.253C1766.42,977.676 1765.62,974.988 1765.61,972.261L1765.61,969.065C1765.11,969.036 1764.23,969.002 1761.12,969.011C1760.74,969.012 1760.37,969.014 1760.03,969.015C1759.69,969.016 1759.33,969.016 1758.95,969.017C1755.84,969.026 1754.96,969.065 1754.46,969.095L1754.47,972.292C1754.48,975.019 1753.69,977.71 1752.85,980.293C1752.64,980.924 1752.43,981.551 1752.22,982.158C1750.88,986.067 1750.26,989.329 1750.27,992.423L1750.35,1021.29C1750.36,1023.17 1751.89,1024.7 1753.77,1024.69L1766.6,1024.66C1768.48,1024.65 1770.01,1023.12 1770,1021.24L1769.92,992.369C1769.91,989.274 1769.28,986.017 1767.91,982.114Z" style="fill:rgb(97,199,191);fill-rule:nonzero;"/>
        <path d="M1766.6,1024.2L1762.06,1023.51L1758.3,1023.52L1753.77,1024.23C1752.14,1024.24 1750.82,1022.92 1750.81,1021.29L1750.73,992.422C1750.72,989.38 1751.34,986.166 1752.66,982.307C1752.87,981.698 1753.08,981.069 1753.29,980.435C1754.14,977.807 1754.94,975.065 1754.93,972.291L1754.92,969.533C1755.58,969.509 1756.49,969.484 1758.95,969.477C1759.33,969.476 1759.69,969.476 1760.03,969.476L1760.04,969.476C1760.37,969.473 1760.74,969.472 1761.12,969.471C1763.57,969.464 1764.48,969.484 1765.15,969.505L1765.15,972.262C1765.16,975.038 1765.97,977.774 1766.84,980.398C1767.05,981.031 1767.27,981.659 1767.48,982.266C1768.82,986.118 1769.45,989.329 1769.46,992.371L1769.54,1021.24C1769.55,1022.86 1768.23,1024.19 1766.6,1024.2ZM1768.35,981.963C1768.12,981.314 1767.91,980.691 1767.72,980.109C1766.88,977.576 1766.08,974.927 1766.07,972.26L1766.06,968.673C1766.18,968.56 1763.54,968.545 1761.12,968.551C1760.74,968.552 1760.37,968.554 1760.03,968.555C1759.69,968.555 1759.33,968.556 1758.94,968.557C1756.52,968.564 1753.89,968.594 1754,968.706L1754.01,972.293C1754.02,974.96 1753.24,977.614 1752.41,980.15C1752.22,980.734 1752.01,981.359 1751.79,982.008C1750.67,985.273 1749.8,988.787 1749.81,992.425L1749.89,1021.29C1749.9,1023.43 1751.63,1025.16 1753.77,1025.15L1758.31,1025.14L1762.07,1025.13L1766.6,1025.12C1768.74,1025.11 1770.47,1023.37 1770.46,1021.23L1770.38,992.368C1770.37,988.731 1769.49,985.221 1768.35,981.963Z" style="fill:rgb(109,199,192);fill-rule:nonzero;"/>
        <path d="M1766.91,982.464C1766.7,981.853 1766.48,981.221 1766.27,980.586C1765.82,979.214 1765.48,977.81 1765.25,976.387L1754.85,976.416C1754.64,977.84 1754.3,979.246 1753.86,980.62C1753.65,981.257 1753.44,981.89 1753.23,982.501C1751.92,986.295 1751.32,989.448 1751.33,992.421L1751.41,1021.29C1751.41,1022.58 1752.47,1023.64 1753.77,1023.63C1753.77,1023.63 1758.68,1022.77 1760.4,1022.79C1762.02,1022.8 1766.6,1023.6 1766.6,1023.6C1767.89,1023.59 1768.95,1022.54 1768.94,1021.24L1768.86,992.373C1768.86,989.399 1768.23,986.251 1766.91,982.464Z" style="fill:rgb(234,70,0);fill-rule:nonzero;"/>
        <path d="M1766.18,966.427L1753.87,966.461C1753.56,966.462 1753.3,966.716 1753.3,967.027L1753.31,969.899C1753.31,970.211 1753.57,970.463 1753.88,970.463L1766.19,970.429C1766.51,970.428 1766.76,970.175 1766.76,969.863L1766.75,966.99C1766.75,966.678 1766.5,966.426 1766.18,966.427Z" style="fill:rgb(234,70,0);fill-rule:nonzero;"/>
        <path d="M1761.05,969.999C1760.89,969.999 1760.77,969.871 1760.77,969.714L1760.76,967.172C1760.76,967.015 1760.89,966.886 1761.04,966.886L1764.89,966.875C1765.05,966.875 1765.18,967.002 1765.18,967.16L1765.18,969.702C1765.19,969.86 1765.06,969.987 1764.9,969.988L1761.05,969.999Z" style="fill:rgb(242,144,102);fill-rule:nonzero;"/>
        <path d="M1766.39,970.778L1753.69,970.812C1753.39,970.813 1753.14,971.058 1753.14,971.358C1753.15,971.658 1753.39,971.9 1753.69,971.899L1766.39,971.865C1766.69,971.864 1766.93,971.619 1766.93,971.319C1766.93,971.019 1766.69,970.777 1766.39,970.778Z" style="fill:rgb(109,199,192);fill-rule:nonzero;"/>
        <path d="M1759.68,976.402C1759.79,975.043 1759.86,973.665 1759.86,972.277L1759.86,972.035L1763.98,972.024L1763.98,972.265C1763.99,973.653 1764.07,975.031 1764.19,976.39L1759.68,976.402Z" style="fill:rgb(160,221,217);fill-rule:nonzero;"/>
        <path d="M1765.66,1009.84L1758.39,1009.84L1758.34,992.401C1758.33,989.306 1758.56,986.045 1759.05,982.139C1759.12,981.533 1759.2,980.905 1759.27,980.275C1759.42,979.008 1759.57,977.714 1759.68,976.402L1764.19,976.39C1764.3,977.701 1764.46,978.994 1764.61,980.261C1764.69,980.891 1764.77,981.517 1764.85,982.123C1765.36,986.027 1765.6,989.287 1765.61,992.381L1765.66,1009.84Z" style="fill:rgb(242,144,102);fill-rule:nonzero;"/>
        <path d="M1749.74,990.901L1749.81,1016.48L1770.51,1016.42L1770.44,990.844L1749.74,990.901Z" style="fill:rgb(255,166,31);fill-rule:nonzero;"/>
        <path d="M1797.49,982.114C1797.27,981.509 1797.06,980.882 1796.85,980.253C1796,977.676 1795.2,974.988 1795.19,972.261L1795.18,969.065C1794.68,969.036 1793.8,969.002 1790.69,969.011C1790.31,969.012 1789.94,969.014 1789.61,969.015C1789.27,969.016 1788.9,969.016 1788.52,969.017C1785.41,969.026 1784.53,969.065 1784.03,969.095L1784.04,972.292C1784.05,975.019 1783.26,977.71 1782.42,980.293C1782.22,980.924 1782.01,981.551 1781.8,982.158C1780.46,986.067 1779.84,989.329 1779.84,992.423L1779.92,1021.29C1779.93,1023.17 1781.46,1024.7 1783.34,1024.69L1796.17,1024.66C1798.05,1024.65 1799.58,1023.12 1799.57,1021.24L1799.5,992.369C1799.49,989.274 1798.85,986.017 1797.49,982.114Z" style="fill:rgb(97,199,191);fill-rule:nonzero;"/>
        <path d="M1796.17,1024.2L1791.64,1023.51L1787.87,1023.52L1783.34,1024.23C1781.72,1024.24 1780.39,1022.92 1780.38,1021.29L1780.3,992.422C1780.3,989.38 1780.91,986.166 1782.23,982.307C1782.44,981.698 1782.65,981.069 1782.86,980.435C1783.72,977.807 1784.51,975.065 1784.5,972.291L1784.5,969.533C1785.16,969.509 1786.07,969.484 1788.52,969.477C1788.9,969.476 1789.27,969.476 1789.61,969.476C1789.95,969.473 1790.31,969.472 1790.69,969.471C1793.15,969.464 1794.06,969.484 1794.72,969.505L1794.73,972.262C1794.74,975.038 1795.55,977.774 1796.42,980.398C1796.63,981.031 1796.84,981.659 1797.05,982.266C1798.4,986.118 1799.03,989.329 1799.04,992.371L1799.11,1021.24C1799.12,1022.86 1797.8,1024.19 1796.17,1024.2ZM1797.92,981.963C1797.69,981.314 1797.48,980.691 1797.29,980.109C1796.45,977.576 1795.66,974.927 1795.65,972.26L1795.64,968.673C1795.75,968.56 1793.11,968.545 1790.69,968.551C1790.31,968.552 1789.94,968.554 1789.61,968.555C1789.27,968.555 1788.9,968.556 1788.52,968.557C1786.1,968.564 1783.46,968.594 1783.57,968.706L1783.58,972.293C1783.59,974.96 1782.81,977.614 1781.98,980.15C1781.79,980.734 1781.59,981.359 1781.36,982.008C1780.24,985.273 1779.37,988.787 1779.39,992.425L1779.46,1021.29C1779.47,1023.43 1781.21,1025.16 1783.35,1025.15L1787.88,1025.14L1791.64,1025.13L1796.17,1025.12C1798.31,1025.11 1800.04,1023.37 1800.03,1021.23L1799.96,992.368C1799.95,988.731 1799.06,985.221 1797.92,981.963Z" style="fill:rgb(109,199,192);fill-rule:nonzero;"/>
        <path d="M1796.49,982.464C1796.27,981.853 1796.06,981.221 1795.85,980.586C1795.39,979.214 1795.05,977.81 1794.82,976.387L1784.43,976.416C1784.21,977.84 1783.88,979.246 1783.43,980.62C1783.22,981.257 1783.01,981.89 1782.8,982.501C1781.5,986.295 1780.9,989.448 1780.9,992.421L1780.98,1021.29C1780.99,1022.58 1782.04,1023.64 1783.34,1023.63C1783.34,1023.63 1788.25,1022.77 1789.98,1022.79C1791.59,1022.8 1796.17,1023.6 1796.17,1023.6C1797.47,1023.59 1798.52,1022.54 1798.52,1021.24L1798.44,992.373C1798.43,989.399 1797.81,986.251 1796.49,982.464Z" style="fill:rgb(234,70,0);fill-rule:nonzero;"/>
        <path d="M1795.76,966.427L1783.44,966.461C1783.13,966.462 1782.88,966.716 1782.88,967.027L1782.89,969.899C1782.89,970.211 1783.14,970.463 1783.45,970.463L1795.77,970.429C1796.08,970.428 1796.33,970.175 1796.33,969.863L1796.32,966.99C1796.32,966.678 1796.07,966.426 1795.76,966.427Z" style="fill:rgb(234,70,0);fill-rule:nonzero;"/>
        <path d="M1790.63,969.999C1790.47,969.999 1790.34,969.871 1790.34,969.714L1790.33,967.172C1790.33,967.015 1790.46,966.886 1790.62,966.886L1794.47,966.875C1794.62,966.875 1794.75,967.002 1794.75,967.16L1794.76,969.702C1794.76,969.86 1794.63,969.987 1794.47,969.988L1790.63,969.999Z" style="fill:rgb(242,144,102);fill-rule:nonzero;"/>
        <path d="M1795.96,970.778L1783.26,970.812C1782.96,970.813 1782.72,971.058 1782.72,971.358C1782.72,971.658 1782.96,971.9 1783.26,971.899L1795.97,971.865C1796.27,971.864 1796.51,971.619 1796.51,971.319C1796.51,971.019 1796.26,970.777 1795.96,970.778Z" style="fill:rgb(109,199,192);fill-rule:nonzero;"/>
        <path d="M1789.25,976.402C1789.36,975.043 1789.44,973.665 1789.43,972.277L1789.43,972.035L1793.56,972.024L1793.56,972.265C1793.56,973.653 1793.64,975.031 1793.76,976.39L1789.25,976.402Z" style="fill:rgb(160,221,217);fill-rule:nonzero;"/>
        <path d="M1795.23,1009.84L1787.96,1009.84L1787.91,992.401C1787.91,989.306 1788.13,986.045 1788.62,982.139C1788.7,981.533 1788.77,980.905 1788.85,980.275C1789,979.008 1789.14,977.714 1789.25,976.402L1793.76,976.39C1793.88,977.701 1794.03,978.994 1794.19,980.261C1794.26,980.891 1794.34,981.517 1794.42,982.123C1794.93,986.027 1795.18,989.287 1795.18,992.381L1795.23,1009.84Z" style="fill:rgb(242,144,102);fill-rule:nonzero;"/>
        <path d="M1779.32,990.901L1779.39,1016.48L1800.08,1016.42L1800.01,990.844L1779.32,990.901Z" style="fill:rgb(255,166,31);fill-rule:nonzero;"/>
        <path d="M1815.77,980.182L1815.89,1025.13L1833.89,1025.08L1833.77,980.136L1815.77,980.182Z" style="fill:rgb(0,105,110);fill-rule:nonzero;"/>
        <path d="M1824.77,985.552C1820.55,989.213 1815.79,985.575 1815.79,985.575L1815.85,1011.02L1833.85,1010.97L1833.79,985.529C1833.79,985.529 1830.23,980.826 1824.77,985.552Z" style="fill:rgb(97,199,191);fill-rule:nonzero;"/>
        <path d="M1811.57,974.164L1815.77,980.182L1833.77,980.136L1829.63,974.118L1811.57,974.164Z" style="fill:rgb(97,199,191);fill-rule:nonzero;"/>
        <path d="M1807.41,980.203L1807.53,1025.15L1815.89,1025.13L1815.77,980.182L1807.41,980.203Z" style="fill:rgb(0,105,110);fill-rule:nonzero;"/>
        <path d="M1807.41,980.203L1815.77,980.182L1811.61,974.164L1807.41,980.203Z" style="fill:rgb(0,105,110);fill-rule:nonzero;"/>
        <path d="M1827.13,969.56L1814.12,969.593C1812.74,969.597 1811.62,970.72 1811.63,972.101L1811.63,974.164L1829.64,974.118L1829.63,972.055C1829.63,970.674 1828.51,969.557 1827.13,969.56Z" style="fill:rgb(0,105,110);fill-rule:nonzero;"/>
        <path d="M1928.58,877.019C1928.58,879.947 1930.95,882.32 1933.88,882.32L1966.4,882.32C1969.33,882.32 1971.7,879.947 1971.7,877.019L1971.7,858.964L1928.58,858.964L1928.58,877.019Z" style="fill:rgb(232,232,232);fill-rule:nonzero;"/>
        <rect x="1926.48" y="856.468" width="47.32" height="5.391" style="fill:rgb(0,105,110);fill-rule:nonzero;"/>
        <path d="M1964.46,879.528L1935.82,879.528C1933.25,879.528 1931.16,877.437 1931.16,874.86L1931.16,865.752L1969.12,865.752L1969.12,874.86C1969.12,877.437 1967.03,879.528 1964.46,879.528Z" style="fill:rgb(241,241,241);fill-rule:nonzero;"/>
        <rect x="1736.46" y="870.692" width="147.12" height="17.504" style="fill:white;fill-rule:nonzero;"/>
        <rect x="1736.46" y="915.809" width="147.12" height="17.503" style="fill:white;fill-rule:nonzero;"/>
        <rect x="1736.46" y="1009.84" width="147.12" height="17.51" style="fill:white;fill-rule:nonzero;"/>
        <rect x="1889.65" y="1058.61" width="162.479" height="146.72" style="fill:rgb(156,169,176);fill-rule:nonzero;"/>
        <path d="M1811.07,894.963C1811.87,892.514 1813.32,875.908 1813.32,875.908C1813.32,875.908 1784.38,874.738 1783.02,874.058C1781.66,873.379 1780.01,901.988 1779.93,905.276C1779.85,908.564 1805.74,906.579 1813.59,911.005C1813.59,911.005 1810.26,897.413 1811.07,894.963Z" style="fill:rgb(109,199,192);fill-rule:nonzero;"/>
        <path d="M1843.36,1078.1L1926.38,1078.1L1881.99,1028.3L1843.36,1078.1Z" style="fill:rgb(219,219,219);fill-rule:nonzero;"/>
        <path d="M1926.16,1188.11C1926.55,1172.56 1925.58,1132.73 1924.51,1115.68C1923.76,1103.77 1920.52,1095.07 1920.08,1083.19C1919.42,1065.52 1919.09,1047.86 1919.03,1030.12C1918.99,1017.2 1921.42,1001.29 1907.27,994.585C1892.22,987.45 1875.2,1000.99 1878.39,1017.22C1884.5,1047.24 1886.84,1056.1 1892.48,1086.22C1895.86,1104.24 1903.3,1143.4 1906.51,1161.46C1907.73,1168.34 1910.66,1178.91 1911.87,1185.79C1912.52,1189.52 1911.04,1189.94 1914.79,1192C1928.91,1199.76 1926.01,1193.99 1926.16,1188.11Z" style="fill:rgb(224,154,116);fill-rule:nonzero;"/>
        <path d="M1853.46,1004.86C1852.17,1037.25 1849.46,1054.21 1849.29,1086.62C1849.27,1091.53 1850.3,1189.79 1851.38,1192.87C1854.16,1200.76 1863.72,1193.97 1864.96,1186.67C1865.93,1180.97 1874.65,1124.29 1874.88,1118.5C1875.35,1106.47 1875.92,1089.34 1876.13,1087.25C1877.95,1068.81 1886.07,1052.95 1892.89,1025.45C1896,1012.91 1899.35,1002.65 1888.9,991.582C1876.63,978.575 1854.29,987.116 1853.46,1004.86Z" style="fill:rgb(224,154,116);fill-rule:nonzero;"/>
        <path d="M1920.08,1083.19C1919.42,1065.52 1919.09,1047.86 1919.03,1030.12C1918.99,1017.2 1921.42,1001.29 1907.27,994.585C1892.22,987.45 1875.2,1000.99 1878.39,1017.22C1884.5,1047.24 1886.84,1056.1 1892.48,1086.22C1895.86,1104.24 1903.3,1143.4 1906.51,1161.46C1907.43,1166.65 1909.32,1173.94 1910.72,1180.16L1926.24,1180.16C1926.27,1161.72 1925.43,1130.32 1924.51,1115.68C1923.76,1103.77 1920.52,1095.07 1920.08,1083.19Z" style="fill:rgb(0,105,110);fill-rule:nonzero;"/>
        <path d="M1853.46,1004.86C1852.17,1037.25 1849.46,1054.22 1849.29,1086.62C1849.27,1090.5 1849.92,1152.76 1850.72,1180.16L1866,1180.16C1868.57,1163.69 1874.69,1123.34 1874.88,1118.5C1875.35,1106.47 1875.92,1089.34 1876.13,1087.25C1877.95,1068.81 1886.07,1052.95 1892.89,1025.45C1896,1012.91 1899.35,1002.65 1888.9,991.582C1876.63,978.575 1854.29,987.116 1853.46,1004.86Z" style="fill:rgb(0,105,110);fill-rule:nonzero;"/>
        <path d="M1904.91,892.971C1905.88,892.5 1906.41,892.249 1906.62,892.148C1905.77,892.556 1900.3,895.186 1904.91,892.971Z" style="fill:rgb(255,166,31);fill-rule:nonzero;"/>
        <path d="M1906.62,892.148L1906.69,892.111L1906.62,892.148Z" style="fill:rgb(255,166,31);fill-rule:nonzero;"/>
        <path d="M1904.91,892.971C1894.42,898.015 1897.97,908.303 1902.6,915.842C1909.29,926.725 1920.78,954.282 1921.5,959.122C1922.04,962.812 1912.42,990.944 1908.06,999.49C1906.37,1002.82 1906.28,1007.18 1910.65,1008.6C1914.49,1009.85 1916.94,1006.74 1919.25,1004.27C1927.06,995.908 1940.61,969.174 1942.64,957.872C1944.21,949.198 1929.23,914.514 1924.36,904.168C1920.71,896.433 1914.69,888.263 1904.91,892.971Z" style="fill:rgb(255,166,31);fill-rule:nonzero;"/>
        <path d="M1918.23,984.963C1917.67,982.169 1917.11,979.625 1916.58,977.593C1919.32,969.459 1921.52,961.849 1921.52,959.479C1921.52,959.342 1921.51,959.223 1921.5,959.122C1921.14,956.719 1918.13,948.716 1914.37,939.935C1915.16,934.314 1916.04,928.988 1916.88,924.138C1922.69,939.314 1929.23,954.6 1924.23,970.106C1922.62,975.097 1920.55,980.072 1918.23,984.963Z" style="fill:rgb(242,158,29);fill-rule:nonzero;"/>
        <path d="M1857.35,983.78C1850.84,1000.21 1853.75,1028.3 1853.75,1028.3L1918.53,1023.58C1920.21,998.341 1914.43,985.915 1914.43,985.915C1886.77,970.682 1857.35,983.78 1857.35,983.78Z" style="fill:rgb(0,105,110);fill-rule:nonzero;"/>
        <path d="M1874.88,1118.5C1875.35,1106.47 1875.92,1089.34 1876.13,1087.25C1876.14,1087.16 1876.15,1087.07 1876.16,1086.98C1876.15,1087.07 1876.14,1087.16 1876.13,1087.25C1875.92,1089.34 1875.35,1106.47 1874.88,1118.5ZM1876.16,1086.96C1876.17,1086.87 1876.18,1086.78 1876.18,1086.7C1876.18,1086.78 1876.17,1086.87 1876.16,1086.96ZM1876.19,1086.68C1876.2,1086.6 1876.2,1086.51 1876.21,1086.43C1876.2,1086.52 1876.2,1086.6 1876.19,1086.68ZM1876.22,1086.4C1876.23,1086.31 1876.23,1086.23 1876.24,1086.15C1876.23,1086.23 1876.23,1086.32 1876.22,1086.4ZM1876.25,1086.11C1876.26,1086.04 1876.27,1085.96 1876.27,1085.89C1876.27,1085.96 1876.26,1086.04 1876.25,1086.11ZM1876.28,1085.84C1876.29,1085.76 1876.3,1085.69 1876.31,1085.61C1876.3,1085.69 1876.29,1085.76 1876.28,1085.84ZM1876.31,1085.55C1876.32,1085.48 1876.33,1085.41 1876.34,1085.34C1876.33,1085.41 1876.32,1085.48 1876.31,1085.55ZM1876.35,1085.27C1876.36,1085.2 1876.37,1085.13 1876.37,1085.06C1876.37,1085.13 1876.36,1085.2 1876.35,1085.27ZM1876.38,1085.01C1876.39,1084.93 1876.4,1084.86 1876.41,1084.78C1876.4,1084.86 1876.39,1084.93 1876.38,1085.01ZM1876.42,1084.72C1876.43,1084.65 1876.44,1084.58 1876.45,1084.52C1876.44,1084.58 1876.43,1084.65 1876.42,1084.72ZM1876.45,1084.45C1876.46,1084.38 1876.47,1084.31 1876.48,1084.24C1876.47,1084.31 1876.46,1084.38 1876.45,1084.45ZM1876.49,1084.17C1876.5,1084.1 1876.51,1084.03 1876.52,1083.97C1876.51,1084.03 1876.5,1084.1 1876.49,1084.17ZM1876.53,1083.89C1876.54,1083.83 1876.55,1083.76 1876.56,1083.69C1876.55,1083.76 1876.54,1083.83 1876.53,1083.89ZM1876.57,1083.62C1876.58,1083.55 1876.59,1083.49 1876.6,1083.42C1876.59,1083.49 1876.58,1083.55 1876.57,1083.62ZM1876.61,1083.34C1876.62,1083.28 1876.63,1083.21 1876.64,1083.15C1876.63,1083.21 1876.62,1083.28 1876.61,1083.34ZM1876.65,1083.08C1876.66,1083 1876.67,1082.93 1876.68,1082.86C1876.67,1082.93 1876.66,1083 1876.65,1083.08ZM1876.69,1082.79C1876.7,1082.73 1876.71,1082.67 1876.72,1082.6C1876.71,1082.67 1876.7,1082.73 1876.69,1082.79ZM1876.74,1082.51C1876.75,1082.45 1876.76,1082.39 1876.77,1082.32C1876.76,1082.39 1876.75,1082.45 1876.74,1082.51ZM1876.78,1082.24C1876.79,1082.18 1876.8,1082.13 1876.81,1082.07C1876.8,1082.13 1876.79,1082.18 1876.78,1082.24ZM1876.83,1081.96C1876.84,1081.9 1876.85,1081.84 1876.85,1081.78C1876.84,1081.84 1876.84,1081.9 1876.83,1081.96ZM1876.87,1081.7C1876.88,1081.64 1876.89,1081.58 1876.9,1081.53C1876.89,1081.58 1876.88,1081.64 1876.87,1081.7ZM1876.92,1081.41C1876.93,1081.36 1876.94,1081.3 1876.94,1081.25C1876.94,1081.3 1876.93,1081.36 1876.92,1081.41ZM1876.97,1081.13C1876.97,1081.08 1876.98,1081.03 1876.99,1080.98C1876.98,1081.03 1876.97,1081.08 1876.97,1081.13ZM1877.01,1080.86C1877.02,1080.81 1877.03,1080.76 1877.04,1080.72C1877.03,1080.76 1877.02,1080.81 1877.01,1080.86ZM1877.06,1080.57C1877.07,1080.54 1877.08,1080.5 1877.08,1080.47C1877.08,1080.5 1877.07,1080.54 1877.06,1080.57ZM1877.12,1080.29C1877.12,1080.26 1877.13,1080.22 1877.13,1080.19C1877.13,1080.22 1877.12,1080.26 1877.12,1080.29ZM1877.17,1080.02C1877.17,1079.99 1877.18,1079.96 1877.18,1079.93C1877.18,1079.96 1877.17,1079.99 1877.17,1080.02ZM1877.22,1079.72C1877.23,1079.7 1877.23,1079.68 1877.23,1079.66C1877.23,1079.68 1877.23,1079.7 1877.22,1079.72Z" style="fill:rgb(165,207,203);fill-rule:nonzero;"/>
        <path d="M1885.49,1051.09C1885.48,1051.06 1885.47,1051.03 1885.47,1051C1885.47,1051.03 1885.48,1051.06 1885.49,1051.09Z" style="fill:rgb(197,197,197);fill-rule:nonzero;"/>
        <path d="M1926.24,1180.16L1917.6,1180.16C1921.07,1147.56 1887.37,1059.42 1885.49,1051.09C1885.48,1051.06 1885.47,1051.03 1885.47,1051C1887.88,1043.53 1890.47,1035.22 1892.89,1025.45L1915.06,1023.84C1915.14,1031.4 1915.02,1040.2 1914.62,1050.44C1914.39,1056.41 1915.93,1067.26 1919.75,1073.45C1919.85,1076.7 1919.96,1079.94 1920.08,1083.19C1920.52,1095.07 1923.76,1103.77 1924.51,1115.68C1925.41,1130.09 1926.24,1160.74 1926.24,1179.29L1926.24,1180.16Z" style="fill:rgb(0,94,99);fill-rule:nonzero;"/>
        <path d="M1866,1180.16L1857.54,1180.16C1859,1168.38 1859.25,1156.4 1859.11,1144.62C1858.88,1125.49 1860.97,1104.2 1854.78,1085.84C1853.74,1082.76 1851.73,1080.81 1849.37,1079.79C1849.38,1079.06 1849.39,1078.34 1849.41,1077.63C1863.68,1075.38 1876.53,1065.32 1878.47,1050.96C1879.74,1041.59 1881.05,1033.39 1882.36,1026.22L1892.89,1025.45C1890.47,1035.22 1887.88,1043.53 1885.47,1051L1885.47,1050.99C1882.04,1061.62 1878.96,1070.57 1877.23,1079.66C1877.23,1079.68 1877.23,1079.7 1877.22,1079.72C1877.21,1079.79 1877.2,1079.86 1877.18,1079.93C1877.18,1079.96 1877.17,1079.99 1877.17,1080.02C1877.16,1080.07 1877.15,1080.13 1877.13,1080.19C1877.13,1080.22 1877.12,1080.26 1877.12,1080.29C1877.1,1080.35 1877.09,1080.41 1877.08,1080.47C1877.08,1080.5 1877.07,1080.54 1877.06,1080.57C1877.06,1080.62 1877.05,1080.67 1877.04,1080.72C1877.03,1080.76 1877.02,1080.81 1877.01,1080.86C1877.01,1080.9 1877,1080.94 1876.99,1080.98C1876.98,1081.03 1876.97,1081.08 1876.97,1081.13C1876.96,1081.17 1876.95,1081.21 1876.94,1081.25C1876.94,1081.3 1876.93,1081.36 1876.92,1081.41C1876.91,1081.45 1876.9,1081.49 1876.9,1081.53C1876.89,1081.58 1876.88,1081.64 1876.87,1081.7C1876.86,1081.73 1876.86,1081.75 1876.85,1081.78C1876.85,1081.84 1876.84,1081.9 1876.83,1081.96C1876.82,1082 1876.81,1082.03 1876.81,1082.07C1876.8,1082.13 1876.79,1082.18 1876.78,1082.24C1876.78,1082.27 1876.77,1082.3 1876.77,1082.32C1876.76,1082.39 1876.75,1082.45 1876.74,1082.51C1876.73,1082.54 1876.73,1082.58 1876.72,1082.6C1876.71,1082.67 1876.7,1082.73 1876.69,1082.79C1876.69,1082.82 1876.69,1082.84 1876.68,1082.86C1876.67,1082.93 1876.66,1083 1876.65,1083.08C1876.65,1083.1 1876.64,1083.12 1876.64,1083.15C1876.63,1083.21 1876.62,1083.28 1876.61,1083.34C1876.61,1083.37 1876.6,1083.39 1876.6,1083.42C1876.59,1083.49 1876.58,1083.55 1876.57,1083.62C1876.57,1083.64 1876.56,1083.67 1876.56,1083.69C1876.55,1083.76 1876.54,1083.83 1876.53,1083.89C1876.53,1083.92 1876.52,1083.94 1876.52,1083.97C1876.51,1084.03 1876.5,1084.1 1876.49,1084.17C1876.49,1084.19 1876.49,1084.21 1876.48,1084.24C1876.47,1084.31 1876.46,1084.38 1876.45,1084.45L1876.45,1084.52C1876.44,1084.58 1876.43,1084.65 1876.42,1084.72C1876.42,1084.74 1876.41,1084.76 1876.41,1084.78C1876.4,1084.86 1876.39,1084.93 1876.38,1085.01C1876.38,1085.03 1876.38,1085.04 1876.37,1085.06C1876.37,1085.13 1876.36,1085.2 1876.35,1085.27C1876.35,1085.29 1876.34,1085.32 1876.34,1085.34C1876.33,1085.41 1876.32,1085.48 1876.31,1085.55L1876.31,1085.61C1876.3,1085.69 1876.29,1085.76 1876.28,1085.84C1876.28,1085.86 1876.28,1085.87 1876.27,1085.89C1876.27,1085.96 1876.26,1086.04 1876.25,1086.11C1876.25,1086.13 1876.25,1086.14 1876.24,1086.15C1876.23,1086.23 1876.23,1086.31 1876.22,1086.4C1876.22,1086.41 1876.21,1086.42 1876.21,1086.43C1876.2,1086.51 1876.2,1086.6 1876.19,1086.68C1876.19,1086.68 1876.19,1086.69 1876.18,1086.7C1876.18,1086.78 1876.17,1086.87 1876.16,1086.96L1876.16,1086.98C1876.15,1087.07 1876.14,1087.16 1876.13,1087.25C1875.92,1089.34 1875.35,1106.47 1874.88,1118.5C1874.69,1123.34 1868.57,1163.69 1866,1180.16Z" style="fill:rgb(0,94,99);fill-rule:nonzero;"/>
        <path d="M1882.36,1026.22C1885.74,1007.83 1889.13,996.188 1891.85,988.945C1898.97,988.592 1906.57,988.364 1911.77,988.234C1913.48,994.865 1914.86,1005.82 1915.06,1023.84L1892.89,1025.45L1882.36,1026.22Z" style="fill:rgb(0,94,99);fill-rule:nonzero;"/>
        <path d="M1920.54,900.338C1920.43,892.795 1912.92,889.655 1912.92,889.655C1900.2,880.855 1884.09,879.288 1871.07,882.352C1864.49,883.898 1855.5,887.513 1851.07,895.965C1848.39,901.097 1851.71,913.497 1851.07,915.846C1850.53,917.87 1857.83,942.673 1857.86,949.689C1857.88,956.705 1856.47,998.179 1856.47,998.179C1856.47,998.179 1865.37,991.87 1875.66,990.253C1885.95,988.636 1918.24,988.092 1918.24,988.092C1916.11,981.408 1911.62,969.353 1912.25,959.921C1914.04,932.979 1920.64,907.882 1920.54,900.338Z" style="fill:rgb(255,166,31);fill-rule:nonzero;"/>
        <path d="M1872.87,868.108L1873.53,881.165C1881.63,887.779 1895.26,883.802 1895.26,883.802C1895.26,883.802 1891.39,878.814 1890.64,866.807C1890.43,863.482 1872.87,868.108 1872.87,868.108Z" style="fill:rgb(224,154,116);fill-rule:nonzero;"/>
        <path d="M1884.83,829.851C1876.35,825.858 1862.97,835.581 1862.97,835.581C1856.39,846.915 1859.72,874.063 1869.28,876.079C1878.83,878.095 1893.51,870.02 1893.51,870.02C1893.51,870.02 1898.51,851.691 1898.33,846.937C1898.15,842.183 1893.3,833.844 1884.83,829.851Z" style="fill:rgb(224,154,116);fill-rule:nonzero;"/>
        <path d="M1885.76,828.095C1876.02,825.369 1866.57,829.211 1860.79,832.23C1855.01,835.249 1855.76,848.393 1855.76,848.393C1855.76,848.393 1857.5,849.405 1861.06,850.917C1864.62,852.428 1872.71,872.662 1877.86,875.837C1880.51,877.471 1888.07,875.771 1892.03,873.603C1893.79,872.634 1898.04,864.372 1899.26,857.52C1901.77,843.402 1895.5,830.82 1885.76,828.095Z" style="fill:rgb(4,49,72);fill-rule:nonzero;"/>
        <path d="M1864.94,856.029C1864.94,856.029 1866.48,863.856 1869.08,863.947C1871.68,864.038 1870.35,858.981 1868.86,855.282C1867.38,851.583 1864.94,856.029 1864.94,856.029Z" style="fill:rgb(224,154,116);fill-rule:nonzero;"/>
        <path d="M1888.63,843.59C1888.63,843.59 1881.78,862.13 1894.49,865.947C1907.21,869.763 1909.06,848.713 1905.02,843.292C1899.04,835.274 1888.63,843.59 1888.63,843.59Z" style="fill:rgb(4,49,72);fill-rule:nonzero;"/>
        <path d="M1850.56,1186.59C1850.56,1186.59 1840.56,1194.95 1834.39,1195.95C1828.22,1196.96 1826.82,1202.13 1826.82,1202.13C1827.75,1204.67 1832.34,1205.39 1835.32,1205.33C1843.74,1205.14 1865.75,1205.32 1865.75,1205.32C1870.76,1198.31 1865.24,1186.59 1865.24,1186.59L1850.56,1186.59Z" style="fill:white;fill-rule:nonzero;"/>
        <path d="M1923.01,1186.81C1919.28,1186.77 1915.55,1186.43 1911.87,1185.79C1909.08,1190.28 1895.98,1198.03 1895.98,1198.03C1892.01,1202.87 1898.7,1205.32 1898.7,1205.32L1926.38,1205.32C1931.12,1202.87 1928.18,1191.3 1926.56,1186.06C1925.47,1186.55 1924.27,1186.82 1923.01,1186.81Z" style="fill:white;fill-rule:nonzero;"/>
        <path d="M1873.24,879.294L1868.67,882.352C1868.67,882.352 1888.51,888.875 1899.14,882.352L1892.73,878.401C1892.73,878.401 1879.62,879.325 1873.24,879.294Z" style="fill:white;fill-rule:nonzero;"/>
        <path d="M1916.08,975.769C1916.08,975.769 1891.94,974.376 1884.65,972.413C1877.36,970.45 1873.87,967.316 1871.07,962.267C1868.26,957.219 1856.81,936.14 1853.1,906.562C1853.1,906.562 1847.99,922.35 1847.95,929.922C1847.94,932.728 1857.43,963.951 1856.16,970.241C1851.2,994.885 1843.36,1078.1 1843.36,1078.1C1859.88,1078.1 1876.26,1067.33 1878.47,1050.96C1886.97,988.097 1897.5,977.788 1897.5,977.788L1904.22,978.544C1904.22,978.544 1917.72,970.214 1914.62,1050.44C1914.29,1059.12 1917.7,1078.1 1926.38,1078.1C1926.38,1078.1 1923.52,1024.76 1921.83,1007.87C1920.94,998.964 1918.07,982.49 1916.08,975.769Z" style="fill:white;fill-rule:nonzero;"/>
        <path d="M1916.08,975.769C1916.08,975.769 1891.94,974.377 1884.65,972.414C1877.36,970.45 1873.87,967.316 1871.07,962.268C1869.82,960.018 1866.85,954.576 1863.61,946.625C1863.78,947.269 1863.95,947.913 1864.11,948.561C1866.09,956.774 1866.85,965.259 1867.26,973.682C1868.08,990.391 1868.01,1007.37 1866.93,1024.07C1865.74,1042.45 1862.23,1059.88 1855.57,1076.14C1867.22,1072.33 1876.81,1063.21 1878.47,1050.96C1886.97,988.097 1897.5,977.788 1897.5,977.788L1904.22,978.543C1904.22,978.543 1917.72,970.214 1914.62,1050.44C1914.29,1059.12 1917.7,1078.1 1926.38,1078.1C1926.38,1078.1 1923.52,1024.76 1921.83,1007.87C1920.94,998.964 1918.07,982.49 1916.08,975.769Z" style="fill:rgb(245,245,245);fill-rule:nonzero;"/>
        <path d="M1850.15,916.924C1852.16,917.252 1854.01,918.211 1855.37,919.887C1854.46,915.676 1853.69,911.226 1853.1,906.563C1853.1,906.563 1851.55,911.355 1850.15,916.924Z" style="fill:rgb(245,245,245);fill-rule:nonzero;"/>
        <path d="M1908.61,963.463C1906.27,962.748 1901.76,978.267 1901.76,978.267C1901.76,978.267 1910.67,973.112 1912.78,972.04C1914.89,970.968 1910.95,964.178 1908.61,963.463Z" style="fill:white;fill-rule:nonzero;"/>
        <path d="M1897.66,963.463C1895.32,964.178 1891.38,970.968 1893.49,972.04C1895.6,973.112 1904.51,977.044 1904.51,977.044C1904.51,977.044 1900,962.748 1897.66,963.463Z" style="fill:white;fill-rule:nonzero;"/>
        <path d="M1858.67,889.247C1851.23,891.395 1828.95,922.928 1820.63,930.375C1815.66,923.273 1807.87,915.156 1803.68,907.58C1803.68,907.58 1806.32,898.869 1806.86,896.833C1807.4,894.796 1806.86,888.895 1806.86,888.895C1806.86,888.895 1804.51,887.793 1804.43,891.31C1804.37,894.107 1802.16,896.731 1802.16,896.731C1802.16,896.731 1801.67,894.728 1800.72,892.436C1800.56,891.054 1800.34,889.418 1800.06,887.771C1799.72,885.752 1799.27,883.743 1798.86,882.246C1798.65,881.498 1798.47,880.877 1798.32,880.444C1798.18,880.011 1798.1,879.764 1798.1,879.764C1797.9,879.149 1797.24,878.814 1796.62,879.015C1796.04,879.206 1795.7,879.817 1795.85,880.406L1795.86,880.462C1795.86,880.462 1795.92,880.697 1796.03,881.108C1796.14,881.515 1796.26,882.11 1796.41,882.825C1796.69,884.259 1796.98,886.202 1797.18,888.162C1797.28,889.224 1797.36,890.283 1797.42,891.273C1797.18,891.349 1796.93,891.432 1796.67,891.525C1796.44,890.5 1796.18,889.399 1795.89,888.291C1795.39,886.323 1794.84,884.364 1794.39,882.901C1793.94,881.44 1793.59,880.471 1793.59,880.471L1793.59,880.462C1793.37,879.852 1792.7,879.534 1792.09,879.752C1791.51,879.96 1791.2,880.584 1791.36,881.17C1791.36,881.17 1791.62,882.117 1791.96,883.562C1792.3,885.007 1792.7,886.951 1793.05,888.908C1793.29,890.233 1793.5,891.552 1793.68,892.732C1793.4,892.855 1793.12,892.979 1792.85,893.107L1789.24,882.026C1789.04,881.411 1788.38,881.074 1787.76,881.274C1787.18,881.465 1786.84,882.077 1786.99,882.667L1786.99,882.678L1789.79,893.924C1789.66,893.664 1789.53,893.406 1789.4,893.145C1787.77,889.893 1785.94,886.729 1785.94,886.729C1785.62,886.169 1784.9,885.977 1784.34,886.302C1783.81,886.609 1783.61,887.279 1783.87,887.825C1783.87,887.825 1785.4,891.043 1786.75,894.36C1787.02,895.012 1787.28,895.66 1787.53,896.291C1787.51,898.429 1791.1,908.042 1794.35,910.229C1794.47,910.311 1794.6,910.364 1794.73,910.429C1796.4,918.539 1805.96,944.579 1811.09,949.816C1825,964.015 1848.26,935.334 1856.67,926.482C1862.17,920.693 1872.1,912.937 1874.39,904.915C1877.08,895.519 1868.09,886.527 1858.67,889.247Z" style="fill:rgb(224,154,116);fill-rule:nonzero;"/>
        <path d="M1858.67,889.247C1851.23,891.395 1828.95,922.928 1820.63,930.375C1816.54,924.525 1810.98,918.048 1806.79,911.711C1805.04,909.863 1794.76,913.809 1795.82,916.837C1797.94,925.307 1806.13,944.744 1811.09,949.816C1825,964.015 1848.26,935.334 1856.67,926.482C1862.17,920.693 1872.1,912.937 1874.39,904.915C1877.08,895.519 1868.09,886.527 1858.67,889.247Z" style="fill:rgb(255,166,31);fill-rule:nonzero;"/>
        <path d="M1811.06,949.782C1811.06,949.777 1811.05,949.773 1811.05,949.768C1811.05,949.773 1811.06,949.777 1811.06,949.782ZM1811.03,949.748C1811.02,949.742 1811.02,949.737 1811.01,949.731C1811.02,949.737 1811.02,949.742 1811.03,949.748ZM1810.99,949.714C1810.99,949.708 1810.98,949.701 1810.98,949.695C1810.98,949.701 1810.99,949.708 1810.99,949.714ZM1810.97,949.684C1810.95,949.669 1810.94,949.654 1810.92,949.639C1810.94,949.654 1810.95,949.669 1810.97,949.684ZM1810.91,949.63C1810.91,949.621 1810.9,949.612 1810.89,949.603C1810.9,949.612 1810.91,949.621 1810.91,949.63ZM1810.88,949.597C1810.12,948.767 1809.28,947.613 1808.4,946.226C1809.28,947.613 1810.12,948.767 1810.88,949.597ZM1808.39,946.213C1808.38,946.199 1808.37,946.186 1808.37,946.172C1808.38,946.186 1808.38,946.199 1808.39,946.213ZM1808.35,946.146C1808.34,946.136 1808.34,946.125 1808.33,946.114C1808.34,946.125 1808.34,946.135 1808.35,946.146ZM1808.29,946.058C1808.29,946.052 1808.29,946.046 1808.28,946.039C1808.29,946.045 1808.29,946.052 1808.29,946.058ZM1808.25,945.99C1808.25,945.985 1808.25,945.979 1808.24,945.975C1808.25,945.98 1808.25,945.984 1808.25,945.99ZM1808.21,945.917C1808.21,945.915 1808.2,945.914 1808.2,945.912C1808.2,945.914 1808.21,945.916 1808.21,945.917Z" style="fill:rgb(223,223,223);fill-rule:nonzero;"/>
        <path d="M1820,953.696C1816.8,953.696 1813.77,952.552 1811.09,949.816C1811.08,949.805 1811.07,949.793 1811.06,949.782C1811.06,949.777 1811.05,949.773 1811.05,949.768C1811.04,949.762 1811.03,949.755 1811.03,949.748C1811.02,949.742 1811.02,949.737 1811.01,949.731C1811,949.725 1811,949.719 1810.99,949.714C1810.99,949.708 1810.98,949.701 1810.98,949.695C1810.97,949.691 1810.97,949.688 1810.97,949.684C1810.95,949.669 1810.94,949.654 1810.92,949.639C1810.92,949.636 1810.92,949.633 1810.91,949.63C1810.91,949.621 1810.9,949.612 1810.89,949.603C1810.89,949.601 1810.89,949.599 1810.88,949.597C1810.12,948.767 1809.28,947.613 1808.4,946.226C1808.4,946.221 1808.39,946.217 1808.39,946.213C1808.38,946.199 1808.38,946.186 1808.37,946.172C1808.36,946.164 1808.36,946.155 1808.35,946.146C1808.34,946.135 1808.34,946.125 1808.33,946.114C1808.32,946.096 1808.31,946.077 1808.29,946.058C1808.29,946.052 1808.29,946.045 1808.28,946.039C1808.27,946.022 1808.26,946.006 1808.25,945.99C1808.25,945.984 1808.25,945.98 1808.24,945.975C1808.23,945.955 1808.22,945.936 1808.21,945.917C1808.21,945.916 1808.2,945.914 1808.2,945.912C1805.52,941.595 1802.51,935.177 1800.07,929.141C1806.23,937.306 1808.32,942.753 1814.65,944.527C1815.82,945.064 1817.19,945.377 1818.75,945.377C1818.86,945.377 1818.98,945.375 1819.09,945.372C1820.32,945.337 1821.52,945.239 1822.68,945.093C1831.81,944.399 1839.37,939.549 1846.42,933.732C1849.93,931.053 1853.66,928.514 1857.28,925.84C1857.09,926.042 1856.89,926.249 1856.67,926.482C1854.77,928.482 1852.11,931.494 1848.97,934.795C1840.9,943.29 1829.66,953.698 1820,953.696Z" style="fill:rgb(242,158,29);fill-rule:nonzero;"/>
    </g>
</svg>
