<?xml version="1.0" encoding="UTF-8" standalone="no"?>
<!DOCTYPE svg PUBLIC "-//W3C//DTD SVG 1.1//EN" "http://www.w3.org/Graphics/SVG/1.1/DTD/svg11.dtd">
<svg width="100%" height="100%" viewBox="0 0 509 433" version="1.1" xmlns="http://www.w3.org/2000/svg" xmlns:xlink="http://www.w3.org/1999/xlink" xml:space="preserve" xmlns:serif="http://www.serif.com/" style="fill-rule:evenodd;clip-rule:evenodd;stroke-linejoin:round;stroke-miterlimit:2;">
    <g transform="matrix(1,0,0,1,-191.154,-610.074)">
        <path d="M570.144,678.872C551.441,665.281 493.665,627.752 413.626,662.785C357.235,687.467 350.58,785.78 243.112,810.892C197.079,821.648 172.663,889.022 207.956,945.916C232.104,984.843 286.545,1063.08 493.665,1036.83C650.237,1016.99 696.145,904.988 697.753,888.977C707.011,796.773 691.981,767.41 570.144,678.872Z" style="fill:rgb(184,230,226);fill-rule:nonzero;"/>
        <path d="M523.055,795.851C522.262,782.215 508.99,772.331 495.699,775.751C483.672,778.846 477.342,790.943 479.989,802.675C485.818,828.505 493.188,853.937 498.15,879.98C502.435,902.478 508.112,924.722 513.307,947.038C514.672,952.903 517.219,968.529 518.586,974.393C519.161,976.864 536.033,978.423 535.67,975.018C532.839,948.494 533.723,902.903 527.753,876.893C520.883,846.973 524.525,824.308 523.055,795.851Z" style="fill:rgb(224,154,116);fill-rule:nonzero;"/>
        <path d="M476.971,764.774C470.05,764.28 463.159,767.209 458.675,772.493C454.756,777.111 453.84,782.654 452.636,788.359C446.988,815.143 439.693,841.714 434.825,868.642C432.503,881.486 429.166,959.3 428.586,972.31C427.869,988.416 443.76,975.155 444.38,970.738C445.29,964.264 454.532,920.088 457.336,903.976C459.049,894.129 457.352,882.789 460.42,873.251C461.73,868.375 466.016,860.286 468.516,854.53C471.856,846.85 475.252,839.198 478.728,831.577C484.127,819.738 489.599,807.94 495.23,796.21C501.851,782.442 492.179,765.858 476.971,764.774Z" style="fill:rgb(224,154,116);fill-rule:nonzero;"/>
        <path d="M523.055,795.851C522.262,782.215 508.99,772.331 495.699,775.751C483.671,778.846 477.342,790.943 479.989,802.675C485.818,828.505 493.187,853.937 498.149,879.98C502.435,902.478 508.112,924.722 513.307,947.038C514.08,950.355 515.229,956.797 516.331,962.827C522.432,962.431 528.538,962.357 534.645,962.446C532.952,935.729 532.861,899.148 527.753,876.893C520.883,846.973 524.525,824.308 523.055,795.851Z" style="fill:rgb(0,105,110);fill-rule:nonzero;"/>
        <path d="M532.68,962.423C531.855,962.416 531.031,962.413 530.207,962.413L529.996,962.413L529.996,962.412L530.173,962.412C531.009,962.412 531.844,962.416 532.68,962.423Z" style="fill:rgb(201,138,104);fill-rule:nonzero;"/>
        <path d="M534.645,962.446C533.99,962.436 533.335,962.429 532.68,962.423C531.844,962.416 531.009,962.412 530.173,962.412L529.996,962.412C529.017,958.174 526.981,954.313 523.919,951.021C527.102,950.51 530.437,949.935 533.944,949.287C534.155,953.853 534.381,958.27 534.645,962.446Z" style="fill:rgb(0,94,99);fill-rule:nonzero;"/>
        <path d="M476.971,764.774C470.05,764.28 463.159,767.209 458.674,772.493C454.756,777.111 453.84,782.654 452.636,788.359C446.988,815.143 439.693,841.714 434.825,868.642C432.844,879.603 430.122,937.871 429.007,962.81C434.57,962.938 440.123,963.205 445.673,963.555C448.53,948.687 455.058,917.068 457.336,903.976C459.049,894.128 457.352,882.789 460.42,873.251C461.73,868.375 466.014,860.286 468.516,854.53C471.854,846.85 475.252,839.198 478.728,831.577C484.127,819.738 489.599,807.94 495.23,796.21C501.851,782.442 492.179,765.858 476.971,764.774Z" style="fill:rgb(0,105,110);fill-rule:nonzero;"/>
        <path d="M445.673,963.555C443.121,963.394 440.567,963.256 438.013,963.135C438.013,963.134 438.014,963.132 438.014,963.13C440.568,963.25 443.121,963.394 445.673,963.555C446.116,961.249 446.647,958.541 447.237,955.561C446.647,958.541 446.116,961.249 445.673,963.555Z" style="fill:rgb(201,138,104);fill-rule:nonzero;"/>
        <path d="M445.673,963.555C443.121,963.394 440.568,963.25 438.014,963.13C439.077,959.238 439.733,955.258 440.312,951.218C441.078,945.878 438.998,940.475 433.327,938.917C432.591,938.715 431.802,938.621 430.992,938.621C430.707,938.621 430.42,938.633 430.131,938.655C430.137,938.532 430.143,938.408 430.149,938.284L450.686,938.284C449.462,944.401 448.261,950.39 447.237,955.561C446.647,958.541 446.116,961.249 445.673,963.555Z" style="fill:rgb(0,94,99);fill-rule:nonzero;"/>
        <path d="M452.815,768.666C451.254,783.018 449.383,800.803 449.383,812.659C449.383,819.219 476.527,824.828 491.504,824.828C506.493,824.828 518.614,813.094 522.263,793.213C524.478,781.154 516.283,764.005 516.283,764.005C516.283,764.005 453.633,761.137 452.815,768.666Z" style="fill:rgb(0,105,110);fill-rule:nonzero;"/>
        <path d="M433.428,680.181C425.259,680.4 419.016,688.074 418.534,695.904C417.486,712.911 417.885,746.001 417.871,746.157C417.89,745.972 411.29,755.333 410.878,756.06C409.839,757.893 391.596,779.224 386.346,784.654C382.967,788.149 383.488,791.414 389.201,793.995C394.156,796.235 392.605,791.647 396.19,788.872C407.839,779.854 430.066,765.376 438.065,752.778C442.339,746.049 441.19,741.373 441.703,733.928C442.553,721.619 440.256,703.828 442.44,691.684C444.016,682.562 442.692,679.933 433.428,680.181Z" style="fill:rgb(224,154,116);fill-rule:nonzero;"/>
        <path d="M433.428,680.181C425.259,680.4 419.016,688.074 418.534,695.904C417.486,712.911 418.287,742.569 418.274,742.726C418.293,742.542 405.97,762.19 390.093,779.175C394.038,780.228 398.805,783.515 402.335,785.643C414.411,776.778 431.392,763.288 438.065,752.778C442.339,746.049 441.19,741.373 441.704,733.928C442.553,721.619 440.256,703.828 442.44,691.684C444.016,682.562 442.692,679.933 433.428,680.181Z" style="fill:rgb(255,166,31);fill-rule:nonzero;"/>
        <path d="M402.336,785.643C414.343,776.829 431.199,763.44 437.95,752.957C431.199,763.44 414.343,776.829 402.336,785.643ZM401.856,785.352C401.678,785.244 401.498,785.133 401.315,785.021L401.316,785.02C401.499,785.133 401.679,785.243 401.856,785.352Z" style="fill:rgb(175,218,214);fill-rule:nonzero;"/>
        <path d="M401.315,785.021C399.804,784.091 398.123,783.031 396.408,782.047C396.412,782.043 396.416,782.039 396.421,782.035C398.132,783.019 399.809,784.088 401.316,785.02L401.315,785.021Z" style="fill:rgb(213,146,110);fill-rule:nonzero;"/>
        <path d="M402.336,785.643C402.178,785.548 402.018,785.451 401.856,785.352C401.679,785.243 401.499,785.133 401.316,785.02C399.809,784.088 398.132,783.019 396.421,782.035C399.814,778.832 403.077,775.461 406.49,772.297C414.296,765.062 421.651,757.178 425.902,747.283C429.204,739.595 430.309,731.107 430.715,722.677C432.192,726.279 435.619,732.781 441.657,734.679C441.262,741.693 442.193,746.278 438.065,752.778C438.027,752.838 437.989,752.897 437.95,752.957C431.199,763.44 414.343,776.829 402.335,785.643" style="fill:rgb(242,158,29);fill-rule:nonzero;"/>
        <path d="M501.815,737.309C494.42,675.643 493.69,663.247 464.627,661.06C460.387,660.741 437.201,658.887 420.562,687.419C420.562,687.419 416.283,700.445 420.511,704.06C424.739,707.675 438.378,720.435 438.378,720.435C438.378,720.435 448.378,742.31 450.354,747.255C455.287,759.597 450.706,785.93 450.706,785.93C450.706,785.93 483.544,795.588 505.42,786.707C512.711,783.747 521.502,773.56 521.502,773.56C521.502,773.56 519.383,760.316 515.877,754.497C512.372,748.679 502.263,741.047 501.815,737.309Z" style="fill:rgb(255,166,31);fill-rule:nonzero;"/>
        <path d="M428.481,970.322C428.481,970.322 419.792,977.083 403.776,980.89C396.667,982.579 399.973,989.9 399.973,989.9L441.81,989.9C449.446,987.683 444.274,970.906 444.274,970.906C436.124,970.906 428.481,970.322 428.481,970.322Z" style="fill:white;fill-rule:nonzero;"/>
        <path d="M436.201,970.74C432.449,979.902 426.225,985.81 418.718,989.9L441.81,989.9C449.446,987.683 444.274,970.906 444.274,970.906C441.415,970.906 438.627,970.833 436.201,970.74Z" style="fill:rgb(245,245,245);fill-rule:nonzero;"/>
        <path d="M518.167,971.094C518.167,971.094 514.383,979.534 507.128,980.89C499.945,982.231 503.324,989.9 503.324,989.9L537.128,989.9C544.763,987.684 535.114,970.906 535.114,970.906C526.964,970.906 518.167,971.094 518.167,971.094Z" style="fill:white;fill-rule:nonzero;"/>
        <path d="M528.847,970.937C528.119,978.469 525.007,985.058 519.701,989.9L537.128,989.9C544.764,987.684 535.114,970.906 535.114,970.906C533.013,970.906 530.872,970.918 528.847,970.937Z" style="fill:rgb(245,245,245);fill-rule:nonzero;"/>
        <path d="M440.086,648.995C439.586,649.022 439.088,649.967 438.608,650.284C435.965,652.035 433.668,655.192 431.413,657.432C428.602,660.223 430.671,660.826 432.799,664.1C434.998,667.483 436.54,672.95 439.343,675.321C442.085,677.639 446.423,678.478 449.589,676.61C454.628,673.638 454.628,666.216 454.784,661.45C449.159,657.075 447.542,655.547 445.178,653.385C444.431,652.703 441.158,648.938 440.086,648.995Z" style="fill:rgb(224,154,116);fill-rule:nonzero;"/>
        <path d="M429.14,623.83C420.874,621.214 399.086,640.947 399.086,640.947C399.086,640.947 413.109,675.563 429.184,674.38C436.499,673.843 440.907,662.359 440.907,662.359C440.907,662.359 439.73,627.182 429.14,623.83Z" style="fill:rgb(224,154,116);fill-rule:nonzero;"/>
        <path d="M421.955,615.277C411.018,616.347 402.196,620.38 397.012,630.244C390.068,643.458 400.438,656.37 400.438,656.37C400.438,656.37 422.043,642.113 423.968,643.46C427.224,645.74 429.886,644.158 429.886,644.158C429.886,644.158 430.527,635.1 435.104,638.691C439.728,642.318 438.899,647.397 436.655,647.889L445.787,654.281C445.787,654.281 446.612,641.408 445.597,635.432C444.37,628.206 434.456,614.055 421.955,615.277Z" style="fill:rgb(4,49,72);fill-rule:nonzero;"/>
        <path d="M444.942,612.782C433.841,604.29 428.727,618.48 428.727,618.48C428.727,618.48 427.574,625.24 437.762,631.368C443.723,634.953 442.807,636.289 445.77,636.29C452.939,636.291 451.494,617.794 444.942,612.782Z" style="fill:rgb(4,49,72);fill-rule:nonzero;"/>
        <path d="M424.692,668.779C422.68,668.778 420.797,667.437 420.797,667.437L429.286,662.785C428.651,667.558 426.613,668.779 424.692,668.779Z" style="fill:rgb(233,184,158);fill-rule:nonzero;"/>
        <path d="M506.919,743.976C506.919,743.976 487.127,740.122 473.378,704.81C470.096,696.383 468.623,693.795 467.753,687.466C466.79,680.468 463.257,671.233 460.096,665.781C457.61,661.496 455.253,660.122 455.253,660.122L451.35,658.735C451.35,658.735 454.086,662.044 454.724,663.314C457.541,668.922 462.048,687.326 462.048,687.326L436.503,694.185L436.037,670.42L432.945,672.529C432.945,672.529 431.959,678.535 430.878,689.966C430.578,693.139 429.002,704.393 429.836,720.227C429.836,720.227 433.69,733.873 443.69,735.122C443.69,735.122 450.878,751.06 450.878,761.684C450.878,772.31 440.669,863.976 440.669,863.976L538.169,865.643C538.169,865.643 531.646,811.914 531.086,804.81C527.44,758.559 506.919,743.976 506.919,743.976Z" style="fill:white;fill-rule:nonzero;"/>
        <path d="M506.919,743.976C506.919,743.976 496.769,741.995 485.956,727.903C486.509,731.236 487.123,734.565 487.722,737.897C511.515,774.603 510.067,821.776 507.016,865.11L538.169,865.643C538.169,865.643 531.646,811.914 531.086,804.81C527.44,758.559 506.919,743.976 506.919,743.976Z" style="fill:rgb(245,245,245);fill-rule:nonzero;"/>
        <rect x="286.282" y="901.831" width="379.134" height="36.453" style="fill:rgb(188,140,96);fill-rule:nonzero;"/>
        <path d="M637.424,849.92L295.526,849.92C290.42,849.92 286.282,854.059 286.282,859.165L286.282,901.831L646.669,901.831L646.669,859.165C646.669,854.059 642.529,849.92 637.424,849.92Z" style="fill:white;fill-rule:nonzero;"/>
        <path d="M637.424,849.92L432.389,849.92C433.464,853.047 433.09,856.674 430.24,859.798C413.486,878.164 391.559,881.928 367.825,882.943C340.711,884.102 313.423,886.087 286.282,884.622L286.282,901.831L646.669,901.831L646.669,859.165C646.669,854.059 642.529,849.92 637.424,849.92Z" style="fill:rgb(245,245,245);fill-rule:nonzero;"/>
        <path d="M276.657,721.809C271.195,721.809 266.767,726.237 266.767,731.698L266.767,989.393L286.546,989.393L286.546,731.698C286.546,726.237 282.118,721.809 276.657,721.809Z" style="fill:rgb(188,140,96);fill-rule:nonzero;"/>
        <path d="M656.495,809.119C651.034,809.119 646.606,813.546 646.606,819.007L646.606,989.393L666.385,989.393L666.385,819.007C666.385,813.546 661.957,809.119 656.495,809.119Z" style="fill:rgb(188,140,96);fill-rule:nonzero;"/>
        <path d="M364.133,810.892L321.041,810.892C314.693,810.892 293.468,820.963 293.569,830.872C293.667,840.472 314.893,849.92 321.041,849.92L364.133,849.92C370.48,849.92 391.706,839.85 391.604,829.94C391.507,820.341 370.281,810.892 364.133,810.892Z" style="fill:white;fill-rule:nonzero;"/>
        <path d="M350.642,842.292C333.355,840.644 316.127,837.128 299.678,831.536C297.204,830.695 295.463,829.218 294.345,827.443C293.842,828.578 293.557,829.726 293.569,830.872C293.667,840.472 314.893,849.92 321.04,849.92L364.133,849.92C367.873,849.92 376.779,846.421 383.444,841.52C372.682,843.514 361.41,843.319 350.642,842.292Z" style="fill:rgb(245,245,245);fill-rule:nonzero;"/>
        <path d="M598.169,818.559C556.503,817.726 478.169,801.893 454.42,796.893C412.392,788.046 376.919,796.268 376.919,796.268C376.919,796.268 374.555,800.35 383.17,806.476C398.054,817.061 426.696,812.098 431.502,829.81C437.449,851.726 450.738,919.639 455.44,943.955C456.425,949.052 460.886,952.726 466.077,952.726C466.077,952.726 486.145,960.853 558.378,944.185C590.878,936.685 647.336,952.726 647.336,952.726L647.336,842.726C647.336,842.726 639.836,819.393 598.169,818.559Z" style="fill:rgb(234,70,0);fill-rule:nonzero;"/>
        <path d="M484.615,954.707C470.969,954.707 466.077,952.726 466.077,952.726C460.886,952.726 456.425,949.052 455.44,943.955C450.738,919.639 437.449,851.726 431.502,829.81C431.352,829.256 431.179,828.725 430.983,828.214C424.92,812.393 397.59,816.731 383.17,806.476C377.617,802.528 376.625,799.428 376.622,797.724C376.62,796.784 376.919,796.268 376.919,796.268C376.919,796.268 379.203,795.74 383.285,795.096C384.152,795.695 385.167,796.188 386.344,796.536C398.927,800.251 411.966,799.337 424.721,801.405C425.617,801.754 426.516,801.963 427.333,801.963C427.459,801.963 427.583,801.958 427.705,801.948C427.851,801.978 427.998,802.008 428.145,802.039C440.202,804.568 450.562,810.952 458.727,820.064C473.383,836.421 484.285,855.966 499.261,872.139C506.872,880.358 515.901,887.55 526.635,891.144C531.488,892.769 536.601,893.411 541.77,893.411C549.66,893.411 557.678,891.914 565.086,890.135C579.168,886.752 592.887,881.452 607.305,879.553C610.504,879.132 613.684,878.938 616.848,878.938C624.383,878.938 631.832,880.041 639.248,881.822C641.946,882.469 644.646,883.176 647.336,883.942L647.336,952.726C647.336,952.726 610.246,942.188 578.885,942.188C571.554,942.188 564.535,942.764 558.378,944.185C549.459,946.243 541.332,947.923 533.944,949.287C530.437,949.935 527.102,950.51 523.919,951.021C520.58,951.559 517.412,952.025 514.414,952.427C501.615,954.146 491.876,954.707 484.615,954.707Z" style="fill:rgb(222,66,0);fill-rule:nonzero;"/>
        <path d="M467.338,872.319C461.43,859.945 456.492,847.131 451.315,834.432C447.865,826.692 440.563,809.751 406.919,803.351C390.64,800.255 376.919,796.268 376.919,796.268C376.919,796.268 374.555,800.351 383.169,806.476C398.055,817.062 426.697,812.098 431.503,829.81C436.82,849.407 446.226,912.132 453.065,940.747C455.605,951.373 464.003,952.622 464.003,952.622C464.003,952.622 452.753,938.247 472.753,933.872C504.525,926.922 513.065,913.872 513.065,913.872C491.815,900.747 474.646,887.626 467.338,872.319Z" style="fill:rgb(238,125,69);fill-rule:nonzero;"/>
        <path d="M386.476,784.176C386.476,784.176 375.183,788.868 373.723,793.183C372.975,795.392 381.316,800.167 381.316,800.167C381.316,800.167 386.269,795.733 387.49,795.468C388.712,795.202 390.217,797.221 385.773,800.318C384.528,801.186 383.776,802.014 383.339,802.756C382.547,804.1 383.927,805.67 385.356,805.047L390.96,802.602C390.96,802.602 398.1,795.727 396.506,788.392C395.71,784.727 386.476,784.176 386.476,784.176Z" style="fill:rgb(224,154,116);fill-rule:nonzero;"/>
        <path d="M373.875,793.15C373.875,793.15 371.697,798.58 372.421,799.702C373.144,800.824 376.62,805.259 377.909,805.904C381.659,807.779 384.003,806.997 384.003,806.997C384.003,806.997 381.329,804.641 381.349,803.998C381.369,803.354 385.791,796.477 385.791,796.477L373.875,793.15Z" style="fill:rgb(224,154,116);fill-rule:nonzero;"/>
        <path d="M463.846,661.372C466.086,676.476 460.585,743.945 459.643,748.12C458.864,751.569 425.671,787.464 419.315,795.278C417.403,797.63 425.97,803.903 429.315,801.373C438.108,794.72 449.761,786.414 458.308,779.447C468.07,771.489 479.55,763.021 482.469,750.152C487.095,729.756 492.128,701.997 491.502,682.466C488.847,659.497 469.628,660.279 463.846,661.372Z" style="fill:rgb(224,154,116);fill-rule:nonzero;"/>
        <path d="M463.846,661.372C466.086,676.476 460.584,743.945 459.643,748.12C459.008,750.928 436.676,774.566 425.044,787.726C429.13,789.788 434.065,793.232 436.919,796.555C444.46,790.968 478.169,771.268 482.469,750.152C486.642,729.66 492.128,701.997 491.502,682.466C488.847,659.497 469.628,660.279 463.846,661.372Z" style="fill:rgb(255,166,31);fill-rule:nonzero;"/>
        <path d="M436.864,796.492C436.853,796.479 436.842,796.466 436.831,796.454C436.842,796.466 436.853,796.479 436.864,796.492ZM436.822,796.443C436.705,796.309 436.584,796.175 436.46,796.04L436.461,796.04C436.584,796.174 436.705,796.309 436.822,796.443Z" style="fill:rgb(222,66,0);fill-rule:nonzero;"/>
        <path d="M436.46,796.04C435.573,795.078 434.519,794.114 433.382,793.179L433.391,793.174C434.528,794.109 435.575,795.076 436.461,796.04L436.46,796.04ZM482.469,750.152C482.483,750.087 482.496,750.022 482.509,749.957C482.496,750.022 482.483,750.087 482.469,750.152Z" style="fill:rgb(213,146,110);fill-rule:nonzero;"/>
        <path d="M436.919,796.555C436.901,796.534 436.883,796.513 436.864,796.492C436.853,796.479 436.842,796.466 436.831,796.454C436.828,796.45 436.825,796.447 436.822,796.443C436.705,796.309 436.584,796.174 436.461,796.04C435.575,795.076 434.528,794.109 433.391,793.174L433.633,793.028C452.246,780.633 470.178,761.797 472.335,757.726C478.827,745.483 488.338,715.977 490.57,702.227C488.899,718.172 485.399,735.763 482.509,749.957C482.496,750.022 482.483,750.087 482.469,750.152C479.412,765.166 461.486,779.464 448.671,788.482C443.462,792.148 439.098,794.94 436.919,796.555Z" style="fill:rgb(242,158,29);fill-rule:nonzero;"/>
        <path d="M429.836,799.497C429.456,797.026 423.169,792.101 419.419,794.601C419.419,794.601 408.898,799.706 407.336,803.872C406.165,806.993 406.673,813.471 407.336,815.018C407.961,816.476 414.431,820.831 417.336,821.476C423.898,822.935 423.794,820.018 423.794,820.018C423.794,820.018 422.568,819.914 422.232,818.456C421.919,817.101 421.963,813.025 422.857,811.685C424.523,809.185 430.669,804.914 429.836,799.497Z" style="fill:rgb(224,154,116);fill-rule:nonzero;"/>
    </g>
</svg>
