<?xml version="1.0" encoding="UTF-8" standalone="no"?>
<!DOCTYPE svg PUBLIC "-//W3C//DTD SVG 1.1//EN" "http://www.w3.org/Graphics/SVG/1.1/DTD/svg11.dtd">
<svg width="100%" height="100%" viewBox="0 0 513 467" version="1.1" xmlns="http://www.w3.org/2000/svg" xmlns:xlink="http://www.w3.org/1999/xlink" xml:space="preserve" xmlns:serif="http://www.serif.com/" style="fill-rule:evenodd;clip-rule:evenodd;stroke-linejoin:round;stroke-miterlimit:2;">
    <g transform="matrix(1,0,0,1,-3546.79,-1204.94)">
        <path d="M3752.22,1264.6C3661.1,1262.31 3531.89,1365.9 3548.19,1459.94C3563.91,1550.63 3629.77,1513.94 3714.47,1618.11C3804.62,1728.98 4064.98,1647.73 4058.74,1546.63C4049.04,1389.86 3880.59,1267.83 3752.22,1264.6Z" style="fill:rgb(184,230,226);fill-rule:nonzero;"/>
        <path d="M3735.9,1287.45C3731.87,1288.85 3734.4,1287.61 3734.18,1291.2C3734.08,1292.83 3733.86,1295 3733.6,1297.37C3733.81,1300.1 3741.42,1303.75 3747,1296.68C3746.31,1293.93 3745.35,1291.25 3743.87,1289.48C3742.34,1287.65 3738.78,1286.44 3735.9,1287.45Z" style="fill:rgb(224,154,116);fill-rule:nonzero;"/>
        <path d="M3637.3,1616.86L3690.77,1616.86L3698.31,1539.8L3629.77,1539.8L3637.3,1616.86Z" style="fill:rgb(234,70,0);fill-rule:nonzero;"/>
        <path d="M3663.68,1616.86L3637.3,1616.86L3629.77,1539.8L3646.2,1539.8C3648.58,1564.95 3653.1,1592.9 3663.68,1616.86Z" style="fill:rgb(210,63,0);fill-rule:nonzero;"/>
        <path d="M3698.31,1537.23L3629.77,1537.23C3628.35,1537.23 3627.2,1538.38 3627.2,1539.8C3627.2,1541.21 3628.35,1542.36 3629.77,1542.36L3698.31,1542.36C3699.73,1542.36 3700.87,1541.21 3700.87,1539.8C3700.87,1538.38 3699.73,1537.23 3698.31,1537.23Z" style="fill:rgb(238,125,69);fill-rule:nonzero;"/>
        <path d="M3664.56,1504.97C3651.69,1504.97 3641.61,1518.16 3641.61,1535L3641.61,1537.11L3645.84,1537.11L3645.84,1535C3645.84,1520.53 3654.06,1509.2 3664.56,1509.2C3674.88,1509.2 3683.28,1521.33 3683.28,1536.25L3683.28,1548.78L3687.51,1548.78L3687.51,1536.25C3687.51,1519 3677.21,1504.97 3664.56,1504.97Z" style="fill:rgb(156,169,176);fill-rule:nonzero;"/>
        <path d="M3685.21,1543.43C3683.44,1543.43 3682,1544.86 3682,1546.63C3682,1548.4 3683.44,1549.84 3685.21,1549.84C3686.98,1549.84 3688.41,1548.4 3688.41,1546.63C3688.41,1544.86 3686.98,1543.43 3685.21,1543.43Z" style="fill:rgb(156,178,188);fill-rule:nonzero;"/>
        <path d="M3829.86,1414.24C3829.3,1414.99 3827.98,1422.79 3827.98,1422.79C3840.9,1421.54 3838.84,1408.31 3838.84,1408.31C3838.84,1408.31 3832.12,1411.2 3829.86,1414.24Z" style="fill:rgb(224,154,116);fill-rule:nonzero;"/>
        <path d="M3769.48,1380.37C3755.8,1381.19 3747.25,1392.83 3747.42,1405.83C3747.81,1435.44 3750.68,1451.78 3753.5,1481.25C3753.49,1500.25 3750.88,1503.61 3750.58,1524.17C3750.42,1535.42 3751.48,1589.62 3752.5,1600.83C3753.49,1611.71 3766.81,1608.72 3769.75,1597.92C3771.85,1590.22 3772.28,1578.26 3773.37,1570.37C3775.36,1556.03 3777.41,1541.68 3779.43,1527.34C3785.07,1487.43 3788.38,1447.27 3794.18,1407.36C3796.22,1392.79 3784.27,1379.49 3769.48,1380.37Z" style="fill:rgb(224,154,116);fill-rule:nonzero;"/>
        <path d="M3824.33,1394.58C3821.05,1379.35 3799.8,1369.75 3786.1,1377.21C3774.57,1383.48 3771.37,1396.89 3776.27,1408.46C3782.3,1422.7 3808.09,1468.19 3812.25,1491.67C3815.26,1500.53 3813.88,1511 3816.42,1528.33C3820.44,1555.81 3829.14,1590.8 3830.92,1597.28C3833.75,1607.59 3846.83,1610.78 3847.67,1600.42C3848.48,1590.35 3842.9,1507.23 3841,1492.5C3837.67,1466.67 3833.19,1436.93 3824.33,1394.58Z" style="fill:rgb(224,154,116);fill-rule:nonzero;"/>
        <path d="M3769.48,1380.37C3755.8,1381.19 3749.75,1392.83 3749.92,1405.83C3750.31,1435.44 3750.68,1451.78 3753.5,1481.25C3753.49,1500.25 3750.88,1503.61 3750.58,1524.17C3750.46,1532.92 3751.07,1567.64 3751.83,1587.92L3771.53,1587.92C3772.26,1581.83 3772.69,1575.31 3773.37,1570.37C3775.36,1556.03 3777.41,1541.68 3779.43,1527.34C3785.07,1487.43 3788.38,1447.27 3794.18,1407.36C3796.22,1392.79 3784.27,1379.49 3769.48,1380.37Z" style="fill:rgb(0,105,110);fill-rule:nonzero;"/>
        <path d="M3775.71,1553.67L3775.71,1553.65C3776.95,1544.88 3778.19,1536.11 3779.43,1527.34C3778.19,1536.12 3776.95,1544.9 3775.71,1553.67Z" style="fill:rgb(165,207,203);fill-rule:nonzero;"/>
        <path d="M3775.71,1553.65C3775.63,1543.19 3776.49,1532.14 3780.11,1522.32C3779.88,1523.99 3779.67,1525.67 3779.43,1527.34C3778.19,1536.11 3776.95,1544.88 3775.71,1553.65Z" style="fill:rgb(0,94,99);fill-rule:nonzero;"/>
        <path d="M3758.37,1587.92L3751.83,1587.92C3751.14,1569.46 3750.57,1539.04 3750.57,1527.12C3750.57,1525.95 3750.57,1524.95 3750.58,1524.17C3750.88,1503.61 3753.49,1500.25 3753.5,1481.25C3750.68,1451.78 3750.31,1435.44 3749.92,1405.83C3749.75,1392.83 3755.8,1381.19 3769.48,1380.37C3769.95,1380.35 3770.41,1380.33 3770.88,1380.33C3774.05,1380.33 3777.07,1380.98 3779.82,1382.15C3775.97,1386.47 3774.05,1392.02 3774.05,1397.76C3774.05,1401.33 3774.8,1404.98 3776.27,1408.46C3778.72,1414.24 3784.22,1425.18 3790.17,1437.71C3788.03,1455.34 3786.14,1472.99 3784.08,1490.63C3783.21,1490.34 3782.3,1490.19 3781.37,1490.19C3779.11,1490.19 3776.79,1491.12 3774.76,1493.35C3751.77,1518.59 3753.41,1554.51 3758.37,1587.92Z" style="fill:rgb(0,94,99);fill-rule:nonzero;"/>
        <path d="M3824.33,1394.58C3821.05,1379.35 3799.8,1369.75 3786.1,1377.21C3774.57,1383.48 3771.37,1396.89 3776.27,1408.46C3782.3,1422.7 3806.84,1468.19 3811,1491.67C3814.01,1500.53 3813.88,1511 3816.42,1528.33C3819.5,1549.4 3825.34,1574.88 3828.69,1588.54L3847.46,1587.29C3846.5,1561.16 3842.56,1504.56 3841,1492.5C3837.67,1466.67 3833.19,1436.93 3824.33,1394.58Z" style="fill:rgb(0,105,110);fill-rule:nonzero;"/>
        <path d="M3837.71,1468.65C3837.7,1468.6 3837.69,1468.55 3837.69,1468.5C3837.69,1468.55 3837.7,1468.6 3837.71,1468.65ZM3837.66,1468.34C3837.66,1468.31 3837.65,1468.28 3837.65,1468.24C3837.65,1468.27 3837.66,1468.31 3837.66,1468.34ZM3837.64,1468.16C3835.63,1454.65 3833.16,1439.72 3829.9,1422.49C3833.16,1439.72 3835.63,1454.65 3837.64,1468.16ZM3828.96,1417.56C3828.45,1414.9 3827.92,1412.19 3827.37,1409.43C3826.44,1404.77 3825.45,1399.94 3824.41,1394.94C3826.07,1402.9 3827.58,1410.43 3828.96,1417.56Z" style="fill:rgb(165,207,203);fill-rule:nonzero;"/>
        <path d="M3829.9,1422.49C3829.59,1420.87 3829.28,1419.23 3828.96,1417.56C3829.28,1419.22 3829.59,1420.87 3829.9,1422.49Z" style="fill:rgb(201,138,104);fill-rule:nonzero;"/>
        <path d="M3828.69,1588.54C3825.34,1574.88 3819.5,1549.4 3816.42,1528.33C3813.88,1511 3814.01,1500.53 3811,1491.67C3808.53,1477.73 3798.87,1456.02 3790.17,1437.71C3784.22,1425.18 3778.72,1414.24 3776.27,1408.46C3774.8,1404.98 3774.05,1401.33 3774.05,1397.76C3774.05,1389.47 3778.04,1381.6 3786.1,1377.21C3789.35,1375.44 3793.03,1374.63 3796.8,1374.63C3808.88,1374.63 3821.83,1382.97 3824.33,1394.58C3824.36,1394.7 3824.38,1394.82 3824.41,1394.94C3825.45,1399.94 3826.44,1404.77 3827.37,1409.43C3827.92,1412.19 3828.45,1414.9 3828.96,1417.56C3829.28,1419.23 3829.59,1420.87 3829.9,1422.49C3833.16,1439.72 3835.63,1454.65 3837.64,1468.16C3837.64,1468.19 3837.64,1468.21 3837.65,1468.24C3837.65,1468.28 3837.66,1468.31 3837.66,1468.34C3837.67,1468.4 3837.68,1468.45 3837.69,1468.5C3837.69,1468.55 3837.7,1468.6 3837.71,1468.65C3838.55,1474.34 3839.31,1479.78 3840.02,1485.04C3838.64,1484.42 3837.09,1484.1 3835.54,1484.1C3830.53,1484.1 3825.41,1487.32 3825.17,1493.75C3824.05,1523.61 3824.69,1558 3834.42,1588.16L3828.69,1588.54Z" style="fill:rgb(0,94,99);fill-rule:nonzero;"/>
        <path d="M3754.11,1373.54C3754.11,1373.54 3745.39,1391.95 3747.74,1404.9C3751.63,1426.25 3764.53,1438.85 3780.49,1438.85C3796.44,1438.85 3825.34,1432.83 3825.34,1425.78C3825.34,1413.05 3823.35,1393.96 3821.68,1378.54C3820.81,1370.46 3754.11,1373.54 3754.11,1373.54Z" style="fill:rgb(0,105,110);fill-rule:nonzero;"/>
        <path d="M3832.76,1300.8C3833.26,1305.39 3834.92,1310.01 3835.75,1314.57C3836.7,1319.75 3837.46,1324.96 3838.1,1330.18C3839.06,1337.94 3839.7,1345.72 3840.25,1353.51L3840.26,1353.32C3840.79,1369.45 3839.39,1391.35 3838.4,1407.45C3838.2,1410.62 3837.31,1410.77 3838.55,1413.85C3841.26,1420.59 3850,1417.47 3851.99,1411.22C3855.77,1399.33 3857.4,1386.16 3859.76,1373.92C3864.51,1349.26 3867.28,1322.74 3864.35,1297.74C3862.65,1277.11 3830.51,1280.27 3832.76,1300.8Z" style="fill:rgb(255,166,31);fill-rule:nonzero;"/>
        <path d="M3838.67,1414.13C3838.67,1414.12 3838.66,1414.11 3838.66,1414.11C3838.66,1414.11 3838.67,1414.12 3838.67,1414.13ZM3838.65,1414.08C3838.64,1414.07 3838.64,1414.06 3838.63,1414.05C3838.64,1414.06 3838.64,1414.07 3838.65,1414.08ZM3838.62,1414.03C3838.62,1414.01 3838.61,1414 3838.61,1413.99C3838.61,1414 3838.62,1414.01 3838.62,1414.03ZM3838.6,1413.97C3838.59,1413.96 3838.59,1413.94 3838.58,1413.93C3838.59,1413.94 3838.59,1413.96 3838.6,1413.97ZM3838.58,1413.91L3838.57,1413.9L3838.58,1413.91Z" style="fill:rgb(175,218,214);fill-rule:nonzero;"/>
        <path d="M3838.57,1413.9C3838.57,1413.88 3838.56,1413.87 3838.55,1413.85C3838.06,1412.64 3837.91,1411.88 3837.91,1411.21C3837.91,1411.88 3838.06,1412.64 3838.55,1413.85C3838.56,1413.87 3838.57,1413.88 3838.57,1413.9Z" style="fill:rgb(213,146,110);fill-rule:nonzero;"/>
        <path d="M3840.38,1361.05C3840.38,1358.37 3840.34,1355.78 3840.26,1353.32L3840.25,1353.51C3839.7,1345.72 3839.06,1337.94 3838.1,1330.18C3837.46,1324.96 3836.7,1319.75 3835.75,1314.57C3834.92,1310.01 3833.26,1305.39 3832.76,1300.8C3832.75,1300.77 3832.75,1300.73 3832.74,1300.69C3832.75,1300.73 3832.75,1300.77 3832.76,1300.8C3833.26,1305.39 3834.92,1310.01 3835.75,1314.57C3836.7,1319.75 3837.46,1324.96 3838.1,1330.18C3839.06,1337.94 3839.7,1345.72 3840.25,1353.51L3840.26,1353.32C3840.34,1355.78 3840.38,1358.37 3840.38,1361.05ZM3832.74,1300.65C3832.74,1300.62 3832.73,1300.6 3832.73,1300.57C3832.73,1300.6 3832.74,1300.63 3832.74,1300.65ZM3832.73,1300.53C3832.72,1300.5 3832.72,1300.46 3832.72,1300.43C3832.72,1300.46 3832.72,1300.5 3832.73,1300.53ZM3832.71,1300.38L3832.71,1300.32L3832.71,1300.38ZM3832.7,1300.26L3832.7,1300.21L3832.7,1300.26ZM3832.68,1299.98L3832.68,1299.96L3832.68,1299.98Z" style="fill:rgb(175,218,214);fill-rule:nonzero;"/>
        <path d="M3842.77,1417.53C3841.09,1417.23 3839.58,1416.18 3838.67,1414.13C3838.67,1414.12 3838.66,1414.11 3838.66,1414.11C3838.66,1414.1 3838.65,1414.09 3838.65,1414.08C3838.64,1414.07 3838.64,1414.06 3838.63,1414.05C3838.63,1414.04 3838.63,1414.03 3838.62,1414.03C3838.62,1414.01 3838.61,1414 3838.61,1413.99C3838.61,1413.98 3838.6,1413.98 3838.6,1413.97C3838.59,1413.96 3838.59,1413.94 3838.58,1413.93L3838.58,1413.91L3838.57,1413.9C3838.57,1413.88 3838.56,1413.87 3838.55,1413.85C3838.06,1412.64 3837.91,1411.88 3837.91,1411.21C3837.91,1410.18 3838.28,1409.37 3838.4,1407.45C3839.24,1393.81 3840.37,1375.99 3840.38,1361.05C3840.38,1358.37 3840.34,1355.78 3840.26,1353.32L3840.25,1353.51C3839.7,1345.72 3839.06,1337.94 3838.1,1330.18C3837.46,1324.96 3836.7,1319.75 3835.75,1314.57C3834.92,1310.01 3833.26,1305.39 3832.76,1300.8C3832.75,1300.77 3832.75,1300.73 3832.74,1300.69L3832.74,1300.65C3832.74,1300.63 3832.73,1300.6 3832.73,1300.57L3832.73,1300.53C3832.72,1300.5 3832.72,1300.46 3832.72,1300.43C3832.72,1300.41 3832.72,1300.4 3832.71,1300.38L3832.71,1300.32C3832.71,1300.3 3832.71,1300.28 3832.7,1300.26L3832.7,1300.21C3832.69,1300.14 3832.69,1300.06 3832.68,1299.98L3832.68,1299.96C3832.19,1292.42 3836.44,1287.36 3841.98,1285.1C3841.56,1286.69 3841.57,1288.36 3842.19,1289.95C3851.8,1314.54 3850.21,1342.08 3847.67,1367.86C3846.46,1380.19 3844.33,1392.47 3843.39,1404.83C3843.11,1408.55 3843.1,1413.02 3842.77,1417.53Z" style="fill:rgb(242,158,29);fill-rule:nonzero;"/>
        <path d="M3797.03,1264.29C3796.68,1264.06 3796.44,1263.9 3796.29,1263.8C3796.46,1263.91 3796.72,1264.09 3797.03,1264.29Z" style="fill:rgb(255,166,31);fill-rule:nonzero;"/>
        <path d="M3797.92,1264.88L3798.19,1265.06C3798.09,1264.99 3798.01,1264.94 3797.92,1264.88Z" style="fill:rgb(255,166,31);fill-rule:nonzero;"/>
        <path d="M3796.18,1263.73C3796.05,1263.64 3796.07,1263.65 3796.18,1263.73Z" style="fill:rgb(255,166,31);fill-rule:nonzero;"/>
        <path d="M3796.29,1263.8L3796.18,1263.73L3796.29,1263.8Z" style="fill:rgb(255,166,31);fill-rule:nonzero;"/>
        <path d="M3797.57,1264.65L3797.39,1264.53L3797.57,1264.65Z" style="fill:rgb(255,166,31);fill-rule:nonzero;"/>
        <path d="M3746.13,1334.52L3745.96,1334.56L3745.8,1334.6C3745.91,1334.58 3746.02,1334.55 3746.13,1334.52Z" style="fill:rgb(255,166,31);fill-rule:nonzero;"/>
        <path d="M3797.92,1264.88C3797.8,1264.8 3797.69,1264.73 3797.57,1264.65C3797.68,1264.72 3797.8,1264.8 3797.92,1264.88Z" style="fill:rgb(255,166,31);fill-rule:nonzero;"/>
        <path d="M3797.39,1264.53C3797.27,1264.45 3797.15,1264.37 3797.03,1264.29C3797.14,1264.36 3797.26,1264.45 3797.39,1264.53Z" style="fill:rgb(255,166,31);fill-rule:nonzero;"/>
        <path d="M3798.73,1265.42L3798.89,1265.52L3798.73,1265.42Z" style="fill:rgb(255,166,31);fill-rule:nonzero;"/>
        <path d="M3798.19,1265.06C3793.54,1261.98 3787.46,1261.58 3782.45,1264.03C3778.15,1266.14 3775.95,1269.98 3773.38,1273.78C3765.87,1284.88 3757.94,1295.91 3748.87,1305.8C3747.9,1302.19 3747.23,1293.5 3743.87,1289.48C3742.34,1287.65 3738.78,1286.44 3735.9,1287.45C3731.87,1288.85 3734.4,1287.61 3734.18,1291.2C3733.86,1296.38 3732.32,1307.06 3732.25,1312.25C3732.18,1317.59 3731.65,1324.12 3734.44,1328.94C3736.59,1332.65 3741.57,1335.73 3745.96,1334.56C3761.98,1330.31 3775.22,1315.62 3786.54,1304.28C3792,1298.81 3799,1293.09 3803,1286.4C3807.28,1279.23 3805.17,1269.69 3798.19,1265.06Z" style="fill:rgb(255,166,31);fill-rule:nonzero;"/>
        <path d="M3798.73,1265.42C3798.56,1265.31 3798.39,1265.19 3798.19,1265.06C3798.37,1265.18 3798.55,1265.3 3798.73,1265.42Z" style="fill:rgb(255,166,31);fill-rule:nonzero;"/>
        <path d="M3798.19,1265.06" style="fill:rgb(255,166,31);fill-rule:nonzero;"/>
        <path d="M3800.17,1266.38C3800.31,1266.47 3800.34,1266.49 3800.17,1266.38Z" style="fill:rgb(255,166,31);fill-rule:nonzero;"/>
        <path d="M3798.89,1265.52C3799.24,1265.76 3799.55,1265.96 3799.8,1266.13C3799.58,1265.98 3799.28,1265.79 3798.89,1265.52Z" style="fill:rgb(255,166,31);fill-rule:nonzero;"/>
        <path d="M3799.8,1266.13C3799.96,1266.24 3800.09,1266.32 3800.17,1266.38C3800.09,1266.32 3799.96,1266.23 3799.8,1266.13Z" style="fill:rgb(255,166,31);fill-rule:nonzero;"/>
        <path d="M3735.86,1330.86C3735.31,1330.26 3734.83,1329.61 3734.44,1328.94C3732.5,1325.59 3732.17,1321.41 3732.17,1317.38C3732.17,1321.41 3732.5,1325.59 3734.44,1328.94C3734.83,1329.61 3735.31,1330.26 3735.86,1330.86ZM3786.54,1304.28C3786.63,1304.18 3786.73,1304.09 3786.83,1303.99C3786.73,1304.09 3786.63,1304.18 3786.54,1304.28ZM3786.83,1303.98C3786.86,1303.96 3786.89,1303.93 3786.91,1303.9C3786.89,1303.93 3786.86,1303.96 3786.83,1303.98Z" style="fill:rgb(175,218,214);fill-rule:nonzero;"/>
        <path d="M3743.99,1334.81C3740.97,1334.81 3737.92,1333.13 3735.86,1330.86C3735.31,1330.26 3734.83,1329.61 3734.44,1328.94C3732.5,1325.59 3732.17,1321.41 3732.17,1317.38C3732.17,1315.61 3732.23,1313.88 3732.25,1312.25C3732.32,1307.06 3733.86,1296.38 3734.18,1291.2C3734.19,1291.04 3734.19,1290.9 3734.19,1290.76C3734.19,1289.16 3733.6,1288.7 3733.6,1288.42C3733.6,1288.18 3734.07,1288.08 3735.9,1287.45C3736.62,1287.2 3737.38,1287.09 3738.13,1287.09L3738.22,1287.09C3738.07,1287.92 3738.01,1288.81 3738.08,1289.79C3738.63,1297.08 3738.71,1304.36 3738.71,1311.67C3738.71,1317.09 3743.29,1321.65 3748.71,1321.67L3748.8,1321.67C3756.55,1321.67 3762.39,1317.82 3768.23,1313.14L3768.43,1312.98C3776.96,1308.67 3785.07,1303.76 3791.14,1296.83C3791.74,1297.26 3792.42,1297.62 3793.16,1297.9C3791.03,1299.95 3788.88,1301.95 3786.91,1303.9C3786.89,1303.93 3786.86,1303.96 3786.83,1303.98L3786.83,1303.99C3786.73,1304.09 3786.63,1304.18 3786.54,1304.28C3775.21,1315.63 3761.96,1330.34 3745.92,1334.57C3745.28,1334.73 3744.64,1334.81 3743.99,1334.81Z" style="fill:rgb(242,158,29);fill-rule:nonzero;"/>
        <path d="M3800.17,1260C3790.84,1260.2 3786.42,1260.42 3779.14,1266.25C3775.88,1268.85 3772.61,1334.36 3769.34,1339.69C3758.92,1356.67 3751.83,1382.08 3751.83,1382.08C3751.83,1382.08 3757.34,1394.74 3765.17,1397.92C3788.66,1407.45 3823.92,1397.08 3823.92,1397.08C3823.92,1397.08 3821.95,1369.63 3824.3,1355.55C3826.64,1341.48 3843.93,1327.84 3843.93,1327.84C3843.93,1327.84 3857.17,1313.05 3861.71,1309.17C3866.25,1305.29 3863,1292.65 3863,1292.65C3845.13,1262.01 3804.73,1259.9 3800.17,1260Z" style="fill:rgb(255,166,31);fill-rule:nonzero;"/>
        <path d="M3874.31,1606.87C3857.11,1602.78 3847.78,1595.52 3847.78,1595.52C3847.78,1595.52 3839.58,1596.15 3830.82,1596.15C3830.82,1596.15 3825.27,1614.17 3833.47,1616.55L3878.39,1616.55C3878.39,1616.55 3881.94,1608.69 3874.31,1606.87Z" style="fill:white;fill-rule:nonzero;"/>
        <path d="M3839.33,1597.08C3839.37,1596.7 3839.42,1596.33 3839.48,1595.97C3836.88,1596.07 3833.89,1596.15 3830.82,1596.15C3830.82,1596.15 3825.27,1614.17 3833.47,1616.55L3851.7,1616.55C3844.12,1613.24 3838.52,1607.13 3839.33,1597.08Z" style="fill:rgb(245,245,245);fill-rule:nonzero;"/>
        <path d="M3782.12,1606.87C3773.92,1602.5 3770.27,1596.35 3770.27,1596.35C3770.27,1596.35 3760.83,1596.15 3752.07,1596.15C3752.07,1596.15 3744.05,1614.17 3752.25,1616.55L3786.21,1616.55C3786.21,1616.55 3789.05,1610.56 3782.12,1606.87Z" style="fill:white;fill-rule:nonzero;"/>
        <path d="M3757.55,1596.17C3755.75,1596.16 3753.9,1596.15 3752.07,1596.15C3752.07,1596.15 3744.05,1614.17 3752.25,1616.55L3764.34,1616.55C3758.36,1611.94 3756.77,1603.99 3757.55,1596.17Z" style="fill:rgb(245,245,245);fill-rule:nonzero;"/>
        <path d="M3793.27,1291.45C3792.83,1292.2 3792.48,1292.85 3792.25,1293.33C3785.17,1308.33 3772.46,1318.54 3772.46,1318.54C3772.46,1318.54 3769.55,1340.22 3766.21,1343.96C3755.79,1355.62 3749.75,1368.75 3746.83,1402.92C3745.59,1417.45 3734.75,1477.5 3734.75,1477.5C3734.75,1477.5 3794.75,1491.25 3844.33,1473.33C3844.33,1473.33 3823.92,1361.67 3824.33,1359.17C3824.75,1356.67 3831,1347.08 3833.92,1342.08C3836.84,1337.08 3844.06,1326.51 3845.31,1317.42C3845.54,1315.7 3845.07,1311.84 3844.26,1304.38C3836.11,1303.59 3794.22,1291.79 3793.27,1291.45Z" style="fill:white;fill-rule:nonzero;"/>
        <path d="M3772.46,1318.54C3772.46,1318.54 3769.55,1340.22 3766.21,1343.96C3755.79,1355.62 3749.75,1368.75 3746.83,1402.92C3745.59,1417.45 3734.75,1477.5 3734.75,1477.5C3734.75,1477.5 3752.72,1481.62 3777.12,1482.41C3771.64,1468.77 3769.68,1453.12 3769.39,1439.37C3768.82,1412.36 3773.22,1386.08 3778.8,1359.74C3781.15,1348.67 3783.77,1337.65 3785.95,1326.54C3787.62,1318.06 3789.3,1308.88 3788.52,1300.11C3781.44,1311.32 3772.46,1318.54 3772.46,1318.54Z" style="fill:rgb(245,245,245);fill-rule:nonzero;"/>
        <path d="M3955.58,1594.17C3938.53,1585.88 3929.16,1592.55 3929.16,1592.55C3927.44,1594.03 3919.02,1594.17 3914.02,1603.54C3911.76,1607.78 3896.78,1610.66 3888.11,1613.39C3886.72,1613.82 3881.45,1615.83 3887.77,1616.77L3952.56,1616.77C3952.56,1616.77 3958.29,1617.18 3963.08,1612.6C3966.52,1609.32 3966.52,1599.48 3955.58,1594.17Z" style="fill:rgb(232,232,232);fill-rule:nonzero;"/>
        <path d="M3751.4,1287.21C3750.11,1285.28 3747.5,1284.76 3745.57,1286.05C3743.65,1287.34 3743.13,1289.95 3744.42,1291.87L3930.84,1570.87C3931.65,1572.09 3932.98,1572.74 3934.34,1572.74C3935.14,1572.74 3935.95,1572.51 3936.67,1572.03C3938.59,1570.74 3939.11,1568.14 3937.82,1566.21L3751.4,1287.21Z" style="fill:rgb(234,70,0);fill-rule:nonzero;"/>
        <path d="M3918.31,1557.13L3938.15,1584.32L3948.09,1577.07L3928.25,1549.88L3918.31,1557.13Z" style="fill:rgb(2,119,137);fill-rule:nonzero;"/>
        <path d="M3941.61,1570.35C3938.22,1570.35 3935.46,1573.1 3935.46,1576.5L3935.46,1590.02L3947.76,1590.02L3947.76,1576.5C3947.76,1573.1 3945,1570.35 3941.61,1570.35Z" style="fill:rgb(2,119,137);fill-rule:nonzero;"/>
        <path d="M3949.39,1587.44L3933.83,1587.44C3930.17,1587.44 3927.21,1590.4 3927.21,1594.06L3956.01,1594.06C3956.01,1590.4 3953.05,1587.44 3949.39,1587.44Z" style="fill:rgb(2,119,137);fill-rule:nonzero;"/>
        <path d="M3932.77,1594.83C3931.54,1595.24 3929.84,1595.93 3927.92,1597.05C3926.95,1597.6 3925.94,1598.29 3924.93,1599.13C3923.94,1600 3922.9,1601.03 3922.22,1602.51C3922.13,1602.69 3922.05,1602.88 3921.98,1603.08L3921.81,1603.57C3921.75,1603.76 3921.71,1603.79 3921.67,1603.92L3921.48,1604.28C3921.21,1604.78 3920.84,1605.26 3920.4,1605.72C3919.52,1606.64 3918.4,1607.45 3917.22,1608.17C3914.84,1609.59 3912.21,1610.68 3909.71,1611.59C3907.19,1612.48 3904.8,1613.23 3902.73,1613.8C3898.6,1614.96 3895.77,1615.5 3895.77,1615.5L3895.81,1615.75C3895.81,1615.75 3898.68,1615.44 3902.93,1614.64C3905.05,1614.23 3907.53,1613.71 3910.14,1612.94C3912.76,1612.18 3915.52,1611.23 3918.18,1609.87C3919.5,1609.18 3920.8,1608.4 3921.97,1607.36C3922.55,1606.84 3923.1,1606.26 3923.56,1605.57C3923.68,1605.41 3923.78,1605.23 3923.89,1605.04C3923.98,1604.85 3924.11,1604.59 3924.16,1604.45L3924.35,1603.98C3924.4,1603.87 3924.45,1603.75 3924.52,1603.63C3925.04,1602.69 3925.8,1601.77 3926.61,1600.96C3927.41,1600.13 3928.28,1599.42 3929.09,1598.75C3930.72,1597.43 3932.18,1596.4 3933.19,1595.65C3934.21,1594.91 3934.8,1594.49 3934.8,1594.49L3934.7,1594.26C3934.7,1594.26 3933.98,1594.41 3932.77,1594.83Z" style="fill:rgb(218,218,218);fill-rule:nonzero;"/>
        <path d="M3940.12,1595.75C3939.68,1596.01 3939.16,1596.33 3938.61,1596.79C3938.04,1597.21 3937.48,1597.8 3936.89,1598.45C3936.34,1599.13 3935.74,1599.9 3935.28,1600.81C3934.76,1601.7 3934.37,1602.71 3934.06,1603.78C3933.9,1604.31 3933.81,1604.87 3933.7,1605.43C3933.68,1605.54 3933.61,1605.96 3933.56,1606.11C3933.51,1606.27 3933.48,1606.44 3933.38,1606.65C3933.08,1607.47 3932.49,1608.27 3931.77,1608.98C3930.32,1610.41 3928.45,1611.52 3926.64,1612.42C3924.82,1613.31 3923.04,1614.01 3921.49,1614.54C3919.94,1615.07 3918.61,1615.42 3917.68,1615.63C3916.74,1615.85 3916.2,1615.92 3916.2,1615.92L3916.22,1616.17C3916.22,1616.17 3916.78,1616.17 3917.75,1616.08C3918.72,1615.99 3920.1,1615.78 3921.74,1615.42C3923.38,1615.07 3925.27,1614.56 3927.24,1613.78C3929.21,1613.01 3931.29,1612.03 3933.15,1610.52C3934.07,1609.76 3934.96,1608.86 3935.59,1607.71C3935.75,1607.44 3935.88,1607.09 3936.01,1606.75C3936.13,1606.38 3936.15,1606.28 3936.25,1605.86C3936.37,1605.39 3936.43,1604.9 3936.57,1604.44C3936.81,1603.52 3937.05,1602.63 3937.39,1601.81C3937.72,1601 3938.08,1600.24 3938.46,1599.56C3939.22,1598.2 3940.04,1597.14 3940.66,1596.42C3941.28,1595.7 3941.69,1595.32 3941.69,1595.32L3941.56,1595.1C3941.56,1595.1 3941,1595.26 3940.12,1595.75Z" style="fill:rgb(218,218,218);fill-rule:nonzero;"/>
        <path d="M3951.81,1598.28C3950.9,1596.91 3949.88,1596.04 3949.16,1595.48C3948.43,1594.93 3947.95,1594.7 3947.95,1594.7L3947.8,1594.89C3947.8,1594.89 3948.11,1595.29 3948.6,1596.02C3949.08,1596.74 3949.73,1597.8 3950.26,1599.11C3950.77,1600.41 3951.14,1601.98 3950.81,1603.49C3950.66,1604.25 3950.37,1605 3949.95,1605.73C3949.53,1606.47 3948.96,1607.17 3948.34,1607.85C3947.99,1608.25 3947.66,1608.55 3947.32,1608.85C3947,1609.17 3946.59,1609.46 3946.23,1609.76C3945.46,1610.34 3944.67,1610.88 3943.89,1611.38C3942.32,1612.38 3940.77,1613.21 3939.45,1613.92C3936.77,1615.32 3934.92,1616.13 3934.92,1616.13L3935,1616.37C3935,1616.37 3936.97,1615.88 3939.85,1614.84C3941.29,1614.34 3942.95,1613.66 3944.68,1612.81C3945.55,1612.38 3946.44,1611.91 3947.32,1611.38C3947.76,1611.09 3948.21,1610.86 3948.66,1610.52C3949.11,1610.2 3949.56,1609.88 3949.94,1609.57C3950.81,1608.89 3951.57,1608.04 3952.17,1607.07C3952.77,1606.09 3953.17,1604.97 3953.29,1603.86C3953.4,1602.74 3953.28,1601.65 3952.98,1600.71C3952.68,1599.77 3952.27,1598.96 3951.81,1598.28Z" style="fill:rgb(218,218,218);fill-rule:nonzero;"/>
        <path d="M3838.63,1404.79C3838.59,1405.56 3838.79,1407.76 3837.87,1409.47C3836.32,1411.3 3833.61,1414.62 3832.22,1417.16L3832.22,1417.17L3827.31,1424.36C3826.44,1425.65 3826.77,1427.4 3828.05,1428.27C3828.5,1428.58 3829,1428.72 3829.51,1428.74C3829.29,1429.72 3829.59,1430.78 3830.4,1431.48C3830.93,1431.94 3831.59,1432.16 3832.24,1432.16L3832.31,1432.16C3832.43,1432.73 3832.73,1433.27 3833.21,1433.69C3833.74,1434.14 3834.39,1434.37 3835.04,1434.37C3835.18,1434.37 3835.33,1434.34 3835.47,1434.32C3835.53,1434.81 3835.71,1435.29 3836.04,1435.7C3836.59,1436.4 3837.42,1436.77 3838.25,1436.77C3838.86,1436.77 3839.47,1436.57 3839.99,1436.17L3846.6,1430.96C3846.86,1430.75 3847.07,1430.5 3847.23,1430.23C3847.86,1429.67 3848.34,1429.17 3848.53,1428.85C3851.11,1424.4 3851.42,1412.92 3851.42,1412.92L3851.24,1412.85C3851.54,1412.34 3852.4,1409.82 3852.61,1409.12C3848.12,1408.89 3839.05,1404.94 3838.63,1404.79Z" style="fill:rgb(224,154,116);fill-rule:nonzero;"/>
        <path d="M3746.44,1273.92L3739.91,1272.98C3739.12,1272.87 3738.34,1273.11 3737.75,1273.63L3732.78,1278.01C3731.67,1278.99 3731.56,1280.69 3732.55,1281.81C3733.08,1282.41 3733.82,1282.72 3734.57,1282.72C3735.2,1282.72 3735.84,1282.49 3736.35,1282.04L3740.38,1278.49L3745.68,1279.25C3747.16,1279.46 3748.52,1278.43 3748.73,1276.96C3748.94,1275.49 3747.92,1274.13 3746.44,1273.92Z" style="fill:rgb(224,154,116);fill-rule:nonzero;"/>
        <path d="M3749.64,1277.35L3739.17,1278.66L3733.89,1282.37C3732.68,1283.23 3732.38,1284.91 3733.24,1286.13C3733.76,1286.87 3734.6,1287.27 3735.44,1287.27C3735.98,1287.27 3736.52,1287.11 3736.99,1286.78L3741.17,1283.84L3750.31,1282.7C3751.78,1282.51 3752.83,1281.17 3752.64,1279.69C3752.46,1278.21 3751.1,1277.17 3749.64,1277.35Z" style="fill:rgb(224,154,116);fill-rule:nonzero;"/>
        <path d="M3751.18,1280.41L3742.62,1282.77L3737.76,1285.57C3736.47,1286.31 3736.03,1287.95 3736.77,1289.24C3737.27,1290.11 3738.17,1290.59 3739.11,1290.59C3739.56,1290.59 3740.02,1290.48 3740.44,1290.23L3744.72,1287.78L3752.62,1285.6C3754.05,1285.2 3754.89,1283.72 3754.49,1282.28C3754.1,1280.85 3752.61,1280.01 3751.18,1280.41Z" style="fill:rgb(224,154,116);fill-rule:nonzero;"/>
        <path d="M3752.85,1284.39L3746.21,1286.24L3740.7,1289.04C3739.59,1289.62 3739.15,1290.98 3739.73,1292.09C3740.13,1292.87 3740.93,1293.32 3741.75,1293.32C3742.1,1293.32 3742.45,1293.24 3742.79,1293.07L3747.65,1290.55L3754.07,1288.76C3755.28,1288.43 3755.98,1287.18 3755.65,1285.97C3755.31,1284.76 3754.06,1284.06 3752.85,1284.39Z" style="fill:rgb(224,154,116);fill-rule:nonzero;"/>
        <path d="M3731.92,1279.4C3731.92,1279.4 3732.1,1290.99 3734.02,1292.92C3735.95,1294.84 3738.94,1297.18 3742.69,1296.97C3745.76,1296.8 3747.3,1295.57 3747.3,1295.57C3747.3,1295.57 3749.71,1290.36 3750.61,1289.37C3754.89,1284.63 3735.61,1271.03 3731.92,1279.4Z" style="fill:rgb(224,154,116);fill-rule:nonzero;"/>
        <path d="M3835.38,1245.21C3833.77,1246.64 3827.88,1249.38 3823.71,1254.56C3821.87,1256.86 3816.13,1261.9 3816.13,1261.9C3815.35,1267.14 3820.62,1285.17 3834.77,1274.02L3834.65,1273.95C3834.68,1273.86 3837.19,1268.04 3838.39,1265.93C3839.6,1263.83 3840.94,1261.72 3841.98,1260.17C3842.5,1259.4 3842.94,1258.77 3843.25,1258.32C3843.39,1258.11 3843.5,1257.95 3843.58,1257.84C3843.66,1257.73 3843.71,1257.66 3843.71,1257.66C3843.71,1257.66 3836.19,1244.49 3835.38,1245.21Z" style="fill:rgb(224,154,116);fill-rule:nonzero;"/>
        <path d="M3835.38,1245.21C3834.74,1245.78 3833.42,1246.55 3831.81,1247.6C3824.54,1264.79 3833.45,1271.74 3834.82,1273.56C3835.39,1272.22 3837.36,1267.73 3838.39,1265.93C3839.6,1263.83 3840.94,1261.72 3841.98,1260.17C3842.5,1259.4 3842.94,1258.77 3843.25,1258.32C3843.39,1258.11 3843.5,1257.95 3843.58,1257.84C3843.66,1257.73 3843.71,1257.66 3843.71,1257.66C3843.71,1257.66 3836.19,1244.49 3835.38,1245.21Z" style="fill:rgb(196,135,99);fill-rule:nonzero;"/>
        <path d="M3843.43,1219.54C3832.12,1223.33 3829.54,1246.04 3831.51,1261.12C3832.1,1265.59 3836.46,1273.37 3844.32,1273.81C3861.6,1274.78 3876.01,1237.36 3876.01,1237.36C3876.01,1237.36 3852.26,1216.58 3843.43,1219.54Z" style="fill:rgb(224,154,116);fill-rule:nonzero;"/>
        <path d="M3850.98,1210.22C3837.54,1209.14 3827.16,1224.52 3825.98,1232.3C3825,1238.74 3825.38,1252.92 3825.38,1252.92L3835.81,1245.51C3833.39,1245.02 3832.41,1239.59 3837.3,1235.6C3842.15,1231.66 3843.01,1241.38 3843.01,1241.38C3843.01,1241.38 3847.23,1244.41 3850.69,1241.9C3852.73,1240.42 3873.5,1252.08 3873.5,1252.08C3873.5,1252.08 3885.74,1239.89 3878.04,1225.83C3872.29,1215.33 3862.75,1211.17 3850.98,1210.22Z" style="fill:rgb(4,49,72);fill-rule:nonzero;"/>
        <path d="M3826.26,1207.97C3819.32,1213.47 3818.11,1233.36 3825.81,1233.23C3828.99,1233.17 3827.98,1231.75 3834.31,1227.79C3845.14,1221.02 3843.77,1213.79 3843.77,1213.79C3843.77,1213.79 3838.02,1198.65 3826.26,1207.97Z" style="fill:rgb(4,49,72);fill-rule:nonzero;"/>
        <path d="M3849.26,1268.58C3847.16,1268.58 3844.93,1267.26 3844.36,1262.02L3853.35,1267.24C3853.35,1267.24 3851.37,1268.58 3849.26,1268.58Z" style="fill:rgb(233,184,158);fill-rule:nonzero;"/>
        <path d="M3793.27,1291.45L3799.96,1295.42L3818.84,1259.37L3814.35,1261.58C3814.35,1261.58 3794.33,1290.21 3793.27,1291.45Z" style="fill:white;fill-rule:nonzero;"/>
        <path d="M3836.35,1269.58L3834.82,1273.56L3837.67,1305.63L3844.36,1305.63L3838.43,1271.87L3836.35,1269.58Z" style="fill:white;fill-rule:nonzero;"/>
    </g>
</svg>
