<?xml version="1.0" encoding="UTF-8" standalone="no"?>
<!DOCTYPE svg PUBLIC "-//W3C//DTD SVG 1.1//EN" "http://www.w3.org/Graphics/SVG/1.1/DTD/svg11.dtd">
<svg width="100%" height="100%" viewBox="0 0 610 463" version="1.1" xmlns="http://www.w3.org/2000/svg" xmlns:xlink="http://www.w3.org/1999/xlink" xml:space="preserve" xmlns:serif="http://www.serif.com/" style="fill-rule:evenodd;clip-rule:evenodd;stroke-linejoin:round;stroke-miterlimit:2;">
    <g transform="matrix(1,0,0,1,-2029.25,-1267.97)">
        <path d="M2560.74,1363.51C2337.23,1341.43 2310.39,1263.7 2234.66,1268.15C2131.23,1274.22 2073.69,1367.54 2044.99,1422.57C1988.13,1531.58 2100.75,1659.91 2138.73,1681.61C2287.04,1766.36 2461.2,1723.62 2525.13,1685.57C2697.46,1583.02 2642.3,1371.57 2560.74,1363.51Z" style="fill:rgb(184,230,226);fill-rule:nonzero;"/>
        <path d="M2484.51,1506.47L2483.08,1514.53L2491.67,1514.53L2490.24,1506.47L2484.51,1506.47Z" style="fill:rgb(242,242,242);fill-rule:nonzero;"/>
        <path d="M2292.92,1437.29C2294.4,1452.36 2295.61,1462.96 2295.61,1462.96L2340.47,1476.11L2359.49,1433.91L2315.41,1402.33C2315.41,1402.33 2291.45,1422.22 2292.92,1437.29Z" style="fill:rgb(0,105,110);fill-rule:nonzero;"/>
        <path d="M2309.27,1421.74C2296.35,1424.48 2291.46,1435.73 2291.07,1447.65C2290.47,1466.28 2290.79,1507.2 2290.05,1525.83C2289.48,1539.94 2281.75,1554.22 2279.92,1567.62C2274.36,1608.22 2276.28,1618.07 2274.78,1640.71C2274.3,1647.93 2288.13,1650.75 2289.86,1644.32C2296.79,1618.46 2304.8,1585.05 2311.58,1559.15C2321.07,1522.89 2329.04,1485.3 2336.41,1448.55C2339.46,1432.73 2325.14,1418.37 2309.27,1421.74Z" style="fill:rgb(224,154,116);fill-rule:nonzero;"/>
        <path d="M2361.02,1437.02C2361,1417.16 2336.26,1406.63 2322.07,1420.7C2309.37,1433.29 2313.76,1453.15 2316.59,1468.08C2323.15,1502.6 2330.67,1518.07 2332.74,1532.13C2333.77,1539.11 2333.34,1554.95 2335.34,1569.01C2339.13,1595.57 2346.57,1626.35 2347.74,1639.63C2348.19,1644.76 2364.99,1642.41 2365.06,1636.35C2365.4,1606.19 2364.01,1549.54 2362.81,1533.93C2360.09,1498.73 2360.92,1472.3 2361.02,1437.02Z" style="fill:rgb(224,154,116);fill-rule:nonzero;"/>
        <path d="M2309.27,1421.74C2296.35,1424.48 2291.46,1435.73 2291.07,1447.65C2290.47,1466.28 2290.79,1507.2 2290.05,1525.83C2289.48,1539.94 2281.75,1554.22 2279.92,1567.62C2275.39,1600.73 2275.83,1613.4 2275.33,1629.22L2293.82,1629.22C2299.72,1606.3 2306.06,1580.24 2311.58,1559.15C2321.07,1522.89 2329.04,1485.3 2336.41,1448.55C2339.46,1432.73 2325.14,1418.37 2309.27,1421.74Z" style="fill:rgb(0,105,110);fill-rule:nonzero;"/>
        <path d="M2284.08,1629.22L2275.33,1629.22C2275.83,1613.4 2275.39,1600.73 2279.92,1567.62C2281.75,1554.22 2289.48,1539.94 2290.05,1525.83C2290.06,1525.51 2290.07,1525.19 2290.08,1524.86C2297.6,1525.88 2308.07,1527.12 2319.32,1527.9C2318.51,1531.32 2317.7,1534.72 2316.87,1538.12C2315.09,1537 2312.92,1536.38 2310.73,1536.38C2306.73,1536.38 2302.69,1538.45 2301.01,1543.23C2291.39,1570.62 2277.77,1600.02 2284.08,1629.22Z" style="fill:rgb(0,94,99);fill-rule:nonzero;"/>
        <path d="M2361.02,1437.02C2361,1417.16 2336.26,1406.63 2322.07,1420.7C2309.37,1433.29 2313.76,1453.15 2316.59,1468.08C2323.15,1502.6 2330.67,1518.07 2332.74,1532.13C2333.77,1539.11 2333.34,1554.95 2335.34,1569.01C2338.23,1589.29 2343.25,1612.02 2345.98,1627.55L2365.11,1627.55C2365.15,1596.26 2363.91,1548.12 2362.81,1533.93C2360.09,1498.73 2360.92,1472.3 2361.02,1437.02Z" style="fill:rgb(0,105,110);fill-rule:nonzero;"/>
        <path d="M2363.09,1538.18C2362.99,1536.55 2362.9,1535.12 2362.81,1533.93C2362.9,1535.12 2362.99,1536.54 2363.09,1538.18Z" style="fill:rgb(165,207,203);fill-rule:nonzero;"/>
        <path d="M2355.08,1627.55L2345.98,1627.55C2343.25,1612.02 2338.23,1589.29 2335.34,1569.01C2333.34,1554.95 2333.77,1539.11 2332.74,1532.13C2332.57,1530.96 2332.35,1529.77 2332.11,1528.57C2334.8,1528.65 2337.49,1528.7 2340.15,1528.7C2348.04,1528.7 2355.67,1528.29 2362.33,1527.25C2362.47,1529.44 2362.63,1531.67 2362.81,1533.93C2362.9,1535.12 2362.99,1536.55 2363.09,1538.18C2363.14,1539.03 2363.18,1539.94 2363.23,1540.9C2361.35,1539.46 2358.96,1538.74 2356.59,1538.74C2351.6,1538.74 2346.71,1541.95 2346.91,1548.38C2347.71,1575.02 2347.25,1602.73 2355.08,1627.55Z" style="fill:rgb(0,94,99);fill-rule:nonzero;"/>
        <path d="M2363.62,1316.88C2354.39,1315.5 2344.93,1320.19 2338.38,1326.83C2328.23,1337.13 2323.65,1378.71 2314.77,1390C2302.45,1405.64 2292.55,1428.36 2292.55,1428.36C2292.55,1428.36 2298.26,1440.39 2304.9,1445.61C2329.63,1465.06 2362,1456.5 2362,1456.5C2362,1456.5 2367.84,1430.96 2372.52,1417.48C2377.21,1404 2388.5,1389.83 2388.5,1389.83C2388.5,1389.83 2402.37,1361.41 2407.5,1358.35C2412.63,1355.29 2408.16,1341.98 2408.16,1341.98C2393.93,1317.86 2368.14,1317.55 2363.62,1316.88Z" style="fill:rgb(255,166,31);fill-rule:nonzero;"/>
        <path d="M2314.77,1390C2314.79,1389.97 2314.81,1389.95 2314.82,1389.93C2314.81,1389.95 2314.79,1389.97 2314.77,1390ZM2314.84,1389.9C2314.85,1389.89 2314.87,1389.87 2314.88,1389.85C2314.87,1389.87 2314.85,1389.89 2314.84,1389.9ZM2314.9,1389.83C2314.91,1389.81 2314.92,1389.8 2314.93,1389.78C2314.92,1389.8 2314.91,1389.81 2314.9,1389.83ZM2314.96,1389.75C2314.97,1389.74 2314.98,1389.72 2314.99,1389.71C2314.98,1389.72 2314.97,1389.74 2314.96,1389.75ZM2315.01,1389.68C2315.02,1389.66 2315.03,1389.65 2315.04,1389.63C2315.03,1389.65 2315.02,1389.66 2315.01,1389.68ZM2315.07,1389.6C2315.08,1389.59 2315.09,1389.57 2315.1,1389.56C2315.09,1389.57 2315.08,1389.59 2315.07,1389.6ZM2315.12,1389.53C2315.13,1389.51 2315.14,1389.5 2315.15,1389.49C2315.14,1389.5 2315.13,1389.51 2315.12,1389.53ZM2315.18,1389.45C2315.19,1389.44 2315.2,1389.43 2315.2,1389.41C2315.2,1389.43 2315.19,1389.44 2315.18,1389.45ZM2315.23,1389.37C2315.24,1389.37 2315.24,1389.36 2315.24,1389.36C2315.24,1389.36 2315.24,1389.37 2315.23,1389.37ZM2315.33,1389.24C2315.33,1389.24 2315.33,1389.23 2315.34,1389.23C2315.33,1389.23 2315.33,1389.24 2315.33,1389.24ZM2315.37,1389.18C2315.38,1389.17 2315.38,1389.16 2315.39,1389.15C2315.38,1389.16 2315.38,1389.17 2315.37,1389.18ZM2315.43,1389.1C2315.43,1389.09 2315.44,1389.08 2315.44,1389.07C2315.44,1389.08 2315.43,1389.09 2315.43,1389.1ZM2315.48,1389.02C2315.48,1389.01 2315.49,1389 2315.49,1388.99C2315.49,1389 2315.48,1389.01 2315.48,1389.02ZM2315.53,1388.94C2315.54,1388.93 2315.54,1388.92 2315.55,1388.92C2315.54,1388.92 2315.54,1388.93 2315.53,1388.94ZM2315.58,1388.86C2315.59,1388.85 2315.59,1388.85 2315.6,1388.84C2315.59,1388.84 2315.59,1388.85 2315.58,1388.86Z" style="fill:rgb(175,218,214);fill-rule:nonzero;"/>
        <path d="M2309.26,1397.64C2311.02,1394.99 2312.87,1392.41 2314.77,1390C2314.79,1389.97 2314.81,1389.95 2314.82,1389.93C2314.83,1389.92 2314.83,1389.91 2314.84,1389.9C2314.85,1389.89 2314.87,1389.87 2314.88,1389.85C2314.89,1389.84 2314.89,1389.84 2314.9,1389.83C2314.91,1389.81 2314.92,1389.8 2314.93,1389.78C2314.94,1389.77 2314.95,1389.76 2314.96,1389.75C2314.97,1389.74 2314.98,1389.72 2314.99,1389.71C2315,1389.7 2315,1389.69 2315.01,1389.68C2315.02,1389.66 2315.03,1389.65 2315.04,1389.63C2315.05,1389.62 2315.06,1389.61 2315.07,1389.6C2315.08,1389.59 2315.09,1389.57 2315.1,1389.56C2315.11,1389.55 2315.11,1389.54 2315.12,1389.53C2315.13,1389.51 2315.14,1389.5 2315.15,1389.49C2315.16,1389.47 2315.17,1389.46 2315.18,1389.45C2315.19,1389.44 2315.2,1389.43 2315.2,1389.41C2315.21,1389.4 2315.22,1389.39 2315.23,1389.37C2315.24,1389.37 2315.24,1389.36 2315.24,1389.36C2315.27,1389.32 2315.3,1389.28 2315.33,1389.24C2315.33,1389.24 2315.33,1389.23 2315.34,1389.23C2315.35,1389.21 2315.36,1389.19 2315.37,1389.18C2315.38,1389.17 2315.38,1389.16 2315.39,1389.15C2315.4,1389.13 2315.41,1389.11 2315.43,1389.1C2315.43,1389.09 2315.44,1389.08 2315.44,1389.07C2315.45,1389.05 2315.47,1389.04 2315.48,1389.02C2315.48,1389.01 2315.49,1389 2315.49,1388.99C2315.51,1388.98 2315.52,1388.96 2315.53,1388.94C2315.54,1388.93 2315.54,1388.92 2315.55,1388.92C2315.56,1388.9 2315.57,1388.88 2315.58,1388.86C2315.59,1388.85 2315.59,1388.84 2315.6,1388.84C2315.61,1388.82 2315.63,1388.8 2315.64,1388.77C2320.14,1381.85 2323.56,1367.21 2327.3,1353.65C2325.58,1365.18 2322.9,1376.65 2322.07,1388.29C2321.52,1390.19 2320.95,1392.07 2320.37,1393.96C2313.94,1397.01 2309.27,1397.63 2309.27,1397.63L2309.26,1397.64Z" style="fill:rgb(242,158,29);fill-rule:nonzero;"/>
        <path d="M2421.91,1389.22C2417.89,1378.49 2414.75,1363.94 2411.95,1352.86C2410.03,1345.28 2408.72,1336.36 2400.33,1333.32C2390.89,1329.92 2380.65,1337.41 2381.04,1347.44C2381.29,1353.95 2386.28,1362.07 2388.72,1367.86C2393.23,1378.57 2397.93,1389.4 2404.07,1399.29C2407.14,1404.21 2409.91,1408.51 2416,1409.76C2423.76,1411.36 2445.82,1403.59 2460.47,1398.15C2459.14,1394.16 2456.29,1388.16 2456.11,1387.53C2432,1390.26 2422.46,1390.68 2421.91,1389.22Z" style="fill:rgb(255,166,31);fill-rule:nonzero;"/>
        <path d="M2418.43,1409.97C2417.52,1409.97 2416.7,1409.91 2416,1409.76C2409.91,1408.51 2407.14,1404.21 2404.07,1399.29C2401.33,1394.87 2398.88,1390.27 2396.6,1385.58C2398.88,1390.27 2401.33,1394.87 2404.07,1399.29C2407.14,1404.21 2409.91,1408.51 2416,1409.76C2416.7,1409.91 2417.52,1409.97 2418.43,1409.97Z" style="fill:rgb(175,218,214);fill-rule:nonzero;"/>
        <path d="M2418.43,1409.97C2417.52,1409.97 2416.7,1409.91 2416,1409.76C2409.91,1408.51 2407.14,1404.21 2404.07,1399.29C2401.33,1394.87 2398.88,1390.27 2396.6,1385.58C2396.67,1384.81 2396.67,1384.01 2396.6,1383.17C2396.16,1377.76 2394.97,1365.68 2393.82,1354.3C2393.93,1354.12 2394.04,1353.93 2394.13,1353.73C2395.66,1361.27 2397.58,1368.74 2400.2,1375.94C2404.45,1387.67 2410.61,1400.46 2424.01,1403.21C2426.49,1403.72 2428.99,1403.95 2431.49,1403.95C2437.69,1403.95 2443.89,1402.54 2449.86,1400.51C2450,1401.02 2450.14,1401.48 2450.25,1401.85C2438.55,1405.96 2425.51,1409.97 2418.43,1409.97Z" style="fill:rgb(242,158,29);fill-rule:nonzero;"/>
        <path d="M2474.82,1379.22C2473.3,1379.6 2462.48,1384.92 2460.67,1385.82C2456.17,1386.82 2449.87,1387.82 2446.52,1388C2447.64,1392.14 2450.23,1402.45 2450.68,1402.99C2463.05,1398.08 2465.19,1396.5 2468,1395.12L2468.1,1395.05C2473.14,1395.84 2479.01,1393.65 2479.01,1393.65C2479.01,1393.65 2481.5,1392.74 2482.9,1392.79C2484.57,1392.83 2486.03,1394.02 2485.86,1391.09C2485.7,1388.18 2483.63,1388.33 2481.91,1388.54C2481.18,1388.63 2478.89,1387.52 2478.68,1385.99C2478.47,1384.46 2487.95,1383.85 2487.95,1383.85L2494.07,1386.84C2497.61,1387.84 2497.92,1385.69 2497.92,1385.69C2497.92,1385.69 2489.82,1379.43 2489.06,1379.22C2488.3,1379.01 2476.49,1378.8 2474.82,1379.22Z" style="fill:rgb(77,184,175);fill-rule:nonzero;"/>
        <path d="M2450.68,1402.99C2450.6,1402.9 2450.45,1402.48 2450.25,1401.85C2450.45,1402.48 2450.6,1402.9 2450.68,1402.99C2463.05,1398.08 2465.19,1396.5 2468,1395.12L2468.1,1395.05C2468.87,1395.17 2469.65,1395.22 2470.43,1395.22C2474.79,1395.22 2479.01,1393.65 2479.01,1393.65C2479.01,1393.65 2481.39,1392.78 2482.81,1392.78C2482.84,1392.78 2482.87,1392.78 2482.9,1392.79C2483.66,1392.81 2484.37,1393.06 2484.91,1393.06C2485.5,1393.06 2485.88,1392.76 2485.88,1391.51C2485.88,1392.76 2485.5,1393.06 2484.91,1393.06C2484.37,1393.06 2483.66,1392.81 2482.9,1392.79C2482.87,1392.78 2482.84,1392.78 2482.81,1392.78C2481.39,1392.78 2479.01,1393.65 2479.01,1393.65C2479.01,1393.65 2474.79,1395.22 2470.43,1395.22C2469.65,1395.22 2468.87,1395.17 2468.1,1395.05L2468,1395.12C2465.19,1396.5 2463.05,1398.08 2450.68,1402.99Z" style="fill:rgb(175,218,214);fill-rule:nonzero;"/>
        <path d="M2449.86,1400.51C2449.56,1399.48 2449.21,1398.2 2448.85,1396.84C2449.21,1398.2 2449.56,1399.48 2449.86,1400.51Z" style="fill:rgb(242,158,29);fill-rule:nonzero;"/>
        <path d="M2450.25,1401.85C2450.14,1401.48 2450,1401.02 2449.86,1400.51C2450,1401.02 2450.14,1401.48 2450.25,1401.85Z" style="fill:rgb(230,150,28);fill-rule:nonzero;"/>
        <path d="M2485.86,1391.04L2485.86,1391.02L2485.86,1391.04ZM2485.86,1390.98L2485.86,1390.96L2485.86,1390.98ZM2485.85,1390.92L2485.85,1390.9L2485.85,1390.92ZM2485.85,1390.86L2485.85,1390.85L2485.85,1390.86Z" style="fill:rgb(175,218,214);fill-rule:nonzero;"/>
        <path d="M2450.68,1402.99C2450.6,1402.9 2450.45,1402.48 2450.25,1401.85C2450.14,1401.48 2450,1401.02 2449.86,1400.51C2449.56,1399.48 2449.21,1398.2 2448.85,1396.84C2450.25,1396.81 2451.72,1396.48 2453.2,1395.77C2463.07,1391.04 2473.74,1389.29 2484.67,1388.74C2485.26,1389.05 2485.7,1389.64 2485.83,1390.74C2485.84,1390.77 2485.84,1390.81 2485.85,1390.85L2485.85,1390.92C2485.85,1390.93 2485.85,1390.95 2485.86,1390.96L2485.86,1391.09C2485.87,1391.24 2485.88,1391.38 2485.88,1391.51C2485.88,1392.76 2485.5,1393.06 2484.91,1393.06C2484.37,1393.06 2483.66,1392.81 2482.9,1392.79C2482.87,1392.78 2482.84,1392.78 2482.81,1392.78C2481.39,1392.78 2479.01,1393.65 2479.01,1393.65C2479.01,1393.65 2474.79,1395.22 2470.43,1395.22C2469.65,1395.22 2468.87,1395.17 2468.1,1395.05L2468,1395.12C2465.19,1396.5 2463.05,1398.08 2450.68,1402.99Z" style="fill:rgb(73,175,166);fill-rule:nonzero;"/>
        <path d="M2382.25,1308.41C2381.88,1308.84 2381.36,1309.45 2380.73,1310.19C2379.49,1311.67 2374.27,1316.46 2373.06,1318.1C2371.1,1320.74 2371.06,1326.34 2372.82,1329.12C2375.84,1333.88 2383.94,1338.38 2388.66,1331.55C2388.66,1331.55 2392.51,1319.87 2393.22,1318.37C2393.94,1316.9 2394.42,1315.93 2394.42,1315.93L2382.87,1307.71C2382.87,1307.71 2382.64,1307.96 2382.25,1308.41Z" style="fill:rgb(224,154,116);fill-rule:nonzero;"/>
        <path d="M2384.34,1327.49C2385.54,1328.88 2387.42,1329.47 2389.08,1330.25C2390.11,1327.17 2392.66,1319.56 2393.22,1318.37C2393.94,1316.9 2394.42,1315.93 2394.42,1315.93L2383.26,1307.99C2380.98,1314.83 2380.11,1322.61 2384.34,1327.49Z" style="fill:rgb(196,135,99);fill-rule:nonzero;"/>
        <path d="M2389.21,1282.27C2379.71,1287.1 2380.97,1311.44 2384.1,1320.57C2385.4,1324.38 2390.06,1330.75 2397.07,1330.12C2412.47,1328.73 2420.33,1293.78 2420.33,1293.78C2420.33,1293.78 2396.63,1278.51 2389.21,1282.27Z" style="fill:rgb(224,154,116);fill-rule:nonzero;"/>
        <path d="M2394.67,1273.06C2382.65,1273.85 2375.48,1288.79 2375.45,1295.82C2375.42,1301.64 2377.94,1313.74 2377.94,1313.74L2385.86,1306.22C2383.66,1306.1 2382.08,1301.42 2385.89,1297.27C2389.66,1293.16 2391.68,1301.63 2391.68,1301.63C2391.68,1301.63 2396.1,1299.64 2398.82,1296.98C2400.43,1295.4 2420.47,1304.11 2420.47,1304.11C2420.47,1304.11 2429.25,1294.74 2420.62,1283.32C2414.17,1274.8 2405.19,1272.36 2394.67,1273.06Z" style="fill:rgb(4,49,72);fill-rule:nonzero;"/>
        <path d="M2372.53,1274.29C2367.11,1280.05 2368.64,1297.78 2375.42,1296.66C2378.22,1296.2 2377.15,1295.08 2382.23,1290.75C2390.91,1283.36 2388.77,1277.15 2388.77,1277.15C2388.77,1277.15 2381.71,1264.52 2372.53,1274.29Z" style="fill:rgb(4,49,72);fill-rule:nonzero;"/>
        <path d="M2402.29,1324.43C2400.54,1324.43 2398.68,1323.28 2397.78,1319.02L2406.23,1322.86C2406.23,1322.86 2404.34,1324.43 2402.29,1324.43Z" style="fill:rgb(233,184,158);fill-rule:nonzero;"/>
        <path d="M2384.34,1647.78C2370.39,1641.77 2365.06,1636.35 2365.06,1636.35C2365.06,1636.35 2355.85,1636.98 2347.1,1636.98C2347.1,1636.98 2341.55,1655.12 2349.75,1657.52L2388.42,1657.52C2388.42,1657.52 2391.55,1650.88 2384.34,1647.78Z" style="fill:white;fill-rule:nonzero;"/>
        <path d="M2353.51,1641.04C2353.06,1639.55 2352.94,1638.16 2353.09,1636.89C2351.15,1636.94 2349.12,1636.98 2347.1,1636.98C2347.1,1636.98 2341.55,1655.12 2349.75,1657.52L2366.96,1657.52C2360.84,1654.39 2355.98,1649.1 2353.51,1641.04Z" style="fill:rgb(245,245,245);fill-rule:nonzero;"/>
        <path d="M2304.31,1647.78C2296.1,1643.37 2292.46,1637.18 2292.46,1637.18C2292.46,1637.18 2283.01,1636.98 2274.26,1636.98C2274.26,1636.98 2266.24,1655.12 2274.44,1657.52L2308.39,1657.52C2308.39,1657.52 2311.23,1651.49 2304.31,1647.78Z" style="fill:white;fill-rule:nonzero;"/>
        <path d="M2282.26,1638.23C2282.34,1637.81 2282.46,1637.42 2282.59,1637.03C2279.97,1637 2277.08,1636.98 2274.26,1636.98C2274.26,1636.98 2266.24,1655.12 2274.44,1657.52L2283.72,1657.52C2281.06,1651.79 2281.09,1644.75 2282.26,1638.23Z" style="fill:rgb(245,245,245);fill-rule:nonzero;"/>
        <path d="M2158.81,1466.96L2148.93,1657.27L2214.98,1657.27L2205.11,1466.96L2158.81,1466.96Z" style="fill:white;fill-rule:nonzero;"/>
        <path d="M2158.81,1466.96L2148.93,1657.27L2164.41,1657.27C2166.15,1615.2 2171.51,1562.12 2173.84,1522.14C2174.42,1512.12 2173.79,1502.3 2201.28,1502.13C2203.62,1502.12 2205.53,1502.77 2207.02,1503.84L2205.11,1466.96L2158.81,1466.96Z" style="fill:rgb(242,242,242);fill-rule:nonzero;"/>
        <rect x="2197.94" y="1416" width="4.4" height="2.14" style="fill:rgb(156,169,176);fill-rule:nonzero;"/>
        <path d="M2199.63,1394.63L2176.01,1394.63C2174.81,1394.63 2173.84,1395.6 2173.84,1396.8L2173.84,1437.54L2185.05,1437.54L2185.05,1400.44L2199.9,1398.12C2200.76,1397.98 2201.39,1397.23 2201.36,1396.36L2201.36,1396.32C2201.34,1395.38 2200.57,1394.63 2199.63,1394.63Z" style="fill:rgb(156,169,176);fill-rule:nonzero;"/>
        <path d="M2173.84,1437.54L2185.05,1437.54L2185.05,1400.44L2186.08,1400.28L2173.84,1400.28L2173.84,1437.54Z" style="fill:rgb(156,169,176);fill-rule:nonzero;"/>
        <rect x="2173.84" y="1418.87" width="13.63" height="22.71" style="fill:rgb(156,169,176);fill-rule:nonzero;"/>
        <path d="M2201.29,1413.18L2173.84,1414.4L2173.84,1421.6L2187.47,1421.6L2197.05,1416.99L2202.99,1416.78L2202.99,1414.81C2202.99,1413.89 2202.22,1413.14 2201.29,1413.18Z" style="fill:rgb(156,169,176);fill-rule:nonzero;"/>
        <path d="M2264.41,1431.14L2099.5,1431.14C2097.41,1431.14 2095.71,1433.35 2095.71,1436.08L2095.71,1444.34C2095.71,1470.72 2112.14,1492.11 2132.4,1492.11L2231.51,1492.11C2251.78,1492.11 2268.21,1470.72 2268.21,1444.34L2268.21,1436.08C2268.21,1433.35 2266.51,1431.14 2264.41,1431.14Z" style="fill:white;fill-rule:nonzero;"/>
        <path d="M2247.93,1477.32C2235.66,1483.57 2171.62,1479.77 2154.07,1479.67C2152.33,1480.35 2150.28,1480.51 2148,1479.9C2147.64,1479.81 2147.29,1479.7 2146.93,1479.6C2144.92,1479.5 2143.24,1478.9 2141.9,1477.95C2134.61,1475.2 2128.13,1470.99 2123.62,1464.27C2118.53,1456.71 2117.21,1447.36 2116.01,1438.54C2115.83,1437.22 2115.82,1435.9 2115.98,1434.63L2095.89,1434.63C2095.78,1435.1 2095.71,1435.58 2095.71,1436.08L2095.71,1444.34C2095.71,1470.72 2112.14,1492.11 2132.4,1492.11L2231.51,1492.11C2250.11,1492.11 2265.46,1474.1 2267.87,1450.75C2263.44,1461.09 2258.38,1472.01 2247.93,1477.32Z" style="fill:rgb(242,242,242);fill-rule:nonzero;"/>
        <path d="M2391.21,1328.95L2389.56,1328.07L2389,1357.13C2389,1357.13 2373.47,1361.04 2361.59,1345.57L2374.52,1316.45L2371.54,1317.86C2371.54,1317.86 2356.75,1342.76 2355.81,1343.54C2354.88,1344.32 2344.58,1374.31 2335.66,1383.17C2322.95,1395.8 2309.27,1397.63 2309.27,1397.63C2309.27,1397.63 2290.66,1418.55 2288.48,1444.08C2286.29,1469.62 2278.47,1523.13 2278.47,1523.13C2278.47,1523.13 2339.72,1533.59 2369.25,1525.83C2369.25,1525.83 2365.98,1435.86 2369.25,1424.63C2372.52,1413.41 2384.52,1399.77 2384.52,1399.77C2384.52,1399.77 2397.55,1394.84 2396.6,1383.17C2395.66,1371.51 2391.21,1328.95 2391.21,1328.95Z" style="fill:white;fill-rule:nonzero;"/>
        <path d="M2335.66,1383.17C2322.95,1395.8 2309.27,1397.63 2309.27,1397.63C2309.27,1397.63 2290.66,1418.55 2288.48,1444.08C2286.29,1469.62 2278.47,1523.13 2278.47,1523.13C2278.47,1523.13 2283.09,1523.92 2290.4,1524.9C2289.99,1518.29 2290.19,1511.64 2290.66,1505.26C2291.82,1489.47 2294.41,1473.18 2299.76,1458.23C2305.99,1440.83 2317.3,1426.61 2329.06,1412.62C2336.99,1403.18 2344.88,1393.67 2350.41,1382.84C2351.06,1380.25 2351.89,1377.71 2352.85,1375.21C2352.98,1362.29 2356.01,1349.19 2360.2,1336.71C2357.92,1340.43 2356.12,1343.28 2355.81,1343.54C2354.88,1344.32 2344.58,1374.31 2335.66,1383.17Z" style="fill:rgb(245,245,245);fill-rule:nonzero;"/>
        <path d="M2365.93,1543.61C2365.93,1570.15 2387.45,1591.67 2414,1591.67L2496,1591.67L2496,1518.45L2365.93,1518.45L2365.93,1543.61Z" style="fill:white;fill-rule:nonzero;"/>
        <rect x="2365.93" y="1518.45" width="130.07" height="7.38" style="fill:rgb(237,237,237);fill-rule:nonzero;"/>
        <path d="M2546.4,1402.47L2510.34,1402.47C2502.42,1402.47 2496,1409.77 2496,1418.76L2496,1591.67L2560.74,1546.85L2560.74,1418.76C2560.74,1409.77 2554.32,1402.47 2546.4,1402.47Z" style="fill:white;fill-rule:nonzero;"/>
        <path d="M2496,1418.76L2496,1591.67L2505.66,1584.99L2505.66,1406.72C2505.66,1405.39 2505.88,1404.2 2506.26,1403.15C2500.33,1405.15 2496,1411.38 2496,1418.76Z" style="fill:rgb(242,242,242);fill-rule:nonzero;"/>
        <path d="M2426.66,1657.52L2525.13,1657.52L2525.13,1533.93L2439.86,1533.93L2426.66,1657.52Z" style="fill:white;fill-rule:nonzero;"/>
        <path d="M2452.24,1638.16C2444.6,1623.24 2440.68,1605.52 2438.37,1588.46C2436.93,1588.42 2435.49,1588.4 2434.04,1588.39L2426.66,1657.52L2466.88,1657.52C2460.96,1651.93 2455.95,1645.4 2452.24,1638.16Z" style="fill:rgb(242,242,242);fill-rule:nonzero;"/>
        <path d="M2498.64,1514.63L2364.24,1514.63C2361.89,1514.63 2359.99,1516.54 2359.99,1518.88C2359.99,1521.23 2361.89,1523.13 2364.24,1523.13L2498.64,1523.13C2500.99,1523.13 2502.89,1521.23 2502.89,1518.88C2502.89,1516.54 2500.99,1514.63 2498.64,1514.63Z" style="fill:white;fill-rule:nonzero;"/>
        <path d="M2430.89,1583.46C2422.38,1582.87 2413.52,1581.9 2406.01,1577.54C2399.59,1573.81 2394.53,1568.18 2390.4,1562.09C2383.14,1551.4 2378.98,1538.61 2377.11,1525.83C2376.74,1525.86 2376.36,1525.88 2375.97,1525.88L2365.93,1525.88L2365.93,1543.61C2365.93,1570.15 2387.45,1591.67 2414,1591.67L2481.46,1591.67C2484.67,1589.89 2487.47,1587.3 2489.5,1584.2C2469.96,1583.28 2450.35,1584.83 2430.89,1583.46Z" style="fill:rgb(242,242,242);fill-rule:nonzero;"/>
        <path d="M2373.74,1514.63L2365.97,1514.63C2362.67,1514.63 2359.99,1516.54 2359.99,1518.88C2359.99,1521.23 2362.67,1523.13 2365.97,1523.13L2373.74,1523.13C2364.82,1520.5 2367.95,1515.69 2373.74,1514.63Z" style="fill:rgb(242,242,242);fill-rule:nonzero;"/>
        <path d="M2489.14,1383.64L2488.98,1383.64C2487.26,1383.64 2485.86,1385.11 2485.86,1387.49L2485.86,1507.91C2485.86,1510.29 2492.25,1508.49 2492.25,1502.44L2492.25,1387.49C2492.25,1385.11 2490.86,1383.64 2489.14,1383.64Z" style="fill:white;fill-rule:nonzero;"/>
        <path d="M2494.38,1551.69L2494.38,1568.41C2494.38,1580.94 2484.19,1591.13 2471.66,1591.13L2433.63,1591.5L2433.41,1594.37L2471.66,1594.37C2485.97,1594.37 2497.62,1582.73 2497.62,1568.41L2497.62,1551.69C2497.62,1551.42 2497.84,1551.2 2498.11,1551.2L2553.84,1551.2L2559.74,1547.96L2498.11,1547.96C2496.05,1547.96 2494.38,1549.63 2494.38,1551.69Z" style="fill:rgb(224,224,224);fill-rule:nonzero;"/>
        <path d="M2485.86,1510.86C2485.86,1511.87 2486.68,1512.68 2487.68,1512.68C2488.69,1512.68 2489.5,1511.87 2489.5,1510.86L2489.5,1506.47L2485.86,1506.47L2485.86,1510.86Z" style="fill:white;fill-rule:nonzero;"/>
        <path d="M2487.47,1509.1L2483.08,1509.1L2483.08,1512.74L2487.47,1512.74C2488.47,1512.74 2489.29,1511.92 2489.29,1510.92C2489.29,1509.91 2488.47,1509.1 2487.47,1509.1Z" style="fill:white;fill-rule:nonzero;"/>
        <path d="M2434.86,1487.06L2405.41,1474.17C2404.52,1473.78 2403.48,1474.19 2403.09,1475.08C2402.7,1475.97 2403.11,1477 2404,1477.39L2433.44,1490.28C2434.33,1490.67 2435.37,1490.27 2435.76,1489.38C2436.15,1488.49 2435.75,1487.45 2434.86,1487.06Z" style="fill:white;fill-rule:nonzero;"/>
        <path d="M2421.58,1479.62L2377.33,1460.63C2375.5,1459.83 2373.36,1460.66 2372.56,1462.49C2371.76,1464.33 2372.59,1466.46 2374.43,1467.27L2418.68,1486.26C2420.51,1487.06 2422.65,1486.22 2423.45,1484.39C2424.25,1482.56 2423.42,1480.42 2421.58,1479.62Z" style="fill:rgb(234,70,0);fill-rule:nonzero;"/>
        <path d="M2457.25,1497.29L2434.2,1487.51C2433.74,1487.32 2433.2,1487.53 2433.01,1487.99C2432.81,1488.45 2433.03,1488.98 2433.49,1489.18L2456.54,1498.96C2456.66,1499.01 2456.77,1499.03 2456.89,1499.03C2457.24,1499.03 2457.58,1498.82 2457.73,1498.48C2457.92,1498.02 2457.71,1497.49 2457.25,1497.29Z" style="fill:white;fill-rule:nonzero;"/>
        <path d="M2448.77,1482.23C2448.19,1481.87 2447.43,1482.05 2447.08,1482.63L2441.68,1491.47C2441.33,1492.05 2441.51,1492.81 2442.09,1493.16C2442.29,1493.29 2442.51,1493.34 2442.73,1493.34C2443.14,1493.34 2443.55,1493.13 2443.78,1492.76L2449.18,1483.92C2449.53,1483.34 2449.35,1482.58 2448.77,1482.23Z" style="fill:white;fill-rule:nonzero;"/>
        <path d="M2454.7,1485.4L2445.35,1492.57C2444.81,1492.98 2444.71,1493.75 2445.12,1494.29C2445.36,1494.61 2445.73,1494.77 2446.1,1494.77C2446.36,1494.77 2446.62,1494.69 2446.84,1494.52L2456.19,1487.36C2456.73,1486.94 2456.83,1486.17 2456.42,1485.63C2456.01,1485.09 2455.24,1484.99 2454.7,1485.4Z" style="fill:white;fill-rule:nonzero;"/>
        <path d="M2457.07,1486.36L2447.21,1493.31C2446.65,1493.7 2446.52,1494.47 2446.91,1495.02C2447.15,1495.36 2447.53,1495.54 2447.92,1495.54C2448.16,1495.54 2448.41,1495.47 2448.62,1495.32L2458.49,1488.38C2459.04,1487.98 2459.17,1487.22 2458.78,1486.66C2458.39,1486.11 2457.62,1485.97 2457.07,1486.36Z" style="fill:white;fill-rule:nonzero;"/>
        <path d="M2459.28,1488.09L2449.9,1494.43C2449.34,1494.81 2449.19,1495.57 2449.57,1496.14C2449.81,1496.49 2450.2,1496.68 2450.59,1496.68C2450.83,1496.68 2451.07,1496.61 2451.28,1496.47L2460.65,1490.13C2461.22,1489.75 2461.36,1488.98 2460.98,1488.42C2460.6,1487.86 2459.84,1487.71 2459.28,1488.09Z" style="fill:white;fill-rule:nonzero;"/>
        <path d="M2460.95,1490.74L2452.62,1495.5C2452.03,1495.84 2451.83,1496.59 2452.17,1497.18C2452.39,1497.58 2452.81,1497.8 2453.23,1497.8C2453.44,1497.8 2453.65,1497.75 2453.84,1497.64L2462.17,1492.88C2462.76,1492.54 2462.97,1491.79 2462.63,1491.2C2462.29,1490.61 2461.55,1490.41 2460.95,1490.74Z" style="fill:white;fill-rule:nonzero;"/>
        <path d="M2461.45,1494.72L2453.14,1495.34C2452.46,1495.39 2451.96,1495.98 2452.01,1496.66C2452.06,1497.31 2452.6,1497.8 2453.23,1497.8L2453.33,1497.8L2461.64,1497.18C2462.31,1497.13 2462.82,1496.54 2462.77,1495.86C2462.72,1495.18 2462.15,1494.67 2461.45,1494.72Z" style="fill:white;fill-rule:nonzero;"/>
        <path d="M2443.04,1490.92C2442.38,1490.76 2441.71,1491.15 2441.54,1491.8L2438.93,1501.83C2438.76,1502.48 2439.16,1503.16 2439.82,1503.33C2439.92,1503.35 2440.02,1503.37 2440.13,1503.37C2440.67,1503.37 2441.17,1503 2441.31,1502.45L2443.92,1492.42C2444.09,1491.77 2443.7,1491.09 2443.04,1490.92Z" style="fill:white;fill-rule:nonzero;"/>
        <path d="M2446.41,1481.23C2445.83,1480.87 2445.07,1481.05 2444.72,1481.63L2439.32,1490.47C2438.97,1491.05 2439.15,1491.81 2439.73,1492.16C2439.93,1492.28 2440.15,1492.34 2440.37,1492.34C2440.78,1492.34 2441.19,1492.13 2441.42,1491.75L2446.82,1482.92C2447.17,1482.34 2446.99,1481.58 2446.41,1481.23Z" style="fill:white;fill-rule:nonzero;"/>
        <path d="M2440.68,1489.92C2440.03,1489.75 2439.35,1490.15 2439.18,1490.8L2436.58,1500.83C2436.4,1501.48 2436.8,1502.16 2437.46,1502.33C2437.56,1502.35 2437.66,1502.37 2437.77,1502.37C2438.31,1502.37 2438.81,1502 2438.96,1501.45L2441.56,1491.42C2441.73,1490.76 2441.34,1490.09 2440.68,1489.92Z" style="fill:white;fill-rule:nonzero;"/>
        <path d="M2444.07,1480.24C2443.5,1479.87 2442.74,1480.04 2442.38,1480.61L2436.76,1489.36C2436.4,1489.93 2436.56,1490.69 2437.14,1491.06C2437.34,1491.19 2437.57,1491.25 2437.8,1491.25C2438.2,1491.25 2438.6,1491.05 2438.84,1490.69L2444.45,1481.94C2444.81,1481.37 2444.65,1480.61 2444.07,1480.24Z" style="fill:white;fill-rule:nonzero;"/>
        <path d="M2438.08,1488.83C2437.43,1488.67 2436.76,1489.08 2436.6,1489.74L2434.21,1499.85C2434.06,1500.51 2434.47,1501.18 2435.13,1501.33C2435.22,1501.35 2435.32,1501.37 2435.41,1501.37C2435.97,1501.37 2436.47,1500.98 2436.6,1500.42L2439,1490.31C2439.15,1489.64 2438.74,1488.98 2438.08,1488.83Z" style="fill:white;fill-rule:nonzero;"/>
        <path d="M2445.95,1492.32C2445.28,1492.4 2444.8,1493.01 2444.87,1493.68L2446.22,1505.38C2446.29,1506.01 2446.82,1506.47 2447.44,1506.47L2447.58,1506.46C2448.26,1506.39 2448.74,1505.78 2448.66,1505.1L2447.32,1493.4C2447.24,1492.73 2446.64,1492.24 2445.95,1492.32Z" style="fill:white;fill-rule:nonzero;"/>
        <path d="M2452.88,1484.58L2442.93,1491.48C2442.37,1491.87 2442.23,1492.64 2442.62,1493.2C2442.86,1493.54 2443.24,1493.72 2443.63,1493.72C2443.87,1493.72 2444.11,1493.65 2444.33,1493.51L2454.29,1486.6C2454.84,1486.22 2454.98,1485.45 2454.6,1484.89C2454.21,1484.33 2453.44,1484.2 2452.88,1484.58Z" style="fill:white;fill-rule:nonzero;"/>
        <path d="M2444.09,1491.53C2443.42,1491.61 2442.94,1492.22 2443.01,1492.89L2444.36,1504.59C2444.43,1505.22 2444.96,1505.68 2445.58,1505.68L2445.72,1505.67C2446.4,1505.6 2446.88,1504.99 2446.8,1504.31L2445.46,1492.61C2445.38,1491.94 2444.77,1491.45 2444.09,1491.53Z" style="fill:white;fill-rule:nonzero;"/>
        <path d="M2449.84,1483.64L2443.17,1491.94C2442.74,1492.46 2442.83,1493.24 2443.36,1493.66C2443.58,1493.85 2443.85,1493.94 2444.12,1493.94C2444.48,1493.94 2444.84,1493.78 2445.08,1493.48L2451.76,1485.18C2452.18,1484.65 2452.1,1483.88 2451.57,1483.45C2451.04,1483.03 2450.27,1483.11 2449.84,1483.64Z" style="fill:white;fill-rule:nonzero;"/>
        <path d="M2444.28,1491.49C2443.61,1491.4 2442.99,1491.88 2442.91,1492.55L2441.58,1503.12C2441.49,1503.79 2441.97,1504.41 2442.65,1504.49L2442.8,1504.5C2443.41,1504.5 2443.94,1504.05 2444.02,1503.42L2445.35,1492.86C2445.43,1492.19 2444.95,1491.57 2444.28,1491.49Z" style="fill:white;fill-rule:nonzero;"/>
        <path d="M2447.73,1493.1C2447.05,1493.2 2446.6,1493.83 2446.7,1494.5L2448.56,1506.42C2448.65,1507.03 2449.18,1507.46 2449.77,1507.46L2449.96,1507.45C2450.63,1507.34 2451.09,1506.71 2450.99,1506.04L2449.13,1494.12C2449.03,1493.45 2448.4,1493 2447.73,1493.1Z" style="fill:white;fill-rule:nonzero;"/>
        <path d="M2450.38,1494.24C2449.71,1494.35 2449.26,1494.99 2449.38,1495.66L2451.34,1506.81C2451.44,1507.41 2451.96,1507.83 2452.54,1507.83L2452.76,1507.81C2453.43,1507.69 2453.87,1507.05 2453.76,1506.38L2451.8,1495.24C2451.68,1494.57 2451.04,1494.12 2450.38,1494.24Z" style="fill:white;fill-rule:nonzero;"/>
        <path d="M2454.42,1496.27C2454.26,1495.61 2453.59,1495.21 2452.93,1495.38C2452.27,1495.55 2451.88,1496.22 2452.04,1496.87L2454.41,1506.17C2454.55,1506.73 2455.05,1507.1 2455.6,1507.1C2455.7,1507.1 2455.8,1507.09 2455.9,1507.06C2456.56,1506.89 2456.96,1506.22 2456.79,1505.57L2454.42,1496.27Z" style="fill:white;fill-rule:nonzero;"/>
        <path d="M2454.18,1495.78C2453.75,1495.26 2452.97,1495.19 2452.45,1495.63C2451.92,1496.06 2451.85,1496.83 2452.29,1497.36L2457.62,1503.77C2457.86,1504.06 2458.21,1504.21 2458.57,1504.21C2458.84,1504.21 2459.12,1504.12 2459.35,1503.92C2459.87,1503.49 2459.94,1502.71 2459.51,1502.19L2454.18,1495.78Z" style="fill:white;fill-rule:nonzero;"/>
        <path d="M2460.84,1498.46L2454.26,1495.67C2453.63,1495.4 2452.91,1495.69 2452.64,1496.32C2452.38,1496.95 2452.67,1497.67 2453.3,1497.93L2459.89,1500.73C2460.04,1500.8 2460.2,1500.83 2460.36,1500.83C2460.84,1500.83 2461.3,1500.55 2461.5,1500.08C2461.76,1499.45 2461.47,1498.73 2460.84,1498.46Z" style="fill:white;fill-rule:nonzero;"/>
        <path d="M2365.11,1400.28C2363.71,1397.33 2359.53,1359.21 2359.49,1348.38C2359.46,1341.97 2359.49,1337.87 2359.49,1327.13C2359.49,1317.88 2346.16,1320.77 2336.82,1332.47C2331.44,1339.19 2336.82,1392.45 2345.45,1411.3C2348.34,1417.63 2375.8,1450.96 2382.98,1459.43C2385.29,1462.15 2396.45,1458.79 2393.55,1454.75C2381.12,1431.14 2371.35,1413.38 2365.11,1400.28Z" style="fill:rgb(255,166,31);fill-rule:nonzero;"/>
        <path d="M2367.95,1441.21C2358.09,1429.04 2347.21,1415.16 2345.45,1411.3C2347.21,1415.16 2358.09,1429.04 2367.95,1441.21ZM2345.41,1411.23L2345.41,1411.21L2345.41,1411.23ZM2345.37,1411.14L2345.37,1411.12L2345.37,1411.14ZM2345.34,1411.06C2345.34,1411.05 2345.33,1411.05 2345.33,1411.04C2345.33,1411.05 2345.34,1411.05 2345.34,1411.06ZM2345.3,1410.97C2345.3,1410.96 2345.29,1410.96 2345.29,1410.96C2345.29,1410.96 2345.3,1410.96 2345.3,1410.97ZM2345.26,1410.89C2345.26,1410.88 2345.26,1410.87 2345.25,1410.86C2345.25,1410.87 2345.26,1410.88 2345.26,1410.89ZM2345.23,1410.81C2345.22,1410.8 2345.22,1410.78 2345.21,1410.77C2345.22,1410.78 2345.22,1410.8 2345.23,1410.81ZM2345.19,1410.73C2345.19,1410.71 2345.18,1410.7 2345.18,1410.69C2345.18,1410.7 2345.19,1410.71 2345.19,1410.73ZM2345.15,1410.64C2345.15,1410.62 2345.14,1410.61 2345.13,1410.59C2345.14,1410.61 2345.15,1410.62 2345.15,1410.64ZM2345.12,1410.56C2345.09,1410.5 2345.07,1410.45 2345.05,1410.4C2345.07,1410.45 2345.09,1410.5 2345.12,1410.56ZM2345.05,1410.39C2345.02,1410.33 2345,1410.28 2344.97,1410.22C2345,1410.28 2345.02,1410.33 2345.05,1410.39ZM2344.97,1410.21C2343.58,1406.93 2342.28,1402.76 2341.1,1398.07C2342.28,1402.76 2343.58,1406.93 2344.97,1410.21ZM2341.08,1397.98L2341.08,1397.96L2341.08,1397.98ZM2341.05,1397.85C2341.05,1397.84 2341.04,1397.83 2341.04,1397.82C2341.04,1397.83 2341.05,1397.84 2341.05,1397.85Z" style="fill:rgb(242,242,242);fill-rule:nonzero;"/>
        <path d="M2341.02,1397.73C2341.02,1397.72 2341.01,1397.71 2341.01,1397.7C2341.01,1397.71 2341.02,1397.72 2341.02,1397.73ZM2340.99,1397.59C2340.98,1397.58 2340.98,1397.57 2340.98,1397.57C2340.98,1397.57 2340.98,1397.58 2340.99,1397.59Z" style="fill:rgb(233,233,233);fill-rule:nonzero;"/>
        <path d="M2370.71,1444.61C2369.81,1443.5 2368.88,1442.36 2367.95,1441.21C2358.09,1429.04 2347.21,1415.16 2345.45,1411.3C2345.44,1411.28 2345.43,1411.25 2345.41,1411.23L2345.41,1411.21C2345.4,1411.18 2345.38,1411.16 2345.37,1411.14L2345.37,1411.12C2345.36,1411.1 2345.35,1411.08 2345.34,1411.06C2345.34,1411.05 2345.33,1411.05 2345.33,1411.04C2345.32,1411.01 2345.31,1410.99 2345.3,1410.97C2345.3,1410.96 2345.29,1410.96 2345.29,1410.96C2345.28,1410.94 2345.27,1410.91 2345.26,1410.89C2345.26,1410.88 2345.25,1410.87 2345.25,1410.86C2345.24,1410.84 2345.24,1410.83 2345.23,1410.81C2345.22,1410.8 2345.22,1410.78 2345.21,1410.77C2345.2,1410.75 2345.2,1410.74 2345.19,1410.73C2345.19,1410.71 2345.18,1410.7 2345.18,1410.69C2345.17,1410.67 2345.16,1410.66 2345.15,1410.64C2345.15,1410.62 2345.14,1410.61 2345.13,1410.59C2345.13,1410.58 2345.12,1410.57 2345.12,1410.56C2345.09,1410.5 2345.07,1410.45 2345.05,1410.4L2345.05,1410.39C2345.02,1410.33 2345,1410.28 2344.97,1410.22L2344.97,1410.21C2343.58,1406.93 2342.28,1402.76 2341.1,1398.07C2341.1,1398.04 2341.09,1398.01 2341.08,1397.98L2341.08,1397.96C2341.07,1397.92 2341.06,1397.88 2341.05,1397.85C2341.05,1397.84 2341.04,1397.83 2341.04,1397.82C2341.03,1397.79 2341.03,1397.76 2341.02,1397.73C2341.02,1397.72 2341.01,1397.71 2341.01,1397.7C2341,1397.66 2340.99,1397.63 2340.99,1397.59C2340.98,1397.58 2340.98,1397.57 2340.98,1397.57C2336.92,1381.11 2334.37,1358.45 2334.7,1344.47C2336.67,1356.45 2341.72,1387.37 2351.26,1406.51C2358.45,1420.94 2367.24,1432.53 2375,1441.15C2373.45,1442.23 2371.99,1443.4 2370.71,1444.61Z" style="fill:rgb(242,158,29);fill-rule:nonzero;"/>
        <path d="M2395.41,1456.35C2392.86,1451.5 2386.52,1440.87 2384.2,1436.51C2379.43,1437.96 2373.85,1441.46 2370.1,1445.21C2373.34,1449.19 2378.9,1455.19 2381.42,1457.69C2381.14,1458.48 2380.93,1459.33 2380.86,1460.26C2380.77,1461.51 2380.94,1464.61 2381.07,1466.61C2381.14,1467.67 2381.2,1468.42 2381.2,1468.42L2381.26,1468.44L2381.69,1472.69C2381.69,1472.69 2381.78,1475.63 2383.99,1476.13C2384.36,1476.21 2385.27,1475.92 2385.4,1475.56C2385.77,1474.49 2386.53,1472.32 2387.05,1470.86L2387.68,1471.12L2386.41,1475.49C2386.07,1476.65 2386.73,1477.86 2387.89,1478.2C2389.05,1478.54 2390.26,1477.87 2390.6,1476.71L2391.73,1472.81L2392.38,1473.08L2391.06,1477.61C2390.72,1478.77 2391.39,1479.98 2392.55,1480.32C2393.71,1480.65 2394.92,1479.99 2395.25,1478.83L2396.43,1474.78L2396.92,1474.98L2395.72,1479.09C2395.38,1480.25 2396.05,1481.46 2397.21,1481.8C2398.36,1482.14 2399.58,1481.47 2399.91,1480.31C2399.91,1480.31 2402.63,1471.91 2402.64,1471.49C2402.71,1469.19 2400.61,1462.88 2399.3,1460.56C2398.64,1459.41 2397.12,1457.87 2395.41,1456.35Z" style="fill:rgb(77,184,175);fill-rule:nonzero;"/>
        <path d="M2393.16,1480.4C2392.96,1480.4 2392.75,1480.38 2392.55,1480.32C2391.6,1480.04 2390.98,1479.17 2390.97,1478.23C2390.98,1479.17 2391.6,1480.04 2392.55,1480.32C2392.75,1480.38 2392.96,1480.4 2393.16,1480.4C2394.11,1480.4 2394.98,1479.78 2395.25,1478.83L2395.59,1477.69L2395.25,1478.83C2394.98,1479.78 2394.11,1480.4 2393.16,1480.4Z" style="fill:rgb(175,218,214);fill-rule:nonzero;"/>
        <path d="M2393.16,1480.4C2392.96,1480.4 2392.75,1480.38 2392.55,1480.32C2391.6,1480.04 2390.98,1479.17 2390.97,1478.23C2390.97,1478.03 2391,1477.82 2391.06,1477.61L2391.47,1476.22C2392.84,1476.78 2394.21,1477.27 2395.59,1477.69L2395.25,1478.83C2394.98,1479.78 2394.11,1480.4 2393.16,1480.4Z" style="fill:rgb(73,175,166);fill-rule:nonzero;"/>
        <path d="M2385.67,1474.79C2385.84,1474.3 2386.04,1473.72 2386.25,1473.14C2386.04,1473.72 2385.84,1474.3 2385.67,1474.79Z" style="fill:rgb(175,218,214);fill-rule:nonzero;"/>
        <path d="M2384.14,1476.14C2384.08,1476.14 2384.03,1476.14 2383.99,1476.13C2381.79,1475.63 2381.69,1472.72 2381.69,1472.69L2381.26,1468.44L2381.2,1468.42C2381.2,1468.42 2381.14,1467.67 2381.07,1466.61C2380.97,1465 2380.84,1462.68 2380.84,1461.18C2380.84,1460.81 2380.85,1460.5 2380.86,1460.26C2380.93,1459.33 2381.14,1458.48 2381.42,1457.69C2378.9,1455.19 2373.34,1449.19 2370.1,1445.21C2371,1444.31 2372.01,1443.42 2373.08,1442.58C2373.41,1443.14 2373.79,1443.68 2374.21,1444.21C2378.3,1449.29 2381.35,1455.26 2385.47,1460.34C2385.26,1460.98 2385.12,1461.64 2385.03,1462.3C2383.54,1465.63 2384,1470.04 2386.32,1472.94C2386.29,1473.01 2386.27,1473.07 2386.25,1473.14C2386.04,1473.72 2385.84,1474.3 2385.67,1474.79C2385.56,1475.08 2385.47,1475.34 2385.4,1475.56C2385.29,1475.88 2384.56,1476.14 2384.14,1476.14Z" style="fill:rgb(73,175,166);fill-rule:nonzero;"/>
        <path d="M2388.5,1478.29C2388.3,1478.29 2388.09,1478.26 2387.89,1478.2C2386.94,1477.92 2386.32,1477.06 2386.32,1476.12C2386.32,1477.06 2386.94,1477.92 2387.89,1478.2C2388.09,1478.26 2388.3,1478.29 2388.5,1478.29C2389.45,1478.29 2390.32,1477.67 2390.6,1476.71L2390.82,1475.93L2390.6,1476.71C2390.32,1477.67 2389.45,1478.29 2388.5,1478.29Z" style="fill:rgb(175,218,214);fill-rule:nonzero;"/>
        <path d="M2388.5,1478.29C2388.3,1478.29 2388.09,1478.26 2387.89,1478.2C2386.94,1477.92 2386.32,1477.06 2386.32,1476.12C2386.32,1475.91 2386.34,1475.7 2386.41,1475.49L2386.95,1473.64C2387.55,1474.24 2388.24,1474.76 2389.05,1475.14C2389.64,1475.43 2390.23,1475.68 2390.82,1475.93L2390.6,1476.71C2390.32,1477.67 2389.45,1478.29 2388.5,1478.29Z" style="fill:rgb(73,175,166);fill-rule:nonzero;"/>
        <path d="M2397.82,1481.89C2397.62,1481.89 2397.41,1481.86 2397.21,1481.8C2396.26,1481.52 2395.64,1480.66 2395.63,1479.72C2395.64,1480.66 2396.26,1481.52 2397.21,1481.8C2397.41,1481.86 2397.62,1481.89 2397.82,1481.89C2398.76,1481.89 2399.64,1481.27 2399.91,1480.31L2399.92,1480.3L2399.91,1480.31C2399.64,1481.27 2398.76,1481.89 2397.82,1481.89ZM2399.92,1480.29C2399.92,1480.28 2399.93,1480.27 2399.93,1480.27C2399.93,1480.27 2399.92,1480.28 2399.92,1480.29ZM2399.93,1480.26C2399.93,1480.24 2399.94,1480.22 2399.95,1480.19C2399.94,1480.22 2399.93,1480.24 2399.93,1480.26ZM2399.95,1480.19C2399.95,1480.19 2399.95,1480.18 2399.96,1480.18C2399.95,1480.18 2399.95,1480.19 2399.95,1480.19ZM2399.96,1480.16C2399.96,1480.16 2399.96,1480.15 2399.97,1480.15C2399.96,1480.15 2399.96,1480.16 2399.96,1480.16ZM2399.98,1480.09L2399.99,1480.09L2399.98,1480.09Z" style="fill:rgb(175,218,214);fill-rule:nonzero;"/>
        <path d="M2397.82,1481.89C2397.62,1481.89 2397.41,1481.86 2397.21,1481.8C2396.26,1481.52 2395.64,1480.66 2395.63,1479.72C2395.63,1479.51 2395.66,1479.3 2395.72,1479.09L2396.08,1477.85C2397.5,1478.27 2398.92,1478.64 2400.35,1478.94C2400.19,1479.44 2400.06,1479.85 2399.99,1480.09L2399.98,1480.09C2399.98,1480.11 2399.97,1480.13 2399.97,1480.15C2399.96,1480.15 2399.96,1480.16 2399.96,1480.16L2399.96,1480.18C2399.95,1480.18 2399.95,1480.19 2399.95,1480.19C2399.94,1480.22 2399.93,1480.24 2399.93,1480.26L2399.93,1480.27C2399.93,1480.27 2399.92,1480.28 2399.92,1480.29L2399.92,1480.3L2399.91,1480.31C2399.64,1481.27 2398.76,1481.89 2397.82,1481.89Z" style="fill:rgb(73,175,166);fill-rule:nonzero;"/>
        <path d="M2482.32,1508.64L2367.45,1508.64C2365.08,1508.64 2363.16,1510.67 2363.16,1513.18L2482.71,1513.18C2485.97,1513.54 2486.34,1508.64 2482.32,1508.64Z" style="fill:white;fill-rule:nonzero;"/>
    </g>
</svg>
