<?xml version="1.0" encoding="UTF-8" standalone="no"?>
<!DOCTYPE svg PUBLIC "-//W3C//DTD SVG 1.1//EN" "http://www.w3.org/Graphics/SVG/1.1/DTD/svg11.dtd">
<svg width="100%" height="100%" viewBox="0 0 3600 2000" version="1.1" xmlns="http://www.w3.org/2000/svg" xmlns:xlink="http://www.w3.org/1999/xlink" xml:space="preserve" xmlns:serif="http://www.serif.com/" style="fill-rule:evenodd;clip-rule:evenodd;stroke-linejoin:round;stroke-miterlimit:2;">
    <g>
        <path d="M3424.32,1540.49C3389.22,1357.47 3522.93,1164.67 3430,991.238C3400.49,936.16 3349.9,887.672 3308.67,836.186C3246.43,758.456 3205.19,672.99 3187.62,585.306C3176.12,527.943 3174.61,469.532 3155.45,413.122C3102.32,256.637 2903.29,127.783 2670.72,99.301C2483.29,76.346 2283.03,105.731 2119.6,172.247C1385.51,471.015 1038.41,329.689 782.282,432.77C621.745,497.38 532.168,617.519 472.485,737.624C412.8,857.728 425.463,1119.29 287.37,1204.51C250.354,1227.36 208.169,1246.33 173.854,1271.05C60.921,1352.39 55.848,1483.18 121.53,1585.71C178.279,1674.3 307.437,1792.13 437.89,1844.27C444.914,1847.08 470.769,1852.36 491.943,1852.5C771.475,1854.35 2743.9,1857.77 3184.11,1855.34C3253.41,1854.96 3328.2,1853.35 3383.05,1824.56C3441.52,1793.87 3461.82,1739.3 3458.88,1689.13C3455.94,1638.97 3433.87,1590.28 3424.32,1540.49Z" style="fill:rgb(201,234,253);fill-rule:nonzero;"/>
        <path d="M2715.07,1109.13C2717.04,1110.44 2802.26,1122.91 2806.7,1120.93C2811.13,1118.96 2829.36,1079.55 2829.36,1079.55L2863.22,1107.21C2863.22,1107.21 2842.66,1159.06 2833.79,1162.66C2824.92,1166.26 2728.37,1145.57 2728.37,1145.57L2715.07,1109.13Z" style="fill:rgb(255,192,187);fill-rule:nonzero;"/>
        <path d="M2822.62,1760.55C2824.35,1792.02 2822.76,1846.59 2822.76,1846.59L2852.45,1829.44C2853.47,1824.8 2859.62,1786.98 2862.04,1759.24L2822.62,1760.55Z" style="fill:rgb(255,192,187);fill-rule:nonzero;"/>
        <path d="M2783.58,1833.28L2823.4,1808.45L2852.45,1829.44L2841.33,1837.43L2802.65,1843.07C2802.65,1843.07 2787.53,1841.21 2786.86,1840.76C2786.19,1840.32 2783.58,1833.28 2783.58,1833.28Z" style="fill:rgb(255,192,187);fill-rule:nonzero;"/>
        <path d="M2783.58,1833.28L2774.24,1839.35C2769.91,1842.11 2771.87,1848.81 2777,1848.81L2847.92,1848.81C2850.42,1848.81 2852.45,1846.78 2852.45,1844.28L2852.45,1829.44C2805.21,1844.47 2788.9,1839.9 2783.58,1833.28Z" style="fill:rgb(255,91,126);fill-rule:nonzero;"/>
        <path d="M3117.55,1771.43L3141,1843.68L3170.69,1827.59C3169.03,1820.94 3153.99,1780.05 3149.57,1759.93L3117.55,1771.43Z" style="fill:rgb(255,192,187);fill-rule:nonzero;"/>
        <path d="M3101.82,1830.37L3141.64,1805.54L3170.69,1826.52L3159.57,1834.51L3120.89,1840.16C3120.89,1840.16 3105.77,1838.29 3105.1,1837.85C3104.43,1837.41 3101.82,1830.37 3101.82,1830.37Z" style="fill:rgb(255,192,187);fill-rule:nonzero;"/>
        <path d="M3133.62,1835.59C3113.97,1838.36 3105.4,1834.83 3101.82,1830.37L3092.48,1836.44C3088.15,1839.2 3090.11,1845.9 3095.24,1845.9L3166.16,1845.9C3168.66,1845.9 3170.69,1843.87 3170.69,1841.37L3170.69,1826.52C3155.27,1831.43 3143.14,1834.25 3133.62,1835.59Z" style="fill:rgb(255,91,126);fill-rule:nonzero;"/>
        <path d="M2888.4,958.334C2888.4,958.334 2821.97,996.618 2814.08,1096.96L2888.4,1113.23L2888.4,958.334Z" style="fill:rgb(2,165,149);fill-rule:nonzero;"/>
        <path d="M2895.86,953.945L2964.83,950.004L2955.31,979.234C2955.31,979.234 2933.99,989.087 2926.26,985.146C2918.52,981.205 2896.35,966.754 2896.35,966.754L2895.86,953.945Z" style="fill:rgb(255,192,187);fill-rule:nonzero;"/>
        <path d="M2952.02,1477.12C2952.02,1477.12 2951.04,1522.44 2956.95,1538.21C2962.86,1553.97 3078.14,1791.01 3117.55,1816.63C3117.55,1816.63 3150,1812.61 3170.69,1794.87C3170.69,1794.87 3044.64,1534.27 3045.62,1492.89C3046.61,1451.51 3083.79,1305.52 3073.21,1251.06C3062.63,1196.6 2895.04,1273.91 2895.04,1273.91C2895.04,1273.91 2848.57,1423.92 2843.64,1452.49C2834.98,1502.72 2804.11,1694.02 2814.58,1793.89L2865.52,1802.91C2865.52,1802.91 2895.86,1591.41 2952.02,1477.12Z" style="fill:rgb(254,181,70);fill-rule:nonzero;"/>
        <path d="M2895.86,953.946C2895.86,953.946 2858.92,968.232 2858.92,1030.3C2858.92,1092.38 2895.86,1278.1 2895.86,1278.1C2895.86,1278.1 3014.09,1297.8 3078.63,1247.06L3030.84,1096.32C3030.84,1096.32 3063.36,1092.87 3073.21,1088.43C3073.21,1088.43 3082.08,954.931 2964.83,950.005C2964.83,950.005 2924.93,982.025 2895.86,953.946Z" style="fill:rgb(2,204,192);fill-rule:nonzero;"/>
        <path d="M2620.31,1233.63C2620.31,1233.63 2577.69,1129.52 2623.48,1012.99C2623.48,1012.99 2652.86,1097.67 2620.31,1233.63Z" style="fill:rgb(2,165,149);fill-rule:nonzero;"/>
        <path d="M2629.07,1248.26C2629.07,1248.26 2606.32,1138.09 2672.74,1031.97C2672.74,1031.97 2686.05,1120.61 2629.07,1248.26Z" style="fill:rgb(2,165,149);fill-rule:nonzero;"/>
        <path d="M2604.43,1257.38C2604.43,1257.38 2543.21,1163.01 2566.54,1040.01C2566.54,1040.01 2611.15,1117.75 2604.43,1257.38Z" style="fill:rgb(6,191,173);fill-rule:nonzero;"/>
        <path d="M2625.57,1238.45C2625.57,1238.45 2595.18,1158.39 2641.36,1075.19C2641.36,1075.19 2661.55,1139.95 2625.57,1238.45Z" style="fill:rgb(6,191,173);fill-rule:nonzero;"/>
        <path d="M2620.71,1242.73C2620.71,1242.73 2569.07,1174.42 2590.04,1081.6C2590.04,1081.6 2627.59,1138.09 2620.71,1242.73Z" style="fill:rgb(43,216,195);fill-rule:nonzero;"/>
        <path d="M2621.84,1242.93C2621.84,1242.93 2549.64,1196.88 2536.98,1102.57C2536.98,1102.57 2591.85,1142.44 2621.84,1242.93Z" style="fill:rgb(2,165,149);fill-rule:nonzero;"/>
        <path d="M2622.97,1254.46C2622.97,1254.46 2621.84,1168.83 2693.72,1106.49C2693.72,1106.49 2690.51,1174.24 2622.97,1254.46Z" style="fill:rgb(43,216,195);fill-rule:nonzero;"/>
        <path d="M2660.33,1201.03L2577.59,1201.03C2574.66,1201.03 2572.5,1203.77 2573.17,1206.62L2588.8,1272.37C2589.28,1274.42 2591.11,1275.86 2593.21,1275.86L2644.7,1275.86C2646.81,1275.86 2648.63,1274.42 2649.12,1272.37L2664.75,1206.62C2665.42,1203.77 2663.26,1201.03 2660.33,1201.03Z" style="fill:rgb(254,181,70);fill-rule:nonzero;"/>
        <path d="M2644.7,1275.86L2593.21,1275.86C2591.11,1275.86 2589.28,1274.42 2588.8,1272.37L2573.17,1206.62C2573.09,1206.27 2573.05,1205.91 2573.05,1205.56C2573.05,1205.91 2573.09,1206.27 2573.17,1206.62L2588.8,1272.37C2589.28,1274.42 2591.11,1275.86 2593.21,1275.86L2644.7,1275.86C2646.81,1275.86 2648.63,1274.42 2649.12,1272.37L2649.7,1269.94L2649.12,1272.37C2648.63,1274.42 2646.81,1275.86 2644.7,1275.86Z" style="fill:rgb(192,218,232);fill-rule:nonzero;"/>
        <path d="M2644.7,1275.86L2593.21,1275.86C2591.11,1275.86 2589.28,1274.42 2588.8,1272.37L2573.17,1206.62C2573.09,1206.27 2573.05,1205.91 2573.05,1205.56C2573.05,1203.13 2575.02,1201.03 2577.59,1201.03L2581.31,1201.03C2591.9,1230.77 2620.44,1253.57 2649.7,1269.94L2649.12,1272.37C2648.63,1274.42 2646.81,1275.86 2644.7,1275.86Z" style="fill:rgb(242,169,64);fill-rule:nonzero;"/>
        <path d="M2715.07,1105.18L2701.52,1103.46L2701.27,1084L2695.85,1080.06L2653.98,1103.21L2661.37,1113.23L2669.71,1109.46L2671.71,1134.74L2677.63,1131.79L2677.63,1105.88L2683.54,1103.21L2687.97,1115.93L2716.54,1248.05C2716.54,1248.05 2743.64,1260.86 2744.62,1259.38C2745.61,1257.9 2781.57,1239.67 2781.57,1239.67L2781.57,1226.37L2715.07,1105.18Z" style="fill:rgb(255,91,126);fill-rule:nonzero;"/>
        <path d="M2956.84,834.621C2956.84,834.621 2974.79,822.871 2995.22,834.621C3015.65,846.372 3015.65,886.003 3007.61,895.488C2999.56,904.972 3008.02,917.809 2991.92,930.191C2975.82,942.574 2950.2,947.118 2935.56,932.653C2920.93,918.189 2931.66,885.921 2931.66,885.921L2956.84,834.621Z" style="fill:rgb(255,91,126);fill-rule:nonzero;"/>
        <path d="M2936.18,905.025L2954.69,954.953C2954.69,954.953 2940.14,967.295 2905.4,958.548C2905.4,958.548 2909.02,950.301 2903.15,933.807C2897.15,916.952 2936.18,905.025 2936.18,905.025Z" style="fill:rgb(255,192,187);fill-rule:nonzero;"/>
        <path d="M2906.47,949.732C2906.37,946.843 2905.91,943.256 2904.76,938.951C2905.92,943.252 2906.38,946.845 2906.48,949.73C2906.48,949.73 2906.48,949.731 2906.47,949.732Z" style="fill:rgb(232,178,180);fill-rule:nonzero;"/>
        <path d="M2942.89,923.127L2941.14,918.39C2941.14,918.383 2941.14,918.378 2941.15,918.37L2942.9,923.08C2942.9,923.095 2942.89,923.112 2942.89,923.127Z" style="fill:rgb(253,121,130);fill-rule:nonzero;"/>
        <path d="M2906.48,949.73C2906.38,946.845 2905.92,943.252 2904.76,938.951C2919.75,937.954 2932.78,930.063 2941.14,918.39L2942.89,923.127C2939.76,936.59 2928.4,946.099 2906.48,949.73Z" style="fill:rgb(253,161,154);fill-rule:nonzero;"/>
        <path d="M2856.49,879.266C2859.52,885.517 2857.91,892.545 2852.91,894.963C2847.91,897.381 2841.41,894.273 2838.38,888.022C2835.36,881.771 2836.96,874.743 2841.97,872.325C2846.97,869.906 2853.47,873.014 2856.49,879.266Z" style="fill:rgb(249,152,147);fill-rule:nonzero;"/>
        <path d="M2856.13,908.169C2852.53,900.108 2850.43,891.441 2849.2,883.844C2848.94,882.214 2848.58,880.603 2848.19,878.998C2846.63,872.515 2846.21,865.565 2847.3,858.319C2850.79,835.009 2869.55,816.425 2892.89,813.197C2924.35,808.849 2952.06,832.137 2954.01,862.984C2957.25,860.907 2960.99,860.238 2964.4,861.509C2970.94,863.947 2973.77,872.553 2970.72,880.73C2967.68,888.907 2959.9,893.559 2953.36,891.121C2952.45,890.783 2951.62,890.315 2950.87,889.756C2949.85,916.171 2929.63,937.795 2903.82,939.004C2884.22,939.922 2864.8,928.594 2856.13,908.169Z" style="fill:rgb(255,192,187);fill-rule:nonzero;"/>
        <path d="M2888.36,866.62C2888.48,869.66 2888.57,872.667 2888.49,875.636C2888.41,877.114 2888.38,878.596 2888.11,880.014C2887.88,881.421 2887.54,882.834 2886.88,883.911L2886.61,884.284C2886.52,884.417 2886.47,884.514 2886.31,884.707C2886.06,885.067 2885.75,885.371 2885.56,885.784C2885.35,886.179 2885.13,886.568 2885.03,887.018C2884.87,887.445 2884.82,887.901 2884.8,888.359C2884.71,890.216 2885.68,891.909 2886.92,893C2888.17,894.128 2889.71,894.767 2891.25,895.083C2892.8,895.379 2894.37,895.371 2895.87,895.104C2894.35,894.928 2892.88,894.665 2891.53,894.139C2890.17,893.638 2888.93,892.875 2888.02,891.883C2887.14,890.884 2886.53,889.665 2886.69,888.466C2886.73,888.171 2886.75,887.875 2886.88,887.593C2886.94,887.299 2887.11,887.034 2887.25,886.763C2887.37,886.479 2887.63,886.258 2887.81,885.999C2888.01,885.741 2888.33,885.309 2888.58,884.963C2889.46,883.436 2889.78,881.832 2889.98,880.268C2890.16,878.695 2890.15,877.146 2890.05,875.608C2889.83,872.541 2889.29,869.524 2888.36,866.62Z" style="fill:rgb(249,152,147);fill-rule:nonzero;"/>
        <path d="M2906.18,870.688C2906.3,873.274 2908.49,875.273 2911.08,875.151C2913.67,875.03 2915.66,872.835 2915.54,870.249C2915.42,867.662 2913.23,865.663 2910.64,865.784C2908.05,865.906 2906.05,868.101 2906.18,870.688Z" style="fill:rgb(51,51,51);fill-rule:nonzero;"/>
        <path d="M2866.08,875.208C2866.2,877.795 2868.39,879.794 2870.98,879.673C2873.57,879.552 2875.57,877.356 2875.45,874.77C2875.32,872.183 2873.13,870.185 2870.54,870.306C2867.96,870.427 2865.96,872.622 2866.08,875.208Z" style="fill:rgb(51,51,51);fill-rule:nonzero;"/>
        <path d="M2895.54,917.798C2885.75,917.798 2883.17,908.75 2883.17,908.75C2884.98,907.267 2887,906.783 2888.88,906.783C2892.39,906.783 2895.36,908.494 2895.36,908.494C2898.46,906.299 2901.72,905.753 2904.19,905.753C2906.63,905.753 2908.31,906.285 2908.31,906.285C2908.31,906.285 2908.38,916.619 2897.21,917.715C2896.63,917.771 2896.08,917.798 2895.54,917.798Z" style="fill:rgb(253,168,163);fill-rule:nonzero;"/>
        <path d="M2914.04,902.433C2912.81,903.505 2911.53,904.499 2910.17,905.376C2908.83,906.279 2907.44,907.097 2905.99,907.794C2903.11,909.188 2900.04,910.208 2896.89,910.589C2893.74,910.987 2890.53,910.712 2887.45,909.893C2884.37,909.029 2881.44,907.613 2878.66,905.902C2879.91,906.952 2881.24,907.909 2882.66,908.745C2884.08,909.584 2885.61,910.228 2887.17,910.799C2888.74,911.322 2890.38,911.687 2892.04,911.862C2893.7,912.016 2895.38,911.996 2897.04,911.811C2900.36,911.379 2903.56,910.269 2906.43,908.628C2909.3,906.99 2911.93,904.939 2914.04,902.433Z" style="fill:rgb(249,152,147);fill-rule:nonzero;"/>
        <path d="M2900.29,860.099C2902.68,859.361 2904.92,858.799 2907.15,858.454C2909.37,858.111 2911.54,858.052 2913.66,858.31C2915.77,858.593 2917.88,859.044 2919.92,859.971C2921,860.307 2921.95,860.949 2923.04,861.405C2924.1,861.931 2925.08,862.6 2926.26,863.117C2925.67,862.029 2924.98,860.965 2924.17,859.99C2923.29,859.106 2922.44,858.109 2921.34,857.437C2919.28,855.868 2916.69,854.968 2914.07,854.642C2911.44,854.326 2908.76,854.71 2906.37,855.667C2904,856.641 2901.82,858.09 2900.29,860.099Z" style="fill:rgb(255,91,126);fill-rule:nonzero;"/>
        <path d="M2879.63,862.424C2877.74,860.751 2875.33,859.752 2872.81,859.257C2870.28,858.782 2867.57,858.927 2865.05,859.748C2862.55,860.575 2860.19,861.961 2858.47,863.9C2857.52,864.775 2856.88,865.918 2856.18,866.956C2855.59,868.069 2855.12,869.246 2854.75,870.428C2855.81,869.69 2856.64,868.845 2857.57,868.124C2858.55,867.464 2859.36,866.651 2860.35,866.111C2862.17,864.807 2864.16,863.952 2866.17,863.266C2868.2,862.601 2870.35,862.237 2872.59,862.142C2874.84,862.049 2877.15,862.164 2879.63,862.424Z" style="fill:rgb(255,91,126);fill-rule:nonzero;"/>
        <path d="M2845.29,817.552C2853.01,800.759 2868.03,791.282 2881,786.014C2896.94,779.539 2914.84,779.051 2930.95,785.101C2976.4,802.165 2967.34,852.286 2965.21,861.665C2963.03,861.161 2960.04,861.226 2956.41,863.197C2954.88,864.025 2953.65,864.901 2952.64,865.779C2943.8,863.084 2941.12,848.407 2936.55,841.334C2930.34,831.738 2906.25,840.878 2895.87,834.067C2885.49,827.257 2883.72,820.179 2883.72,820.179C2843.69,826.524 2846.69,871.581 2846.69,871.581C2844.96,871.193 2840.96,864.708 2840.96,864.708C2840.96,864.708 2831.1,848.432 2845.29,817.552Z" style="fill:rgb(255,91,126);fill-rule:nonzero;"/>
        <path d="M2949.29,1281.86C2918.56,1281.86 2896.01,1278.12 2895.86,1278.1C3020.01,1227.85 2983.17,1031.68 2983.17,1031.68L3000.14,1093.84L3030.84,1096.32L3078.63,1247.06C3042.3,1275.62 2988.98,1281.86 2949.29,1281.86Z" style="fill:rgb(1,192,178);fill-rule:nonzero;"/>
        <path d="M2952.02,1477.12C2952.57,1463.89 2953.39,1450.7 2954.5,1437.53C2955.54,1424.36 2956.84,1411.21 2958.19,1398.07C2959.63,1384.93 2961.12,1371.81 2962.86,1358.71C2964.55,1345.6 2966.52,1332.53 2968.77,1319.48C2968.23,1332.71 2967.41,1345.91 2966.3,1359.07C2965.26,1372.25 2963.96,1385.39 2962.6,1398.54C2961.16,1411.67 2959.67,1424.79 2957.92,1437.89C2956.24,1451 2954.27,1464.08 2952.02,1477.12Z" style="fill:white;fill-rule:nonzero;"/>
        <path d="M3063.9,1090.18C3060.78,1090.67 3057.69,1091.26 3054.57,1091.67C3048.35,1092.62 3042.12,1093.4 3035.89,1093.96C3029.65,1094.44 3023.41,1094.87 3017.17,1094.84C3011.47,1094.84 3005.62,1094.63 3000.14,1093.83C2997.42,1082.03 2994.64,1070.24 2991.64,1058.5C2990.1,1052.37 2988.47,1046.26 2986.82,1040.16C2985.07,1034.09 2983.46,1027.98 2981.58,1021.93C2982.49,1028.2 2983.67,1034.4 2984.71,1040.64C2985.86,1046.86 2987.02,1053.07 2988.27,1059.26C2990.72,1071.65 2993.42,1083.99 2996.17,1096.31L2996.5,1097.78L2997.9,1098C3004.51,1099.02 3010.81,1099.15 3017.23,1099.04C3023.62,1098.82 3029.98,1098.3 3036.28,1097.39C3042.58,1096.52 3048.82,1095.27 3054.99,1093.8C3061.14,1092.23 3067.24,1090.52 3073.21,1088.43C3070.09,1088.97 3066.99,1089.58 3063.9,1090.18Z" style="fill:white;fill-rule:nonzero;"/>
        <path d="M2962.86,1358.71C2962.86,1358.71 2866.51,1559.23 2854.75,1641.99C2846.03,1703.32 2830.04,1768.17 2818.01,1794.49L2865.52,1802.91C2865.52,1802.91 2895.86,1591.41 2952.02,1477.12L2962.86,1358.71Z" style="fill:rgb(244,166,64);fill-rule:nonzero;"/>
        <path d="M2715.57,1101.74C2714.99,1104.4 2710.15,1105.59 2704.77,1104.41C2699.39,1103.23 2695.5,1100.12 2696.08,1097.46C2696.67,1094.81 2701.5,1093.61 2706.88,1094.79C2712.27,1095.97 2716.16,1099.08 2715.57,1101.74Z" style="fill:rgb(255,192,187);fill-rule:nonzero;"/>
        <path d="M2698.58,1112.69C2697.99,1115.35 2693.16,1116.55 2687.78,1115.37C2682.4,1114.19 2678.51,1111.08 2679.09,1108.42C2679.67,1105.76 2684.51,1104.56 2689.89,1105.74C2695.27,1106.92 2699.16,1110.04 2698.58,1112.69Z" style="fill:rgb(255,192,187);fill-rule:nonzero;"/>
        <path d="M2698.71,1119.87C2698.34,1122.56 2693.61,1124.13 2688.16,1123.38C2682.7,1122.62 2678.58,1119.82 2678.95,1117.12C2679.33,1114.43 2684.05,1112.86 2689.51,1113.62C2694.97,1114.38 2699.09,1117.18 2698.71,1119.87Z" style="fill:rgb(255,192,187);fill-rule:nonzero;"/>
        <path d="M2700.8,1126.15C2700.97,1128.86 2696.65,1131.35 2691.15,1131.7C2685.66,1132.05 2681.06,1130.13 2680.89,1127.42C2680.71,1124.7 2685.03,1122.21 2690.53,1121.86C2696.03,1121.51 2700.63,1123.43 2700.8,1126.15Z" style="fill:rgb(255,192,187);fill-rule:nonzero;"/>
        <path d="M2703.34,1133.36C2703.49,1135.71 2699.86,1137.85 2695.24,1138.14C2690.61,1138.44 2686.74,1136.77 2686.59,1134.43C2686.44,1132.08 2690.07,1129.94 2694.7,1129.64C2699.32,1129.35 2703.19,1131.01 2703.34,1133.36Z" style="fill:rgb(255,192,187);fill-rule:nonzero;"/>
        <path d="M2709.83,1095.69C2709.83,1095.69 2721.5,1098.62 2727.23,1111.42L2717.57,1109.75L2715.07,1105.18L2705.83,1104.01L2705.83,1099.6L2709.83,1095.69Z" style="fill:rgb(255,192,187);fill-rule:nonzero;"/>
        <path d="M2554.59,1276.03L2491.18,1846.59L2501.19,1846.59L2589.07,1291.73L2554.59,1276.03Z" style="fill:rgb(61,58,85);fill-rule:nonzero;"/>
        <path d="M3008.56,1276.03L3071.96,1846.59L3061.95,1846.59L2974.07,1291.73L3008.56,1276.03Z" style="fill:rgb(61,58,85);fill-rule:nonzero;"/>
        <path d="M3021.62,1294.62L2541.53,1294.62C2540.75,1294.62 2540.13,1294 2540.13,1293.22L2540.13,1277.26C2540.13,1276.49 2540.75,1275.86 2541.53,1275.86L3021.62,1275.86C3022.39,1275.86 3023.02,1276.49 3023.02,1277.26L3023.02,1293.22C3023.02,1294 3022.39,1294.62 3021.62,1294.62Z" style="fill:rgb(61,58,85);fill-rule:nonzero;"/>
        <path d="M3021.62,1426.7L2541.53,1426.7C2540.75,1426.7 2540.13,1426.07 2540.13,1425.3L2540.13,1409.34C2540.13,1408.56 2540.75,1407.94 2541.53,1407.94L3021.62,1407.94C3022.39,1407.94 3023.02,1408.56 3023.02,1409.34L3023.02,1425.3C3023.02,1426.07 3022.39,1426.7 3021.62,1426.7Z" style="fill:rgb(61,58,85);fill-rule:nonzero;"/>
        <path d="M2764.82,1275.86C2764.82,1275.86 2777.63,1260.6 2800.78,1259.5C2823.94,1258.39 2827.39,1239.18 2849.06,1239.18C2870.74,1239.18 2880.07,1251.49 2898.33,1259.5C2916.58,1267.5 2941.1,1260.33 2954.69,1275.86L2764.82,1275.86Z" style="fill:white;fill-rule:nonzero;"/>
        <path d="M3066.56,1090.58C3062.74,1091.75 3058.87,1092.81 3054.99,1093.8C3048.82,1095.27 3042.58,1096.52 3036.28,1097.39C3029.98,1098.3 3023.62,1098.82 3017.23,1099.04C3015.17,1099.07 3013.11,1099.06 3011.06,1099.03C3014.41,1114.59 3019.74,1141.37 3018.36,1148.7C3016.67,1157.72 2919.61,1201.37 2887.19,1222.99C2878.98,1222.41 2856.84,1222.76 2855.42,1223.08C2853.57,1223.49 2846.44,1225.9 2847.12,1231.8C2847.8,1237.71 2838.58,1234.92 2845.46,1247.89C2845.46,1247.89 2841.13,1253.8 2847.84,1258.05C2847.84,1258.05 2848.16,1262.87 2850.72,1262.8C2852.34,1262.75 2868.29,1259.68 2879.73,1257.44C2887.64,1255.9 2895.36,1253.59 2902.82,1250.54C2941.94,1234.58 3068.49,1181.31 3073.21,1158.55C3076.77,1141.39 3071.13,1110.64 3066.56,1090.58Z" style="fill:rgb(255,192,187);fill-rule:nonzero;"/>
        <path d="M2524.81,1303.81C2521.18,1239.03 2476.25,1183.94 2413.51,1167.39C2301.15,1137.75 2098.34,1102.12 1801.42,1116.31C1504.49,1102.12 1301.68,1137.75 1189.32,1167.39C1126.58,1183.94 1081.65,1239.03 1078.02,1303.81L1070.82,1432.12L1117,1507.21L1170.26,1680.3L1679.53,1713.77L1682.98,1729.56L1801.42,1721.78L1919.85,1729.56L1923.3,1713.77L2432.57,1680.3L2485.83,1507.21L2532.01,1432.12L2524.81,1303.81Z" style="fill:rgb(103,162,218);fill-rule:nonzero;"/>
        <path d="M2424.8,1856.18L2436.48,1856.18L2407.35,1762.52L2396.38,1764.81L2424.8,1856.18Z" style="fill:rgb(61,58,85);fill-rule:nonzero;"/>
        <path d="M1175.97,1856.18L1164.29,1856.18L1193.42,1762.52L1204.39,1764.81L1175.97,1856.18Z" style="fill:rgb(61,58,85);fill-rule:nonzero;"/>
        <path d="M2387.78,1613.42L1215.05,1613.42C1200.64,1613.42 1188.96,1601.73 1188.96,1587.32L1188.96,1586.26C1188.96,1571.85 1200.64,1560.16 1215.05,1560.16L2387.78,1560.16C2402.19,1560.16 2413.87,1571.85 2413.87,1586.26L2413.87,1587.32C2413.87,1601.73 2402.19,1613.42 2387.78,1613.42Z" style="fill:rgb(183,219,255);fill-rule:nonzero;"/>
        <path d="M2454.93,1404.38L2454.92,1404.38C2418.28,1404.38 2388.58,1434.09 2388.58,1470.73L2388.58,1613.42L1214.26,1613.42L1214.26,1470.73C1214.26,1434.09 1184.55,1404.38 1147.91,1404.38C1090.43,1404.38 1043.83,1450.98 1043.83,1508.46L1043.83,1721.26C1043.83,1752.88 1069.46,1778.52 1101.08,1778.52L2501.75,1778.52C2533.37,1778.52 2559,1752.88 2559,1721.26L2559,1508.46C2559,1450.98 2512.4,1404.38 2454.93,1404.38Z" style="fill:rgb(143,188,230);fill-rule:nonzero;"/>
        <path d="M2502.85,1788.5L1097.69,1788.5C1094.99,1788.5 1092.8,1786.31 1092.8,1783.61L1092.8,1783.41C1092.8,1780.71 1094.99,1778.52 1097.69,1778.52L2502.85,1778.52C2505.55,1778.52 2507.74,1780.71 2507.74,1783.41L2507.74,1783.61C2507.74,1786.31 2505.55,1788.5 2502.85,1788.5Z" style="fill:rgb(61,58,85);fill-rule:nonzero;"/>
        <rect x="691.09" y="688.71" width="39.034" height="157.913" style="fill:rgb(160,211,249);fill-rule:nonzero;"/>
        <rect x="914.885" y="813.743" width="157.915" height="31.021" style="fill:white;fill-rule:nonzero;"/>
        <rect x="935.894" y="782.618" width="157.916" height="31.022" style="fill:rgb(119,189,245);fill-rule:nonzero;"/>
        <rect x="903.213" y="752.271" width="157.917" height="31.022" style="fill:rgb(151,206,247);fill-rule:nonzero;"/>
        <rect x="735.347" y="625.101" width="39.916" height="219.188" style="fill:white;fill-rule:nonzero;"/>
        <rect x="649.687" y="649.261" width="36.765" height="195.028" style="fill:rgb(151,206,247);fill-rule:nonzero;"/>
        <path d="M893.886,826.339L860.849,842.468L775.288,667.21L808.326,651.081L893.886,826.339Z" style="fill:rgb(151,206,247);fill-rule:nonzero;"/>
        <path d="M1199.97,631.793C1190.29,631.793 1182.44,639.641 1182.44,649.323L1182.44,668.849C1182.44,672.433 1179.53,675.338 1175.95,675.338L1167.93,675.338L1167.93,639.764C1167.93,626.783 1157.41,616.259 1144.43,616.259C1131.45,616.259 1120.93,626.783 1120.93,639.764L1120.93,714.641L1116.41,714.641C1110.69,714.641 1106.06,710.008 1106.06,704.292L1106.06,688.625C1106.06,678.944 1098.21,671.095 1088.53,671.095C1078.85,671.095 1071,678.944 1071,688.625L1071,714.641C1071,734.004 1086.7,749.701 1106.06,749.701L1120.93,749.701L1120.93,794.419L1167.93,794.419L1167.93,710.398L1182.44,710.398C1201.8,710.398 1217.5,694.702 1217.5,675.338L1217.5,649.323C1217.5,639.641 1209.65,631.793 1199.97,631.793Z" style="fill:rgb(151,206,247);fill-rule:nonzero;"/>
        <path d="M1120.93,639.653L1120.93,639.612L1120.93,639.653ZM1120.93,639.573L1120.93,639.538L1120.93,639.573ZM1120.93,639.401L1120.93,639.388L1120.93,639.401ZM1120.93,639.329L1120.93,639.312L1120.93,639.329ZM1120.93,639.252L1120.93,639.237L1120.93,639.252ZM1120.93,639.182L1120.93,639.162L1120.93,639.182ZM1120.94,639.103L1120.94,639.087L1120.94,639.103ZM1120.94,639.025L1120.94,639.013L1120.94,639.025ZM1120.94,638.956L1120.94,638.937L1120.94,638.956ZM1120.94,638.878L1120.94,638.863L1120.94,638.878ZM1120.95,638.798L1120.95,638.789L1120.95,638.798ZM1120.95,638.728L1120.95,638.713L1120.95,638.728ZM1120.95,638.654L1120.95,638.639L1120.95,638.654ZM1120.96,638.501L1120.96,638.49L1120.96,638.501ZM1120.96,638.419L1120.96,638.417L1120.96,638.419ZM1120.97,638.349L1120.97,638.342L1120.97,638.349Z" style="fill:rgb(160,211,249);fill-rule:nonzero;"/>
        <path d="M1144.07,794.419L1120.93,794.419L1120.93,749.701L1106.06,749.701C1086.7,749.701 1071,734.004 1071,714.641L1071,688.625C1071,678.944 1078.85,671.095 1088.53,671.095C1098.21,671.095 1106.06,678.944 1106.06,688.625L1106.06,704.292C1106.06,710.008 1110.69,714.641 1116.41,714.641L1120.93,714.641L1120.93,639.162C1120.93,639.142 1120.93,639.122 1120.94,639.103L1120.94,638.863C1120.94,638.842 1120.94,638.819 1120.95,638.798L1120.95,638.639C1120.95,638.593 1120.96,638.547 1120.96,638.501L1120.96,638.417C1120.97,638.395 1120.97,638.372 1120.97,638.349L1120.97,638.342C1121.7,626.145 1131.73,616.467 1144.07,616.278L1144.07,794.419Z" style="fill:rgb(120,186,243);fill-rule:nonzero;"/>
        <rect x="620.511" y="843.183" width="631.419" height="17.839" style="fill:rgb(61,58,85);fill-rule:nonzero;"/>
        <rect x="1443.73" y="620.182" width="232.14" height="232.134" style="fill:rgb(61,58,85);fill-rule:nonzero;"/>
        <rect x="1467.52" y="643.968" width="184.56" height="184.564" style="fill:rgb(151,206,247);fill-rule:nonzero;"/>
        <rect x="1732.6" y="365.197" width="232.13" height="232.133" style="fill:rgb(61,58,85);fill-rule:nonzero;"/>
        <rect x="1756.38" y="388.981" width="184.57" height="184.564" style="fill:rgb(151,206,247);fill-rule:nonzero;"/>
        <rect x="1908.85" y="681.264" width="295.98" height="295.979" style="fill:rgb(61,58,85);fill-rule:nonzero;"/>
        <rect x="1939.17" y="711.59" width="235.33" height="235.327" style="fill:rgb(151,206,247);fill-rule:nonzero;"/>
        <path d="M1154.09,843.183L1132.97,843.183C1120.42,843.183 1110.24,833.006 1110.24,820.454L1110.24,794.419L1176.82,794.419L1176.82,820.454C1176.82,833.006 1166.64,843.183 1154.09,843.183Z" style="fill:white;fill-rule:nonzero;"/>
        <path d="M2471.88,662.827L2109.18,662.827L2275.77,294.802L2638.47,294.802L2471.88,662.827Z" style="fill:rgb(217,240,254);fill-rule:nonzero;"/>
        <path d="M2889.88,662.827L2527.18,662.827L2693.77,294.802L3056.47,294.802L2889.88,662.827Z" style="fill:rgb(217,240,254);fill-rule:nonzero;"/>
        <path d="M2288.59,1067.73L1941.49,1067.73L1938.91,1038.96L1953.21,1007.39L1957.52,1012.79C1957.52,1012.79 1999.76,1000.72 2018.17,977.243L2204.83,977.243L2204.83,699.702L2455.18,699.702L2288.59,1067.73Z" style="fill:rgb(217,240,254);fill-rule:nonzero;"/>
        <path d="M2204.83,977.243L2018.17,977.243C2020.79,973.916 2022.92,970.361 2024.38,966.577C2024.38,966.577 2020.33,958.702 2012.69,946.917L2174.5,946.917L2174.5,711.59L2087.1,711.59L2092.48,699.702L2204.83,699.702L2204.83,977.243Z" style="fill:rgb(120,117,136);fill-rule:nonzero;"/>
        <path d="M2174.5,946.917L2012.69,946.917C2007.64,939.12 2001.02,929.616 1992.97,919.545L2087.1,711.59L2174.5,711.59L2174.5,946.917Z" style="fill:rgb(182,221,249);fill-rule:nonzero;"/>
        <path d="M2706.6,1067.73L2673.92,1067.73C2674.67,1044.8 2672.74,1031.97 2672.74,1031.97C2665.27,1043.89 2658.94,1055.86 2653.57,1067.73L2633.68,1067.73C2630.23,1032.46 2623.48,1012.99 2623.48,1012.99C2616.13,1031.68 2611.06,1050.05 2607.73,1067.73L2578.76,1067.73C2571.97,1049.47 2566.54,1040.01 2566.54,1040.01C2564.75,1049.42 2563.46,1058.68 2562.6,1067.73L2343.89,1067.73L2510.49,699.702L2873.19,699.702L2706.6,1067.73Z" style="fill:rgb(217,240,254);fill-rule:nonzero;"/>
        <path d="M2633.68,1067.73L2607.73,1067.73C2611.06,1050.05 2616.13,1031.68 2623.48,1012.99C2623.48,1012.99 2630.23,1032.46 2633.68,1067.73Z" style="fill:rgb(78,192,181);fill-rule:nonzero;"/>
        <path d="M2673.92,1067.73L2653.57,1067.73C2658.94,1055.86 2665.27,1043.89 2672.74,1031.97C2672.74,1031.97 2674.67,1044.8 2673.92,1067.73Z" style="fill:rgb(78,192,181);fill-rule:nonzero;"/>
        <path d="M2578.76,1067.73L2562.6,1067.73C2563.46,1058.68 2564.75,1049.42 2566.54,1040.01C2566.54,1040.01 2571.97,1049.47 2578.76,1067.73Z" style="fill:rgb(81,210,198);fill-rule:nonzero;"/>
        <path d="M641.373,1592.17C640.628,1578.9 638.384,1565.56 640.243,1552.41C641.813,1541.3 646.245,1530.83 649.41,1520.06C655.341,1499.89 656.811,1478.72 658.247,1457.74C660.858,1419.61 663.469,1381.47 666.079,1343.34C670.138,1284.07 674.217,1224.62 685.323,1166.26C688.406,1150.05 691.869,1132.49 684.57,1117.7C683.032,1114.58 680.004,1111.27 676.686,1112.31C674.322,1113.05 673.162,1115.65 672.305,1117.97C648.028,1183.81 638.852,1254.69 611.755,1319.42C605.264,1334.93 597.714,1350.18 594.354,1366.65C590.318,1386.43 592.534,1406.86 593.055,1427.04C593.802,1455.98 590.979,1485.14 582.971,1512.96C578.781,1527.51 573.171,1541.74 570.876,1556.71C568.013,1575.38 570.417,1594.39 572.208,1613.19C575.653,1649.33 576.82,1685.7 575.701,1721.99C575.043,1743.32 593.091,1742.76 605.047,1729.66C613.408,1720.49 613.331,1710.43 616.193,1699.01C625.593,1661.55 643.655,1632.78 641.373,1592.17Z" style="fill:rgb(2,165,149);fill-rule:nonzero;"/>
        <path d="M602.618,1568.77C595.229,1543.24 583.762,1518.93 578.016,1492.98C572.441,1467.81 572.398,1441.79 572.379,1416.01C572.359,1387.76 572.339,1359.52 572.319,1331.27C572.307,1313.68 572.287,1296 569.375,1278.66C563.108,1241.34 543.674,1206.83 540.382,1169.14C538.958,1152.84 540.611,1136.36 538.815,1120.1C537.789,1110.81 535.4,1101.32 531.09,1093.08C526.455,1084.22 513.65,1084.61 509.45,1093.69C500.01,1114.1 494.023,1136.16 497.837,1158.03C500.125,1171.15 505.818,1183.38 510.069,1196C528.999,1252.19 518.95,1314.4 533.597,1371.86C538.018,1389.21 544.703,1406.21 545.481,1424.1C547.342,1466.9 515.31,1505.99 518.249,1548.73C520.658,1583.77 545.903,1612.77 556.499,1646.25C562.431,1665 563.701,1685.01 570.056,1703.62C574.993,1718.07 586.475,1735.63 604.31,1731.24C621.242,1727.08 616.126,1713.28 615.37,1700.11C612.811,1655.55 615.218,1612.31 602.618,1568.77Z" style="fill:rgb(43,216,195);fill-rule:nonzero;"/>
        <path d="M568.412,1586.51C566.675,1571.21 564.613,1555.55 557.494,1541.9C548.838,1525.29 533.632,1513.3 520.347,1500.11C495.523,1475.44 476.42,1445.06 464.955,1412C456.089,1386.43 451.669,1359.2 439.451,1335.06C431.991,1320.32 421.817,1307.14 413.344,1292.95C393.315,1259.43 382.415,1219.81 355.255,1191.76C350.028,1225.77 360.357,1261.87 382.787,1287.98C389.475,1295.76 397.233,1302.78 402.33,1311.69C411.58,1327.87 410.738,1347.6 411.821,1366.2C413.858,1401.16 423.73,1435.64 440.504,1466.38C458.323,1499.03 484.043,1528.11 493.571,1564.07C500.71,1591.01 498.588,1621.24 513.81,1644.59C515.458,1647.12 517.347,1649.67 517.75,1652.66C517.979,1654.34 517.715,1656.05 517.452,1657.72C517.111,1659.89 516.771,1662.06 516.43,1664.23C512.966,1686.29 509.389,1714.35 528.379,1730.85C541.541,1742.29 558.48,1742.55 567.933,1727.35C577.45,1712.05 576.607,1689.66 575.9,1672.44C574.723,1643.77 571.646,1615.02 568.412,1586.51Z" style="fill:rgb(6,191,173);fill-rule:nonzero;"/>
        <path d="M686.065,1655.88C690.637,1644.08 695.25,1632.12 696.757,1619.56C698.433,1605.59 696.21,1591.3 698.601,1577.44C701.676,1559.61 712.091,1543.93 717.246,1526.59C720.969,1514.07 721.884,1500.92 724.12,1488.05C730.515,1451.24 747.853,1415.28 742.877,1378.26C741.794,1370.21 738.153,1360.82 730.144,1359.45C722.895,1358.21 716.294,1364.82 714.409,1371.93C712.524,1379.04 713.93,1386.54 714.449,1393.88C715.891,1414.34 710.042,1435.24 698.187,1451.98C686.797,1468.06 670.272,1480.17 660.023,1497C647.45,1517.65 645.739,1542.85 639.324,1566.16C626.567,1612.51 594.569,1652.94 588.735,1700.66C586.414,1719.65 590.88,1742.73 608.44,1750.31C659.229,1772.25 674.56,1685.57 686.065,1655.88Z" style="fill:rgb(6,191,173);fill-rule:nonzero;"/>
        <path d="M528.616,1650.02C512.659,1624.43 480.865,1609.89 470.666,1581.5C468.071,1574.28 467.057,1566.52 463.885,1559.53C456.841,1544.01 440.831,1535.23 425.089,1528.09C422.904,1527.1 420.419,1528.68 420.386,1531.08C420.334,1534.9 422.146,1538.54 425.315,1540.67C437.441,1548.81 446.658,1561.27 450.76,1575.3C455.622,1591.93 453.513,1610.17 459.556,1626.41C464.63,1640.04 475.075,1651.19 479.981,1664.88C484.467,1677.4 483.995,1691.08 486.103,1704.21C488.212,1717.34 494.056,1731.27 506.138,1736.83C549.853,1756.93 538.926,1666.55 528.616,1650.02Z" style="fill:rgb(2,165,149);fill-rule:nonzero;"/>
        <path d="M710.435,1641.58C709.753,1653.95 711.648,1666.92 706.798,1678.32C703.694,1685.61 698.111,1691.51 693.528,1697.98C677.437,1720.69 671.601,1752.88 646.875,1765.66C645.244,1766.51 643.424,1767.26 641.618,1766.92C639.084,1766.45 637.424,1764.02 636.405,1761.65C630.344,1747.56 637.145,1731.68 641.174,1716.87C641.878,1714.28 642.469,1711.4 641.232,1709.01C639.871,1706.39 636.768,1705.26 634.65,1703.2C630.425,1699.1 630.822,1692.32 631.661,1686.49C633.758,1671.93 636.704,1657.49 640.482,1643.28C642.623,1635.22 645.096,1627.08 649.751,1620.16C654.874,1612.54 662.316,1606.86 669.282,1600.88C700.07,1574.44 723.655,1539.7 736.856,1501.33C739.713,1493.03 742.262,1484.26 748.164,1477.75C754.067,1471.25 764.59,1467.9 771.779,1472.95C776.894,1476.54 755.943,1510.17 753.5,1514.2C746.52,1525.72 746.427,1535.75 742.481,1548.55C732.815,1579.91 712.284,1607.98 710.435,1641.58Z" style="fill:rgb(2,165,149);fill-rule:nonzero;"/>
        <path d="M462.027,1694.81L718.965,1694.81C728.217,1694.81 735.526,1702.85 734.438,1712.04C728.117,1765.38 692.813,1809.82 644.721,1829.24L658.785,1829.24C665.539,1829.24 671.43,1834.45 671.634,1841.2C671.843,1848.19 666.241,1853.92 659.302,1853.92L522.209,1853.92C515.453,1853.92 509.563,1848.71 509.36,1841.96C509.15,1834.97 514.75,1829.24 521.69,1829.24L536.272,1829.24C488.18,1809.82 452.876,1765.38 446.556,1712.04C445.467,1702.85 452.776,1694.81 462.027,1694.81Z" style="fill:white;fill-rule:nonzero;"/>
        <path d="M659.302,1853.92L522.209,1853.92C516.325,1853.92 511.096,1849.97 509.712,1844.48C509.507,1843.67 509.386,1842.83 509.36,1841.96C509.356,1841.82 509.354,1841.69 509.354,1841.55C509.369,1834.75 514.887,1829.24 521.69,1829.24L536.272,1829.24C488.18,1809.82 452.876,1765.38 446.556,1712.04C446.483,1711.43 446.448,1710.82 446.448,1710.23C446.446,1701.82 453.39,1694.81 462.027,1694.81L471.102,1694.81C497.005,1733.02 540.778,1758.13 590.418,1758.13C640.058,1758.13 683.83,1733.02 709.732,1694.81L718.965,1694.81C727.603,1694.81 734.547,1701.82 734.545,1710.23C734.545,1710.82 734.51,1711.43 734.438,1712.04C728.117,1765.38 692.813,1809.82 644.721,1829.24L658.785,1829.24C665.539,1829.24 671.43,1834.45 671.634,1841.2C671.638,1841.33 671.64,1841.47 671.64,1841.61C671.627,1846.98 668.175,1851.55 663.368,1853.23C662.095,1853.67 660.727,1853.92 659.302,1853.92Z" style="fill:rgb(239,249,254);fill-rule:nonzero;"/>
        <path d="M1577.69,674.247C1577.69,674.247 1558.68,673.698 1547.54,699.616C1538.06,721.669 1536.4,754.867 1516.73,775.842C1497.07,796.817 1462.99,858.429 1495.76,882.025C1528.53,905.62 1608.5,916.108 1641.27,878.748C1674.04,841.387 1649.14,804.682 1644.55,768.632C1639.96,732.582 1627.5,667.037 1577.69,674.247Z" style="fill:white;fill-rule:nonzero;"/>
        <path d="M1547.6,699.466C1547.61,699.455 1547.61,699.443 1547.62,699.431C1547.62,699.443 1547.61,699.455 1547.6,699.466ZM1547.67,699.32C1547.68,699.298 1547.69,699.278 1547.7,699.256C1547.69,699.276 1547.68,699.3 1547.67,699.32ZM1547.73,699.173C1547.74,699.148 1547.75,699.124 1547.77,699.099C1547.75,699.124 1547.74,699.148 1547.73,699.173ZM1547.8,699.028C1547.81,699.002 1547.82,698.976 1547.83,698.949C1547.82,698.976 1547.81,699.002 1547.8,699.028ZM1547.86,698.883C1547.87,698.854 1547.89,698.827 1547.9,698.798C1547.89,698.826 1547.87,698.855 1547.86,698.883ZM1547.93,698.738C1547.94,698.711 1547.95,698.683 1547.96,698.655C1547.95,698.683 1547.94,698.711 1547.93,698.738ZM1547.99,698.594C1548,698.565 1548.02,698.536 1548.03,698.507C1548.02,698.536 1548,698.565 1547.99,698.594ZM1548.05,698.451C1548.07,698.422 1548.08,698.395 1548.09,698.366C1548.08,698.394 1548.07,698.423 1548.05,698.451ZM1548.12,698.308C1548.13,698.279 1548.15,698.249 1548.16,698.22C1548.15,698.249 1548.13,698.279 1548.12,698.308ZM1548.19,698.165C1548.2,698.136 1548.21,698.108 1548.22,698.079C1548.21,698.108 1548.2,698.136 1548.19,698.165ZM1548.25,698.024C1548.26,697.994 1548.28,697.964 1548.29,697.934C1548.28,697.964 1548.26,697.994 1548.25,698.024ZM1548.32,697.883C1548.33,697.854 1548.34,697.824 1548.36,697.796C1548.34,697.824 1548.33,697.854 1548.32,697.883ZM1548.38,697.741C1548.4,697.711 1548.41,697.682 1548.42,697.652C1548.41,697.682 1548.4,697.711 1548.38,697.741ZM1548.45,697.603C1548.46,697.573 1548.47,697.543 1548.49,697.513C1548.47,697.543 1548.46,697.573 1548.45,697.603ZM1548.51,697.464C1548.53,697.433 1548.54,697.402 1548.56,697.371C1548.54,697.402 1548.53,697.432 1548.51,697.464ZM1548.58,697.326C1548.59,697.296 1548.61,697.265 1548.62,697.235C1548.61,697.264 1548.59,697.296 1548.58,697.326ZM1548.64,697.187C1548.66,697.156 1548.67,697.125 1548.69,697.094C1548.67,697.125 1548.66,697.156 1548.64,697.187ZM1548.71,697.051C1548.72,697.02 1548.74,696.989 1548.75,696.958C1548.74,696.989 1548.72,697.02 1548.71,697.051ZM1548.77,696.915C1548.79,696.883 1548.81,696.85 1548.82,696.818C1548.81,696.85 1548.79,696.883 1548.77,696.915ZM1548.84,696.785C1548.85,696.752 1548.87,696.718 1548.89,696.685C1548.87,696.719 1548.85,696.751 1548.84,696.785ZM1548.91,696.642C1548.92,696.609 1548.94,696.578 1548.96,696.545C1548.94,696.577 1548.92,696.61 1548.91,696.642ZM1548.96,696.534C1548.98,696.493 1549,696.451 1549.02,696.411C1549,696.451 1548.98,696.493 1548.96,696.534ZM1549.03,696.404C1549.15,696.146 1549.28,695.892 1549.41,695.64C1549.28,695.891 1549.15,696.147 1549.03,696.404ZM1549.42,695.618C1549.44,695.582 1549.46,695.545 1549.48,695.509C1549.46,695.546 1549.44,695.581 1549.42,695.618ZM1549.49,695.488C1549.51,695.454 1549.53,695.421 1549.54,695.387C1549.53,695.421 1549.51,695.454 1549.49,695.488ZM1549.56,695.355C1549.58,695.32 1549.6,695.287 1549.61,695.253C1549.6,695.288 1549.58,695.32 1549.56,695.355ZM1549.63,695.227C1549.64,695.197 1549.66,695.166 1549.68,695.135C1549.66,695.166 1549.64,695.196 1549.63,695.227ZM1549.7,695.09C1549.71,695.064 1549.73,695.036 1549.74,695.01C1549.73,695.036 1549.71,695.064 1549.7,695.09ZM1549.77,694.962C1549.78,694.935 1549.8,694.908 1549.81,694.88C1549.8,694.906 1549.78,694.936 1549.77,694.962ZM1549.84,694.832C1549.85,694.804 1549.87,694.777 1549.88,694.749C1549.87,694.776 1549.85,694.804 1549.84,694.832ZM1549.9,694.707C1549.92,694.679 1549.93,694.65 1549.95,694.622C1549.93,694.65 1549.92,694.678 1549.9,694.707ZM1549.97,694.576C1549.99,694.548 1550,694.522 1550.02,694.495C1550,694.522 1549.99,694.548 1549.97,694.576ZM1550.04,694.45C1550.06,694.422 1550.07,694.396 1550.09,694.369C1550.07,694.396 1550.06,694.423 1550.04,694.45ZM1550.11,694.321C1550.13,694.294 1550.14,694.267 1550.16,694.24C1550.14,694.267 1550.13,694.294 1550.11,694.321ZM1550.18,694.197C1550.2,694.17 1550.21,694.145 1550.23,694.118C1550.21,694.145 1550.2,694.17 1550.18,694.197ZM1550.26,694.064C1550.27,694.04 1550.28,694.017 1550.29,693.993C1550.28,694.017 1550.27,694.04 1550.26,694.064ZM1550.32,693.941C1550.34,693.916 1550.35,693.891 1550.36,693.867C1550.35,693.892 1550.34,693.915 1550.32,693.941ZM1550.39,693.818C1550.41,693.792 1550.42,693.766 1550.44,693.74C1550.42,693.766 1550.41,693.792 1550.39,693.818ZM1550.46,693.696C1550.48,693.67 1550.49,693.644 1550.5,693.619C1550.49,693.644 1550.48,693.67 1550.46,693.696ZM1550.53,693.567C1550.55,693.542 1550.56,693.519 1550.58,693.494C1550.56,693.517 1550.55,693.544 1550.53,693.567ZM1550.6,693.452C1550.62,693.424 1550.63,693.397 1550.65,693.369C1550.63,693.397 1550.62,693.424 1550.6,693.452ZM1550.66,693.342C1550.7,693.269 1550.75,693.197 1550.79,693.125C1550.75,693.197 1550.7,693.27 1550.66,693.342ZM1550.79,693.123C1550.85,693.012 1550.92,692.9 1550.98,692.791C1550.92,692.901 1550.85,693.011 1550.79,693.123ZM1551,692.768C1551.01,692.743 1551.03,692.719 1551.04,692.695C1551.03,692.719 1551.01,692.743 1551,692.768ZM1551.07,692.646C1551.08,692.625 1551.09,692.604 1551.11,692.583C1551.09,692.605 1551.08,692.625 1551.07,692.646ZM1551.14,692.525C1551.15,692.507 1551.16,692.488 1551.17,692.47C1551.16,692.489 1551.15,692.506 1551.14,692.525ZM1551.21,692.406C1551.23,692.385 1551.24,692.364 1551.25,692.343C1551.24,692.364 1551.23,692.385 1551.21,692.406ZM1551.28,692.289C1551.3,692.268 1551.31,692.247 1551.32,692.226C1551.31,692.247 1551.3,692.268 1551.28,692.289ZM1551.36,692.17C1551.37,692.15 1551.38,692.131 1551.39,692.112C1551.38,692.131 1551.37,692.151 1551.36,692.17ZM1551.43,692.049C1551.44,692.032 1551.45,692.016 1551.46,692C1551.45,692.016 1551.44,692.032 1551.43,692.049ZM1551.5,691.932C1551.51,691.914 1551.52,691.895 1551.54,691.878C1551.52,691.896 1551.51,691.913 1551.5,691.932ZM1551.57,691.817C1551.58,691.799 1551.59,691.782 1551.61,691.764C1551.59,691.782 1551.58,691.798 1551.57,691.817ZM1551.65,691.697C1551.66,691.68 1551.67,691.665 1551.68,691.649C1551.67,691.666 1551.66,691.68 1551.65,691.697ZM1551.72,691.58C1551.73,691.565 1551.74,691.55 1551.75,691.535C1551.74,691.55 1551.73,691.565 1551.72,691.58ZM1551.79,691.465C1551.8,691.448 1551.81,691.432 1551.82,691.415C1551.81,691.432 1551.8,691.448 1551.79,691.465ZM1551.86,691.352C1551.87,691.336 1551.88,691.32 1551.9,691.303C1551.88,691.32 1551.87,691.335 1551.86,691.352ZM1551.94,691.234C1551.95,691.219 1551.96,691.205 1551.97,691.19C1551.96,691.205 1551.95,691.22 1551.94,691.234ZM1552.02,691.114C1552.02,691.102 1552.03,691.091 1552.04,691.08C1552.03,691.091 1552.02,691.103 1552.02,691.114ZM1552.09,691.003C1552.1,690.989 1552.1,690.977 1552.11,690.963C1552.11,690.976 1552.1,690.99 1552.09,691.003ZM1552.16,690.885C1552.17,690.875 1552.18,690.864 1552.18,690.854C1552.18,690.864 1552.17,690.875 1552.16,690.885ZM1552.24,690.77C1552.25,690.76 1552.25,690.75 1552.26,690.74C1552.25,690.75 1552.25,690.76 1552.24,690.77ZM1552.32,690.649C1552.32,690.643 1552.33,690.636 1552.33,690.631C1552.33,690.636 1552.32,690.643 1552.32,690.649ZM1552.39,690.539C1552.4,690.532 1552.4,690.524 1552.41,690.517C1552.4,690.524 1552.4,690.532 1552.39,690.539ZM1553,689.638C1553.01,689.633 1553.01,689.628 1553.01,689.624C1553.01,689.628 1553.01,689.633 1553,689.638ZM1553.08,689.527L1553.08,689.521L1553.08,689.527ZM1553.15,689.42C1553.16,689.418 1553.16,689.415 1553.16,689.413C1553.16,689.415 1553.16,689.418 1553.15,689.42ZM1553.3,689.207C1553.31,689.204 1553.31,689.2 1553.31,689.197C1553.31,689.201 1553.31,689.203 1553.3,689.207ZM1553.38,689.1C1553.38,689.098 1553.38,689.095 1553.39,689.092C1553.39,689.094 1553.38,689.098 1553.38,689.1ZM1553.46,688.996L1553.46,688.986L1553.46,688.996ZM1553.53,688.889C1553.53,688.887 1553.54,688.884 1553.54,688.881C1553.54,688.885 1553.54,688.886 1553.53,688.889ZM1553.61,688.788C1553.61,688.783 1553.61,688.779 1553.62,688.775C1553.61,688.779 1553.61,688.783 1553.61,688.788ZM1553.69,688.678L1553.69,688.675L1553.69,688.678ZM1553.76,688.575C1553.76,688.573 1553.76,688.572 1553.77,688.571C1553.76,688.572 1553.76,688.574 1553.76,688.575ZM1562.43,679.87L1562.43,679.867L1562.43,679.87ZM1562.5,679.816C1562.51,679.813 1562.51,679.809 1562.52,679.805C1562.51,679.809 1562.51,679.813 1562.5,679.816ZM1562.58,679.762C1562.58,679.758 1562.59,679.755 1562.59,679.751C1562.59,679.755 1562.58,679.758 1562.58,679.762ZM1562.65,679.709C1562.66,679.704 1562.67,679.699 1562.67,679.694C1562.67,679.699 1562.66,679.703 1562.65,679.709ZM1562.73,679.656C1562.74,679.65 1562.74,679.644 1562.75,679.638C1562.74,679.645 1562.74,679.65 1562.73,679.656ZM1562.8,679.605C1562.81,679.597 1562.82,679.589 1562.84,679.581C1562.82,679.589 1562.81,679.597 1562.8,679.605ZM1562.88,679.552C1562.89,679.545 1562.9,679.537 1562.91,679.53C1562.9,679.537 1562.89,679.545 1562.88,679.552ZM1562.95,679.501C1562.96,679.492 1562.98,679.484 1562.99,679.475C1562.98,679.483 1562.96,679.493 1562.95,679.501ZM1563.03,679.449C1563.04,679.441 1563.05,679.432 1563.06,679.424C1563.05,679.432 1563.04,679.441 1563.03,679.449ZM1563.1,679.399C1563.11,679.389 1563.13,679.38 1563.14,679.37C1563.13,679.379 1563.11,679.39 1563.1,679.399ZM1563.17,679.348C1563.19,679.339 1563.2,679.331 1563.21,679.322C1563.2,679.331 1563.19,679.339 1563.17,679.348ZM1563.25,679.296C1563.26,679.287 1563.28,679.278 1563.29,679.269C1563.28,679.277 1563.26,679.287 1563.25,679.296ZM1563.32,679.248C1563.34,679.238 1563.35,679.228 1563.37,679.218C1563.35,679.228 1563.34,679.238 1563.32,679.248ZM1563.39,679.201C1563.41,679.189 1563.43,679.177 1563.44,679.166C1563.43,679.177 1563.41,679.189 1563.39,679.201ZM1563.46,679.156C1563.48,679.143 1563.5,679.13 1563.52,679.117C1563.5,679.13 1563.48,679.143 1563.46,679.156ZM1563.53,679.107C1564.64,678.373 1565.73,677.75 1566.78,677.221C1565.73,677.75 1564.64,678.373 1563.53,679.107Z" style="fill:rgb(141,201,246);fill-rule:nonzero;"/>
        <path d="M1532.5,898.047C1517.92,894.258 1504.98,888.659 1495.76,882.025C1485.93,874.95 1482.12,864.459 1482.12,852.671C1482.13,825.138 1502.97,790.528 1516.73,775.842C1536.4,754.867 1538.06,721.669 1547.54,699.616C1547.56,699.566 1547.58,699.516 1547.6,699.466C1547.61,699.455 1547.62,699.443 1547.62,699.431C1547.64,699.395 1547.65,699.357 1547.67,699.32C1547.68,699.3 1547.69,699.276 1547.7,699.256C1547.71,699.229 1547.72,699.201 1547.73,699.173C1547.74,699.148 1547.75,699.124 1547.77,699.099C1547.78,699.076 1547.79,699.051 1547.8,699.028C1547.81,699.002 1547.82,698.976 1547.83,698.949C1547.84,698.927 1547.85,698.905 1547.86,698.883C1547.87,698.855 1547.89,698.826 1547.9,698.798C1547.91,698.778 1547.92,698.759 1547.93,698.738C1547.94,698.711 1547.95,698.683 1547.96,698.655C1547.97,698.635 1547.98,698.614 1547.99,698.594C1548,698.565 1548.02,698.536 1548.03,698.507C1548.04,698.489 1548.05,698.469 1548.05,698.451C1548.07,698.423 1548.08,698.394 1548.09,698.366C1548.1,698.346 1548.11,698.327 1548.12,698.308C1548.13,698.279 1548.15,698.249 1548.16,698.22C1548.17,698.202 1548.18,698.183 1548.19,698.165C1548.2,698.136 1548.21,698.108 1548.22,698.079C1548.23,698.061 1548.24,698.042 1548.25,698.024C1548.26,697.994 1548.28,697.964 1548.29,697.934C1548.3,697.917 1548.31,697.9 1548.32,697.883C1548.33,697.854 1548.34,697.824 1548.36,697.796C1548.36,697.778 1548.37,697.759 1548.38,697.741C1548.4,697.711 1548.41,697.682 1548.42,697.652C1548.43,697.635 1548.44,697.62 1548.45,697.603C1548.46,697.573 1548.47,697.543 1548.49,697.513C1548.5,697.497 1548.5,697.48 1548.51,697.464C1548.53,697.432 1548.54,697.402 1548.56,697.371C1548.56,697.356 1548.57,697.342 1548.58,697.326C1548.59,697.296 1548.61,697.264 1548.62,697.235C1548.63,697.219 1548.64,697.203 1548.64,697.187C1548.66,697.156 1548.67,697.125 1548.69,697.094C1548.7,697.08 1548.7,697.065 1548.71,697.051C1548.72,697.02 1548.74,696.989 1548.75,696.958C1548.76,696.944 1548.77,696.93 1548.77,696.915C1548.79,696.883 1548.81,696.85 1548.82,696.818C1548.83,696.807 1548.83,696.796 1548.84,696.785C1548.85,696.751 1548.87,696.719 1548.89,696.685C1548.89,696.671 1548.9,696.657 1548.91,696.642C1548.92,696.61 1548.94,696.577 1548.96,696.545L1548.96,696.534C1548.98,696.493 1549,696.451 1549.02,696.411C1549.02,696.409 1549.02,696.406 1549.03,696.404C1549.15,696.147 1549.28,695.891 1549.41,695.64C1549.42,695.633 1549.42,695.625 1549.42,695.618C1549.44,695.581 1549.46,695.546 1549.48,695.509C1549.48,695.502 1549.49,695.495 1549.49,695.488C1549.51,695.454 1549.53,695.421 1549.54,695.387C1549.55,695.376 1549.55,695.366 1549.56,695.355C1549.58,695.32 1549.6,695.288 1549.61,695.253C1549.62,695.244 1549.62,695.236 1549.63,695.227C1549.64,695.196 1549.66,695.166 1549.68,695.135C1549.68,695.12 1549.69,695.105 1549.7,695.09C1549.71,695.064 1549.73,695.036 1549.74,695.01C1549.75,694.994 1549.76,694.978 1549.77,694.962C1549.78,694.936 1549.8,694.906 1549.81,694.88C1549.82,694.864 1549.83,694.848 1549.84,694.832C1549.85,694.804 1549.87,694.776 1549.88,694.749C1549.89,694.735 1549.9,694.721 1549.9,694.707C1549.92,694.678 1549.93,694.65 1549.95,694.622C1549.96,694.606 1549.97,694.591 1549.97,694.576C1549.99,694.548 1550,694.522 1550.02,694.495C1550.03,694.48 1550.03,694.465 1550.04,694.45C1550.06,694.423 1550.07,694.396 1550.09,694.369C1550.1,694.353 1550.1,694.337 1550.11,694.321C1550.13,694.294 1550.14,694.267 1550.16,694.24C1550.17,694.226 1550.17,694.211 1550.18,694.197C1550.2,694.17 1550.21,694.145 1550.23,694.118C1550.23,694.1 1550.25,694.081 1550.26,694.064C1550.27,694.04 1550.28,694.017 1550.29,693.993C1550.3,693.976 1550.31,693.958 1550.32,693.941C1550.34,693.915 1550.35,693.892 1550.36,693.867C1550.37,693.851 1550.38,693.833 1550.39,693.818C1550.41,693.792 1550.42,693.766 1550.44,693.74C1550.44,693.725 1550.45,693.711 1550.46,693.696C1550.48,693.67 1550.49,693.644 1550.5,693.619C1550.51,693.601 1550.52,693.584 1550.53,693.567C1550.55,693.544 1550.56,693.517 1550.58,693.494C1550.58,693.48 1550.59,693.466 1550.6,693.452C1550.62,693.424 1550.63,693.397 1550.65,693.369C1550.65,693.36 1550.66,693.351 1550.66,693.342C1550.7,693.27 1550.75,693.197 1550.79,693.125L1550.79,693.123C1550.85,693.011 1550.92,692.901 1550.98,692.791C1550.99,692.783 1550.99,692.775 1551,692.768C1551.01,692.743 1551.03,692.719 1551.04,692.695C1551.05,692.678 1551.06,692.663 1551.07,692.646C1551.08,692.625 1551.09,692.605 1551.11,692.583C1551.12,692.564 1551.13,692.544 1551.14,692.525C1551.15,692.506 1551.16,692.489 1551.17,692.47C1551.19,692.448 1551.2,692.427 1551.21,692.406C1551.23,692.385 1551.24,692.364 1551.25,692.343C1551.26,692.325 1551.27,692.307 1551.28,692.289C1551.3,692.268 1551.31,692.247 1551.32,692.226C1551.33,692.207 1551.34,692.189 1551.36,692.17C1551.37,692.151 1551.38,692.131 1551.39,692.112C1551.4,692.091 1551.42,692.069 1551.43,692.049C1551.44,692.032 1551.45,692.016 1551.46,692C1551.47,691.977 1551.49,691.955 1551.5,691.932C1551.51,691.913 1551.52,691.896 1551.54,691.878C1551.55,691.857 1551.56,691.837 1551.57,691.817C1551.58,691.798 1551.59,691.782 1551.61,691.764C1551.62,691.742 1551.63,691.719 1551.65,691.697C1551.66,691.68 1551.67,691.666 1551.68,691.649C1551.69,691.626 1551.71,691.602 1551.72,691.58C1551.73,691.565 1551.74,691.55 1551.75,691.535C1551.76,691.512 1551.78,691.489 1551.79,691.465C1551.8,691.448 1551.81,691.432 1551.82,691.415C1551.84,691.394 1551.85,691.373 1551.86,691.352C1551.87,691.335 1551.88,691.32 1551.9,691.303C1551.91,691.28 1551.92,691.257 1551.94,691.234C1551.95,691.22 1551.96,691.205 1551.97,691.19C1551.98,691.165 1552,691.139 1552.02,691.114C1552.02,691.103 1552.03,691.091 1552.04,691.08C1552.05,691.055 1552.07,691.028 1552.09,691.003C1552.1,690.99 1552.11,690.976 1552.11,690.963C1552.13,690.937 1552.15,690.911 1552.16,690.885C1552.17,690.875 1552.18,690.864 1552.18,690.854C1552.2,690.825 1552.22,690.798 1552.24,690.77C1552.25,690.76 1552.25,690.75 1552.26,690.74C1552.28,690.709 1552.3,690.679 1552.32,690.649C1552.32,690.643 1552.33,690.636 1552.33,690.631C1552.35,690.6 1552.37,690.57 1552.39,690.539C1552.4,690.532 1552.4,690.524 1552.41,690.517C1552.6,690.218 1552.8,689.925 1553,689.638C1553.01,689.633 1553.01,689.628 1553.01,689.624C1553.03,689.591 1553.06,689.56 1553.08,689.527L1553.08,689.521C1553.11,689.487 1553.13,689.454 1553.15,689.42C1553.16,689.418 1553.16,689.415 1553.16,689.413C1553.21,689.344 1553.26,689.276 1553.3,689.207C1553.31,689.203 1553.31,689.201 1553.31,689.197C1553.33,689.165 1553.36,689.133 1553.38,689.1C1553.38,689.098 1553.39,689.094 1553.39,689.092C1553.41,689.06 1553.43,689.028 1553.46,688.996L1553.46,688.986C1553.49,688.953 1553.51,688.922 1553.53,688.889C1553.54,688.886 1553.54,688.885 1553.54,688.881C1553.56,688.85 1553.58,688.819 1553.61,688.788C1553.61,688.783 1553.61,688.779 1553.62,688.775C1553.64,688.743 1553.66,688.71 1553.69,688.678L1553.69,688.675C1553.71,688.642 1553.74,688.608 1553.76,688.575C1553.76,688.574 1553.76,688.572 1553.77,688.571C1556.59,684.736 1559.57,681.927 1562.43,679.87L1562.43,679.867C1562.45,679.85 1562.48,679.833 1562.5,679.816C1562.51,679.813 1562.51,679.809 1562.52,679.805C1562.54,679.791 1562.56,679.776 1562.58,679.762C1562.58,679.758 1562.59,679.755 1562.59,679.751C1562.61,679.737 1562.63,679.723 1562.65,679.709C1562.66,679.703 1562.67,679.699 1562.67,679.694C1562.69,679.681 1562.71,679.669 1562.73,679.656C1562.74,679.65 1562.74,679.645 1562.75,679.638C1562.77,679.627 1562.79,679.616 1562.8,679.605C1562.81,679.597 1562.82,679.589 1562.84,679.581C1562.85,679.572 1562.86,679.562 1562.88,679.552C1562.89,679.545 1562.9,679.537 1562.91,679.53C1562.92,679.52 1562.94,679.511 1562.95,679.501C1562.96,679.493 1562.98,679.483 1562.99,679.475C1563,679.466 1563.01,679.458 1563.03,679.449C1563.04,679.441 1563.05,679.432 1563.06,679.424C1563.07,679.416 1563.09,679.407 1563.1,679.399C1563.11,679.39 1563.13,679.379 1563.14,679.37C1563.15,679.363 1563.16,679.355 1563.17,679.348C1563.19,679.339 1563.2,679.331 1563.21,679.322C1563.22,679.313 1563.24,679.305 1563.25,679.296C1563.26,679.287 1563.28,679.277 1563.29,679.269C1563.3,679.262 1563.31,679.255 1563.32,679.248C1563.34,679.238 1563.35,679.228 1563.37,679.218C1563.37,679.212 1563.38,679.207 1563.39,679.201C1563.41,679.189 1563.43,679.177 1563.44,679.166C1563.45,679.162 1563.45,679.159 1563.46,679.156C1563.48,679.143 1563.5,679.13 1563.52,679.117C1563.52,679.114 1563.53,679.11 1563.53,679.107C1564.64,678.373 1565.73,677.75 1566.78,677.221C1566.44,678.484 1566.13,679.789 1565.85,681.169C1561.18,704.715 1566.49,737.529 1551.64,762.147C1540.95,779.866 1527.35,819.733 1534.36,846.739C1531.51,864.606 1530.25,882.765 1532.5,898.047Z" style="fill:rgb(239,249,254);fill-rule:nonzero;"/>
        <path d="M1641.37,878.634L1641.37,878.63L1641.37,878.634Z" style="fill:rgb(188,228,252);fill-rule:nonzero;"/>
        <path d="M1631.46,887.617C1611.49,886.668 1595.99,883.063 1591.48,880.455C1590.59,879.938 1589.8,879.165 1589.09,878.167C1592.53,878.394 1596.04,878.51 1599.6,878.51C1615.24,878.51 1631.8,876.272 1646.94,871.467C1645.3,873.852 1643.46,876.24 1641.37,878.63L1641.37,878.634C1641.34,878.672 1641.3,878.71 1641.27,878.748C1638.35,882.075 1635.06,885.024 1631.46,887.617Z" style="fill:rgb(239,249,254);fill-rule:nonzero;"/>
        <path d="M1601.83,738.971C1600.61,739.547 1599.23,738.549 1599.42,737.214C1600.86,726.872 1605.21,694.299 1602.66,693.333C1599.63,692.184 1595.04,721.194 1592.08,721.746C1589.12,722.297 1594.32,694.113 1590.88,693.407C1587.44,692.701 1583.57,718.558 1582.02,718.766C1580.47,718.974 1581.53,693.804 1579.75,692.176C1577.98,690.547 1573.58,718.909 1571.77,719.695C1569.96,720.482 1566.86,699.395 1565.16,699.467C1563.46,699.539 1562.31,699.304 1556.73,745.106L1553.32,771.546L1562.13,778.661L1582.4,777.942C1582.4,777.942 1623.6,735.171 1623.07,732.78C1622.57,730.5 1620.59,730.09 1601.83,738.971Z" style="fill:rgb(255,192,187);fill-rule:nonzero;"/>
        <path d="M1894.25,1808.94L1894.25,1784.33L1922.4,1776.54L1928.66,1779.29L1929.73,1808.94L1920.87,1834.77L1894.25,1808.94Z" style="fill:rgb(255,192,187);fill-rule:nonzero;"/>
        <path d="M1986.27,1844.21L1887.23,1845.15C1886.02,1845.17 1885.03,1844.19 1885.02,1842.98L1884.96,1837.11C1884.95,1835.9 1885.92,1834.9 1887.14,1834.89L1986.17,1833.95C1987.39,1833.94 1988.38,1834.91 1988.39,1836.12L1988.45,1841.99C1988.46,1843.21 1987.48,1844.2 1986.27,1844.21Z" style="fill:white;fill-rule:nonzero;"/>
        <path d="M1889.38,1803.69L1886.22,1832.27C1885.84,1835.79 1887.86,1838.97 1890.49,1838.94L1981.63,1838.07C1983.99,1838.05 1986.32,1836.57 1987.54,1833.82C1988.79,1831 1989,1826.77 1984.87,1821.12C1976.75,1810.03 1950.72,1807.4 1937.28,1798.24C1936.8,1797.91 1936.24,1797.73 1935.66,1797.73L1894.1,1798.13C1891.73,1798.15 1889.73,1800.51 1889.38,1803.69Z" style="fill:rgb(255,204,104);fill-rule:nonzero;"/>
        <path d="M1930.27,1814.36C1929.61,1813.97 1929.35,1812.88 1929.73,1812.04C1931.48,1808.11 1936.98,1798.54 1948.38,1800.39C1949.04,1800.49 1949.5,1801.35 1949.39,1802.24L1949.39,1802.27C1949.29,1803.13 1948.7,1803.7 1948.06,1803.59C1937.85,1801.98 1933.17,1810.41 1931.76,1813.7C1931.45,1814.41 1930.82,1814.69 1930.27,1814.36Z" style="fill:rgb(51,51,51);fill-rule:nonzero;"/>
        <path d="M1939.77,1817.94C1939.11,1817.55 1938.86,1816.46 1939.23,1815.62C1940.98,1811.7 1946.48,1802.12 1957.88,1803.97C1958.54,1804.08 1959,1804.93 1958.89,1805.82L1958.89,1805.85C1958.79,1806.71 1958.2,1807.28 1957.56,1807.18C1947.35,1805.56 1942.67,1814 1941.26,1817.29C1940.95,1817.99 1940.32,1818.27 1939.77,1817.94Z" style="fill:rgb(51,51,51);fill-rule:nonzero;"/>
        <path d="M1948.61,1821.29C1947.94,1820.89 1947.69,1819.8 1948.06,1818.97C1949.82,1815.04 1955.32,1805.47 1966.72,1807.31C1967.38,1807.42 1967.83,1808.28 1967.73,1809.17L1967.72,1809.19C1967.63,1810.05 1967.04,1810.62 1966.4,1810.52C1956.18,1808.9 1951.51,1817.34 1950.09,1820.63C1949.79,1821.33 1949.16,1821.61 1948.61,1821.29Z" style="fill:rgb(51,51,51);fill-rule:nonzero;"/>
        <path d="M1890.45,1838.94C1888.06,1838.94 1886.17,1836.27 1886.18,1833.12C1886.18,1832.84 1886.19,1832.55 1886.22,1832.27L1887.98,1816.33C1888.14,1814.92 1889.33,1813.83 1890.75,1813.83C1890.8,1813.83 1890.84,1813.83 1890.88,1813.84C1897.43,1814.14 1906.94,1817.91 1913.48,1834.93C1914.18,1836.76 1912.85,1838.73 1910.87,1838.75L1890.49,1838.94L1890.45,1838.94Z" style="fill:rgb(248,172,83);fill-rule:nonzero;"/>
        <path d="M1735.24,1808.94L1735.24,1784.33L1707.09,1776.54L1700.83,1779.29L1699.76,1808.94L1708.62,1834.77L1735.24,1808.94Z" style="fill:rgb(255,192,187);fill-rule:nonzero;"/>
        <path d="M1643.22,1844.21L1742.26,1845.15C1743.47,1845.17 1744.46,1844.19 1744.47,1842.98L1744.53,1837.11C1744.54,1835.9 1743.57,1834.9 1742.36,1834.89L1643.32,1833.95C1642.11,1833.94 1641.11,1834.91 1641.1,1836.12L1641.05,1841.99C1641.03,1843.21 1642.01,1844.2 1643.22,1844.21Z" style="fill:white;fill-rule:nonzero;"/>
        <path d="M1740.11,1803.69L1743.27,1832.27C1743.66,1835.79 1741.63,1838.97 1739.01,1838.94L1647.87,1838.07C1645.5,1838.05 1643.17,1836.57 1641.95,1833.82C1640.71,1831 1640.49,1826.77 1644.63,1821.12C1652.74,1810.03 1678.77,1807.4 1692.21,1798.24C1692.69,1797.91 1693.25,1797.73 1693.84,1797.73L1735.39,1798.13C1737.76,1798.15 1739.76,1800.51 1740.11,1803.69Z" style="fill:rgb(255,204,104);fill-rule:nonzero;"/>
        <path d="M1699.22,1814.36C1699.89,1813.97 1700.14,1812.88 1699.76,1812.04C1698.01,1808.11 1692.51,1798.54 1681.11,1800.39C1680.45,1800.49 1680,1801.35 1680.1,1802.24L1680.1,1802.27C1680.2,1803.13 1680.79,1803.7 1681.43,1803.59C1691.64,1801.98 1696.32,1810.41 1697.74,1813.7C1698.04,1814.41 1698.67,1814.69 1699.22,1814.36Z" style="fill:rgb(51,51,51);fill-rule:nonzero;"/>
        <path d="M1689.72,1817.94C1690.39,1817.55 1690.64,1816.46 1690.26,1815.62C1688.51,1811.7 1683.01,1802.12 1671.61,1803.97C1670.95,1804.08 1670.5,1804.93 1670.6,1805.82L1670.6,1805.85C1670.7,1806.71 1671.29,1807.28 1671.93,1807.18C1682.14,1805.56 1686.82,1814 1688.24,1817.29C1688.54,1817.99 1689.17,1818.27 1689.72,1817.94Z" style="fill:rgb(51,51,51);fill-rule:nonzero;"/>
        <path d="M1680.89,1821.29C1681.55,1820.89 1681.8,1819.8 1681.43,1818.97C1679.67,1815.04 1674.17,1805.47 1662.77,1807.31C1662.11,1807.42 1661.66,1808.28 1661.76,1809.17L1661.77,1809.19C1661.87,1810.05 1662.45,1810.62 1663.09,1810.52C1673.31,1808.9 1677.98,1817.34 1679.4,1820.63C1679.7,1821.33 1680.34,1821.61 1680.89,1821.29Z" style="fill:rgb(51,51,51);fill-rule:nonzero;"/>
        <path d="M1743.27,1832.27L1741.51,1816.31L1741.51,1816.33L1743.27,1832.27Z" style="fill:rgb(196,197,200);fill-rule:nonzero;"/>
        <path d="M1739.04,1838.94L1739.01,1838.94L1718.62,1838.75C1716.64,1838.73 1715.31,1836.76 1716.01,1834.93C1722.55,1817.91 1732.07,1814.14 1738.61,1813.84C1738.65,1813.83 1738.7,1813.83 1738.74,1813.83C1740.15,1813.83 1741.34,1814.91 1741.51,1816.31L1743.27,1832.27C1743.3,1832.55 1743.31,1832.84 1743.31,1833.12C1743.32,1836.27 1741.43,1838.94 1739.04,1838.94Z" style="fill:rgb(248,172,83);fill-rule:nonzero;"/>
        <path d="M1953.06,1197.92C1919.57,1247.15 1852.66,1318.17 1852.66,1318.17L1883.51,1795.25C1883.51,1795.25 1928.18,1799.97 1943.54,1788.38C1943.54,1788.38 1955.24,1336.09 1953.06,1197.92Z" style="fill:rgb(51,51,51);fill-rule:nonzero;"/>
        <path d="M1940.39,1216.22C1940.33,1212.64 1943.74,1216.31 1947.04,1219.98C1950.17,1223.47 1953.2,1226.96 1953.08,1224.24C1947.96,1108.36 1785.43,1205.53 1785.43,1205.53L1751.3,1198.52L1688.59,1793.33C1688.59,1793.33 1729.38,1802.12 1752.75,1793.33L1852.66,1323.99C1852.66,1323.99 1888.41,1309.01 1940.39,1216.22Z" style="fill:rgb(51,51,51);fill-rule:nonzero;"/>
        <path d="M1703.31,956.955L1706.92,881.284L1686.11,882.557C1644.34,893.261 1599.69,885.205 1591.48,880.455C1574.07,870.378 1594.37,763.411 1594.37,763.411L1555.67,766.573C1555.67,766.573 1504.11,903.571 1551.12,931.726C1598.12,959.881 1693.03,958.919 1693.03,958.919L1703.31,956.955Z" style="fill:rgb(255,192,187);fill-rule:nonzero;"/>
        <path d="M2172.48,921.105C2172.78,922.417 2174.43,922.879 2175.36,921.902C2182.55,914.337 2205.36,890.679 2207.7,892.073C2210.48,893.73 2190.62,915.367 2192.03,918.026C2193.44,920.685 2212.28,899.09 2214.97,901.342C2217.66,903.594 2199.82,922.708 2200.62,924.052C2201.42,925.397 2220.47,908.911 2222.85,909.287C2225.23,909.662 2205.76,930.748 2206.27,932.657C2206.78,934.564 2225.22,923.874 2226.22,925.25C2227.22,926.626 2228.12,927.377 2195.72,960.234L2177.15,979.355L2166.09,976.877L2154.05,960.56C2154.05,960.56 2161.92,901.699 2164.12,900.625C2166.21,899.601 2167.76,900.891 2172.48,921.105Z" style="fill:rgb(255,192,187);fill-rule:nonzero;"/>
        <path d="M1938.67,977.228L1995.68,927.335L2007.62,944.417C2025.22,983.783 2059.3,1013.73 2068.13,1017.21C2086.85,1024.58 2157.98,942.152 2157.98,942.152L2179.58,974.421C2179.58,974.421 2104.37,1100 2053.09,1080.71C2001.81,1061.41 1943.53,986.496 1943.53,986.496L1938.67,977.228Z" style="fill:rgb(255,192,187);fill-rule:nonzero;"/>
        <path d="M1824.48,797.716L1824.48,859.735C1824.48,859.735 1885.87,858.792 1886.11,857.447C1886.35,856.101 1881.62,795.394 1881.62,795.394L1824.48,797.716Z" style="fill:rgb(255,192,187);fill-rule:nonzero;"/>
        <path d="M1931.98,714.098C1952.76,710.129 1911.91,688.422 1911.91,688.422C1911.91,688.422 1929.65,688.889 1929.96,680.953C1930.27,673.017 1898.6,674.651 1898.6,674.651C1898.6,674.651 1920.08,665.781 1915.18,661.113C1911.14,657.27 1877.79,661.916 1866.13,663.679C1869.04,660.428 1870.64,656.776 1867.72,653.722C1860.56,646.252 1819.07,673.062 1819.07,673.062L1819.07,673.063C1801.31,683.563 1795.67,699.471 1795.67,699.471C1795.67,699.471 1791.35,692.507 1789.13,694.646C1784.64,698.984 1792.87,705.695 1792.87,705.695C1787.58,703.146 1784.03,703.679 1782.48,704.166C1781.91,704.346 1781.49,704.846 1781.42,705.442C1780.68,711.37 1788.51,712.853 1788.51,712.853C1788.51,712.853 1764.64,753.614 1786.92,745.643C1786.92,745.643 1773.07,778.786 1789.56,774.547C1797.59,809.399 1831.11,818.408 1841.89,817.032C1852.86,815.632 1865.23,817.966 1865.23,817.966C1922.65,819.6 1929.96,767.782 1929.96,767.782C1945.68,778.986 1933.38,746.309 1933.38,746.309C1957.89,754.478 1931.98,714.098 1931.98,714.098Z" style="fill:rgb(254,181,70);fill-rule:nonzero;"/>
        <path d="M1870.67,782.721C1850.13,804.661 1842.66,780.387 1842.66,780.387C1829.59,784.121 1832.86,760.78 1832.86,760.78C1796.45,760.313 1814.65,710.478 1814.65,710.478C1800.66,710.558 1809.35,688.464 1815.9,675.074C1800.64,685.475 1795.67,699.471 1795.67,699.471C1795.67,699.471 1791.35,692.507 1789.13,694.646C1784.64,698.984 1792.87,705.695 1792.87,705.695C1787.58,703.146 1784.03,703.679 1782.48,704.166C1781.91,704.346 1781.49,704.846 1781.42,705.442C1780.68,711.37 1788.51,712.853 1788.51,712.853C1788.51,712.853 1764.64,753.614 1786.92,745.643C1786.92,745.643 1773.07,778.786 1789.56,774.547C1797.59,809.399 1831.11,818.408 1841.89,817.032C1852.86,815.632 1865.23,817.966 1865.23,817.966C1922.65,819.6 1929.96,767.782 1929.96,767.782C1908.49,817.265 1870.67,782.721 1870.67,782.721Z" style="fill:rgb(244,166,64);fill-rule:nonzero;"/>
        <path d="M1746.8,956.091C1746.8,956.091 1733.03,1227.12 1733.03,1241.87C1733.03,1241.87 1862.16,1265.46 1957.52,1246.78L1933.93,983.291L1957.52,1012.79C1957.52,1012.79 2012.58,997.056 2024.38,966.577C2024.38,966.577 1972.27,865.31 1889.68,845.647C1889.68,845.647 1852.32,863.344 1821.85,845.647C1821.85,845.647 1677.32,879.075 1677.32,883.008C1677.32,886.941 1677.32,926.267 1697.97,958.712L1746.8,956.091Z" style="fill:rgb(255,91,126);fill-rule:nonzero;"/>
        <path d="M1055.59,1770.46C1054.12,1797.28 1055.48,1843.79 1055.48,1843.79L1030.18,1829.17C1029.3,1825.22 1024.06,1792.98 1022,1769.34L1055.59,1770.46Z" style="fill:rgb(255,192,187);fill-rule:nonzero;"/>
        <path d="M1088.87,1832.45L1054.93,1811.29L1030.18,1829.17L1039.65,1835.98L1072.62,1840.79C1072.62,1840.79 1085.5,1839.2 1086.07,1838.82C1086.64,1838.44 1088.87,1832.45 1088.87,1832.45Z" style="fill:rgb(255,192,187);fill-rule:nonzero;"/>
        <path d="M1088.87,1832.45L1096.83,1837.62C1100.52,1839.97 1098.85,1845.68 1094.48,1845.68L1034.04,1845.68C1031.9,1845.68 1030.18,1843.95 1030.18,1841.82L1030.18,1829.17C1070.43,1841.99 1084.33,1838.09 1088.87,1832.45Z" style="fill:rgb(255,91,126);fill-rule:nonzero;"/>
        <path d="M863.125,1770.46C864.599,1797.28 863.241,1843.79 863.241,1843.79L888.542,1829.17C889.416,1825.22 894.658,1792.98 896.714,1769.34L863.125,1770.46Z" style="fill:rgb(255,192,187);fill-rule:nonzero;"/>
        <path d="M829.847,1832.45L863.785,1811.29L888.542,1829.17L879.07,1835.98L846.098,1840.79C846.098,1840.79 833.212,1839.2 832.644,1838.82C832.076,1838.44 829.847,1832.45 829.847,1832.45Z" style="fill:rgb(255,192,187);fill-rule:nonzero;"/>
        <path d="M829.847,1832.45L821.888,1837.62C818.199,1839.97 819.865,1845.68 824.239,1845.68L884.682,1845.68C886.814,1845.68 888.542,1843.95 888.542,1841.82L888.542,1829.17C848.288,1841.99 834.385,1838.09 829.847,1832.45Z" style="fill:rgb(255,91,126);fill-rule:nonzero;"/>
        <rect x="902.532" y="1328.23" width="39.681" height="69.65" style="fill:rgb(255,192,187);fill-rule:nonzero;"/>
        <path d="M942.148,1340.13L942.148,1316.38L902.532,1316.38L902.532,1336.59C911.061,1341.17 923.689,1343.81 942.148,1340.13Z" style="fill:rgb(249,152,147);fill-rule:nonzero;"/>
        <path d="M997.732,1250.7C993.938,1248.83 989.535,1249.16 985.548,1251.19C986.917,1215.3 957.655,1185.12 920.799,1186.4C883.942,1185.12 854.68,1215.3 856.049,1251.19C852.062,1249.16 847.658,1248.83 843.864,1250.7C836.585,1254.29 834.322,1264.58 838.811,1273.68C843.299,1282.78 852.839,1287.25 860.119,1283.65C861.129,1283.16 862.033,1282.52 862.846,1281.78C867.017,1311.45 891.763,1333.68 920.799,1333.27C949.834,1333.68 974.58,1311.45 978.751,1281.78C979.564,1282.52 980.468,1283.16 981.479,1283.65C988.758,1287.25 998.298,1282.78 1002.79,1273.68C1007.27,1264.58 1005.01,1254.29 997.732,1250.7Z" style="fill:rgb(255,192,187);fill-rule:nonzero;"/>
        <path d="M911.75,1174.57C911.75,1174.57 913.553,1131.33 867.137,1120.93C820.722,1110.53 811.789,1163.5 777.812,1158.4C777.812,1158.4 813.37,1199.56 853.011,1187.38C883.083,1178.14 894.996,1181.72 898.996,1183.99C901.4,1185.36 904.263,1185.89 906.886,1185.02C909.853,1184.03 912.605,1181.35 911.75,1174.57Z" style="fill:rgb(255,91,126);fill-rule:nonzero;"/>
        <path d="M879.559,1182.99L879.551,1182.98C878.662,1181.81 878.942,1180.12 880.172,1179.31C885.196,1176.01 898.119,1168.58 913.633,1167.79C915.088,1167.71 916.31,1168.88 916.31,1170.34C916.31,1171.7 915.244,1172.81 913.889,1172.88C899.707,1173.62 887.548,1180.61 882.969,1183.59C881.852,1184.32 880.364,1184.05 879.559,1182.99Z" style="fill:rgb(7,8,91);fill-rule:nonzero;"/>
        <path d="M923.372,1171.15C923.372,1171.15 990.503,1167.39 994.06,1249.58C994.06,1249.58 989.182,1249.23 985.548,1251.19C985.548,1251.19 932.381,1237.89 919.182,1186.36L923.372,1171.15Z" style="fill:rgb(255,91,126);fill-rule:nonzero;"/>
        <path d="M844.636,1250.32C844.636,1250.32 850.012,1248.07 856.049,1251.19C920.798,1244.1 923.373,1171.15 923.373,1171.15C840.622,1176.06 844.636,1250.32 844.636,1250.32Z" style="fill:rgb(255,91,126);fill-rule:nonzero;"/>
        <path d="M909.577,1269.11C909.772,1272.12 907.485,1274.72 904.467,1274.92C901.45,1275.11 898.845,1272.82 898.649,1269.81C898.453,1266.8 900.74,1264.2 903.758,1264C906.776,1263.81 909.38,1266.1 909.577,1269.11Z" style="fill:rgb(51,51,51);fill-rule:nonzero;"/>
        <path d="M953.951,1270.05C954.147,1273.07 951.86,1275.67 948.842,1275.86C945.825,1276.05 943.22,1273.77 943.023,1270.75C942.828,1267.74 945.115,1265.14 948.133,1264.95C951.15,1264.75 953.755,1267.04 953.951,1270.05Z" style="fill:rgb(51,51,51);fill-rule:nonzero;"/>
        <path d="M915.468,1257.86C912.721,1256.94 910.109,1256.22 907.505,1255.78C904.908,1255.34 902.345,1255.25 899.846,1255.54C897.361,1255.86 894.862,1256.4 892.477,1257.5C891.07,1258.04 892.247,1257.51 888.841,1259.21C887.619,1259.83 886.486,1260.63 885.131,1261.25C885.853,1260.01 886.675,1258.79 887.629,1257.68C888.69,1256.7 889.666,1255.52 890.965,1254.77C893.378,1252.98 896.386,1251.97 899.416,1251.6C902.464,1251.25 905.578,1251.7 908.353,1252.79C911.109,1253.92 913.649,1255.57 915.468,1257.86Z" style="fill:rgb(255,91,126);fill-rule:nonzero;"/>
        <path d="M934.78,1258.46C936.534,1256.11 939.027,1254.4 941.751,1253.2C944.495,1252.03 947.594,1251.5 950.652,1251.77C953.69,1252.05 956.726,1252.99 959.188,1254.71C960.507,1255.43 961.515,1256.57 962.604,1257.53C963.588,1258.62 964.444,1259.81 965.199,1261.03C963.828,1260.44 962.674,1259.68 961.435,1259.09C958.01,1257.5 959.192,1257.98 957.752,1257.48C955.337,1256.44 952.824,1255.97 950.332,1255.72C947.825,1255.49 945.266,1255.66 942.682,1256.16C940.09,1256.67 937.5,1257.46 934.78,1258.46Z" style="fill:rgb(255,91,126);fill-rule:nonzero;"/>
        <path d="M926.833,1260.34C926.099,1263.3 925.855,1266.34 925.97,1269.4C926.03,1270.94 926.211,1272.47 926.567,1274.03C926.954,1275.58 927.469,1277.16 928.611,1278.63L929.104,1279.15L929.543,1279.6C929.728,1279.81 929.995,1279.98 930.129,1280.21C930.483,1280.64 930.72,1281.11 930.842,1281.61C931.149,1282.61 930.772,1283.77 930.121,1284.83C928.702,1286.97 925.989,1288.33 923.107,1289.2C926.086,1289.51 929.527,1288.82 931.897,1286.22C933.056,1284.97 933.865,1283.06 933.537,1281.11C933.456,1280.62 933.335,1280.15 933.117,1279.71C932.945,1279.25 932.671,1278.87 932.399,1278.48C932.142,1278.07 931.779,1277.8 931.465,1277.46C931.266,1277.27 931.232,1277.21 931.13,1277.1L930.856,1276.8C930.141,1275.92 929.633,1274.63 929.207,1273.32C928.75,1272 928.521,1270.57 928.207,1269.15C927.686,1266.28 927.296,1263.34 926.833,1260.34Z" style="fill:rgb(249,152,147);fill-rule:nonzero;"/>
        <path d="M911.514,1290.19C913.136,1292.02 914.898,1293.61 916.811,1294.92C925.094,1300.49 932.06,1297.75 936.816,1296.87C929.692,1301.4 922.487,1301.66 915.803,1296.21C913.925,1294.54 912.396,1292.49 911.514,1290.19Z" style="fill:rgb(249,152,147);fill-rule:nonzero;"/>
        <path d="M949.889,1351.92L881.355,1339.66C881.355,1339.66 901.979,1367.8 902.532,1368.36C903.086,1368.92 934.845,1386.75 935.681,1385.91C936.517,1385.07 953.022,1372.82 953.963,1369.19C954.904,1365.57 949.889,1351.92 949.889,1351.92Z" style="fill:rgb(255,192,187);fill-rule:nonzero;"/>
        <path d="M1024.37,1535.61C1024.37,1535.61 1071.17,1728.76 1069.68,1801.57C1069.68,1801.57 1022.14,1806.77 1011.74,1801.57L953.046,1618.07L944.131,1617.33L912.929,1807.51C912.929,1807.51 868.355,1806.77 848.296,1798.6C848.296,1798.6 866.869,1561.44 872.07,1559.67C877.27,1557.89 1024.37,1535.61 1024.37,1535.61Z" style="fill:rgb(255,91,126);fill-rule:nonzero;"/>
        <path d="M949.889,1351.92C949.889,1351.92 977.191,1349.69 987.777,1368.08C998.364,1386.47 1011.74,1417.28 1011.74,1417.28L1001.71,1428.26L1034.58,1548.05C1034.58,1548.05 940.417,1608.78 863.526,1568.67L836.781,1429.37L841.61,1343.56L881.355,1339.66L935.681,1365.29C935.681,1365.29 949.332,1363.07 949.889,1351.92Z" style="fill:rgb(254,181,70);fill-rule:nonzero;"/>
        <path d="M1233.66,1670.12L839.125,1239.35C835.704,1235.62 829.784,1235.72 826.495,1239.57C823.744,1242.8 823.812,1247.56 826.653,1250.7L1218.39,1684.09C1221.55,1687.59 1226.97,1687.81 1230.41,1684.59L1233.2,1681.97C1236.58,1678.82 1236.78,1673.53 1233.66,1670.12Z" style="fill:rgb(7,8,91);fill-rule:nonzero;"/>
        <path d="M866.547,1341.12C880.141,1386.32 934.273,1542.59 1028.85,1527.18L1034.58,1548.05C1034.58,1548.05 940.417,1608.78 863.526,1568.67L836.781,1429.37L841.61,1343.56L866.547,1341.12Z" style="fill:rgb(244,166,64);fill-rule:nonzero;"/>
        <path d="M987.22,1453.14C966.79,1513.32 924.816,1524.46 924.816,1524.46C865.383,1533.38 840.496,1423.8 840.496,1423.8L874.669,1403.37C874.669,1403.37 907.357,1461.32 916.272,1466.52C925.188,1471.72 960.847,1428.26 960.847,1428.26L967.984,1399.21C968.728,1396.18 970.67,1393.51 973.477,1392.15C976.123,1390.88 979.42,1390.65 982.02,1394.82C982.02,1394.82 993.907,1394.82 992.606,1404.67C992.606,1404.67 1002.64,1402.44 1002.82,1414.33C1002.82,1414.33 1012.92,1414.33 1016.48,1423.43C1017.61,1426.32 1015.64,1429.49 1012.55,1429.66L1007.84,1429.93C1007.84,1429.93 1001.52,1454.81 987.22,1453.14Z" style="fill:rgb(255,192,187);fill-rule:nonzero;"/>
        <path d="M892.871,1416.37C892.871,1416.37 877.27,1336.51 841.61,1343.56C805.95,1350.62 831.581,1437.91 831.581,1437.91C831.581,1437.91 880.241,1426.03 892.871,1416.37Z" style="fill:rgb(249,163,50);fill-rule:nonzero;"/>
        <path d="M1245.47,1803.56C1256.39,1800.99 1254.67,1777.1 1254.67,1777.1C1266.93,1786.57 1271.66,1807.74 1258.01,1813.31C1235.04,1822.69 1225.69,1828.36 1225.69,1828.36C1218.17,1816.1 1226.53,1808.02 1245.47,1803.56ZM1369.45,1785.73C1399.54,1787.13 1411.79,1809.69 1411.79,1809.69C1380.87,1808.58 1369.45,1785.73 1369.45,1785.73ZM1227.92,1844.24C1245.75,1849.81 1387.83,1844.79 1399.54,1842.57C1411.24,1840.34 1471.41,1845.91 1490.36,1847.02C1509.3,1848.14 1554.43,1848.14 1550.53,1838.66C1546.63,1829.19 1456.37,1831.24 1456.37,1831.24C1447.45,1812.66 1423.39,1811.18 1423.39,1811.18C1424.59,1793.35 1404.36,1785.18 1385.05,1780.72C1365.73,1776.26 1356.82,1768.83 1324.13,1725C1291.44,1681.17 1235.02,1673.8 1235.02,1673.8C1235.02,1673.8 1219.01,1664.27 1216.54,1684.55C1214.07,1704.83 1220.68,1716.09 1240.74,1760.66C1260.8,1805.23 1218.45,1785.73 1211.76,1811.92C1205.08,1838.11 1227.92,1844.24 1227.92,1844.24Z" style="fill:rgb(255,205,146);fill-rule:nonzero;"/>
        <path d="M1550.51,1838.6L1550.5,1838.6L1550.51,1838.6ZM1550.5,1838.58L1550.49,1838.58L1550.5,1838.58ZM1550.49,1838.56L1550.48,1838.56L1550.49,1838.56Z" style="fill:rgb(201,211,199);fill-rule:nonzero;"/>
        <path d="M1216.54,1684.55C1216.55,1684.51 1216.55,1684.47 1216.56,1684.42C1216.55,1684.47 1216.55,1684.51 1216.54,1684.55ZM1216.56,1684.42C1216.56,1684.38 1216.57,1684.34 1216.57,1684.3C1216.57,1684.34 1216.56,1684.38 1216.56,1684.42ZM1216.57,1684.3C1216.58,1684.26 1216.58,1684.22 1216.59,1684.18C1216.58,1684.22 1216.58,1684.26 1216.57,1684.3ZM1216.59,1684.18C1216.67,1683.56 1216.76,1682.97 1216.87,1682.41C1216.76,1682.97 1216.67,1683.56 1216.59,1684.18Z" style="fill:rgb(143,169,181);fill-rule:nonzero;"/>
        <path d="M1216.87,1682.41C1217.09,1681.22 1217.37,1680.16 1217.7,1679.2C1217.37,1680.15 1217.09,1681.22 1216.87,1682.41ZM1217.7,1679.19C1217.71,1679.16 1217.72,1679.14 1217.73,1679.12C1217.72,1679.14 1217.71,1679.16 1217.7,1679.19ZM1217.74,1679.08C1217.74,1679.06 1217.75,1679.05 1217.75,1679.04C1217.75,1679.05 1217.74,1679.06 1217.74,1679.08ZM1217.77,1678.98C1217.78,1678.97 1217.78,1678.96 1217.78,1678.96C1217.78,1678.96 1217.78,1678.97 1217.77,1678.98ZM1217.8,1678.89C1217.81,1678.89 1217.81,1678.88 1217.81,1678.88C1217.81,1678.88 1217.81,1678.89 1217.8,1678.89ZM1217.83,1678.81L1217.84,1678.8L1217.83,1678.81Z" style="fill:rgb(7,7,71);fill-rule:nonzero;"/>
        <path d="M1508.73,1847.52C1501.74,1847.52 1495.19,1847.31 1490.36,1847.02C1474.52,1846.09 1429.86,1842.04 1408.81,1842.04C1404.68,1842.04 1401.45,1842.2 1399.54,1842.57C1391.73,1844.05 1325.99,1846.78 1277.74,1846.78C1253.62,1846.78 1233.87,1846.09 1227.92,1844.24C1227.92,1844.24 1210.51,1839.56 1210.54,1820.95C1210.54,1818.25 1210.92,1815.25 1211.76,1811.92C1217.19,1790.67 1246.1,1799.5 1246.09,1779.77C1246.08,1775.18 1244.52,1769.06 1240.74,1760.66C1223.31,1721.92 1216.03,1708.34 1216.05,1692.14C1216.05,1689.7 1216.22,1687.2 1216.54,1684.55C1216.55,1684.51 1216.55,1684.47 1216.56,1684.42C1216.56,1684.38 1216.57,1684.34 1216.57,1684.3C1216.58,1684.26 1216.58,1684.22 1216.59,1684.18C1216.67,1683.56 1216.76,1682.97 1216.87,1682.41C1217.09,1681.22 1217.37,1680.15 1217.7,1679.2L1217.7,1679.19C1217.71,1679.16 1217.72,1679.14 1217.73,1679.12C1217.73,1679.1 1217.73,1679.09 1217.74,1679.08C1217.74,1679.06 1217.75,1679.05 1217.75,1679.04C1217.76,1679.02 1217.77,1679 1217.77,1678.98C1217.78,1678.97 1217.78,1678.96 1217.78,1678.96C1217.79,1678.93 1217.8,1678.91 1217.8,1678.89C1217.81,1678.89 1217.81,1678.88 1217.81,1678.88C1217.82,1678.85 1217.83,1678.83 1217.83,1678.81L1217.84,1678.8C1219.76,1673.53 1223.1,1671.82 1226.34,1671.59C1225.72,1681.97 1225.98,1695.01 1229.04,1707.91C1235.72,1736.14 1266.93,1756.95 1291.44,1777.1C1315.96,1797.25 1298.13,1816.38 1301.84,1831.24C1303.53,1837.98 1318.06,1840.13 1335.86,1840.13C1357.29,1840.13 1383.47,1837.01 1397.68,1835.01C1402.78,1834.29 1408.9,1834 1415.73,1834C1443.71,1834 1483.42,1838.96 1512.09,1840.15C1513.28,1840.2 1514.43,1840.22 1515.54,1840.22C1527.05,1840.22 1534.83,1837.68 1540.07,1834.41C1545.77,1835.45 1549.63,1836.8 1550.48,1838.56L1550.49,1838.56L1550.49,1838.58L1550.5,1838.58L1550.5,1838.6L1550.51,1838.6L1550.51,1838.62C1550.52,1838.63 1550.52,1838.63 1550.52,1838.64C1550.53,1838.65 1550.53,1838.66 1550.53,1838.66C1550.69,1839.05 1550.77,1839.42 1550.77,1839.78C1550.79,1845.91 1528.03,1847.52 1508.73,1847.52ZM1222.95,1820.06C1222.95,1822.58 1223.84,1825.34 1225.69,1828.36C1225.69,1828.36 1235.04,1822.69 1258.01,1813.31C1263.8,1810.95 1266.28,1805.79 1266.29,1799.9C1266.3,1791.9 1261.73,1782.55 1254.67,1777.1C1254.67,1777.1 1254.77,1778.48 1254.77,1780.61C1254.77,1782.71 1254.67,1785.54 1254.29,1788.5C1253.44,1795.04 1251.18,1802.22 1245.47,1803.56C1231.19,1806.92 1222.93,1812.34 1222.95,1820.06Z" style="fill:rgb(255,185,115);fill-rule:nonzero;"/>
        <path d="M1086.53,1490.47C1084.62,1487.46 1078.42,1487.97 1072.67,1491.61C1066.92,1495.25 1063.81,1500.65 1065.71,1503.66C1067.62,1506.67 1073.83,1506.16 1079.57,1502.51C1085.32,1498.87 1088.43,1493.48 1086.53,1490.47Z" style="fill:rgb(255,192,187);fill-rule:nonzero;"/>
        <path d="M1079.13,1477.21C1076.63,1474.67 1070.67,1476.48 1065.83,1481.26C1060.98,1486.04 1059.08,1491.97 1061.59,1494.51C1064.09,1497.04 1070.05,1495.23 1074.89,1490.45C1079.73,1485.67 1081.63,1479.74 1079.13,1477.21Z" style="fill:rgb(255,192,187);fill-rule:nonzero;"/>
        <path d="M1070.49,1469.5C1067.99,1466.97 1062.06,1468.78 1057.23,1473.55C1052.4,1478.31 1050.51,1484.22 1053,1486.75C1055.5,1489.28 1061.43,1487.47 1066.26,1482.71C1071.09,1477.94 1072.98,1472.03 1070.49,1469.5Z" style="fill:rgb(255,192,187);fill-rule:nonzero;"/>
        <path d="M1058.06,1461.65C1055.13,1459.64 1049.64,1462.55 1045.81,1468.14C1041.97,1473.74 1041.24,1479.9 1044.17,1481.91C1047.1,1483.92 1052.58,1481.01 1056.42,1475.42C1060.25,1469.83 1060.99,1463.66 1058.06,1461.65Z" style="fill:rgb(255,192,187);fill-rule:nonzero;"/>
        <path d="M1026.14,1803.92C1020.4,1803.72 1014.66,1803.1 1011.74,1801.57L953.046,1618.07L1011.74,1801.57C1014.47,1802.94 1019.78,1803.59 1026.12,1803.8C1026.13,1803.84 1026.13,1803.88 1026.14,1803.92Z" style="fill:rgb(201,189,214);fill-rule:nonzero;"/>
        <path d="M1030.81,1803.99C1029.29,1803.99 1027.72,1803.97 1026.14,1803.92C1026.13,1803.88 1026.13,1803.84 1026.12,1803.8C1027.81,1803.85 1029.58,1803.88 1031.38,1803.88C1034.92,1803.88 1038.62,1803.78 1042.28,1803.63C1041.53,1803.68 1036.61,1803.99 1030.81,1803.99Z" style="fill:rgb(255,155,158);fill-rule:nonzero;"/>
        <path d="M1031.38,1803.88C1029.58,1803.88 1027.81,1803.85 1026.12,1803.8C1019.78,1803.59 1014.47,1802.94 1011.74,1801.57L953.046,1618.07L962.147,1622.16L1042.37,1803.62C1042.37,1803.62 1042.34,1803.62 1042.28,1803.63C1038.62,1803.78 1034.92,1803.88 1031.38,1803.88Z" style="fill:rgb(255,73,107);fill-rule:nonzero;"/>
        <path d="M3368.8,1872.11L361.273,1872.11C353.658,1872.11 347.484,1865.94 347.484,1858.32C347.484,1850.71 353.658,1844.53 361.273,1844.53L3368.8,1844.53C3376.42,1844.53 3382.59,1850.71 3382.59,1858.32C3382.59,1865.94 3376.42,1872.11 3368.8,1872.11Z" style="fill:rgb(51,51,51);fill-rule:nonzero;"/>
        <path d="M1957.52,1246.78L1957,1240.96L1957.52,1246.78Z" style="fill:rgb(103,131,185);fill-rule:nonzero;"/>
        <path d="M1677.32,883.008L1677.32,882.997L1677.32,883.008ZM1677.32,882.995L1677.32,882.985L1677.32,882.995ZM1677.32,882.983L1677.32,882.974L1677.32,882.983ZM1677.32,882.972C1677.32,882.968 1677.32,882.965 1677.33,882.961C1677.32,882.965 1677.32,882.968 1677.32,882.972ZM1677.33,882.959L1677.33,882.949L1677.33,882.959ZM1677.33,882.948L1677.33,882.937L1677.33,882.948ZM1677.33,882.935C1677.34,882.931 1677.34,882.927 1677.34,882.923C1677.34,882.927 1677.34,882.931 1677.33,882.935ZM1677.34,882.922L1677.34,882.911L1677.34,882.922ZM1677.35,882.91L1677.35,882.898L1677.35,882.91ZM1677.35,882.896C1677.36,882.892 1677.36,882.889 1677.36,882.885C1677.36,882.889 1677.36,882.892 1677.35,882.896ZM1677.36,882.884C1677.36,882.88 1677.37,882.876 1677.37,882.872C1677.37,882.876 1677.36,882.88 1677.36,882.884ZM1677.37,882.87C1677.37,882.862 1677.38,882.853 1677.39,882.844C1677.38,882.853 1677.37,882.862 1677.37,882.87ZM1677.39,882.843C1677.39,882.839 1677.4,882.835 1677.4,882.83C1677.4,882.835 1677.39,882.839 1677.39,882.843ZM1677.4,882.83C1677.4,882.825 1677.41,882.821 1677.41,882.816C1677.41,882.821 1677.4,882.825 1677.4,882.83ZM1677.41,882.816C1678.8,881.219 1695.82,876.442 1717.71,870.82C1695.82,876.442 1678.8,881.22 1677.41,882.816ZM1718.36,870.654C1718.4,870.644 1718.43,870.635 1718.47,870.626C1718.44,870.635 1718.4,870.645 1718.36,870.654Z" style="fill:rgb(201,189,214);fill-rule:nonzero;"/>
        <path d="M1871.96,1253.98C1799.31,1253.98 1733.03,1241.87 1733.03,1241.87C1733.03,1227.12 1746.8,956.091 1746.8,956.091L1697.97,958.712C1697.83,958.494 1697.69,958.273 1697.55,958.055C1678.89,928.252 1677.44,892.916 1677.33,884.534C1677.32,883.88 1677.32,883.391 1677.32,883.081L1677.32,882.972C1677.32,882.968 1677.32,882.965 1677.33,882.961L1677.33,882.935C1677.34,882.931 1677.34,882.927 1677.34,882.923L1677.34,882.911C1677.35,882.911 1677.35,882.91 1677.35,882.91L1677.35,882.896C1677.36,882.892 1677.36,882.889 1677.36,882.885L1677.36,882.884C1677.36,882.88 1677.37,882.876 1677.37,882.872L1677.37,882.87C1677.37,882.862 1677.38,882.853 1677.39,882.844L1677.39,882.843C1677.39,882.839 1677.4,882.835 1677.4,882.83C1677.4,882.825 1677.41,882.821 1677.41,882.816C1678.8,881.22 1695.82,876.442 1717.71,870.82C1717.93,870.766 1718.15,870.709 1718.36,870.654C1718.4,870.645 1718.44,870.635 1718.47,870.626C1736.72,865.948 1758.24,860.709 1776.91,856.241C1779.07,947.173 1801.58,1155.76 1957,1240.96L1957.52,1246.78C1930.47,1252.08 1900.73,1253.98 1871.96,1253.98Z" style="fill:rgb(255,73,107);fill-rule:nonzero;"/>
    </g>
</svg>
