<?xml version="1.0" encoding="UTF-8" standalone="no"?>
<!DOCTYPE svg PUBLIC "-//W3C//DTD SVG 1.1//EN" "http://www.w3.org/Graphics/SVG/1.1/DTD/svg11.dtd">
<svg width="100%" height="100%" viewBox="0 0 480 526" version="1.1" xmlns="http://www.w3.org/2000/svg" xmlns:xlink="http://www.w3.org/1999/xlink" xml:space="preserve" xmlns:serif="http://www.serif.com/" style="fill-rule:evenodd;clip-rule:evenodd;stroke-linejoin:round;stroke-miterlimit:2;">
    <g transform="matrix(1,0,0,1,-465.059,-1185.59)">
        <path d="M752.489,1186.84C590.054,1176.85 507.847,1228 475.851,1298.95C444.345,1368.8 490.099,1448.79 507.847,1512.49C522.396,1564.72 437.251,1686.82 644.17,1709.94C721.744,1718.61 783.776,1659.37 843.475,1614.58C908.203,1566.03 960.7,1516.34 939.628,1391.04C932.594,1349.22 894.937,1195.6 752.489,1186.84Z" style="fill:rgb(184,230,226);fill-rule:nonzero;"/>
        <rect x="625.173" y="1249.48" width="194.122" height="219.57" style="fill:rgb(97,199,191);fill-rule:nonzero;"/>
        <path d="M625.174,1349.61C629.9,1344.87 634.634,1340.14 639.358,1335.4C667.874,1306.78 696.36,1278.12 724.855,1249.48L625.174,1249.48L625.174,1349.61Z" style="fill:rgb(154,226,220);fill-rule:nonzero;"/>
        <path d="M819.295,1469.05L819.295,1405.52C798.119,1426.7 776.942,1447.87 755.765,1469.05L819.295,1469.05Z" style="fill:rgb(154,226,220);fill-rule:nonzero;"/>
        <path d="M625.174,1439.71L625.174,1469.05L682.481,1469.05C728.086,1423.44 773.691,1377.84 819.295,1332.23L819.295,1253.02L634.979,1437.33C631.919,1440.39 628.297,1440.83 625.174,1439.71Z" style="fill:rgb(154,226,220);fill-rule:nonzero;"/>
        <path d="M629.549,1253.85L814.92,1253.85L814.92,1464.67L629.549,1464.67L629.549,1253.85ZM620.799,1480.92L823.67,1480.92L823.67,1237.6L620.799,1237.6L620.799,1480.92Z" style="fill:white;fill-rule:nonzero;"/>
        <rect x="620.799" y="1237.6" width="202.871" height="4.75" style="fill:rgb(237,237,237);fill-rule:nonzero;"/>
        <rect x="620.799" y="1476.72" width="202.871" height="4.2" style="fill:rgb(237,237,237);fill-rule:nonzero;"/>
        <rect x="610.84" y="1228" width="223.75" height="10.91" style="fill:white;fill-rule:nonzero;"/>
        <rect x="610.841" y="1479.65" width="223.749" height="10.91" style="fill:white;fill-rule:nonzero;"/>
        <rect x="625.654" y="1323.56" width="194.122" height="8.62" style="fill:white;fill-rule:nonzero;"/>
        <rect x="707.023" y="1317.81" width="31.384" height="5.75" style="fill:white;fill-rule:nonzero;"/>
        <path d="M705.851,1260.03C704.56,1260.95 674.723,1265.56 674.723,1265.56C674.723,1265.56 678.901,1282.44 680.129,1284.83C681.357,1287.23 680.129,1301.78 680.129,1301.78C687.497,1295.95 714.509,1293.8 713.895,1290.42C713.281,1287.04 707.141,1259.11 705.851,1260.03Z" style="fill:rgb(0,105,110);fill-rule:nonzero;"/>
        <path d="M690.796,1279.01C689.845,1282.13 689.591,1285.21 689.591,1285.21C689.591,1285.21 687.322,1282.78 686.805,1279.91C686.288,1277.03 683.481,1277.9 683.481,1277.9C683.481,1277.9 683.878,1284.07 684.764,1286.08C685.651,1288.09 689.787,1296.64 689.787,1296.64C689.787,1296.64 696.584,1300.88 699.834,1297.86C703.084,1294.84 705.342,1282.72 704.456,1282C703.57,1281.28 691.265,1277.47 690.796,1279.01Z" style="fill:rgb(224,154,116);fill-rule:nonzero;"/>
        <path d="M693.858,1281.21C693.671,1279.68 693.461,1277.63 693.345,1275.57C693.226,1273.52 693.208,1271.47 693.269,1269.95C693.306,1269.19 693.34,1268.55 693.388,1268.12C693.427,1267.68 693.449,1267.42 693.449,1267.42L693.454,1267.36C693.509,1266.73 693.068,1266.16 692.432,1266.05C691.766,1265.95 691.138,1266.4 691.03,1267.07C691.03,1267.07 690.987,1267.33 690.911,1267.8C690.827,1268.27 690.742,1268.94 690.646,1269.75C690.467,1271.36 690.334,1273.5 690.307,1275.64C690.277,1277.77 690.343,1279.91 690.424,1281.51C690.504,1283.1 690.605,1284.19 690.605,1284.19L690.607,1284.21L690.623,1284.33C690.787,1285.32 691.723,1285.99 692.714,1285.83C693.704,1285.66 694.374,1284.73 694.21,1283.74C694.21,1283.74 694.046,1282.75 693.858,1281.21Z" style="fill:rgb(224,154,116);fill-rule:nonzero;"/>
        <path d="M697.222,1266.08C696.558,1265.95 695.918,1266.39 695.793,1267.06L695.791,1267.07C695.791,1267.07 695.592,1268.12 695.363,1269.7C695.133,1271.28 694.883,1273.39 694.688,1275.5C694.491,1277.61 694.346,1279.72 694.254,1281.3C694.176,1282.9 694.123,1283.96 694.123,1283.96L694.122,1284.09C694.144,1285.09 694.975,1285.89 695.979,1285.86C696.983,1285.84 697.779,1285.01 697.757,1284.01L697.756,1283.96C697.756,1283.96 697.733,1282.93 697.7,1281.38C697.68,1279.83 697.675,1277.75 697.721,1275.67C697.766,1273.6 697.865,1271.53 697.978,1269.99C698.091,1268.44 698.209,1267.42 698.209,1267.42C698.281,1266.79 697.855,1266.2 697.222,1266.08Z" style="fill:rgb(224,154,116);fill-rule:nonzero;"/>
        <path d="M701.93,1266.95C701.263,1266.84 700.636,1267.3 700.529,1267.96L697.868,1284.6L697.865,1284.62L697.85,1284.74C697.762,1285.74 698.501,1286.62 699.501,1286.71C700.501,1286.8 701.383,1286.06 701.471,1285.06L702.955,1268.27L702.956,1268.26C703.01,1267.63 702.567,1267.05 701.93,1266.95Z" style="fill:rgb(224,154,116);fill-rule:nonzero;"/>
        <path d="M706.277,1271.58C705.646,1271.33 704.938,1271.65 704.695,1272.28C704.695,1272.28 703.322,1275.83 702.167,1279.45C701.58,1281.26 701.028,1283.07 700.627,1284.44C700.234,1285.82 699.972,1286.73 699.972,1286.73L699.938,1286.87C699.74,1287.86 700.377,1288.82 701.362,1289.02C702.346,1289.21 703.305,1288.58 703.504,1287.59L703.511,1287.56C703.511,1287.56 703.695,1286.65 703.97,1285.28C704.256,1283.91 704.657,1282.09 705.093,1280.27C705.944,1276.64 707.007,1273.07 707.007,1273.07C707.185,1272.46 706.875,1271.81 706.277,1271.58Z" style="fill:rgb(224,154,116);fill-rule:nonzero;"/>
        <path d="M583.099,1544.35L669.722,1544.35L629.418,1492.38L583.099,1544.35Z" style="fill:rgb(219,219,219);fill-rule:nonzero;"/>
        <path d="M601.406,1458.07C587.051,1466.46 588.424,1485.48 588.325,1499.43C588.172,1521.04 590.612,1529.58 589.61,1551.08C589.251,1558.77 584.604,1581.31 584.122,1589.01C582.987,1607.13 583.176,1651.03 583.375,1655.56C583.637,1661.54 589.239,1666.47 595.193,1663.2C599.297,1660.95 599.463,1656.18 600.178,1652.11C601.475,1644.73 602.751,1637.35 604.069,1629.97C607.377,1611.44 610.831,1592.94 614.296,1574.44C620.154,1543.17 626.825,1512.01 633.171,1480.83C636.667,1463.06 617.11,1448.89 601.406,1458.07Z" style="fill:rgb(224,154,116);fill-rule:nonzero;"/>
        <path d="M659.183,1467.93C658.336,1449.69 635.67,1440.62 622.655,1453.61C611.078,1465.16 614.74,1476.09 618.041,1489.41C625.158,1518.11 635.267,1540.03 636.807,1553.23C637.85,1562.17 635.617,1567.66 637.613,1591.93C638.944,1608.1 646.12,1651.39 647.182,1657.63C648.355,1664.54 661.537,1667.88 661.659,1664.25C661.936,1655.89 664.293,1577.68 663.825,1558.8C663.006,1525.8 660.502,1500.92 659.183,1467.93Z" style="fill:rgb(224,154,116);fill-rule:nonzero;"/>
        <path d="M601.406,1458.07C587.051,1466.46 588.424,1485.48 588.325,1499.43C588.172,1521.04 590.612,1529.58 589.61,1551.08C589.251,1558.77 584.604,1581.31 584.122,1589.01C583.214,1603.5 583.154,1634.45 583.267,1648.6L600.795,1648.6C601.882,1642.39 602.96,1636.18 604.069,1629.97C607.378,1611.44 610.831,1592.94 614.296,1574.44C620.154,1543.17 626.825,1512.01 633.171,1480.83C636.667,1463.06 617.11,1448.89 601.406,1458.07Z" style="fill:rgb(0,105,110);fill-rule:nonzero;"/>
        <path d="M599.956,1648.6L583.267,1648.6C583.242,1645.39 583.225,1641.32 583.225,1636.78C583.224,1621.27 583.42,1600.22 584.122,1589.01C584.604,1581.31 589.251,1558.77 589.61,1551.08C589.782,1547.39 589.852,1544.07 589.852,1541.01C589.85,1526.82 588.321,1518.01 588.318,1501.42C588.318,1500.77 588.321,1500.11 588.325,1499.43C588.33,1498.78 588.331,1498.11 588.331,1497.44C588.331,1496.31 588.327,1495.16 588.327,1493.99C588.327,1486.3 588.505,1477.78 591.198,1470.58C590.9,1475.41 590.865,1481.04 591.293,1487.46L606.919,1488.6L618.042,1489.41C619.656,1495.92 621.425,1502.08 623.212,1507.87C619.885,1509.18 617.23,1512.13 617.067,1516.72C615.944,1548.36 608.639,1578.87 605.065,1610.19C604.579,1614.44 604.135,1617.21 603.133,1622.7C602.093,1628.41 601.137,1634.15 600.508,1639.92C600.198,1642.77 599.978,1645.68 599.956,1648.6Z" style="fill:rgb(0,94,99);fill-rule:nonzero;"/>
        <path d="M659.183,1467.93C658.336,1449.69 635.67,1440.62 622.655,1453.61C611.079,1465.16 614.74,1476.09 618.042,1489.41C625.158,1518.11 635.267,1540.03 636.807,1553.23C637.851,1562.17 635.617,1567.66 637.613,1591.93C638.647,1604.48 643.201,1633.38 645.685,1648.6L662.131,1648.6C662.883,1622.58 664.183,1573.27 663.825,1558.8C663.007,1525.8 660.502,1500.92 659.183,1467.93Z" style="fill:rgb(0,105,110);fill-rule:nonzero;"/>
        <path d="M689.679,1296.64C688.522,1301.75 680.461,1335.94 678.317,1336.51C668.168,1339.18 652.534,1338.3 642.303,1336.94C634.275,1335.87 625.446,1333.96 620.813,1342.65C616.571,1350.6 621.58,1360.36 630.343,1361.94C638.601,1363.42 648.266,1362.18 656.557,1361.7C668.62,1361 691.709,1359.26 695.611,1350.67C699.536,1342.03 700.469,1307.08 701.171,1297.77C701.589,1292.25 690.85,1291.47 689.679,1296.64Z" style="fill:rgb(255,166,31);fill-rule:nonzero;"/>
        <path d="M581.711,1428.13C581.731,1425.06 592.541,1388.88 597.065,1377.98C600.233,1370.35 602.906,1362.25 594.837,1355.8C578.585,1342.82 571.233,1370.15 568.885,1381.37C566.783,1391.42 560.891,1420.26 560.942,1430.58C560.959,1433.9 561.569,1436.49 563.101,1439.56C568.429,1450.23 579.356,1458.67 588.356,1466.11C591.414,1468.63 595.367,1473.13 599.234,1474.39C604.908,1476.25 610.163,1469.37 605.67,1464.72C599.049,1457.86 581.684,1431.94 581.711,1428.13Z" style="fill:rgb(255,166,31);fill-rule:nonzero;"/>
        <path d="M591.314,1455.27C589.843,1453.84 588.384,1452.39 586.939,1450.94C581.334,1445.28 575.301,1439.96 573.98,1431.72C571.758,1417.84 578.637,1402.89 582.136,1389.7C582.481,1388.4 582.826,1387.06 583.181,1385.69C584.935,1390.8 586.856,1396.5 588.734,1402.6C585.02,1414.65 581.722,1426.44 581.711,1428.13C581.696,1430.23 586.99,1439.09 592.849,1447.75C592.271,1450.58 591.705,1453.16 591.314,1455.27Z" style="fill:rgb(242,158,29);fill-rule:nonzero;"/>
        <path d="M595.571,1448.16C595.571,1448.16 589.537,1461.13 591.293,1487.46L658.885,1492.38C658.885,1492.38 661.918,1463.08 655.128,1445.93C655.128,1445.93 624.429,1432.27 595.571,1448.16Z" style="fill:rgb(0,105,110);fill-rule:nonzero;"/>
        <path d="M661.003,1502.27C660.765,1498.42 660.529,1494.52 660.301,1490.56L660.303,1490.56C660.53,1494.52 660.765,1498.42 661.003,1502.27Z" style="fill:rgb(165,207,203);fill-rule:nonzero;"/>
        <path d="M659.573,1476.72L659.569,1476.72C659.566,1476.65 659.563,1476.58 659.559,1476.51L659.559,1476.43C659.563,1476.53 659.568,1476.63 659.573,1476.72Z" style="fill:rgb(229,229,229);fill-rule:nonzero;"/>
        <path d="M659.716,1479.65L659.712,1479.65C659.664,1478.68 659.616,1477.7 659.569,1476.72L659.573,1476.72C659.619,1477.7 659.667,1478.68 659.716,1479.65Z" style="fill:rgb(213,213,213);fill-rule:nonzero;"/>
        <path d="M660.303,1490.56L660.301,1490.56C660.096,1486.99 659.898,1483.36 659.712,1479.65L659.716,1479.65C659.901,1483.36 660.099,1486.99 660.303,1490.56Z" style="fill:rgb(229,229,229);fill-rule:nonzero;"/>
        <path d="M657.988,1648.6L645.685,1648.6C643.201,1633.38 638.647,1604.48 637.613,1591.93C636.942,1583.77 636.749,1577.74 636.749,1572.98C636.748,1566.54 637.101,1562.44 637.101,1558.59C637.1,1556.82 637.025,1555.1 636.807,1553.23C635.616,1543.02 629.303,1527.6 623.212,1507.87C621.425,1502.08 619.656,1495.92 618.042,1489.41L658.885,1492.38C658.885,1492.38 659.595,1485.53 659.559,1476.51C659.563,1476.58 659.566,1476.65 659.569,1476.72C659.616,1477.7 659.664,1478.68 659.712,1479.65C659.898,1483.36 660.096,1486.99 660.301,1490.56C660.529,1494.52 660.765,1498.42 661.003,1502.27C661.381,1508.41 661.765,1514.46 662.128,1520.57C657.554,1521.23 652.678,1525.51 653.317,1530.47C655.111,1544.39 654.945,1558.38 654.989,1572.38C655.029,1584.91 655.474,1597.44 655.556,1609.98C655.639,1622.84 655.963,1635.9 657.988,1648.6Z" style="fill:rgb(0,94,99);fill-rule:nonzero;"/>
        <path d="M658.885,1492.38L618.042,1489.41L606.919,1488.6L591.294,1487.46C590.369,1473.6 591.603,1463.44 592.979,1456.93L633.581,1456.93C643.081,1456.93 654.836,1455.17 657.645,1454.72C659.085,1461.85 659.525,1469.7 659.556,1476.38C659.557,1476.4 659.558,1476.42 659.559,1476.43L659.559,1476.51C659.595,1485.53 658.885,1492.38 658.885,1492.38Z" style="fill:rgb(0,94,99);fill-rule:nonzero;"/>
        <path d="M651.276,1364.42C650.196,1362.12 656.275,1347.28 653.498,1341.91C651.721,1338.47 638.45,1336.59 631.425,1336.06C617.504,1335.01 594.188,1340.77 582.499,1351.9C582.499,1351.9 575.263,1356.36 576.376,1364.15C577.489,1371.94 588.359,1396.74 594.572,1424.22C596.748,1433.84 592.143,1449.69 591.029,1456.93L633.581,1456.93C644.449,1456.93 658.269,1454.62 658.269,1454.62C658.269,1454.62 652.076,1399.22 650.962,1391.98C649.849,1384.74 661.474,1386.13 651.276,1364.42Z" style="fill:rgb(255,166,31);fill-rule:nonzero;"/>
        <path d="M599.292,1325.13C600.463,1337.63 597.288,1343.4 597.288,1343.4C597.288,1343.4 611.98,1345.29 619.254,1337.16L617.827,1323.59C617.827,1323.59 598.968,1321.67 599.292,1325.13Z" style="fill:rgb(224,154,116);fill-rule:nonzero;"/>
        <path d="M597.182,1286.84C589.68,1293.11 587.001,1302.81 588.073,1307.66C589.145,1312.5 599.049,1329.68 599.049,1329.68C599.049,1329.68 616.001,1333.94 625.11,1329.38C634.219,1324.82 630.401,1296.53 620.757,1286.84C620.757,1286.84 604.683,1280.56 597.182,1286.84Z" style="fill:rgb(224,154,116);fill-rule:nonzero;"/>
        <path d="M622.068,1282.88C615.303,1282.13 604.879,1279.98 595.773,1285.31C586.668,1290.64 583.662,1305 589.937,1318.58C592.982,1325.18 599.453,1332.39 601.492,1332.9C606.055,1334.05 614.138,1333.76 616.383,1331.41C620.744,1326.84 623.552,1304.28 626.743,1301.81C629.933,1299.34 631.424,1298.95 631.424,1298.95C631.424,1298.95 632.648,1284.05 622.068,1282.88Z" style="fill:rgb(4,49,72);fill-rule:nonzero;"/>
        <path d="M620.021,1308.28C619.502,1312.41 619.502,1317.86 622.099,1317.08C624.697,1316.3 624.178,1308 624.178,1308C624.178,1308 620.541,1304.15 620.021,1308.28Z" style="fill:rgb(224,154,116);fill-rule:nonzero;"/>
        <path d="M580.36,1305.75C577.717,1312.29 585.148,1333.05 596.975,1325.83C608.803,1318.61 596.975,1301.71 596.975,1301.71C596.975,1301.71 584.27,1296.07 580.36,1305.75Z" style="fill:rgb(4,49,72);fill-rule:nonzero;"/>
        <path d="M679.087,1667.95C672.649,1666.9 662.211,1658.18 662.211,1658.18L646.896,1658.18C646.896,1658.18 641.138,1670.41 646.358,1677.73C646.358,1677.73 669.332,1677.53 678.112,1677.73C681.224,1677.8 686.013,1677.04 686.988,1674.4C686.988,1674.4 685.525,1669 679.087,1667.95Z" style="fill:white;fill-rule:nonzero;"/>
        <path d="M646.896,1658.18C646.896,1658.18 641.138,1670.41 646.358,1677.73C646.358,1677.73 657.035,1677.64 666.613,1677.64C662.739,1671.9 660.394,1665.18 659.023,1658.18L646.896,1658.18Z" style="fill:rgb(245,245,245);fill-rule:nonzero;"/>
        <path d="M599.188,1658.18C595.344,1658.84 590.502,1658.37 586.611,1658.41C585.305,1658.43 584.052,1658.14 582.91,1657.63C581.221,1663.09 578.154,1675.17 583.099,1677.73L611.98,1677.73C611.98,1677.73 617.924,1675.97 613.437,1668.82C613.437,1668.82 602.093,1662.86 599.188,1658.18Z" style="fill:white;fill-rule:nonzero;"/>
        <path d="M586.611,1658.41C585.305,1658.43 584.052,1658.14 582.91,1657.63C581.221,1663.09 578.154,1675.17 583.099,1677.73L599.699,1677.73C595.108,1672.29 592.42,1665.65 591.094,1658.49C589.538,1658.45 588.012,1658.4 586.611,1658.41Z" style="fill:rgb(245,245,245);fill-rule:nonzero;"/>
        <path d="M599.018,1337.42L593.352,1344.47C604.614,1347.6 624.22,1336.07 624.22,1336.07L619.254,1335.18C612.682,1336.25 599.018,1337.42 599.018,1337.42Z" style="fill:white;fill-rule:nonzero;"/>
        <path d="M659.601,1388.84C659.56,1380.94 651.276,1364.42 651.276,1364.42C653.585,1396.41 643.612,1419.44 640.686,1424.71C637.759,1429.97 634.248,1432.02 626.639,1434.07C619.03,1436.12 593.843,1437.57 593.843,1437.57C591.774,1444.59 588.777,1461.78 587.846,1471.07C586.08,1488.69 583.099,1544.35 583.099,1544.35C592.159,1544.35 595.718,1537.35 595.369,1528.29C592.139,1444.58 606.218,1440.47 606.218,1440.47L613.229,1439.68C613.229,1439.68 624.22,1450.44 633.09,1516.03C635.4,1533.11 652.488,1544.35 669.722,1544.35C669.722,1544.35 658.886,1458.91 655.813,1432.86C653.771,1415.55 659.616,1391.77 659.601,1388.84Z" style="fill:white;fill-rule:nonzero;"/>
        <path d="M657.937,1526.28C657.333,1524.09 656.784,1521.87 656.269,1519.64C653.058,1506.63 650.167,1493.48 648.107,1480.32C647.268,1474.95 646.613,1469.58 646.103,1464.19C645.576,1462.25 645.019,1460.32 644.387,1458.4C641.362,1449.22 636.845,1440.56 631.362,1432.58C629.981,1433.11 628.427,1433.59 626.639,1434.07C619.03,1436.12 593.843,1437.57 593.843,1437.57C591.774,1444.59 588.777,1461.78 587.846,1471.07C586.08,1488.69 583.099,1544.35 583.099,1544.35C592.159,1544.35 595.718,1537.35 595.369,1528.29C592.139,1444.58 606.218,1440.47 606.218,1440.47L613.229,1439.68C613.229,1439.68 624.22,1450.44 633.09,1516.03C635.103,1530.91 648.341,1541.36 663.118,1543.8C661.826,1540.27 660.642,1536.71 659.688,1533.06C659.099,1530.81 658.515,1528.55 657.937,1526.28Z" style="fill:rgb(245,245,245);fill-rule:nonzero;"/>
        <path d="M601.636,1424.73C599.195,1425.48 595.089,1432.56 597.288,1433.68C599.487,1434.8 608.786,1440.18 608.786,1440.18C608.786,1440.18 604.078,1423.99 601.636,1424.73Z" style="fill:white;fill-rule:nonzero;"/>
        <path d="M613.067,1424.73C610.625,1423.99 605.917,1438.9 605.917,1438.9C605.917,1438.9 615.216,1434.8 617.415,1433.68C619.614,1432.56 615.509,1425.48 613.067,1424.73Z" style="fill:white;fill-rule:nonzero;"/>
        <path d="M656.557,1361.7C668.62,1361 691.709,1359.26 695.611,1350.67C697.108,1347.37 698.17,1340.25 698.95,1332.18C698.17,1340.25 697.108,1347.37 695.611,1350.67C691.71,1359.26 668.62,1361 656.557,1361.7ZM699.666,1323.56C700.434,1312.88 700.83,1302.3 701.171,1297.77C701.172,1297.76 701.173,1297.75 701.174,1297.74C701.173,1297.75 701.172,1297.76 701.171,1297.77C700.83,1302.3 700.434,1312.88 699.666,1323.56Z" style="fill:rgb(92,189,181);fill-rule:nonzero;"/>
        <path d="M701.174,1297.73C701.175,1297.72 701.176,1297.71 701.176,1297.7C701.176,1297.71 701.175,1297.72 701.174,1297.73ZM701.177,1297.69C701.177,1297.68 701.178,1297.68 701.178,1297.67C701.178,1297.68 701.177,1297.68 701.177,1297.69ZM701.179,1297.65C701.179,1297.64 701.179,1297.64 701.18,1297.64C701.179,1297.64 701.179,1297.64 701.179,1297.65Z" style="fill:rgb(92,189,181);fill-rule:nonzero;"/>
        <path d="M651.299,1362.06C651.351,1361.74 651.416,1361.39 651.489,1361.02C660.169,1359.59 668.681,1357.31 677.248,1353.93C684.765,1350.97 691.257,1347.53 694.242,1339.57C696.604,1333.28 699.272,1301.68 699.559,1294.44C700.579,1295.19 701.239,1296.25 701.18,1297.64C701.179,1297.64 701.179,1297.64 701.179,1297.65C701.179,1297.65 701.178,1297.66 701.178,1297.67C701.178,1297.68 701.177,1297.68 701.177,1297.69L701.176,1297.7C701.176,1297.71 701.175,1297.72 701.174,1297.73L701.174,1297.74C701.173,1297.75 701.172,1297.76 701.171,1297.77C700.83,1302.3 700.434,1312.88 699.666,1323.56C699.457,1326.47 699.22,1329.38 698.95,1332.18C698.17,1340.25 697.108,1347.37 695.611,1350.67C691.709,1359.26 668.62,1361 656.557,1361.7C654.854,1361.8 653.093,1361.93 651.299,1362.06Z" style="fill:rgb(242,158,29);fill-rule:nonzero;"/>
        <path d="M639.615,1362.61C638.966,1362.61 638.319,1362.61 637.675,1362.59C642.347,1362.28 646.941,1361.77 651.489,1361.02C651.416,1361.39 651.351,1361.74 651.299,1362.06C647.479,1362.33 643.509,1362.61 639.615,1362.61Z" style="fill:rgb(242,158,29);fill-rule:nonzero;"/>
        <path d="M759.793,1677.73L813.265,1677.73L820.8,1600.67L752.259,1600.67L759.793,1677.73Z" style="fill:rgb(234,70,0);fill-rule:nonzero;"/>
        <path d="M788.447,1677.73L759.793,1677.73L759.69,1676.68L752.259,1600.67L769.962,1600.67C769.36,1622.11 768.4,1644.68 777.936,1664.05C780.25,1668.74 783.878,1674.05 788.447,1677.73Z" style="fill:rgb(222,66,0);fill-rule:nonzero;"/>
        <path d="M820.8,1598.11L752.258,1598.11C750.843,1598.11 749.695,1599.25 749.695,1600.67C749.695,1602.09 750.843,1603.23 752.258,1603.23L820.8,1603.23C822.216,1603.23 823.363,1602.09 823.363,1600.67C823.363,1599.25 822.216,1598.11 820.8,1598.11Z" style="fill:rgb(238,125,69);fill-rule:nonzero;"/>
        <path d="M787.05,1565.84C774.183,1565.84 764.103,1579.03 764.103,1595.87L764.103,1597.99L768.329,1597.99L768.329,1595.87C768.329,1581.4 776.552,1570.07 787.05,1570.07C797.372,1570.07 805.77,1582.21 805.77,1597.12L805.77,1609.65L809.996,1609.65L809.996,1597.12C809.996,1579.88 799.702,1565.84 787.05,1565.84Z" style="fill:rgb(156,169,176);fill-rule:nonzero;"/>
        <path d="M807.697,1604.3C805.926,1604.3 804.491,1605.73 804.491,1607.51C804.491,1609.28 805.926,1610.71 807.697,1610.71C809.469,1610.71 810.904,1609.28 810.904,1607.51C810.904,1605.73 809.469,1604.3 807.697,1604.3Z" style="fill:rgb(156,178,188);fill-rule:nonzero;"/>
    </g>
</svg>
